<?xml version="1.0" ?><!DOCTYPE svg  PUBLIC '-//W3C//DTD SVG 1.1//EN'  'http://www.w3.org/Graphics/SVG/1.1/DTD/svg11.dtd'><svg enable-background="new 0 0 100 100" height="100px" id="Layer_1" version="1.1" viewBox="0 0 100 100" width="100px" xml:space="preserve" xmlns="http://www.w3.org/2000/svg" xmlns:xlink="http://www.w3.org/1999/xlink"><path d="M80.541,92.35V36.842l-25-10.185V4.65L19.554,18.802V92.35h-7.013v3h74.917v-3H80.541z M22.554,92.35v-5h19.987v-3H22.554  v-4h19.987v-3H22.554v-3.998h19.987v-3H22.554v-4h19.987v-3H22.554v-4h19.987v-3H22.554v-4h19.987v-3H22.554v-3.999h19.987v-3  H22.554v-4h19.987v-3H22.554v-4h19.987v-3H22.554v-7.508L52.541,9.052v16.383V92.35H22.554z M55.541,92.35v-3h10v-3h-10v-4h10v-3  h-10v-3.998h10v-3h-10v-4h10v-3h-10v-4h10v-3h-10v-4h10v-3h-10v-4h10v-3h-10v-3.999h10v-3h-10v-7.457l22,8.964v53.49H55.541z" fill="#fff"/></svg>