<?xml version="1.0" ?><!DOCTYPE svg  PUBLIC '-//W3C//DTD SVG 1.1//EN'  'http://www.w3.org/Graphics/SVG/1.1/DTD/svg11.dtd'><svg enable-background="new 0 0 128 128" height="128px" id="Layer_1" version="1.1" viewBox="0 0 128 128" width="128px" xml:space="preserve" xmlns="http://www.w3.org/2000/svg" xmlns:xlink="http://www.w3.org/1999/xlink"><path d="M88,54.5l-3,2.7l24.8,21.7c0.8,0.7,2.1,0.6,2.8-0.2c0.7-0.8,0.6-2.1-0.2-2.8L88,54.5z" fill="#fff"/><path d="M112.5,27.7c-0.7-0.8-2-0.9-2.8-0.2L72,60.4l-38.2-33c-0.8-0.7-2.1-0.6-2.8,0.2c-0.7,0.8-0.6,2.1,0.2,2.8  l39.5,34.1c0.4,0.3,0.8,0.5,1.3,0.5c0.5,0,0.9-0.2,1.3-0.5c0,0,0,0,0,0l39-34.1C113.1,29.8,113.2,28.5,112.5,27.7z" fill="#fff"/><path d="M43.6,84c1.8,1.5,3.4,2.9,4.9,4h17c1.2-1.7,2.7-3.1,4.3-4H43.6z" fill="#fff"/><path d="M112,17H32c-5.5,0-10,4.5-10,10v4.9c1.1,0.4,2.4,1,4,2v-7c0-3.3,2.7-6,6-6h80c3.3,0,6,2.7,6,6v51  c0,3.3-2.7,6-6,6H78.8c1.6,0.8,3.8,2.1,6.9,4H112c5.5,0,10-4.5,10-10V27C122,21.5,117.5,17,112,17z" fill="#fff"/><path d="M36.3,76.6l22.6-19.5l-3.1-2.6l-22,19C34.6,74.4,35.4,75.5,36.3,76.6z" fill="#fff"/><path d="M19.3,37.4c1.2,0.2,5,1.7,10,8.1c3,3.8,4.9,6.1,5.4,7.3c0.2,0.4,0.2,0.4-0.1,2.2c-0.4,2.1-3.1,4.4-7.1,5.9  l-2.3,0.9l-0.2,2.5c-0.4,6.2,1.8,12.4,14.2,23.8l0,0l0,0c9.4,8.1,16.8,12.9,25,11.5l0.2,0l2.6-0.5l0.6-2.6c0.7-3.1,3.6-7.1,5-7.6  c0.6-0.2,1.1-0.3,1.4-0.4c0.9-0.1,3.5,1.4,8.7,4.6c6.8,4.3,8.8,7.9,9.1,9.1c-2.7,6.5-10.9,9.8-15.3,11.2c-8.9-2-22.7-7.2-39.5-20.6  c-0.4-0.3-2.2-1.9-2.5-2.3C19.7,75.6,13,62.4,10,53.8C10.8,49.4,13.2,40.8,19.3,37.4 M18.5,33.4c-0.2,0-0.4,0.1-0.6,0.2  c-1.9,1-9.5,5.1-12.1,20.5c2.6,8,9.1,22.4,26.1,39.5c0.4,0.5,2.4,2.2,2.9,2.6c18.9,15,34,19.8,42.2,21.6c15-4.3,18.3-12.3,19-14.3  c0.7-2-1.6-7.6-10.9-13.5c-7.5-4.7-9.3-5.5-11.5-5.2c-0.6,0.1-1.1,0.3-1.8,0.5c-3.5,1-7,6.9-7.8,10.5c-0.1,0-0.1,0-0.2,0  c-6.1,1-12.2-2.3-21.7-10.6c-9.5-8.7-13.4-14.4-12.9-20.6c4.6-1.8,8.8-4.9,9.5-9c0.7-4.1,0.7-4.1-6.1-12.7  C26.3,35.1,20.9,33,18.5,33.4L18.5,33.4z" fill="#fff"/></svg>