<?xml version="1.0" ?><!DOCTYPE svg  PUBLIC '-//W3C//DTD SVG 1.1//EN'  'http://www.w3.org/Graphics/SVG/1.1/DTD/svg11.dtd'><svg height="2048px" style="shape-rendering:geometricPrecision; text-rendering:geometricPrecision; image-rendering:optimizeQuality; fill-rule:evenodd; clip-rule:evenodd" viewBox="0 0 2048 2048" width="2048px" xml:space="preserve" xmlns="http://www.w3.org/2000/svg" xmlns:xlink="http://www.w3.org/1999/xlink"><defs><style type="text/css">
   <![CDATA[
    .fil1 {fill:none}
    .fil0 {fill:#000;fill-rule:nonzero}
   ]]>
  </style></defs><g id="Layer_x0020_1"><g id="_454874440"><g><path class="fil0" d="M645.508 796.516c-4.41851,3.03898 -5.09528,4.05473 -9.38859,8.34804 -26.1555,26.1555 -39.528,67.33 -43.7717,106.124 -4.14922,37.9276 -0.285827,71.067 8.5819,83.9587 0.0578741,0.0850394 0.00708662,-0.0330709 0.201969,0.161811l-45.2504 45.2504c-2.46732,-2.46732 -4.95827,-5.53819 -7.45158,-9.16182 -16.7067,-24.287 -25.2992,-74.7012 -19.5827,-126.96 5.62205,-51.3933 24.4477,-107.049 62.0221,-144.624 6.50552,-6.50552 10.5413,-10.3063 18.776,-15.9697l35.863 52.8721z" id="_454877872"/><path class="fil0" d="M1234.02 1198.21l61.5095 -61.5 -250.795 -250.826c-28.7705,12.7488 -59.0445,20.9563 -89.7284,24.5929 4.00276,-21.9862 7.14686,-44.113 9.50788,-66.0591 24.7335,-4.68426 48.9154,-13.1563 71.6162,-25.3914l20.9563 -11.2949 16.7941 16.7953 289.525 289.562 22.6252 22.6276 -22.6252 22.6229 -84.1347 84.1217 -0.0625985 -0.0625985c-1.45512,1.50354 -2.1815,3.51142 -2.1815,5.56182 0,2.07874 0.747638,4.1126 2.24173,5.62323l55.9689 55.9524 0.125197 0c1.49528,1.49528 3.45591,2.2441 5.413,2.2441 1.95709,0 3.91654,-0.748819 5.41182,-2.2441l0.0625985 0.0625985 84.1087 -84.2174 22.6417 -22.6725 22.6087 22.6725 56.0918 56.25 22.5319 22.5957 -22.5319 22.5295 -84.1335 84.1205 -0.0708662 0.0708662 -0.0625985 -0.0625985c-1.42677,1.46575 -2.14016,3.42166 -2.14016,5.413l-0.125197 0c0,1.91339 0.755906,3.86693 2.26536,5.41182l0.0625985 -0.0625985 0.0708662 0.0708662 56.0871 56.0752c1.49528,1.49528 3.45827,2.2441 5.42126,2.2441 1.96181,0 3.92481,-0.748819 5.42008,-2.2441l84.1217 -84.1205 22.6252 -22.6252 22.6252 22.6252c9.163,9.163 21.2977,13.7457 33.4583,13.7457 12.1595,0 24.2953,-4.58268 33.4583,-13.7457l0.125197 0c4.41378,-4.4067 7.78229,-9.57875 10.0961,-15.1618 2.4378,-5.88308 3.66733,-12.0331 3.68386,-18.0685l-0.125197 0 0 -0.457087 0.125197 0c-0.0165354,-6.03662 -1.24606,-12.1878 -3.68268,-18.0685 -2.31378,-5.58189 -5.68347,-10.7539 -10.0973,-15.1606l-0.125197 0 -570.025 -570.146 -16.7988 -16.8012 11.2984 -20.9492c25.4717,-47.2264 34.6477,-100.954 27.2351,-152.699 -7.17638,-50.0894 -29.9457,-98.3304 -68.5725,-136.993l-0.0625985 0.0625985c-47.9741,-47.9741 -110.862,-71.9634 -173.75,-71.9634 -62.8878,0 -125.776,23.9894 -173.751,71.9634 -47.9008,47.8961 -71.8524,110.744 -71.8524,173.613 0,62.928 23.9327,125.839 71.7957,173.798 26.5382,26.4768 57.5493,45.5103 90.5587,57.1843 -2.38347,21.2811 -5.61969,42.7772 -9.8256,64.0288 -45.9697,-14.2441 -89.256,-39.5433 -125.802,-76.0312l-0.125197 -0.125197c-60.4016,-60.4843 -90.6036,-139.702 -90.6036,-218.855 0,-79.2402 30.202,-158.467 90.6036,-218.863 60.476,-60.4748 139.74,-90.7146 219.001,-90.7146 79.2615,0 158.525,30.2398 219,90.7146l0 0.125197c48.7985,48.8091 77.5666,109.754 86.6351,173.055 8.20276,57.2658 0.242126,116.459 -23.6268,170.31l553.917 554.034 -0.0625985 0.0625985c10.6358,10.6335 18.6473,22.8508 24.0355,35.8477 5.57835,13.461 8.39174,27.9579 8.43308,42.5693l0.125197 0 0 0.457087 -0.125197 0c-0.0413386,14.6114 -2.85355,29.1071 -8.43426,42.5693 -5.38701,12.9969 -13.3973,25.2118 -24.0343,35.8488l0.0625985 0.0625985c-21.665,21.665 -50.2016,32.4969 -78.7087,32.4969 -18.1689,0 -36.3485,-4.40079 -52.754,-13.2012l-64.826 64.8249c-13.9973,13.9973 -32.3351,20.9953 -50.6705,20.9953 -18.3366,0 -36.6744,-6.99804 -50.6717,-20.9953l-56.0871 -56.0752 -0.0708662 -0.0708662 0 -0.125197c-13.8839,-13.9181 -20.8276,-32.1803 -20.8288,-50.4744l-0.125197 0c0,-18.2185 6.98623,-36.4748 20.954,-50.4756l0 -0.125197 0.0708662 -0.0708662 61.6004 -61.591 -10.9512 -10.9831 -61.5284 61.6087 0 0.125197c-13.9937,13.9961 -32.3292,20.9953 -50.6622,20.9953 -18.3331,0 -36.6662,-6.99804 -50.6634,-20.9953l0.0625985 -0.0625985 -56.0292 -56.0126 -0.125197 -0.125197c-13.9937,-14.139 -20.9953,-32.4047 -20.9953,-50.6256 0,-18.2185 7.00158,-36.4855 20.9953,-50.6244l0 -0.125197zm-252.34 -655.812c-16.9878,-16.9878 -39.2811,-25.4835 -61.5768,-25.4835 -22.2969,0 -44.589,8.49568 -61.578,25.4835l-0.00708662 0.00708662 -0.0625985 -0.0625985c-16.8685,16.9063 -25.3051,39.2162 -25.3051,61.565 0,14.8335 3.74292,29.6563 11.2252,42.8977 -0.585827,25.2839 -1.43976,57.404 -2.28307,86.3056 -10.2165,-6.1689 -19.8626,-13.6524 -28.6925,-22.454l-0.125197 0 -0.00708662 -0.00708662c-29.4118,-29.4107 -44.1189,-68.0859 -44.1189,-106.742 0,-38.5772 14.7083,-77.2099 44.1189,-106.628l0 -0.125197 0.00708662 -0.00708662c29.4898,-29.4886 68.1627,-44.2347 106.828,-44.2347 38.6646,0 77.3386,14.7461 106.827,44.2347l0.00708662 0.00708662 0 0.125197c29.4118,29.4189 44.1189,68.0504 44.1189,106.628 0,38.6563 -14.7083,77.3327 -44.1189,106.742l-0.00708662 0.00708662 -0.125197 0c-15.313,15.2658 -33.0839,26.5689 -52.0264,33.913 2.32205,-28.5886 3.39567,-53.7556 3.3567,-75.7111 1.22717,-1.08898 2.42953,-2.21929 3.60709,-3.38977l-0.0625985 -0.0625985 0.00708662 -0.00708662c16.9099,-16.9099 25.3677,-39.1914 25.3677,-61.4918 0,-22.3488 -8.43544,-44.6575 -25.3051,-61.565l-0.0625985 0.0625985 -0.00708662 -0.00708662z" id="_454876216"/><path class="fil0" d="M329.431 1401.49l54.6898 0 32.0008 0 0 32.0008 0 256.247 182.399 0 0 -186.512 0 -32.0008 32.0008 0 116.23 0 32.0008 0 0 32.0008 0 186.512 173.098 0 0 -256.247 0 -32.0008 32.0008 0 68.9493 0 -225.317 -228.49c17.0681,-12.3354 31.9618,-27.8988 44.9433,-45.3142l232.739 236.016c8.4626,8.51457 13.9347,19.1433 16.1669,30.3071 2.2441,11.2205 1.20236,23.2323 -3.37677,34.4067l-0.0448819 -0.0177165c-4.57441,11.1284 -12.3354,20.4142 -21.9142,26.8571 -9.65079,6.49371 -21.1441,10.2366 -33.1087,10.2366l-47.0363 0 0 228.349c0,16.4173 -6.72756,31.3607 -17.5689,42.2044 -10.9122,10.9181 -25.8992,17.6953 -42.3225,17.6953l-181.318 0c-16.4221,0 -31.4091,-6.77717 -42.3225,-17.6953 -10.8413,-10.8437 -17.5689,-25.787 -17.5689,-42.2044l0 -158.613 -52.2284 0 0 158.613c0,16.4162 -6.73111,31.3583 -17.5689,42.202 -10.9134,10.9181 -25.9016,17.6977 -42.3189,17.6977l-190.615 0c-16.4185,0 -31.3607,-6.73111 -42.2032,-17.5713l-0.125197 -0.125197c-10.839,-10.8425 -17.5713,-25.7847 -17.5713,-42.2032l0 -228.349 -33.0874 0c-11.9504,0 -23.5299,-3.61772 -33.3107,-10.1988 -9.71457,-6.53268 -17.5051,-15.8693 -22.0051,-27.3768 -1.39725,-3.56457 -2.44488,-7.21064 -3.14646,-10.8874l0 -0.125197c-0.675591,-3.54567 -1.01221,-7.32993 -1.01457,-11.2854l-0.125197 0 0 -0.151181 0.125197 -0.125197c0.0401575,-8.18268 1.63701,-16.1303 4.74567,-23.3575 3.0874,-7.1752 7.69961,-13.8626 13.7953,-19.6217l0.00590552 0.00590552 379.452 -368.302 0.00236221 0.00236221c11.6587,-11.4555 26.8654,-16.9725 42.0201,-16.7953l0 0.00236221c15.2162,0.206693 30.3981,6.12284 41.778,17.4957l0.250394 0.250394 39.3012 39.8551c-8.25119,14.3398 -17.8394,27.0921 -28.5083,34.689 -8.31379,5.92087 -17.4177,4.73859 -25.9347,0.992127l-27.4264 -27.8126 -369.606 358.745z" id="_454882288"/><path class="fil0" d="M873.68 555.206c60.1099,15.4417 72.1111,124.707 61.4941,259.25 -5.15552,65.3233 -17.7697,133.807 -37.6902,192.287 -21.0378,61.7587 -50.7981,113.308 -89.5241,140.884 -43.2827,30.8233 -94.1705,33.3792 -151.952,-7.89331l36.9992 -51.9993c31.5555,22.539 57.4028,22.5284 77.954,7.89331 26.8169,-19.0961 49.0111,-59.4473 66.0225,-109.384 18.1264,-53.2146 29.661,-116.232 34.4398,-176.789 8.35631,-105.9 11.1402,-192.362 -15.6437,-199.241l17.9008 -55.0075z" id="_454885744"/></g><rect class="fil1" height="1536" id="_454886560" width="1536" x="256" y="256"/><rect class="fil1" height="2048" id="_454883152" width="2048"/></g></g></svg>