<?xml version="1.0" ?><svg id="Layer_1" style="enable-background:new 0 0 91 91;" version="1.1" viewBox="0 0 91 91" xml:space="preserve" xmlns="http://www.w3.org/2000/svg" xmlns:xlink="http://www.w3.org/1999/xlink"><style type="text/css">
	.st0{fill:#ba8c65;}
</style><g><g><path class="st0" d="M89.2,65.1l-16.6-43c-0.2-0.5-0.5-0.8-1-1l-16.7-7.5C53.5,7,48.2-0.1,37.8,1.2c-5.1,0.6-9.2,3.4-11.5,7.8    c-1.5,0.3-3,0.7-4.5,1.4c-4.2,1.9-7.4,5.4-9,9.7c-2.1,5.6-1.1,11.8,2.5,16.5l-3.8,10.3c-0.2,0.5-0.1,1,0.1,1.4    c0.2,0.4,0.6,0.8,1,1l3.5,1.3l-1.7,4.6l-3.9-1.4c-0.9-0.3-1.9,0.1-2.3,1l-3.7,8.7c-0.2,0.5-0.2,1,0,1.4c0.2,0.5,0.6,0.8,1.1,1    l3.8,1.4l-1.4,3.5l-2.4-0.9c-1-0.4-2,0.1-2.4,1.1l-2.5,6.8c-0.2,0.5-0.1,1.1,0.1,1.5l4.4,8.1c0.3,0.6,1,1,1.6,1    c0.2,0,0.5-0.1,0.7-0.2l8.4-3.7c0.4-0.2,0.8-0.6,1-1l15.6-40.5c2-0.4,3.8-1.2,5.5-2.2l17.1,44.1c0.3,0.7,1,1.2,1.7,1.2    c0.2,0,0.4,0,0.6-0.1l26.3-8.9c2.3-0.9,4.1-2.6,5.2-4.8C90,70,90.1,67.4,89.2,65.1z M38.3,4.8c6.5-0.8,10.3,2.6,12.2,6.8l-1.6-0.7    c-0.9-0.4-1.9-0.1-2.3,0.7l-2.9,5c-2-3-4.9-5.5-8.5-6.8c-1.4-0.5-2.8-0.8-4.3-1C32.2,7,34.6,5.3,38.3,4.8z M31.1,39.5    c-0.7,0.1-1.2,0.5-1.4,1.2L13.9,81.4l-6.2,2.7l-3.2-5.9L6.1,74l2.4,0.9c0.9,0.3,2-0.1,2.3-1.1l2.7-6.9c0.2-0.5,0.2-1,0-1.4    c-0.2-0.5-0.6-0.8-1-1l-3.8-1.4l2.3-5.3l4,1.5c0.9,0.4,2-0.1,2.4-1.1l3-8.1c0.2-0.5,0.1-1-0.1-1.4c-0.2-0.4-0.6-0.8-1-1l-3.5-1.3    l3.5-9.6c0.2-0.6,0.1-1.3-0.3-1.8c-3.3-3.8-4.3-9-2.5-13.7c1.3-3.4,3.8-6.1,7.1-7.7c0.5-0.2,0.9-0.4,1.4-0.6    c-0.6,2.8-0.5,5.7,0.2,8.3c-1.3,1.1-2.1,2.7-2.1,4.5c0,3.3,2.7,6,6,6s6-2.7,6-6s-2.7-6-6-6c-0.2,0-0.3,0-0.5,0.1    c-0.6-2.4-0.5-5.1,0.4-7.5c1.7,0,3.4,0.2,5,0.8c7,2.6,10.7,10.4,8.1,17.5C40.1,35.4,36,38.7,31.1,39.5z M26.8,25.1    c0.3,0.4,0.5,0.8,0.8,1.1c0.4,0.4,0.9,0.7,1.4,0.7c0.4,0,0.8-0.1,1.2-0.4c0.7-0.6,0.8-1.5,0.4-2.2c0.4,0.4,0.7,1,0.7,1.7    c0,1.3-1.1,2.3-2.3,2.3s-2.3-1.1-2.3-2.3C26.6,25.6,26.7,25.3,26.8,25.1z M85.6,70.7c-0.6,1.4-1.7,2.4-3.1,2.9L58,81.9L41.2,38.4    c0,0,0,0,0,0c1.8-1.8,3.2-3.9,4.1-6.4c0,0,0,0,0,0c0-0.1,0.1-0.2,0.1-0.3c2.8-1.1,5.3-3.1,7.1-5.6c0.2,0,0.4-0.1,0.6-0.2    c0,0,0,0,0,0c1.6-0.6,2.4-2.4,1.8-4c-0.6-1.6-2.4-2.4-4-1.8c-1.6,0.6-2.4,2.4-1.8,4c0,0.1,0.1,0.2,0.1,0.3c-0.8,1-1.8,1.9-2.8,2.6    c0.1-2.2-0.2-4.4-0.9-6.4l3.3-5.7l20.6,9.3l16.4,42.2C86.3,67.8,86.2,69.3,85.6,70.7z"/><path class="st0" d="M63.7,40.5c-6.9,0-12.4,5.6-12.4,12.4s5.6,12.4,12.4,12.4s12.4-5.6,12.4-12.4S70.6,40.5,63.7,40.5z     M63.7,61.7c-4.8,0-8.8-3.9-8.8-8.8s3.9-8.8,8.8-8.8s8.8,3.9,8.8,8.8S68.5,61.7,63.7,61.7z"/></g></g></svg>