<?xml version="1.0" ?><!DOCTYPE svg  PUBLIC '-//W3C//DTD SVG 1.1//EN'  'http://www.w3.org/Graphics/SVG/1.1/DTD/svg11.dtd'><svg enable-background="new 0 0 32 32" height="32px" id="Layer_1" version="1.1" viewBox="0 0 32 32" width="32px" xml:space="preserve" xmlns="http://www.w3.org/2000/svg" xmlns:xlink="http://www.w3.org/1999/xlink"><g id="home_loan"><g><g><path d="M23.016,7.438V4h1v2.5c0,0.276,0.224,0.5,0.5,0.5s0.5-0.224,0.5-0.5v-3c0-0.276-0.224-0.5-0.5-0.5h-2     c-0.276,0-0.5,0.224-0.5,0.5v2.813L23.016,7.438z" fill="#fff"/></g><g><g><path d="M25.516,19c-0.276,0-0.5-0.224-0.5-0.5v-6c0-0.276,0.224-0.5,0.5-0.5h0.887l-6.887-7.747L12.629,12      h0.887c0.276,0,0.5,0.224,0.5,0.5V18c0,0.276-0.224,0.5-0.5,0.5s-0.5-0.224-0.5-0.5v-5h-1.5c-0.197,0-0.375-0.115-0.456-0.295      s-0.048-0.39,0.083-0.537l8-9c0.189-0.213,0.558-0.213,0.747,0l8,9c0.131,0.147,0.163,0.357,0.083,0.537S27.712,13,27.516,13      h-1.5v5.5C26.016,18.776,25.792,19,25.516,19z" fill="#fff"/></g></g><g><g><g><g><g><path d="M19.516,17.999c1.402,0,2.5-1.098,2.5-2.5c0-1.135-0.771-1.962-2.291-2.458l-0.113-0.037         c-0.569-0.186-1.096-0.436-1.096-1.005c0-0.589,0.411-1,1-1c0.704,0,1.174,0.378,1.178,0.382         c0.213,0.178,0.527,0.15,0.705-0.06c0.178-0.212,0.15-0.526-0.061-0.704c-0.03-0.025-0.746-0.618-1.822-0.618         c-1.141,0-2,0.86-2,2c0,1.374,1.344,1.813,1.785,1.955l0.113,0.037c1.078,0.352,1.602,0.846,1.602,1.508         c0,0.855-0.645,1.5-1.5,1.5c-0.928,0-1.459-0.612-1.6-0.8c-0.166-0.222-0.48-0.265-0.7-0.101         c-0.222,0.166-0.267,0.479-0.101,0.7C17.326,17.081,18.124,17.999,19.516,17.999z" fill="#fff"/></g></g></g></g><g><g><g><g><path d="M19.516,18.999c0.276,0,0.5-0.224,0.5-0.5v-0.5c0-0.276-0.224-0.5-0.5-0.5s-0.5,0.224-0.5,0.5v0.5         C19.016,18.775,19.239,18.999,19.516,18.999z" fill="#fff"/></g></g></g></g><g><g><g><g><path d="M19.516,10.499c0.276,0,0.5-0.224,0.5-0.5v-0.5c0-0.276-0.224-0.5-0.5-0.5s-0.5,0.224-0.5,0.5v0.5         C19.016,10.275,19.239,10.499,19.516,10.499z" fill="#fff"/></g></g></g></g></g></g><g id="profit_3_"><g><g><g><g><g><g><path d="M29.537,19.857c-0.29-0.373-1.395-1.493-3.416-0.281c-0.846,0.508-1.455,1.047-1.992,1.523          c-0.332,0.294-0.619,0.548-0.912,0.752c-0.227,0.157-0.283,0.469-0.125,0.695c0.157,0.229,0.469,0.283,0.695,0.125          c0.342-0.236,0.663-0.521,1.004-0.824c0.506-0.447,1.078-0.954,1.844-1.414c0.803-0.482,1.473-0.532,1.938-0.146          c0.381,0.317,0.463,0.797,0.459,0.856l-4.742,4.545l-6.516,3.141c-0.393,0.183-1.105,0.242-1.514,0.129l-8.037-2.432          c-0.047-0.015-0.096-0.021-0.145-0.021H7.391v1h0.613l7.977,2.414c0.234,0.064,0.508,0.096,0.791,0.096          c0.503,0,1.035-0.098,1.43-0.283l6.594-3.177c0.048-0.022,0.092-0.053,0.129-0.089l4.808-4.607          C30.155,21.436,30.068,20.537,29.537,19.857z" fill="#fff"/></g></g></g></g></g><g><g><g><g><g><path d="M21.612,21.963C21.014,21.324,20.049,21,18.748,21h-2.84c-0.105,0-0.201-0.275-0.279-0.352          c-0.623-0.614-2.084-1.645-4.851-1.645c-0.479,0-0.93,0.031-1.339,0.092c-0.273,0.041-0.461,0.296-0.421,0.568          c0.041,0.273,0.295,0.459,0.568,0.422c0.36-0.055,0.761-0.082,1.191-0.082c2.411,0,3.608,0.879,4.149,1.357          C15.203,21.604,15.361,22,15.816,22h2.932c1.014,0,1.732,0.217,2.135,0.647C21.26,23.05,21.311,24,21.303,24h-5.786          c-0.276,0-0.5,0.225-0.5,0.5c0,0.276,0.224,0.5,0.5,0.5h6.263c0.275,0,0.5-0.225,0.5-0.501l0.007-0.142          C22.316,23.889,22.388,22.791,21.612,21.963z" fill="#fff"/></g></g></g></g></g><g><g><g><g><g><path d="M7.516,28H4.5v-1H7v-7H4v-1h3.516C7.792,19,8,19.224,8,19.5v8C8,27.776,7.792,28,7.516,28z" fill="#fff"/></g></g></g></g></g><g><g><g><g><g><path d="M1.516,30c-0.276,0-0.5-0.224-0.5-0.5l0,0c0-0.276,0.224-0.5,0.5-0.5H4v-9H1.516          c-0.276,0-0.5-0.224-0.5-0.5l0,0c0-0.276,0.224-0.5,0.5-0.5h3C4.792,19,5,19.224,5,19.5v10C5,29.776,4.792,30,4.516,30          H1.516z" fill="#fff"/></g></g></g></g></g></g></g></g></svg>