<?xml version="1.0" encoding="utf-8"?>
<!-- Generator: Adobe Illustrator 24.0.1, SVG Export Plug-In . SVG Version: 6.00 Build 0)  -->
<svg version="1.1" id="Layer_1" xmlns="http://www.w3.org/2000/svg" xmlns:xlink="http://www.w3.org/1999/xlink" x="0px" y="0px"
	 viewBox="0 0 612 792" style="enable-background:new 0 0 612 792;" xml:space="preserve">
<style type="text/css">
	.st0{fill:#BF966C;}
	.st1{fill:#9B9B9B;}
	.st2{fill:#C4C5C5;}
</style>
<path class="st0" d="M304.7,241l21.4,10.9v17.7l-42.8,21.7v-39.5L304.7,241z M198.8,349.2c0.7-0.1,1.4-0.2,2.1-0.3
	c1.5-0.3,3-0.7,4.4-1.2v18.1h16.8c-0.5,1.5-0.9,3-1.2,4.5c-0.1,0.6-0.2,1.3-0.3,1.9h-21.8V349.2z M387.3,365.8h16.7v-18.1
	c0.8,0.3,1.5,0.5,2.3,0.7c1.4,0.4,2.8,0.6,4.2,0.8v23h-21.8c-0.1-0.6-0.2-1.3-0.3-1.9C388.2,368.8,387.8,367.3,387.3,365.8z
	 M376,350.5l0.3-2.5c0.5-4.9,5.3-10.1,10.3-11.1l2.2-0.4c2.1,2.8,4.6,5.2,7.5,7.2V358h-13C381.3,355.2,378.8,352.7,376,350.5z
	 M213.2,343.7c2.8-2,5.3-4.4,7.5-7.3l2.2,0.4c5,1,9.8,6.2,10.3,11.1l0.3,2.5c-2.8,2.1-5.3,4.6-7.2,7.4h-13V343.7z M198.8,259.7
	c2.4-0.6,4.5-1.7,6.5-3.1l0.1,44c-1.9-1.4-4.2-2.5-6.5-3.1V259.7z M404,300.6l0.1-44c1.9,1.4,4.1,2.5,6.5,3.1v37.8
	C408.2,298.1,405.9,299.2,404,300.6z M193.7,252.4c-5.9,0-11.2-2.6-14.6-7.2c-2.9-4-4-8.7-3.3-13.3c0.8-4.9,3.7-9.3,8.1-12.3
	c4.8-3.3,10.2-4.5,15.5-3.5c6.1,1.1,11.7,4.8,15.4,10.3c2.8,4.1,4.6,9.4,4.7,14.4l0,75.8c-0.2,5-1.9,10.3-4.7,14.4
	c-3.7,5.4-9.4,9.2-15.4,10.3c-5.4,1-10.8-0.2-15.5-3.5c-4.4-3-7.3-7.4-8.1-12.3c-0.8-4.6,0.4-9.3,3.3-13.3c3.6-5,9.7-7.7,16.2-7.1
	c5.2,0.4,9.6,5,10.1,10.4l0,1.1c0,2.6-0.8,5.1-2.5,7.2c-1.5,2-4.4,3.4-7.2,3.3c-2.5,0-5.1-1.5-5.2-4.4c0-0.9,0.2-1.5,0.8-2.1
	c1.1-1.1,3-1.6,4.3-1.6l0-7.9c-2.9,0-7,1.1-9.9,4c-2,2.1-3.1,4.8-3,7.7c0.1,6.8,5.7,12,13,12.1c5.2-0.2,10.4-2.4,13.5-6.4
	c2.7-3.5,4.1-7.7,4.1-12.1c0-0.5,0-0.9-0.1-1.4l-0.1-71.8c0.1-0.9,0.2-1.7,0.1-2.6c0-4.3-1.4-8.4-4.1-11.8
	c-3.2-4.2-8.4-6.8-13.4-6.8c0,0-0.1,0-0.1,0c-3.4,0-6.8,1.5-9.3,4c-2.5,2.6-3.8,5.9-3.6,9.4c0.3,7.3,7.5,11.5,12.9,11.2l-0.1-7.9
	c0,0,0,0,0,0c-1.5,0-4.9-1.3-5-3.6c-0.1-1.3,0.4-2.6,1.4-3.7c1-1,2.3-1.6,3.7-1.6c0,0,0,0,0,0c2.6,0,5.5,1.5,7.2,3.7
	c1.6,2.1,2.4,4.5,2.5,7.1c0,0.6,0,1.1-0.1,1.7h0l0,0.3c-0.8,5.1-5,9.2-9.9,9.6C194.8,252.3,194.2,252.4,193.7,252.4z M389.7,240.7
	c0.2-5,1.9-10.3,4.7-14.4c3.4-4.9,8.5-8.5,13.9-9.9c4.1-1.1,10.5-1.4,17.1,3.2c4.4,3,7.3,7.4,8.1,12.3c0.8,4.6-0.4,9.3-3.3,13.3
	c-3.7,5-9.5,7.7-16.3,7.1c-5-0.4-9.1-4.6-10-9.7l0-0.2c-0.1-0.5-0.1-1.1-0.1-1.7c0-2.6,0.9-5,2.5-7.1c1.7-2.2,4.4-3.5,7.2-3.7
	c1.4,0,2.7,0.6,3.7,1.6c1,1,1.5,2.3,1.4,3.6c-0.1,2.3-3.2,3.7-5,3.6l-0.1,7.9c4.8,0.1,12.6-3.9,12.9-11.2c0.1-3.5-1.1-6.9-3.6-9.4
	c-2.5-2.6-5.8-3.7-9.4-4c-5,0-10.3,2.7-13.4,6.9c-2.6,3.4-4,7.5-4.1,11.8c0,0.8,0,1.6,0.1,2.5l-0.1,72c0,0.4,0,0.8,0,1.3
	c0,4.4,1.4,8.5,4.1,12.1c3,4,8.1,6.5,13.3,6.5c0.1,0,0.1,0,0.2,0c7.3-0.1,12.8-5.3,13-12.1c0.1-3-1-5.6-3-7.7c-2.9-2.9-7-4-9.9-4
	l-0.1,7.9c1.3,0,3.2,0.5,4.3,1.6c0.6,0.6,0.8,1.2,0.8,2.1c-0.1,2.8-2.6,4.3-5.2,4.3c0,0-0.1,0-0.1,0c-2.7,0-5.5-1.3-7.1-3.3
	c-1.6-2.2-2.5-4.6-2.5-7.2h0v-1c0.5-5.5,4.8-10.1,10.1-10.5c6.6-0.6,12.6,2.1,16.2,7.1c2.9,4,4.1,8.7,3.3,13.3
	c-0.8,4.9-3.7,9.3-8.1,12.3c-6.6,4.6-13,4.3-17.1,3.2c-5.5-1.4-10.5-5.1-13.9-10c-2.8-4.1-4.5-9.4-4.7-14.4V240.7z M217.9,217.5
	c2.3-5.2,5.8-9.9,10.5-14.1c2.5,1,5.1,1.8,7.9,2.2c-5.9,4.7-10.8,10.4-13.7,17.9c-0.3-0.6-0.7-1.1-1.1-1.7
	C220.3,220.3,219.2,218.8,217.9,217.5z M373.2,205.7c2.7-0.4,5.4-1.2,7.9-2.2c4.7,4.2,8.1,8.9,10.5,14.1c-1.3,1.3-2.5,2.8-3.6,4.3
	c-0.4,0.5-0.7,1.1-1.1,1.7C384,216,379.1,210.3,373.2,205.7z M206.1,209.7c2-5.5,6-11.5,10.2-15.3c0.2,0.3,0.4,0.5,0.6,0.8
	c1.3,1.5,2.7,2.9,4.3,4.1c-4.1,4-7.3,8.3-9.7,13.1C209.8,211.3,208,210.4,206.1,209.7z M388.2,199.3c1-0.8,2-1.6,2.9-2.5
	c0.7-0.7,1.4-1.5,2.1-2.3c4.1,3.8,8.2,9.8,10.2,15.3c-1.9,0.7-3.7,1.6-5.5,2.7C395.5,207.7,392.3,203.3,388.2,199.3z M250.4,189.9
	c15.9-7.7,40.3-19.6,54.3-31.8c14,12.2,38.4,24.1,54.3,31.8c3.4,2,7.4,2.7,11.9,2.2c7.3-0.9,13.2-7.2,13.4-14.3
	c0.1-2.7-0.8-5.7-2.5-8c-2.2-3.1-5.6-4.9-9.6-5c-2.5-0.1-6.9,0.7-9.4,6.4l7.2,3.2c0.8-1.8,1.4-1.7,2-1.8c1.5,0.1,2.6,0.6,3.4,1.7
	c0.7,1,1,2.3,1,3.1c-0.1,3.3-3,6.3-6.5,6.8c-2.1,0.2-4,0-5.7-0.6c-0.5-0.2-1-0.5-1.5-0.7c-0.3-0.2-0.7-0.4-1-0.7
	c-2.3-1.8-3.7-4.7-4.1-8.1c-0.4-3.7,0.5-7.2,2.8-10c2.6-3.3,6.8-5.4,11.5-5.9c4.8-0.5,9.4,0.9,12.9,3.8c3.8,3.2,6,7.8,6.4,13
	c0.6,7.9-2.8,13.1-5.8,16c-3.9,3.9-9.5,6.4-15.4,6.9c-4.8,0.3-9.1-0.4-13.4-2.3c-0.4-0.2-0.8-0.4-1.2-0.6c0,0-0.1,0-0.1-0.1
	c-0.2-0.1-0.3-0.2-0.5-0.2v0c-16.6-7.8-32.7-15.7-47.9-26.7l-2.3-1.7l-2.3,1.7c-15.3,11.1-32,19.3-47.8,26.7l0,0
	c-0.2,0.1-0.4,0.2-0.5,0.3c0,0,0,0-0.1,0c-0.4,0.2-0.8,0.4-1.2,0.6c-4.3,1.9-8.5,2.6-13.4,2.3c-6.5-0.5-12.4-3.4-16.4-8
	c-3.5-4.1-5.2-9.2-4.7-14.9c0.4-5.2,2.7-9.9,6.4-13c3.5-3,8.1-4.4,12.9-3.8c4.7,0.5,8.9,2.6,11.5,5.9c2.3,2.8,3.2,6.3,2.8,10
	c-0.4,3.5-1.9,6.4-4.1,8.1c-0.3,0.2-0.6,0.4-0.9,0.6c-0.5,0.3-1,0.5-1.5,0.7c-1.7,0.7-3.6,0.8-5.7,0.6c-3.5-0.4-6.4-3.4-6.5-6.8
	c0-0.8,0.3-2.1,1-3.1c0.8-1.1,1.9-1.7,3.4-1.7c0.4,0,1.2,0,2,1.8l7.2-3.2c-2.6-5.8-6.9-6.4-9.4-6.4c-4,0.1-7.4,1.9-9.6,5
	c-1.6,2.3-2.5,5.3-2.5,8c0.3,7.2,6.2,13.4,13.4,14.3C243,192.6,247,191.9,250.4,189.9z M259.4,168.5c8.9-4.4,24.9-13.7,35.1-21.3
	c1.1,2.2,2.5,4.1,4.1,5.8c-10.1,8.4-25.7,16.9-39.3,23.8c0.1-0.5,0.2-1.1,0.3-1.7C259.8,172.8,259.8,170.6,259.4,168.5z
	 M310.6,152.8c1.6-1.7,3-3.7,4.2-5.8c10.2,7.7,26.3,17,35.2,21.4c-0.4,2.1-0.5,4.3-0.2,6.6c0.1,0.6,0.1,1.1,0.2,1.7
	C336.4,169.9,320.7,161.3,310.6,152.8z M304.5,147.8c-3.3-3.3-5.2-8.4-5.3-14.2c-0.1-6.1,2-11.6,5.4-15.2c3.6,3.4,5.7,8.4,5.8,14
	C310.5,138.5,308.4,144,304.5,147.8z M339,343.7L339,343.7v7.9h17c5,0.2,10.3,1.9,14.4,4.7c5.4,3.7,9.2,9.4,10.3,15.4
	c1,5.4-0.2,10.8-3.5,15.5c-3,4.4-7.4,7.3-12.3,8.1c-4.6,0.8-9.3-0.4-13.3-3.3c-4.8-3.5-7.6-9.3-7.3-15.1c0.3-5.6,4.5-10.2,9.9-11.1
	c0,0,0.1,0,0.1,0v0c0.6-0.1,1.3-0.2,1.8-0.1c2.8,0,4.7,0.7,7.1,2.5c2.9,2.2,4,6.6,2.4,9.4c-0.6,1-1.8,2.6-4.5,2.6c0,0,0,0-0.1,0
	c-2.6,0-3.4-2.9-3.5-3.6l-7.9,0.1c0,4.8,4,11.4,11.3,11.4c4.4-0.1,9.2-2.4,11.4-6.6c3.5-6.2,1.5-15-4.5-19.6
	c-3.7-2.8-7.4-4.1-11.9-4.1c-0.7,0-1.6,0.1-2.4,0.1c-6.6,0-13.2,0-19.8,0v0v-14.3v-3.3v-30.5L314,299.4l5.7-2.9l19.3,10.2v33.8
	V343.7z M275.5,358c-6.6,0-13.2,0-19.8,0c-0.8-0.1-1.7-0.1-2.4-0.1c-4.5,0-8.2,1.3-11.9,4.1c-6,4.6-8.1,13.4-4.5,19.6
	c2.3,4.1,6.5,6.5,11.4,6.6c7.3-0.1,11.2-6.7,11.3-11.4l-7.9-0.1c0,0.8-0.9,3.6-3.5,3.6c0,0,0,0-0.1,0c-2.6,0-3.9-1.5-4.4-2.5
	c-1.7-2.9-0.5-7.3,2.4-9.6c2.4-1.8,4.2-2.5,7.2-2.5c0.6,0,1.1,0,1.6,0.1v0c0.1,0,0.1,0,0.1,0c5.4,0.9,9.6,5.4,9.9,11.1
	c0.3,5.8-2.5,11.6-7.3,15.1c-4,2.9-8.7,4.1-13.3,3.3c-4.9-0.8-9.3-3.7-12.3-8.1c-3.3-4.7-4.5-10.1-3.5-15.5
	c1.1-6.1,4.9-11.7,10.3-15.4c4.1-2.8,9.4-4.6,14.4-4.7h17v-7.9v-3.2v-33.7l63.6-32.3V247l-29.2-14.9l0,0L275.5,247v48.3l-5.1,2.6
	v-54.2l34.3-17.4l34.3,17.4v7.1v26.9c-9.1,4.6-18.2,9.3-27.3,14c-1.4,0.7-2.7,1.4-4,2.1l-10.9,5.6c-5.6,2.8-11.3,5.5-16.9,8.3
	l-4.4,2.2v30.5v3.2v7.9V358z M372.6,337.2L372.6,337.2L372.6,337.2l-0.1,0.2l0,0l0,0.1l-0.1,0.1l0,0.1l0,0l-0.1,0.1l0,0.1l0,0
	l-0.1,0.2l0,0l-0.1,0.2l-0.1,0.1l-0.1,0.1l0,0l-0.1,0.1l-0.1,0.1l0,0l0,0.1l-0.1,0.1l0,0l0,0.1l-0.1,0.1l0,0.1l0,0l-0.1,0.1l0,0.1
	l0,0l-0.1,0.2l0,0l-0.1,0.1l-0.1,0.1h0l0,0l-0.1,0.2l0,0l0,0.1l-0.1,0.1l0,0l0,0.1l-0.1,0.1l0,0l0,0.1l-0.1,0.1l0,0.1
	c-0.5,1-0.9,2-1.3,3.1h-13c-0.7,0-1.3,0-2,0h-7.4v-41.9l-18.7-9.8c4.8-2.5,11-5.6,18.7-9.5v-31.7v-2.6h0v-7.3c0-1-0.2-2.1-1.2-2.5
	l-4-2v0l-37-18.8l-34,17.3l-3,1.5v0l-4,2c-0.9,0.5-1.2,1.6-1.2,2.5l0,4.2v56.8v8.8v33h-7.4c-0.7,0-1.3,0-2,0h-13
	c-0.3-1.1-0.8-2.1-1.3-3.1h0c-0.3-0.5-0.5-1-0.8-1.5l0-0.1l-0.2-0.3l0-0.1l0,0l-0.1-0.2l0,0l-0.1-0.2l-0.1-0.2l0,0l-0.1-0.2l0,0
	l0-0.1l-0.1-0.1l0,0l0-0.1l-0.1-0.1l0-0.1l0,0l-0.1-0.1l0-0.1l0,0c-2.4-3.1-5.6-5.7-9.3-7.1v-0.8v-5.5v-7.1c0-0.7,0-1.4,0-2v-72.1
	c0-0.7,0-1.3,0-2v-2c0.5-18.3,11.2-27.3,28.5-35.6c0.4-0.2,0.9-0.4,1.3-0.6c15.5-7.3,31.9-15.3,47.3-26.1c15.2,10.7,31,18.4,47.2,26
	c0.5,0.3,1,0.5,1.5,0.7c17.2,8.3,28,17.3,28.5,35.7v1.8c0,0.7,0,1.4,0,2.1v72.1c0,0.7,0,1.4,0,2v7.1v5.5v0.8
	C378.2,331.5,375,334.1,372.6,337.2z M304.5,108.6l-2.2,1.5c-6.9,4.7-11.1,13.8-11,23.6c0,1.9,0.2,3.7,0.5,5.5
	c-9.1,7.4-26.2,17.3-35.4,21.9c-0.4-0.7-0.9-1.3-1.4-1.9c-3.9-4.9-10.1-8.1-16.8-8.8c-6.9-0.7-13.6,1.3-18.7,5.6
	c-5.4,4.5-8.7,11.1-9.2,18.4c-0.4,4.6,0.3,9,1.9,12.9c-5.8,4.8-11.3,12.9-13.8,20.4c-6.7-0.6-13.1,1.1-18.9,5.1
	c-6.2,4.3-10.2,10.5-11.4,17.5c-1.1,6.7,0.5,13.5,4.7,19.2c4.3,5.9,10.9,9.6,18.2,10.3v37c-7.3,0.7-13.9,4.4-18.2,10.3
	c-4.1,5.7-5.8,12.5-4.7,19.3c1.2,7,5.2,13.2,11.4,17.5c3.6,2.5,7.5,4.1,11.5,4.8v31.1h29.9c0.7,4.1,2.3,8,4.9,11.6
	c4.2,6.2,10.5,10.2,17.5,11.4c6.7,1.2,13.6-0.5,19.3-4.7c7.1-5.2,11-13.4,10.5-21.9c-0.2-4-1.6-7.6-3.8-10.6l14.2,0v-5h0V338v-23.2
	c13-6.4,19-9.3,22-10.8l20.7,10.8V338v24v3.9l14.2,0c-2.2,3-3.6,6.7-3.8,10.6c-0.5,8.6,3.5,16.8,10.5,21.9
	c5.7,4.2,12.6,5.8,19.3,4.7c7-1.2,13.2-5.2,17.5-11.4c2.5-3.6,4.1-7.6,4.8-11.6h29.9V349c4-0.7,7.9-2.3,11.5-4.8
	c6.2-4.3,10.2-10.5,11.4-17.5c1.1-6.7-0.5-13.6-4.7-19.3c-4.3-5.9-10.9-9.6-18.2-10.3v-37c7.3-0.7,13.9-4.4,18.2-10.3
	c4.1-5.7,5.8-12.5,4.7-19.2c-1.2-7-5.2-13.2-11.4-17.5c-5.7-4-12.2-5.7-18.9-5.1c-2.6-7.5-8-15.6-13.9-20.4c1.6-4,2.3-8.4,1.9-12.9
	c-0.6-7.4-3.8-13.9-9.2-18.5c-5.2-4.3-11.8-6.3-18.7-5.6c-6.8,0.7-12.9,3.9-16.8,8.8c-0.5,0.6-0.9,1.2-1.4,1.9
	c-9.2-4.6-26.2-14.5-35.3-21.8c0.5-2.2,0.7-4.6,0.7-7c-0.2-9.3-4.5-17.6-11.6-22.3L304.5,108.6z"/>
<path class="st1" d="M304.7,211.8l31.8,16.2l4.3,2.2l8.1,4.1c2.3,1,3.1,3.8,3,5.9v8v7.3v5.2v24.8l-2.8,1.4c-3.3,1.7-6.7,3.4-10,5.1
	l12.8,6.7v38.5h0h2.1h9.7v0h1.1c1.6-2.9,3.7-5.6,6.2-7.9h-11.3V294l-3.5-1.8l3.5-1.8v-29.6v-5.2v-15.3c0-6.4-3.3-10.9-7.3-12.9
	l-11.6-5.9l-4.3-2.2L304.7,203L304.7,211.8z"/>
<path class="st1" d="M245.6,337.2h4h3.5h4.4v-7.9v-68.6v-15.7v-4.9c-0.1-2.1,0.7-5,3-5.9l12.4-6.3l31.7-16.1l0.2-0.1l0-8.8l-0.2,0.1
	l-42,21.3v0l-5.6,2.8c-4,2-7.3,6.5-7.3,12.9v4.9v15.7v68.6h-11.3c2.5,2.2,4.6,4.9,6.2,7.9L245.6,337.2L245.6,337.2z"/>
<g>
	<path class="st0" d="M191.8,512.9c-8.4,0-14.5-2.2-18.4-6.5c-3.9-4.4-5.9-9.9-5.9-16.5v-19.3h13.9v17.2c0,8.9,4.9,13.4,14.6,13.4
		h11.6v-55h13.9v66.8H191.8z M186.5,446.2v-12.5h14.3v12.5H186.5z"/>
	<path class="st0" d="M236.4,495.2v-76h13.9v76H236.4z"/>
	<path class="st0" d="M316.2,483.7c0.1,0.3,0.2,0.5,0.2,0.6v9.9c0,0.2-0.1,0.4-0.2,0.6c-0.1,0.2-0.4,0.3-0.8,0.3h-6.2
		c-0.6,7.5-3,12.9-7.3,16.3c-4.3,3.4-10.3,5.7-18,6.9l-5.6-12.4c4.1-0.5,7.4-1.3,9.8-2.2c2.4-1,4.2-2.4,5.5-4.3
		c1.3-1.9,1.9-4.4,1.9-7.7v-34.2c-2.3-0.5-4.4-0.7-6.3-0.7c-8.1,0-12.1,4.5-12.1,13.6c0,4,1,7.1,3.1,9.4c2.1,2.3,5.1,3.4,9,3.4h4.4
		l-5.4,11.9h-1.4c-4.6,0-8.7-1-12.3-3.1s-6.5-5-8.6-8.7c-2.1-3.8-3.1-8.1-3.1-13.1c0-4.8,1.1-9.1,3.4-12.9c2.2-3.9,5.4-6.9,9.5-9.1
		c4.1-2.2,8.8-3.3,14.1-3.3c4.6,0,11.1,0.7,19.7,2v36.3h6C315.8,483.3,316.1,483.5,316.2,483.7z"/>
	<path class="st0" d="M329.1,483.7c0.1,0.2,0.2,0.4,0.2,0.6v9.9c0,0.2-0.1,0.4-0.2,0.6c-0.1,0.2-0.4,0.3-0.8,0.3h-12.9
		c-0.4,0-0.7-0.1-0.8-0.3c-0.1-0.2-0.2-0.4-0.2-0.6v-9.9c0-0.2,0.1-0.4,0.2-0.6c0.1-0.2,0.4-0.3,0.8-0.3h12.9
		C328.7,483.3,328.9,483.5,329.1,483.7z"/>
	<path class="st0" d="M399.2,448.3c4.1,2.2,7.2,5.2,9.3,9c2.1,3.8,3.2,8.2,3.2,13c0,6.2-2,14.5-5.9,24.9h-77.4
		c-0.4,0-0.7-0.1-0.8-0.3c-0.1-0.2-0.2-0.4-0.2-0.6v-9.9c0-0.2,0.1-0.4,0.2-0.6c0.1-0.2,0.4-0.3,0.8-0.3h9.9v-37.3h13.9v10.3
		c11.3-7.5,22.2-11.3,32.6-11.3C390.3,445.1,395.2,446.2,399.2,448.3z M366.9,460.1c-4.9,2-9.8,4.7-14.8,8.1v15.1h43.2
		c1.3-4.6,2-8.8,2-12.8c-0.1-4-1.5-7.3-4.2-9.7c-2.7-2.4-6.3-3.7-10.9-3.7C376.9,457.2,371.7,458.2,366.9,460.1z M377,437.6v-12.5
		h14.3v12.5H377z"/>
	<path class="st0" d="M434.2,511.3c-4,4.1-9.2,6.5-15.5,7.2l-5.6-12.4c3.2-0.5,5.8-1.1,7.6-1.9c1.8-0.8,3.2-2.1,4.2-3.9
		c0.9-1.8,1.4-4.3,1.4-7.6v-46.6h13.9v46.2C440.2,500.9,438.2,507.2,434.2,511.3z"/>
</g>
<g>
	<path class="st2" d="M193.7,561.7c-1.3,0-2.4-0.2-3.4-0.7c-1-0.4-1.9-1.1-2.5-2c-0.6-0.9-0.9-1.9-0.9-3.2v-7.2h1.8v7.2
		c0,1.2,0.4,2.2,1.3,3c0.9,0.8,2.2,1.2,3.8,1.2h5.5v-18.3h1.8v20H193.7z M192.7,541.1v-2.7h2v2.7H192.7z"/>
	<path class="st2" d="M203.7,534.7l0.3-1.4h6.5v1.4H203.7z M209.2,553.9c0.4,0.4,1.1,0.6,2,0.6h0.6c0.1,0,0.2,0,0.2,0.1
		c0,0.1,0.1,0.1,0.1,0.2v1.1c0,0.1,0,0.1-0.1,0.2c0,0.1-0.1,0.1-0.2,0.1h-0.7c-1.5,0-2.6-0.4-3.3-1.2c-0.7-0.8-1-1.9-1-3.2v-14.4
		h1.8v14.4C208.5,552.8,208.7,553.5,209.2,553.9z"/>
	<path class="st2" d="M223.9,542.4c1.2,0.7,2,1.6,2.6,2.8c0.5,1.1,0.8,2.4,0.8,3.7c0,1.1-0.2,2.4-0.6,3.8c-0.4,1.4-0.8,2.6-1.4,3.6
		h-13.5c-0.1,0-0.2,0-0.2-0.1c0-0.1-0.1-0.1-0.1-0.2v-1.1c0-0.1,0-0.1,0.1-0.2c0-0.1,0.1-0.1,0.2-0.1h2.8V542c2-0.4,3.6-0.6,4.9-0.6
		C221.3,541.4,222.7,541.7,223.9,542.4z M216.4,543.4v11.1h7.8c0.8-1.8,1.2-3.6,1.2-5.6c0-1.6-0.5-2.9-1.4-4.1s-2.5-1.7-4.6-1.7
		C218.4,543.1,217.4,543.2,216.4,543.4z"/>
	<path class="st2" d="M235.6,531.1l-0.5,1.5c-0.6-0.2-1.1-0.2-1.4-0.2c-0.3,0-0.5,0.1-0.7,0.2c-0.2,0.2-0.3,0.4-0.3,0.7
		c0,0.4,0.1,0.7,0.4,0.9h2.9v1.4h-6l0.4-1.4h1.1c-0.2-0.4-0.3-0.8-0.3-1.1c0-0.7,0.2-1.2,0.6-1.7c0.4-0.5,1-0.7,1.7-0.7
		C234,530.6,234.7,530.8,235.6,531.1z M234.7,553.9c0.4,0.4,1.1,0.6,2,0.6h0.6c0.1,0,0.2,0,0.2,0.1c0,0.1,0.1,0.1,0.1,0.2v1.1
		c0,0.1,0,0.1-0.1,0.2c0,0.1-0.1,0.1-0.2,0.1h-0.7c-1.5,0-2.6-0.4-3.3-1.2c-0.7-0.8-1-1.9-1-3.2v-14.4h1.8v14.4
		C234.1,552.8,234.3,553.5,234.7,553.9z"/>
	<path class="st2" d="M237.3,556.3c-0.1,0-0.2,0-0.2-0.1c0-0.1-0.1-0.1-0.1-0.2v-1.1c0-0.1,0-0.1,0.1-0.2c0-0.1,0.1-0.1,0.2-0.1h4.3
		v-12.8h1.8v14.6H237.3z M241.3,562.8v-2.7h2v2.7H241.3z"/>
	<path class="st2" d="M279.7,553.9c0.4,0.4,1.1,0.6,2,0.6h0.6c0.1,0,0.2,0,0.2,0.1c0,0.1,0.1,0.1,0.1,0.2v1.1c0,0.1,0,0.1-0.1,0.2
		c0,0.1-0.1,0.1-0.2,0.1h-0.7c-1.8,0-3.1-0.6-3.8-1.9c-1.8,1.3-3.7,1.9-5.7,1.9h-9.1c-1.3,0-2.4-0.2-3.4-0.7s-1.9-1.1-2.5-2
		c-0.6-0.9-0.9-1.9-0.9-3.2V546h1.8v4.4c0,1.2,0.4,2.2,1.3,3c0.9,0.8,2.2,1.2,3.8,1.2h9.2c2,0,3.7-0.5,5-1.5
		c-0.1-0.3-0.1-0.8-0.1-1.3v-19.6h1.8v19.6C279.1,552.8,279.3,553.5,279.7,553.9z M270.5,539.7l-0.5,1.5c-0.5-0.2-1-0.2-1.3-0.2
		c-0.4,0-0.8,0.1-1.1,0.4c-0.3,0.3-0.4,0.7-0.4,1.2c0,0.7,0.3,1.2,0.9,1.6h4v1.5h-8.3l0.4-1.5h2.2c-0.4-0.5-0.7-1.1-0.7-1.7
		c0-0.9,0.3-1.6,0.8-2.2s1.3-0.9,2.3-0.9C269.1,539.3,269.8,539.5,270.5,539.7z"/>
	<path class="st2" d="M288.7,552c0.3,0.8,0.9,1.4,1.6,1.8s1.6,0.7,2.7,0.7c0.1,0,0.2,0,0.2,0.1c0,0.1,0.1,0.1,0.1,0.2v1.1
		c0,0.1,0,0.1-0.1,0.2c0,0.1-0.1,0.1-0.2,0.1c-2.1,0-3.8-0.9-5-2.6c-0.5,0.8-1.2,1.4-2.1,1.9s-1.8,0.7-2.9,0.7h-0.7
		c-0.1,0-0.2,0-0.2-0.1c0-0.1-0.1-0.1-0.1-0.2v-1.1c0-0.1,0-0.1,0.1-0.2c0-0.1,0.1-0.1,0.2-0.1h0.6c1.3,0,2.3-0.4,3.1-1.3
		c0.8-0.8,1.2-1.9,1.2-3.1v-17.4h1.8v17.4C289,550.8,288.9,551.4,288.7,552z"/>
	<path class="st2" d="M301.5,552c0.4,0.8,1,1.4,2,1.8c0.9,0.5,2.1,0.7,3.5,0.7c0.1,0,0.2,0,0.2,0.1s0.1,0.1,0.1,0.2v1.1
		c0,0.1,0,0.1-0.1,0.2c0,0.1-0.1,0.1-0.2,0.1c-1.5,0-2.8-0.2-3.8-0.7c-1-0.4-1.8-1.1-2.5-2c-0.5,0.8-1.2,1.5-2.1,1.9
		c-0.9,0.5-1.8,0.7-2.9,0.7H293c-0.1,0-0.2,0-0.2-0.1c0-0.1-0.1-0.1-0.1-0.2v-1.1c0-0.1,0-0.1,0.1-0.2c0-0.1,0.1-0.1,0.2-0.1h2.8
		c1.3,0,2.3-0.4,3.1-1.3c0.8-0.8,1.2-1.9,1.2-3.1v-8.5h1.8v8.5C301.8,550.8,301.7,551.4,301.5,552z M297,538.5v-2.7h2v2.7H297z
		 M302.6,538.5v-2.7h2v2.7H302.6z"/>
	<path class="st2" d="M319.1,542.4c1.2,0.7,2,1.6,2.6,2.8c0.5,1.1,0.8,2.4,0.8,3.7c0,1.1-0.2,2.4-0.6,3.8c-0.4,1.4-0.8,2.6-1.4,3.6
		H307c-0.1,0-0.2,0-0.2-0.1c0-0.1-0.1-0.1-0.1-0.2v-1.1c0-0.1,0-0.1,0.1-0.2c0-0.1,0.1-0.1,0.2-0.1h2.8V542c2-0.4,3.6-0.6,4.9-0.6
		C316.5,541.4,317.9,541.7,319.1,542.4z M311.6,543.4v11.1h7.8c0.8-1.8,1.2-3.6,1.2-5.6c0-1.6-0.5-2.9-1.4-4.1
		c-0.9-1.2-2.5-1.7-4.6-1.7C313.6,543.1,312.6,543.2,311.6,543.4z"/>
	<path class="st2" d="M330.6,557.7l-0.5,1.5c-0.6-0.2-1.1-0.2-1.4-0.2c-0.3,0-0.5,0.1-0.7,0.2c-0.2,0.2-0.3,0.4-0.3,0.7
		c0,0.4,0.1,0.7,0.4,0.9h2.9v1.4h-6l0.4-1.4h1.1c-0.2-0.4-0.3-0.8-0.3-1.1c0-0.7,0.2-1.2,0.6-1.7c0.4-0.5,1-0.7,1.7-0.7
		C329.1,557.2,329.8,557.4,330.6,557.7z M327.8,556.3v-23.4h1.8v23.4H327.8z"/>
	<path class="st2" d="M334.5,555.8v-2.8h2.3v2.8H334.5z"/>
	<path class="st2" d="M340.6,555.8v-2.8h2.3v2.8H340.6z"/>
	<path class="st2" d="M354.4,561.7c-2.2,0-3.9-0.6-5.1-1.7c-1.3-1.1-1.9-2.7-1.9-4.6v-6.8h2.7v6.5c0,1.2,0.4,2.2,1.2,3
		c0.8,0.8,2,1.2,3.7,1.2h4.8v-17.8h2.7v20.2H354.4z M353.2,541.1V538h2.9v3.1H353.2z"/>
	<path class="st2" d="M367.7,556.3v-23.4h2.7v23.4H367.7z"/>
	<path class="st2" d="M391.4,553.9c0,0.1,0.1,0.1,0.1,0.2v1.8c0,0.1,0,0.1-0.1,0.2c0,0.1-0.1,0.1-0.2,0.1H388c0,2.1-0.6,3.7-1.8,4.9
		c-1.2,1.1-2.9,1.9-5.2,2.3l-1.1-2.4c1.9-0.3,3.2-0.8,4.1-1.5c0.9-0.7,1.3-1.8,1.3-3.3v-12.3c-1-0.2-1.9-0.3-2.7-0.3
		c-1.5,0-2.8,0.5-3.6,1.5c-0.9,1-1.3,2.3-1.3,3.8c0,1.4,0.4,2.5,1.3,3.5c0.8,0.9,2,1.4,3.5,1.4h1.9l-1.1,2.4h-1c-1.5,0-2.8-0.3-4-1
		c-1.1-0.7-2-1.6-2.5-2.7c-0.6-1.1-0.9-2.4-0.9-3.8c0-1.3,0.3-2.6,0.9-3.7c0.6-1.2,1.5-2.1,2.7-2.8c1.2-0.7,2.6-1.1,4.2-1.1
		c1.1,0,2.6,0.2,4.4,0.5c0.1,0,0.4,0.1,0.9,0.2v12h3.1C391.2,553.8,391.3,553.9,391.4,553.9z"/>
	<path class="st2" d="M412.7,542.2c1.2,0.7,2.1,1.6,2.7,2.8c0.6,1.1,0.9,2.4,0.9,3.8c0,1.2-0.2,2.4-0.6,3.8
		c-0.4,1.4-0.8,2.6-1.3,3.7h-23.2c-0.1,0-0.2,0-0.2-0.1c0-0.1-0.1-0.1-0.1-0.2v-1.8c0-0.1,0-0.1,0.1-0.2c0-0.1,0.1-0.1,0.2-0.1h3.8
		v-12.4h2.7v3.9c2-1.3,3.9-2.4,5.6-3.1c1.7-0.7,3.4-1.1,5.2-1.1C410,541.2,411.5,541.5,412.7,542.2z M403,544.6
		c-1.6,0.7-3.5,1.8-5.5,3.2v6h14.9c0.7-1.6,1-3.3,1-5c0-1.4-0.5-2.7-1.4-3.7c-0.9-1-2.3-1.5-4.1-1.5
		C406.3,543.6,404.7,543.9,403,544.6z M406.9,538.5v-3.1h2.9v3.1H406.9z"/>
	<path class="st2" d="M418,563.4l-1.1-2.4c1.5-0.2,2.5-0.6,3.2-1.3s1-1.8,1-3.3v-14.8h2.7v14.7C423.8,560.3,421.8,562.7,418,563.4z"
		/>
</g>
</svg>
