<?xml version="1.0" encoding="utf-8"?>
<!-- Generator: Adobe Illustrator 24.0.3, SVG Export Plug-In . SVG Version: 6.00 Build 0)  -->
<svg version="1.0" id="Layer_1" xmlns="http://www.w3.org/2000/svg" xmlns:xlink="http://www.w3.org/1999/xlink" x="0px" y="0px"
	 viewBox="0 0 247 268" style="enable-background:new 0 0 247 268;" xml:space="preserve">
<style type="text/css">
	.st0{fill:#FFFEEF;}
</style>
<path class="st0" d="M123.4,120.5l19,9.6v15.8l-38,19.3v-35.1L123.4,120.5z M29.4,216.7c0.6-0.1,1.2-0.2,1.8-0.3
	c1.3-0.2,2.6-0.6,3.9-1v16H50c-0.5,1.3-0.8,2.6-1.1,4c-0.1,0.6-0.2,1.1-0.3,1.7H29.4V216.7z M196.7,231.4h14.9v-16
	c0.7,0.2,1.4,0.4,2.1,0.6c1.2,0.3,2.5,0.5,3.7,0.7v20.4H198c-0.1-0.6-0.1-1.1-0.3-1.7C197.6,234,197.2,232.7,196.7,231.4z
	 M186.7,217.8l0.2-2.2c0.5-4.4,4.7-9,9.1-9.9l1.9-0.4c1.9,2.5,4.1,4.7,6.6,6.4v12.7h-11.5C191.4,221.9,189.2,219.7,186.7,217.8z
	 M42.1,211.8c2.5-1.8,4.7-3.9,6.6-6.4l1.9,0.4c4.4,0.9,8.7,5.5,9.1,9.9l0.2,2.2c-2.5,1.9-4.7,4.1-6.4,6.6H42.1V211.8z M29.4,137.1
	c2.1-0.5,4-1.5,5.7-2.8l0.1,39.1c-1.7-1.3-3.7-2.2-5.8-2.7V137.1z M211.6,173.5l0.1-39.1c1.7,1.3,3.7,2.2,5.8,2.8v33.6
	C215.2,171.3,213.3,172.2,211.6,173.5z M24.8,130.7c-5.2,0-10-2.3-12.9-6.4c-2.6-3.5-3.6-7.7-2.9-11.8c0.7-4.4,3.3-8.2,7.2-10.9
	c4.2-2.9,9-4,13.8-3.1c5.4,1,10.4,4.3,13.7,9.1c2.5,3.7,4,8.4,4.2,12.8l0,67.3c-0.2,4.4-1.7,9.1-4.2,12.8c-3.3,4.8-8.3,8.2-13.7,9.1
	c-4.8,0.9-9.6-0.2-13.8-3.1c-3.9-2.7-6.5-6.6-7.2-11c-0.7-4.1,0.3-8.3,2.9-11.8c3.2-4.4,8.6-6.9,14.4-6.3c4.6,0.4,8.5,4.4,8.9,9.3
	l0,1c0,2.3-0.7,4.5-2.2,6.4c-1.4,1.8-3.9,3.1-6.4,3c-2.3,0-4.6-1.4-4.6-3.9c0-0.8,0.2-1.3,0.7-1.8c1-1,2.6-1.4,3.8-1.4l0-7
	c-2.6,0-6.2,1-8.8,3.5c-1.8,1.9-2.7,4.2-2.7,6.8c0.1,6.1,5.1,10.7,11.5,10.7c4.6-0.2,9.3-2.1,12-5.7c2.4-3.2,3.6-6.9,3.6-10.7
	c0-0.4,0-0.8,0-1.2l-0.1-63.8c0.1-0.8,0.1-1.5,0.1-2.3c0-3.8-1.3-7.4-3.6-10.5c-2.8-3.7-7.5-6.1-11.9-6.1c0,0-0.1,0-0.1,0
	c-3.1,0-6.1,1.3-8.3,3.6c-2.2,2.3-3.3,5.3-3.2,8.4c0.3,6.5,6.7,10.2,11.5,9.9l-0.1-7c0,0,0,0,0,0c-1.3,0-4.3-1.2-4.4-3.2
	c0-1.2,0.4-2.3,1.3-3.2c0.9-0.9,2.1-1.4,3.3-1.4c0,0,0,0,0,0c2.3,0,4.9,1.4,6.4,3.3c1.4,1.9,2.2,4,2.2,6.3c0,0.5,0,1-0.1,1.5h0
	l0,0.3c-0.7,4.5-4.4,8.2-8.8,8.6C25.8,130.6,25.3,130.7,24.8,130.7z M198.9,120.3c0.2-4.4,1.7-9.1,4.2-12.8c3-4.3,7.5-7.6,12.4-8.8
	c3.7-1,9.3-1.2,15.1,2.8c3.9,2.7,6.5,6.6,7.2,10.9c0.7,4.1-0.3,8.3-2.9,11.8c-3.2,4.4-8.5,6.8-14.4,6.3c-4.4-0.4-8.1-4.1-8.8-8.6
	l0-0.2c-0.1-0.5-0.1-1-0.1-1.5c0-2.3,0.8-4.5,2.2-6.3c1.5-2,3.9-3.1,6.4-3.3c1.2,0,2.4,0.5,3.3,1.4c0.9,0.9,1.3,2,1.3,3.2
	c-0.1,2-2.8,3.3-4.4,3.2l-0.1,7c4.3,0.1,11.2-3.5,11.5-9.9c0.1-3.1-1-6.1-3.2-8.4c-2.2-2.3-5.1-3.3-8.4-3.6c-4.4,0-9.1,2.4-11.9,6.1
	c-2.3,3-3.6,6.7-3.6,10.5c0,0.7,0,1.5,0.1,2.2l-0.1,64c0,0.4,0,0.7,0,1.1c0,3.9,1.2,7.6,3.6,10.7c2.7,3.5,7.2,5.7,11.8,5.7
	c0.1,0,0.1,0,0.2,0c6.4-0.1,11.4-4.7,11.5-10.7c0-2.6-0.9-5-2.7-6.8c-2.5-2.6-6.2-3.5-8.8-3.5l0,7c1.2,0,2.8,0.5,3.8,1.4
	c0.5,0.5,0.7,1.1,0.7,1.8c0,2.5-2.3,3.8-4.6,3.9c0,0-0.1,0-0.1,0c-2.4,0-4.9-1.2-6.3-3c-1.5-1.9-2.2-4.1-2.2-6.4h0v-0.9
	c0.4-4.9,4.3-9,8.9-9.4c5.8-0.5,11.2,1.9,14.4,6.3c2.6,3.5,3.6,7.7,2.9,11.8c-0.7,4.4-3.3,8.3-7.2,10.9c-5.9,4.1-11.5,3.8-15.1,2.8
	c-4.8-1.3-9.4-4.5-12.4-8.8c-2.5-3.6-4-8.3-4.2-12.8V120.3z M46.3,99.7c2.1-4.6,5.1-8.8,9.3-12.5c2.2,0.9,4.6,1.6,7,2
	c-5.3,4.1-9.6,9.2-12.2,15.8c-0.3-0.5-0.6-1-0.9-1.5C48.5,102.2,47.4,100.9,46.3,99.7z M184.2,89.2c2.4-0.4,4.8-1,7-2
	c4.2,3.7,7.2,7.9,9.3,12.5c-1.1,1.2-2.2,2.5-3.2,3.8c-0.3,0.5-0.7,1-1,1.5C193.8,98.4,189.5,93.3,184.2,89.2z M35.8,92.8
	c1.8-4.9,5.4-10.2,9-13.6c0.2,0.2,0.4,0.5,0.6,0.7c1.2,1.3,2.4,2.6,3.8,3.6c-3.6,3.5-6.5,7.4-8.6,11.7
	C39.1,94.2,37.5,93.4,35.8,92.8z M197.5,83.5c0.9-0.7,1.8-1.5,2.6-2.3c0.7-0.7,1.3-1.4,1.9-2.1c3.7,3.4,7.2,8.7,9,13.6
	c-1.7,0.6-3.3,1.4-4.9,2.4C204,90.9,201.1,87.1,197.5,83.5z M75.2,75.2C89.3,68.4,111,57.8,123.4,47c12.4,10.8,34.1,21.4,48.2,28.2
	c3,1.7,6.6,2.4,10.5,1.9c6.5-0.8,11.7-6.4,11.9-12.7c0.1-2.4-0.7-5-2.2-7.1c-2-2.8-5-4.4-8.5-4.5c-2.2-0.1-6.1,0.6-8.4,5.7l6.4,2.8
	c0.7-1.6,1.3-1.5,1.8-1.6c1.4,0.1,2.3,0.5,3,1.5c0.7,0.9,0.9,2.1,0.9,2.8c-0.1,2.9-2.7,5.6-5.8,6c-1.9,0.2-3.6,0-5-0.5
	c-0.4-0.2-0.9-0.4-1.3-0.6c-0.3-0.2-0.6-0.4-0.9-0.6c-2-1.6-3.3-4.1-3.7-7.2c-0.4-3.3,0.5-6.4,2.5-8.9c2.3-2.9,6-4.8,10.2-5.2
	c4.3-0.4,8.3,0.8,11.4,3.4c3.3,2.8,5.4,6.9,5.7,11.6c0.5,7-2.5,11.6-5.1,14.2c-3.5,3.5-8.4,5.7-13.6,6.1c-4.3,0.3-8.1-0.3-11.9-2
	c-0.4-0.2-0.7-0.3-1.1-0.5c0,0-0.1,0-0.1-0.1c-0.1-0.1-0.3-0.1-0.4-0.2v0c-14.7-6.9-29-13.9-42.5-23.7l-2.1-1.5l-2.1,1.5
	c-13.6,9.8-28.4,17.1-42.5,23.7l0,0c-0.2,0.1-0.3,0.2-0.5,0.2c0,0,0,0,0,0c-0.3,0.2-0.7,0.3-1,0.5c-3.8,1.7-7.6,2.3-11.9,2
	c-5.7-0.4-11.1-3-14.6-7.1c-3.1-3.6-4.6-8.2-4.2-13.2c0.4-4.7,2.4-8.8,5.7-11.5c3.1-2.6,7.2-3.9,11.4-3.4c4.1,0.4,7.9,2.3,10.2,5.2
	c2,2.5,2.9,5.6,2.5,8.9c-0.4,3.1-1.7,5.6-3.7,7.2c-0.3,0.2-0.5,0.4-0.8,0.6c-0.5,0.2-0.9,0.4-1.4,0.7c-1.5,0.6-3.2,0.8-5,0.5
	c-3.1-0.4-5.7-3.1-5.8-6c0-0.7,0.2-1.9,0.9-2.8c0.7-1,1.7-1.5,3.1-1.5c0.3,0,1,0,1.7,1.6l6.4-2.8c-2.3-5.1-6.1-5.7-8.4-5.7
	c-3.5,0.1-6.6,1.7-8.5,4.5c-1.4,2-2.3,4.7-2.2,7.1c0.2,6.4,5.5,11.9,11.9,12.7C68.6,77.6,72.1,76.9,75.2,75.2z M83.1,56.2
	c7.9-3.9,22.2-12.1,31.2-18.9c1,1.9,2.2,3.7,3.6,5.2c-8.9,7.5-22.8,15-34.9,21.1c0.1-0.5,0.2-1,0.2-1.5C83.5,60,83.5,58.1,83.1,56.2
	z M128.7,42.3c1.4-1.5,2.7-3.2,3.7-5.1c9,6.8,23.4,15.1,31.3,19c-0.4,1.9-0.4,3.9-0.2,5.9c0.1,0.5,0.1,1,0.2,1.5
	C151.5,57.4,137.6,49.8,128.7,42.3z M123.2,37.8c-2.9-2.9-4.7-7.5-4.7-12.6c-0.1-5.4,1.7-10.3,4.8-13.5c3.2,3,5.1,7.5,5.1,12.5
	C128.5,29.5,126.6,34.5,123.2,37.8z M153.9,211.7L153.9,211.7v7H169c4.4,0.2,9.2,1.7,12.8,4.2c4.8,3.3,8.1,8.3,9.1,13.7
	c0.9,4.8-0.2,9.6-3.1,13.8c-2.7,3.9-6.6,6.5-10.9,7.2c-4.1,0.7-8.3-0.3-11.8-2.9c-4.3-3.1-6.8-8.3-6.5-13.4c0.3-5,4-9.1,8.8-9.8
	c0,0,0.1,0,0.1,0v0c0.5-0.1,1.1-0.1,1.6-0.1c2.5,0,4.2,0.6,6.3,2.2c2.6,2,3.6,5.9,2.2,8.4c-0.5,0.9-1.6,2.3-4,2.3c0,0,0,0-0.1,0
	c-2.3,0-3.1-2.5-3.1-3.2l-7,0.1c0,4.2,3.5,10.1,10,10.2c3.9-0.1,8.1-2.1,10.2-5.8c3.1-5.5,1.3-13.3-4-17.4
	c-3.3-2.5-6.6-3.6-10.6-3.6c-0.6,0-1.4,0.1-2.1,0.1c-5.9,0-11.7,0-17.6,0h0v-12.7v-2.9v-27.1l-17.7-9.3l5.1-2.6l17.1,9.1v30V211.7z
	 M97.4,224.4c-5.8,0-11.7,0-17.6,0c-0.7-0.1-1.5,0-2.2-0.1c-4,0-7.3,1.1-10.6,3.6c-5.4,4.1-7.2,11.9-4,17.4c2,3.7,5.7,5.8,10.1,5.8
	c6.5-0.1,10-5.9,10-10.2l-7-0.1c0,0.7-0.8,3.2-3.1,3.2c0,0,0,0,0,0c-2.4,0-3.4-1.4-3.9-2.2c-1.5-2.6-0.5-6.5,2.1-8.5
	c2.1-1.6,3.7-2.2,6.4-2.2c0.5,0,1,0,1.5,0.1v0c0.1,0,0.1,0,0.1,0c4.8,0.8,8.5,4.8,8.8,9.8c0.3,5.2-2.2,10.3-6.5,13.4
	c-3.5,2.6-7.7,3.6-11.8,2.9c-4.4-0.7-8.2-3.3-10.9-7.2c-2.9-4.2-4-9-3.1-13.8c1-5.4,4.3-10.4,9.1-13.7c3.7-2.5,8.3-4,12.8-4.2h15.1
	v-7v-2.9v-29.9l56.5-28.7v-24.3l-26-13.2l0,0l-26,13.2v42.9l-4.5,2.3V123l30.5-15.5l30.5,15.5v6.3v23.8c-8.1,4.1-16.2,8.2-24.2,12.4
	c-1.2,0.6-2.4,1.3-3.6,1.9l-9.7,5c-5,2.5-10,4.9-15,7.4l-3.9,1.9v27.1v2.9v7V224.4z M183.7,206L183.7,206L183.7,206l-0.1,0.2l0,0
	l0,0l-0.1,0.1l0,0l0,0l-0.1,0.1l0,0.1l0,0l-0.1,0.2l0,0l-0.1,0.2l-0.1,0.1l-0.1,0.1l0,0l0,0.1l-0.1,0.1l0,0l0,0.1l-0.1,0.1l0,0l0,0
	l-0.1,0.1l0,0l0,0l-0.1,0.1l0,0.1l0,0l-0.1,0.2l0,0l-0.1,0.1l-0.1,0.1v0l0,0l-0.1,0.2l0,0l0,0.1l0,0.1l0,0l0,0.1l0,0.1l0,0l0,0
	l0,0.1l0,0h0c-0.5,0.9-0.8,1.8-1.1,2.7h-11.5c-0.6,0-1.2,0-1.7,0h-6.5v-37.2l-16.6-8.7c4.3-2.2,9.7-5,16.6-8.5v-28.1v-2.3h0l0-6.5
	c0-0.9-0.2-1.8-1-2.2l-3.6-1.8v0l-32.8-16.7L93.2,115l-2.7,1.3v0l-3.6,1.8c-0.8,0.4-1,1.4-1,2.2l0,3.7v50.4v7.8v29.3h-6.5
	c-0.6,0-1.2,0-1.7,0H66.1c-0.3-0.9-0.7-1.9-1.1-2.7h0c-0.2-0.5-0.5-0.9-0.8-1.3l0,0l-0.2-0.3l0-0.1l0,0l-0.1-0.2l0,0l-0.1-0.2
	l-0.1-0.2l0,0l-0.1-0.2l0,0l0-0.1l-0.1-0.1l0,0l0,0l-0.1-0.1l0,0l0,0l-0.1-0.1l0-0.1l0,0c-2.1-2.8-5-5-8.2-6.3V199v-4.9v-6.3
	c0-0.6,0-1.2,0-1.8v-64c0-0.6,0-1.2,0-1.8v-1.8c0.4-16.3,10-24.3,25.3-31.6c0.4-0.2,0.8-0.4,1.2-0.6c13.8-6.5,28.4-13.6,42-23.1
	c13.5,9.5,27.5,16.3,41.9,23.1c0.4,0.2,0.9,0.4,1.3,0.6c15.3,7.4,24.8,15.4,25.3,31.7v1.6c0,0.6,0,1.2,0,1.9v64c0,0.6,0,1.2,0,1.8
	v6.3v4.9v0.7C188.7,201,185.8,203.2,183.7,206z M123.2,3l-1.9,1.3c-6.1,4.2-9.9,12.2-9.8,20.9c0,1.7,0.2,3.3,0.5,4.9
	c-8.1,6.5-23.3,15.4-31.4,19.5c-0.4-0.6-0.8-1.1-1.2-1.7c-3.5-4.4-9-7.2-14.9-7.8c-6.1-0.6-12.1,1.2-16.6,5c-4.8,4-7.7,9.8-8.2,16.4
	c-0.3,4.1,0.3,8,1.7,11.5c-5.2,4.3-10,11.4-12.3,18.1c-5.9-0.5-11.7,1-16.8,4.6c-5.5,3.8-9.1,9.3-10.1,15.5c-1,6,0.5,12,4.1,17.1
	c3.8,5.3,9.7,8.5,16.2,9.2v32.8c-6.5,0.7-12.3,3.9-16.2,9.2c-3.7,5.1-5.2,11.1-4.1,17.1c1.1,6.2,4.7,11.7,10.1,15.5
	c3.2,2.2,6.6,3.6,10.2,4.3v27.6h26.5c0.6,3.6,2.1,7.1,4.3,10.3c3.8,5.5,9.3,9.1,15.5,10.1c6,1,12-0.5,17.1-4.1
	c6.3-4.6,9.8-11.9,9.4-19.5c-0.2-3.5-1.4-6.8-3.4-9.4l12.6,0V227v-20.3v-20.6c11.5-5.7,16.9-8.3,19.6-9.6l18.4,9.6v20.7V228v0v3.4
	l12.6,0c-2,2.7-3.2,5.9-3.4,9.5c-0.4,7.6,3.1,14.9,9.4,19.5c5.1,3.7,11.2,5.2,17.1,4.1c6.2-1.1,11.7-4.6,15.5-10.1
	c2.2-3.2,3.7-6.7,4.3-10.3h26.5v-27.6c3.6-0.6,7-2.1,10.2-4.3c5.5-3.8,9.1-9.3,10.1-15.5c1-6-0.5-12-4.1-17.1
	c-3.8-5.2-9.7-8.5-16.2-9.2v-32.8c6.5-0.6,12.3-3.9,16.2-9.2c3.7-5,5.2-11.1,4.1-17.1c-1.1-6.2-4.7-11.8-10.1-15.5
	c-5.1-3.5-10.8-5-16.8-4.6c-2.3-6.7-7.1-13.9-12.3-18.2c1.4-3.5,2-7.4,1.7-11.5c-0.5-6.5-3.4-12.4-8.2-16.4
	c-4.6-3.8-10.5-5.6-16.6-5c-6,0.6-11.5,3.4-14.9,7.8c-0.4,0.5-0.8,1.1-1.2,1.7c-8.2-4.1-23.2-12.9-31.4-19.4c0.4-2,0.6-4.1,0.6-6.2
	c-0.1-8.3-4-15.6-10.3-19.8L123.2,3z"/>
<path class="st0" d="M74.5,199H64.4c2.2,2,4.1,4.4,5.5,7h1v0h3.6h3.1h3.9v-7v-60.9v-13.9v-4.3c-0.1-1.9,0.6-4.4,2.7-5.3l11-5.6
	l28.3-14.4l28.3,14.4l3.9,2l7.2,3.6c2,0.8,2.8,3.4,2.7,5.3v7.1v6.5v4.6v22l-2.5,1.3c-3,1.5-5.9,3-8.9,4.5l11.3,5.9V206h0h1.9h8.6v0
	h1c1.4-2.6,3.3-5,5.5-7h-10.1v-31.4l-3.1-1.6l3.1-1.6v-26.3v-4.6v-13.6c0-5.6-2.9-9.6-6.5-11.5l-10.3-5.2l-3.9-2l-28.3-14.4
	l-37.5,19l-5,2.5c-3.6,1.8-6.5,5.8-6.5,11.5v4.3v13.9V199z"/>
</svg>
