<?xml version="1.0" encoding="utf-8"?>
<!-- Generator: Adobe Illustrator 24.0.1, SVG Export Plug-In . SVG Version: 6.00 Build 0)  -->
<svg version="1.1" id="Layer_1" xmlns="http://www.w3.org/2000/svg" xmlns:xlink="http://www.w3.org/1999/xlink" x="0px" y="0px"
	 viewBox="0 0 612 792" style="enable-background:new 0 0 612 792;" xml:space="preserve">
<style type="text/css">
	.st0{fill:#BF966C;}
	.st1{fill:#9B9B9B;}
	.st2{fill:#C4C5C5;}
</style>
<path class="st0" d="M465.3,361.8l11.6,5.9v9.6l-23.2,11.8v-21.4L465.3,361.8z M407.8,420.6c0.4,0,0.7-0.1,1.1-0.2
	c0.8-0.1,1.6-0.4,2.4-0.6v9.8h9.1c-0.3,0.8-0.5,1.6-0.6,2.4c-0.1,0.3-0.1,0.7-0.2,1h-11.8V420.6z M510.1,429.6h9.1v-9.8
	c0.4,0.1,0.8,0.3,1.3,0.4c0.8,0.2,1.5,0.3,2.3,0.4V433h-11.8c0-0.3-0.1-0.7-0.2-1C510.6,431.2,510.4,430.4,510.1,429.6z M504,421.3
	l0.1-1.4c0.3-2.7,2.9-5.5,5.6-6l1.2-0.2c1.1,1.5,2.5,2.8,4,3.9v7.7h-7C506.8,423.8,505.5,422.4,504,421.3z M415.6,417.6
	c1.5-1.1,2.9-2.4,4-3.9l1.2,0.2c2.7,0.5,5.3,3.4,5.6,6l0.1,1.4c-1.5,1.1-2.9,2.5-3.9,4h-7V417.6z M407.8,371.9
	c1.3-0.3,2.5-0.9,3.5-1.7l0,23.9c-1.1-0.8-2.3-1.4-3.6-1.7V371.9z M519.2,394.1l0-23.9c1.1,0.8,2.2,1.4,3.5,1.7v20.5
	C521.5,392.8,520.3,393.4,519.2,394.1z M405,368c-3.2,0-6.1-1.4-7.9-3.9c-1.6-2.2-2.2-4.7-1.8-7.2c0.5-2.7,2-5,4.4-6.7
	c2.6-1.8,5.5-2.5,8.4-1.9c3.3,0.6,6.4,2.6,8.4,5.6c1.5,2.2,2.5,5.1,2.6,7.8l0,41.2c-0.1,2.7-1,5.6-2.6,7.8c-2,3-5.1,5-8.4,5.6
	c-2.9,0.5-5.9-0.1-8.4-1.9c-2.4-1.7-3.9-4-4.4-6.7c-0.4-2.5,0.2-5.1,1.8-7.2c2-2.7,5.3-4.2,8.8-3.9c2.8,0.2,5.2,2.7,5.5,5.7l0,0.6
	c0,1.4-0.4,2.8-1.3,3.9c-0.8,1.1-2.4,1.9-3.9,1.8c-1.4,0-2.8-0.8-2.8-2.4c0-0.5,0.1-0.8,0.4-1.1c0.6-0.6,1.6-0.9,2.3-0.9l0-4.3
	c-1.6,0-3.8,0.6-5.4,2.2c-1.1,1.1-1.7,2.6-1.6,4.2c0.1,3.7,3.1,6.5,7,6.6c2.8-0.1,5.7-1.3,7.3-3.5c1.5-1.9,2.2-4.2,2.2-6.6
	c0-0.3,0-0.5,0-0.7l-0.1-39c0.1-0.5,0.1-0.9,0.1-1.4c0-2.3-0.8-4.6-2.2-6.4c-1.7-2.3-4.6-3.7-7.3-3.7c0,0,0,0-0.1,0
	c-1.9,0-3.7,0.8-5.1,2.2c-1.3,1.4-2,3.2-2,5.1c0.2,3.9,4.1,6.3,7,6.1l0-4.3c0,0,0,0,0,0c-0.8,0-2.6-0.7-2.7-2c0-0.7,0.2-1.4,0.8-2
	c0.5-0.6,1.3-0.9,2-0.9c0,0,0,0,0,0c1.4,0,3,0.8,3.9,2c0.9,1.2,1.3,2.5,1.3,3.9c0,0.3,0,0.6-0.1,0.9h0l0,0.2c-0.5,2.8-2.7,5-5.4,5.2
	C405.6,367.9,405.3,368,405,368z M511.4,361.6c0.1-2.7,1-5.6,2.6-7.8c1.8-2.7,4.6-4.6,7.6-5.4c2.2-0.6,5.7-0.8,9.3,1.7
	c2.4,1.7,4,4,4.4,6.7c0.4,2.5-0.2,5.1-1.8,7.2c-2,2.7-5.2,4.2-8.8,3.9c-2.7-0.2-5-2.5-5.4-5.3l0-0.1c0-0.3-0.1-0.6-0.1-0.9
	c0-1.4,0.5-2.7,1.3-3.9c0.9-1.2,2.4-1.9,3.9-2c0.7,0,1.5,0.3,2,0.9c0.5,0.5,0.8,1.2,0.8,2c-0.1,1.2-1.7,2-2.7,2l0,4.3
	c2.6,0.1,6.9-2.1,7-6.1c0.1-1.9-0.6-3.7-2-5.1c-1.4-1.4-3.1-2-5.1-2.2c-2.7,0-5.6,1.5-7.3,3.7c-1.4,1.9-2.2,4.1-2.2,6.4
	c0,0.5,0,0.9,0.1,1.3l-0.1,39.1c0,0.2,0,0.5,0,0.7c0,2.4,0.8,4.6,2.2,6.6c1.7,2.2,4.4,3.5,7.2,3.5c0,0,0.1,0,0.1,0
	c3.9,0,7-2.9,7-6.6c0-1.6-0.5-3.1-1.6-4.2c-1.5-1.6-3.8-2.2-5.4-2.2l0,4.3c0.7,0,1.7,0.3,2.3,0.9c0.3,0.3,0.4,0.7,0.4,1.1
	c0,1.5-1.4,2.3-2.8,2.4c0,0,0,0-0.1,0c-1.5,0-3-0.7-3.8-1.8c-0.9-1.2-1.3-2.5-1.3-3.9h0v-0.5c0.3-3,2.6-5.5,5.5-5.7
	c3.6-0.3,6.8,1.2,8.8,3.9c1.6,2.2,2.2,4.7,1.8,7.2c-0.5,2.7-2,5-4.4,6.7c-3.6,2.5-7,2.3-9.3,1.7c-3-0.8-5.7-2.7-7.6-5.4
	c-1.5-2.2-2.5-5.1-2.6-7.8V361.6z M418.1,349c1.3-2.8,3.1-5.4,5.7-7.6c1.4,0.6,2.8,1,4.3,1.2c-3.2,2.5-5.9,5.6-7.4,9.7
	c-0.2-0.3-0.4-0.6-0.6-0.9C419.5,350.5,418.8,349.7,418.1,349z M502.5,342.6c1.5-0.2,2.9-0.6,4.3-1.2c2.5,2.3,4.4,4.8,5.7,7.7
	c-0.7,0.7-1.3,1.5-1.9,2.3c-0.2,0.3-0.4,0.6-0.6,0.9C508.3,348.2,505.7,345.1,502.5,342.6z M411.7,344.8c1.1-3,3.3-6.2,5.5-8.3
	c0.1,0.1,0.2,0.3,0.3,0.4c0.7,0.8,1.5,1.6,2.3,2.2c-2.2,2.2-4,4.5-5.3,7.1C413.7,345.7,412.7,345.2,411.7,344.8z M510.6,339.1
	c0.6-0.4,1.1-0.9,1.6-1.4c0.4-0.4,0.8-0.8,1.1-1.3c2.3,2.1,4.4,5.3,5.5,8.3c-1,0.4-2,0.9-3,1.5C514.6,343.7,512.8,341.3,510.6,339.1
	z M435.8,334c8.7-4.2,21.9-10.7,29.5-17.3c7.6,6.6,20.8,13.1,29.5,17.3c1.8,1.1,4,1.5,6.4,1.2c4-0.5,7.2-3.9,7.3-7.8
	c0.1-1.5-0.4-3.1-1.3-4.3c-1.2-1.7-3.1-2.7-5.2-2.7c-1.4,0-3.7,0.4-5.1,3.5l3.9,1.7c0.4-1,0.8-0.9,1.1-1c0.8,0,1.4,0.3,1.9,0.9
	c0.4,0.6,0.6,1.3,0.5,1.7c-0.1,1.8-1.7,3.4-3.5,3.7c-1.1,0.1-2.2,0-3.1-0.3c-0.3-0.1-0.5-0.3-0.8-0.4c-0.2-0.1-0.4-0.2-0.5-0.4
	c-1.2-1-2-2.5-2.2-4.4c-0.2-2,0.3-3.9,1.5-5.4c1.4-1.8,3.7-2.9,6.2-3.2c2.6-0.3,5.1,0.5,7,2.1c2,1.7,3.3,4.2,3.5,7.1
	c0.3,4.3-1.5,7.1-3.1,8.7c-2.1,2.1-5.2,3.5-8.3,3.7c-2.6,0.2-4.9-0.2-7.3-1.2c-0.2-0.1-0.5-0.2-0.7-0.3c0,0-0.1,0-0.1,0
	c-0.1,0-0.2-0.1-0.3-0.1v0c-9-4.2-17.7-8.5-26-14.5l-1.3-0.9l-1.3,0.9c-8.3,6-17.4,10.5-26,14.5l0,0c-0.1,0.1-0.2,0.1-0.3,0.1
	c0,0,0,0,0,0c-0.2,0.1-0.4,0.2-0.6,0.3c-2.3,1.1-4.6,1.4-7.3,1.2c-3.5-0.3-6.8-1.9-8.9-4.4c-1.9-2.2-2.8-5-2.6-8.1
	c0.2-2.8,1.5-5.4,3.5-7.1c1.9-1.6,4.4-2.4,7-2.1c2.5,0.3,4.8,1.4,6.2,3.2c1.2,1.5,1.7,3.4,1.5,5.4c-0.2,1.9-1,3.5-2.2,4.4
	c-0.2,0.1-0.3,0.2-0.5,0.3c-0.3,0.1-0.6,0.3-0.8,0.4c-0.9,0.4-2,0.5-3.1,0.3c-1.9-0.2-3.5-1.9-3.5-3.7c0-0.4,0.2-1.1,0.5-1.7
	c0.4-0.6,1-0.9,1.9-0.9c0.2,0,0.6,0,1.1,1l3.9-1.7c-1.4-3.1-3.7-3.5-5.1-3.5c-2.2,0.1-4,1-5.2,2.7c-0.9,1.2-1.4,2.9-1.3,4.3
	c0.1,3.9,3.3,7.3,7.3,7.8C431.7,335.5,433.9,335.1,435.8,334z M440.6,322.4c4.8-2.4,13.5-7.4,19.1-11.6c0.6,1.2,1.3,2.2,2.2,3.2
	c-5.5,4.6-13.9,9.2-21.3,12.9c0.1-0.3,0.1-0.6,0.1-0.9C440.9,324.8,440.9,323.6,440.6,322.4z M468.5,313.9c0.9-0.9,1.6-2,2.3-3.1
	c5.5,4.2,14.3,9.2,19.1,11.6c-0.2,1.2-0.3,2.4-0.1,3.6c0,0.3,0.1,0.6,0.1,0.9C482.5,323.2,474,318.5,468.5,313.9z M465.2,311.2
	c-1.8-1.8-2.8-4.6-2.9-7.7c0-3.3,1.1-6.3,2.9-8.2c1.9,1.8,3.1,4.6,3.1,7.6C468.4,306.1,467.3,309.1,465.2,311.2z M483.9,417.5
	L483.9,417.5v4.3h9.2c2.7,0.1,5.6,1,7.8,2.6c2.9,2,5,5.1,5.6,8.4c0.5,2.9-0.1,5.9-1.9,8.4c-1.6,2.4-4,3.9-6.7,4.4
	c-2.5,0.4-5.1-0.2-7.2-1.8c-2.6-1.9-4.1-5.1-4-8.2c0.2-3.1,2.5-5.5,5.4-6c0,0,0.1,0,0.1,0v0c0.3,0,0.7-0.1,1-0.1
	c1.5,0,2.6,0.4,3.9,1.3c1.6,1.2,2.2,3.6,1.3,5.1c-0.3,0.6-1,1.4-2.4,1.4c0,0,0,0,0,0c-1.4,0-1.9-1.6-1.9-2l-4.3,0
	c0,2.6,2.2,6.2,6.1,6.2c2.4,0,5-1.3,6.2-3.6c1.9-3.4,0.8-8.2-2.4-10.6c-2-1.5-4-2.2-6.5-2.2c-0.4,0-0.9,0-1.3,0.1
	c-3.6,0-7.2,0-10.7,0h0v-7.8v-1.8v-16.6l-10.8-5.7l3.1-1.6l10.5,5.5v18.3V417.5z M449.4,425.3c-3.6,0-7.2,0-10.7,0
	c-0.4,0-0.9,0-1.3-0.1c-2.4,0-4.4,0.7-6.5,2.2c-3.3,2.5-4.4,7.3-2.4,10.6c1.2,2.3,3.5,3.5,6.2,3.6c4,0,6.1-3.6,6.1-6.2l-4.3,0
	c0,0.4-0.5,2-1.9,2c0,0,0,0,0,0c-1.4,0-2.1-0.8-2.4-1.3c-0.9-1.6-0.3-4,1.3-5.2c1.3-1,2.3-1.3,3.9-1.3c0.3,0,0.6,0,0.9,0.1v0
	c0,0,0.1,0,0.1,0c2.9,0.5,5.2,2.9,5.4,6c0.2,3.2-1.3,6.3-4,8.2c-2.2,1.6-4.7,2.2-7.2,1.8c-2.7-0.5-5-2-6.7-4.4
	c-1.8-2.6-2.4-5.5-1.9-8.4c0.6-3.3,2.6-6.4,5.6-8.4c2.2-1.5,5.1-2.5,7.8-2.6h9.2v-4.3v-1.8v-18.3l34.5-17.5V365l-15.9-8.1l0,0
	l-15.9,8.1v26.2l-2.8,1.4v-29.4l18.7-9.5l18.6,9.5v3.8v14.6c-4.9,2.5-9.9,5-14.8,7.6c-0.7,0.4-1.5,0.8-2.2,1.2l-5.9,3.1
	c-3.1,1.5-6.1,3-9.2,4.5l-2.4,1.2v16.6v1.8v4.3V425.3z M502.1,414L502.1,414L502.1,414L502.1,414l-0.1,0.1l0,0l0,0.1l0,0l0,0l0,0.1
	l0,0l0,0l-0.1,0.1l0,0l-0.1,0.1l0,0.1l0,0.1l0,0l0,0l0,0.1l0,0l0,0l0,0.1l0,0l0,0l0,0.1l0,0l0,0l0,0.1l0,0l0,0l-0.1,0.1l0,0l0,0.1
	l0,0.1v0l0,0l-0.1,0.1l0,0l0,0l0,0.1l0,0l0,0l0,0.1l0,0l0,0l0,0.1l0,0h0c-0.3,0.5-0.5,1.1-0.7,1.7h-7c-0.4,0-0.7,0-1.1,0h-4v-22.7
	l-10.2-5.3c2.6-1.3,5.9-3,10.2-5.2v-17.2v-1.4h0l0-4c0-0.5-0.1-1.1-0.6-1.4l-2.2-1.1v0L465.3,349l-18.5,9.4l-1.6,0.8v0l-2.2,1.1
	c-0.5,0.3-0.6,0.8-0.6,1.4l0,2.3v30.8v4.8v17.9h-4c-0.4,0-0.7,0-1.1,0h-7c-0.2-0.6-0.4-1.1-0.7-1.7h0c-0.1-0.3-0.3-0.5-0.5-0.8l0,0
	l-0.1-0.2l0,0l0,0l-0.1-0.1l0,0l-0.1-0.1l-0.1-0.1l0,0l-0.1-0.1l0,0l0,0l0-0.1l0,0l0,0l0-0.1l0,0l0,0l0-0.1l0,0l0,0
	c-1.3-1.7-3.1-3.1-5-3.9v-0.4v-3v-3.9c0-0.4,0-0.7,0-1.1v-39.2c0-0.4,0-0.7,0-1.1v-1.1c0.3-9.9,6.1-14.8,15.5-19.3
	c0.2-0.1,0.5-0.2,0.7-0.3c8.4-4,17.3-8.3,25.7-14.1c8.2,5.8,16.8,10,25.7,14.1c0.3,0.1,0.5,0.3,0.8,0.4c9.4,4.5,15.2,9.4,15.5,19.4
	v1c0,0.4,0,0.8,0,1.1v39.1c0,0.4,0,0.7,0,1.1v3.9v3v0.4C505.2,410.9,503.4,412.3,502.1,414z M465.2,289.9l-1.2,0.8
	c-3.7,2.6-6,7.5-6,12.8c0,1,0.1,2,0.3,3c-5,4-14.2,9.4-19.2,11.9c-0.2-0.4-0.5-0.7-0.7-1c-2.1-2.7-5.5-4.4-9.1-4.8
	c-3.7-0.4-7.4,0.7-10.2,3.1c-2.9,2.5-4.7,6-5,10c-0.2,2.5,0.2,4.9,1,7c-3.2,2.6-6.1,7-7.5,11.1c-3.6-0.3-7.1,0.6-10.3,2.8
	c-3.3,2.3-5.5,5.7-6.2,9.5c-0.6,3.6,0.3,7.4,2.5,10.4c2.3,3.2,5.9,5.2,9.9,5.6v20.1c-4,0.4-7.6,2.4-9.9,5.6
	c-2.3,3.1-3.2,6.8-2.5,10.5c0.6,3.8,2.8,7.2,6.2,9.5c1.9,1.4,4.1,2.2,6.2,2.6v16.9h16.2c0.4,2.2,1.3,4.3,2.6,6.3
	c2.3,3.3,5.7,5.5,9.5,6.2c3.7,0.6,7.4-0.3,10.5-2.5c3.8-2.8,6-7.3,5.7-11.9c-0.1-2.2-0.9-4.1-2.1-5.8l7.7,0v-2.7v-12.4v-12.6
	c7.1-3.5,10.3-5.1,12-5.9l11.3,5.9v12.6v13v0v2.1l7.7,0c-1.2,1.6-2,3.6-2.1,5.8c-0.3,4.7,1.9,9.1,5.7,11.9c3.1,2.3,6.8,3.2,10.5,2.5
	c3.8-0.6,7.2-2.8,9.5-6.2c1.4-2,2.2-4.1,2.6-6.3H527v-16.9c2.2-0.4,4.3-1.3,6.2-2.6c3.3-2.3,5.5-5.7,6.2-9.5
	c0.6-3.6-0.3-7.4-2.5-10.5c-2.3-3.2-5.9-5.2-9.9-5.6v-20.1c4-0.4,7.5-2.4,9.9-5.6c2.2-3.1,3.2-6.8,2.5-10.4
	c-0.6-3.8-2.8-7.2-6.2-9.5c-3.1-2.1-6.6-3.1-10.2-2.8c-1.4-4.1-4.4-8.5-7.5-11.1c0.9-2.2,1.2-4.5,1-7c-0.3-4-2.1-7.6-5-10
	c-2.8-2.3-6.4-3.4-10.2-3.1c-3.7,0.4-7,2.1-9.1,4.8c-0.3,0.3-0.5,0.7-0.7,1c-5-2.5-14.2-7.9-19.2-11.9c0.3-1.2,0.4-2.5,0.4-3.8
	c-0.1-5.1-2.4-9.6-6.3-12.1L465.2,289.9z"/>
<path class="st1" d="M435.3,409.8h-6.1c1.3,1.2,2.5,2.7,3.3,4.3h0.6v0h2.2h1.9h2.4v-4.3v-37.2V364v-2.7c0-1.2,0.4-2.7,1.6-3.2
	l6.7-3.4l17.3-8.8l17.3,8.8l2.4,1.2l4.4,2.2c1.3,0.5,1.7,2.1,1.6,3.2v4.4v4v2.8V386l-1.5,0.8c-1.8,0.9-3.6,1.8-5.4,2.8l6.9,3.6V414
	h0h1.2h5.3v0h0.6c0.9-1.6,2-3,3.3-4.3h-6.1v-19.2l-1.9-1l1.9-1v-16.1v-2.8v-8.3c0-3.5-1.8-5.9-4-7l-6.3-3.2l-2.4-1.2l-17.3-8.8
	l-22.9,11.6l-3,1.5c-2.2,1.1-4,3.6-4,7v2.7v8.5V409.8z"/>
<g>
	<path class="st0" d="M102.5,385.1c-6.9,0-11.9-1.8-15.1-5.4c-3.2-3.6-4.8-8.1-4.8-13.5v-15.8H94v14.1c0,7.3,4,11,11.9,11h9.5v-45.1
		h11.4v54.8H102.5z M98.1,330.4v-10.2h11.7v10.2H98.1z"/>
	<path class="st0" d="M139,370.6v-62.2h11.4v62.2H139z"/>
	<path class="st0" d="M204.4,361.2c0.1,0.2,0.2,0.4,0.2,0.5v8.1c0,0.2-0.1,0.3-0.2,0.5c-0.1,0.2-0.3,0.3-0.6,0.3h-5.1
		c-0.5,6.1-2.5,10.6-6,13.3c-3.5,2.8-8.4,4.7-14.7,5.7l-4.6-10.2c3.4-0.4,6-1,8-1.8c2-0.8,3.5-2,4.5-3.5c1-1.5,1.5-3.6,1.5-6.3v-28
		c-1.9-0.4-3.6-0.6-5.2-0.6c-6.6,0-9.9,3.7-9.9,11.1c0,3.3,0.9,5.8,2.6,7.7c1.7,1.9,4.2,2.8,7.4,2.8h3.6l-4.4,9.8h-1.1
		c-3.7,0-7.1-0.8-10.1-2.5c-3-1.7-5.4-4.1-7.1-7.2c-1.7-3.1-2.6-6.7-2.6-10.7c0-3.9,0.9-7.4,2.8-10.6s4.4-5.6,7.8-7.4
		c3.3-1.8,7.2-2.7,11.6-2.7c3.7,0,9.1,0.5,16.2,1.6v29.7h5C204.1,360.8,204.3,361,204.4,361.2z"/>
	<path class="st0" d="M215,361.1c0.1,0.2,0.2,0.4,0.2,0.5v8.1c0,0.2-0.1,0.3-0.2,0.5c-0.1,0.2-0.3,0.3-0.7,0.3h-10.6
		c-0.3,0-0.5-0.1-0.7-0.3c-0.1-0.2-0.2-0.4-0.2-0.5v-8.1c0-0.2,0.1-0.3,0.2-0.5c0.1-0.2,0.3-0.3,0.7-0.3h10.6
		C214.6,360.8,214.9,360.9,215,361.1z"/>
	<path class="st0" d="M225.5,361.1c0.1,0.2,0.2,0.4,0.2,0.5v8.1c0,0.2-0.1,0.3-0.2,0.5c-0.1,0.2-0.3,0.3-0.7,0.3h-10.6
		c-0.3,0-0.5-0.1-0.7-0.3c-0.1-0.2-0.2-0.4-0.2-0.5v-8.1c0-0.2,0.1-0.3,0.2-0.5c0.1-0.2,0.3-0.3,0.7-0.3h10.6
		C225.2,360.8,225.4,360.9,225.5,361.1z"/>
	<path class="st0" d="M236.1,361.1c0.1,0.2,0.2,0.4,0.2,0.5v8.1c0,0.2-0.1,0.3-0.2,0.5c-0.1,0.2-0.3,0.3-0.7,0.3h-10.6
		c-0.3,0-0.5-0.1-0.7-0.3c-0.1-0.2-0.2-0.4-0.2-0.5v-8.1c0-0.2,0.1-0.3,0.2-0.5c0.1-0.2,0.3-0.3,0.7-0.3h10.6
		C235.8,360.8,236,360.9,236.1,361.1z"/>
	<path class="st0" d="M246.7,361.1c0.1,0.2,0.2,0.4,0.2,0.5v8.1c0,0.2-0.1,0.3-0.2,0.5c-0.1,0.2-0.3,0.3-0.7,0.3h-10.6
		c-0.3,0-0.5-0.1-0.7-0.3c-0.1-0.2-0.2-0.4-0.2-0.5v-8.1c0-0.2,0.1-0.3,0.2-0.5c0.1-0.2,0.3-0.3,0.7-0.3H246
		C246.3,360.8,246.6,360.9,246.7,361.1z"/>
	<path class="st0" d="M257.2,361.1c0.1,0.2,0.2,0.4,0.2,0.5v8.1c0,0.2-0.1,0.3-0.2,0.5c-0.1,0.2-0.3,0.3-0.7,0.3H246
		c-0.3,0-0.5-0.1-0.7-0.3c-0.1-0.2-0.2-0.4-0.2-0.5v-8.1c0-0.2,0.1-0.3,0.2-0.5c0.1-0.2,0.3-0.3,0.7-0.3h10.6
		C256.9,360.8,257.1,360.9,257.2,361.1z"/>
	<path class="st0" d="M314.7,332.2c3.3,1.8,5.9,4.3,7.6,7.4c1.7,3.1,2.6,6.7,2.6,10.6c0,5.1-1.6,11.9-4.9,20.4h-63.5
		c-0.3,0-0.5-0.1-0.7-0.3c-0.1-0.2-0.2-0.4-0.2-0.5v-8.1c0-0.2,0.1-0.3,0.2-0.5c0.1-0.2,0.3-0.3,0.7-0.3h8.1v-30.6h11.4v8.5
		c9.3-6.2,18.2-9.3,26.7-9.3C307.4,329.5,311.4,330.4,314.7,332.2z M288.2,341.8c-4,1.6-8,3.8-12.1,6.7v12.4h35.4
		c1.1-3.7,1.6-7.2,1.6-10.5c-0.1-3.3-1.2-6-3.4-8c-2.2-2-5.2-3-8.9-3C296.4,339.4,292.2,340.2,288.2,341.8z M296.5,323.4v-10.2h11.7
		v10.2H296.5z"/>
	<path class="st0" d="M343.4,383.7c-3.3,3.3-7.5,5.3-12.7,5.9l-4.6-10.2c2.7-0.4,4.7-0.9,6.3-1.5c1.5-0.7,2.7-1.7,3.4-3.2
		c0.8-1.5,1.1-3.6,1.1-6.2v-38.2h11.4v37.9C348.3,375.2,346.7,380.4,343.4,383.7z"/>
</g>
<g>
	<path class="st2" d="M90.6,435c-1.4,0-2.7-0.2-3.8-0.7c-1.1-0.5-2.1-1.2-2.7-2.2c-0.7-1-1-2.2-1-3.5v-8h2v8c0,1.3,0.5,2.4,1.5,3.3
		c1,0.9,2.4,1.3,4.3,1.3h6.1v-20.4h2V435H90.6z M89.4,412.1v-3h2.2v3H89.4z"/>
	<path class="st2" d="M101.7,404.9l0.4-1.5h7.3v1.5H101.7z M107.8,426.4c0.5,0.5,1.2,0.7,2.2,0.7h0.7c0.1,0,0.2,0,0.3,0.1
		c0,0.1,0.1,0.2,0.1,0.2v1.2c0,0.1,0,0.1-0.1,0.2c0,0.1-0.1,0.1-0.3,0.1H110c-1.7,0-2.9-0.5-3.7-1.4c-0.8-0.9-1.2-2.1-1.2-3.6v-16h2
		v16.1C107.1,425.1,107.3,425.9,107.8,426.4z"/>
	<path class="st2" d="M124.2,413.6c1.3,0.8,2.2,1.8,2.8,3.1c0.6,1.3,0.9,2.6,0.9,4.1c0,1.3-0.2,2.7-0.6,4.2c-0.4,1.5-0.9,2.9-1.5,4
		h-15.1c-0.1,0-0.2,0-0.3-0.1c0-0.1-0.1-0.2-0.1-0.2v-1.2c0-0.1,0-0.1,0.1-0.2c0-0.1,0.1-0.1,0.3-0.1h3.1v-13.9
		c2.2-0.5,4-0.7,5.5-0.7C121.3,412.4,122.9,412.8,124.2,413.6z M115.8,414.7v12.4h8.7c0.9-2,1.3-4.1,1.3-6.2c0-1.7-0.5-3.3-1.6-4.6
		s-2.7-1.9-5.1-1.9C118.1,414.3,117,414.4,115.8,414.7z"/>
	<path class="st2" d="M137.2,400.9l-0.5,1.6c-0.7-0.2-1.2-0.3-1.6-0.3c-0.3,0-0.6,0.1-0.8,0.3c-0.2,0.2-0.4,0.4-0.4,0.8
		c0,0.4,0.2,0.7,0.5,1h3.3v1.5H131l0.4-1.5h1.3c-0.2-0.5-0.3-0.9-0.3-1.3c0-0.7,0.2-1.4,0.7-1.9c0.4-0.5,1.1-0.8,1.9-0.8
		C135.5,400.4,136.3,400.6,137.2,400.9z M136.3,426.4c0.5,0.5,1.2,0.7,2.2,0.7h0.7c0.1,0,0.2,0,0.3,0.1c0,0.1,0.1,0.2,0.1,0.2v1.2
		c0,0.1,0,0.1-0.1,0.2c0,0.1-0.1,0.1-0.3,0.1h-0.8c-1.7,0-2.9-0.5-3.7-1.4c-0.8-0.9-1.2-2.1-1.2-3.6v-16h2v16.1
		C135.5,425.1,135.8,425.9,136.3,426.4z"/>
	<path class="st2" d="M139.2,429c-0.1,0-0.2,0-0.3-0.1c0-0.1-0.1-0.2-0.1-0.2v-1.2c0-0.1,0-0.1,0.1-0.2c0-0.1,0.1-0.1,0.3-0.1h4.8
		v-14.3h2V429H139.2z M143.6,436.3v-3h2.2v3H143.6z"/>
	<path class="st2" d="M186.4,426.4c0.5,0.5,1.2,0.7,2.2,0.7h0.7c0.1,0,0.2,0,0.3,0.1c0,0.1,0.1,0.2,0.1,0.2v1.2c0,0.1,0,0.1-0.1,0.2
		c0,0.1-0.1,0.1-0.3,0.1h-0.7c-2,0-3.5-0.7-4.2-2.1c-2,1.4-4.1,2.1-6.3,2.1h-10.1c-1.4,0-2.7-0.2-3.8-0.7c-1.1-0.5-2.1-1.2-2.7-2.2
		s-1-2.2-1-3.5v-4.9h2v4.9c0,1.3,0.5,2.4,1.5,3.3c1,0.9,2.4,1.3,4.3,1.3h10.3c2.3,0,4.1-0.5,5.6-1.6c-0.1-0.4-0.1-0.9-0.1-1.4v-21.8
		h2v21.9C185.7,425.1,185.9,425.9,186.4,426.4z M176.1,410.5l-0.6,1.6c-0.6-0.2-1.1-0.3-1.5-0.3c-0.5,0-0.9,0.2-1.2,0.5
		c-0.3,0.3-0.5,0.8-0.5,1.4c0,0.7,0.3,1.4,1,1.8h4.5v1.7h-9.3l0.4-1.7h2.4c-0.5-0.6-0.8-1.2-0.8-1.9c0-1,0.3-1.8,0.9-2.5
		c0.6-0.7,1.5-1,2.6-1C174.6,410.1,175.3,410.3,176.1,410.5z"/>
	<path class="st2" d="M196.4,424.3c0.4,0.8,0.9,1.5,1.8,2c0.8,0.5,1.8,0.8,3,0.8c0.1,0,0.2,0,0.3,0.1c0,0.1,0.1,0.2,0.1,0.2v1.2
		c0,0.1,0,0.1-0.1,0.2c0,0.1-0.1,0.1-0.3,0.1c-2.4,0-4.2-1-5.6-2.9c-0.6,0.9-1.4,1.6-2.3,2.1c-1,0.5-2,0.8-3.2,0.8h-0.8
		c-0.1,0-0.2,0-0.3-0.1c0-0.1-0.1-0.2-0.1-0.2v-1.2c0-0.1,0-0.1,0.1-0.2c0-0.1,0.1-0.1,0.3-0.1h0.7c1.4,0,2.6-0.5,3.5-1.4
		s1.3-2.1,1.3-3.4v-19.4h2v19.4C196.8,422.9,196.7,423.6,196.4,424.3z"/>
	<path class="st2" d="M210.7,424.2c0.4,0.8,1.1,1.5,2.2,2s2.4,0.8,3.9,0.8c0.1,0,0.2,0,0.3,0.1c0,0.1,0.1,0.2,0.1,0.2v1.2
		c0,0.1,0,0.1-0.1,0.2c0,0.1-0.1,0.1-0.3,0.1c-1.7,0-3.1-0.2-4.2-0.7c-1.1-0.5-2-1.2-2.8-2.2c-0.6,0.9-1.4,1.6-2.3,2.2
		c-1,0.5-2,0.8-3.2,0.8h-3.1c-0.1,0-0.2,0-0.3-0.1c0-0.1-0.1-0.2-0.1-0.2v-1.2c0-0.1,0-0.1,0.1-0.2c0-0.1,0.1-0.1,0.3-0.1h3.1
		c1.4,0,2.6-0.5,3.5-1.4c0.9-0.9,1.3-2.1,1.3-3.4v-9.5h2v9.5C211,422.9,210.9,423.5,210.7,424.2z M205.6,409.2v-3h2.2v3H205.6z
		 M211.8,409.2v-3h2.2v3H211.8z"/>
	<path class="st2" d="M230.2,413.6c1.3,0.8,2.2,1.8,2.8,3.1c0.6,1.3,0.9,2.6,0.9,4.1c0,1.3-0.2,2.7-0.6,4.2c-0.4,1.5-0.9,2.9-1.5,4
		h-15.1c-0.1,0-0.2,0-0.3-0.1c0-0.1-0.1-0.2-0.1-0.2v-1.2c0-0.1,0-0.1,0.1-0.2c0-0.1,0.1-0.1,0.3-0.1h3.1v-13.9
		c2.2-0.5,4-0.7,5.5-0.7C227.3,412.4,228.9,412.8,230.2,413.6z M221.9,414.7v12.4h8.7c0.9-2,1.3-4.1,1.3-6.2c0-1.7-0.5-3.3-1.6-4.6
		c-1-1.3-2.7-1.9-5.1-1.9C224.1,414.3,223,414.4,221.9,414.7z"/>
	<path class="st2" d="M243.1,430.6l-0.5,1.6c-0.7-0.2-1.2-0.3-1.6-0.3c-0.3,0-0.6,0.1-0.8,0.3c-0.3,0.2-0.4,0.4-0.4,0.8
		c0,0.4,0.2,0.7,0.5,1h3.3v1.5h-6.6l0.4-1.5h1.3c-0.2-0.5-0.3-0.9-0.3-1.3c0-0.7,0.2-1.4,0.7-1.9c0.4-0.5,1.1-0.8,1.9-0.8
		C241.4,430.1,242.1,430.2,243.1,430.6z M239.9,429v-26.1h2V429H239.9z"/>
	<path class="st2" d="M247.4,428.4v-3.2h2.6v3.2H247.4z"/>
	<path class="st2" d="M254.2,428.4v-3.2h2.6v3.2H254.2z"/>
	<path class="st2" d="M269.6,435c-2.4,0-4.3-0.6-5.7-1.9c-1.4-1.3-2.1-3-2.1-5.1v-7.5h3v7.3c0,1.3,0.5,2.4,1.4,3.3
		c0.9,0.9,2.3,1.3,4.1,1.3h5.3v-19.9h3V435H269.6z M268.2,412.1v-3.4h3.2v3.4H268.2z"/>
	<path class="st2" d="M284.3,429v-26.1h3V429H284.3z"/>
	<path class="st2" d="M310.8,426.4c0,0.1,0.1,0.2,0.1,0.2v2c0,0.1,0,0.1-0.1,0.2c0,0.1-0.1,0.1-0.3,0.1H307c0,2.4-0.7,4.2-2,5.4
		c-1.3,1.3-3.3,2.1-5.8,2.5l-1.2-2.7c2.1-0.3,3.6-0.9,4.6-1.7c1-0.8,1.5-2,1.5-3.6v-13.7c-1.1-0.2-2.1-0.4-3-0.4
		c-1.7,0-3.1,0.6-4.1,1.7c-1,1.1-1.5,2.6-1.5,4.3c0,1.5,0.5,2.8,1.4,3.9s2.2,1.6,3.9,1.6h2.1l-1.2,2.7h-1.1c-1.7,0-3.2-0.4-4.4-1.1
		c-1.2-0.8-2.2-1.8-2.8-3c-0.6-1.3-1-2.7-1-4.2c0-1.5,0.3-2.9,1-4.2s1.7-2.3,3-3.1c1.3-0.8,2.9-1.2,4.7-1.2c1.3,0,2.9,0.2,4.9,0.6
		c0.2,0,0.5,0.1,1,0.2v13.4h3.4C310.6,426.3,310.7,426.3,310.8,426.4z"/>
	<path class="st2" d="M334.5,413.3c1.3,0.8,2.3,1.8,3,3.1c0.6,1.3,1,2.7,1,4.2c0,1.3-0.2,2.7-0.6,4.3c-0.4,1.5-0.9,2.9-1.5,4.1
		h-25.8c-0.1,0-0.2,0-0.3-0.1c0-0.1-0.1-0.2-0.1-0.2v-2c0-0.1,0-0.1,0.1-0.2c0-0.1,0.1-0.1,0.3-0.1h4.2v-13.8h3v4.3
		c2.3-1.5,4.3-2.7,6.2-3.5c1.9-0.8,3.8-1.2,5.8-1.2C331.5,412.2,333.2,412.6,334.5,413.3z M323.8,416c-1.8,0.8-3.8,2-6.1,3.6v6.6
		h16.6c0.7-1.8,1.1-3.7,1.1-5.6c0-1.6-0.5-3-1.5-4.1c-1-1.1-2.6-1.7-4.6-1.7C327.4,414.9,325.6,415.3,323.8,416z M328.1,409.2v-3.4
		h3.2v3.4H328.1z"/>
	<path class="st2" d="M340.4,436.9l-1.2-2.7c1.6-0.2,2.8-0.7,3.6-1.5c0.7-0.8,1.1-2,1.1-3.7v-16.5h3v16.4
		C346.8,433.4,344.7,436.1,340.4,436.9z"/>
</g>
</svg>
