<?xml version="1.0" encoding="utf-8"?>
<!-- Generator: Adobe Illustrator 24.0.3, SVG Export Plug-In . SVG Version: 6.00 Build 0)  -->
<svg version="1.1" id="Layer_1" xmlns="http://www.w3.org/2000/svg" xmlns:xlink="http://www.w3.org/1999/xlink" x="0px" y="0px"
	 viewBox="0 0 36.2 13" xml:space="preserve">
<style type="text/css">
	.st0{fill:#BF966C}
	.st1{fill:#9B9B9B;}
</style>
<path class="st0" d="M30.2,5.8l0.9,0.5v0.8L29.3,8V6.3L30.2,5.8z M25.6,10.5C25.7,10.5,25.7,10.5,25.6,10.5c0.2,0,0.2,0,0.3-0.1v0.8
	h0.7c0,0.1,0,0.1-0.1,0.2c0,0,0,0.1,0,0.1h-0.9V10.5z M33.7,11.2h0.7v-0.8c0,0,0.1,0,0.1,0c0.1,0,0.1,0,0.2,0v1h-0.9
	c0,0,0-0.1,0-0.1C33.7,11.3,33.7,11.2,33.7,11.2z M33.2,10.5l0-0.1c0-0.2,0.2-0.4,0.4-0.5l0.1,0c0.1,0.1,0.2,0.2,0.3,0.3v0.6h-0.6
	C33.5,10.7,33.3,10.6,33.2,10.5z M26.3,10.2c0.1-0.1,0.2-0.2,0.3-0.3l0.1,0c0.2,0,0.4,0.3,0.4,0.5l0,0.1c-0.1,0.1-0.2,0.2-0.3,0.3
	h-0.6V10.2z M25.6,6.6c0.1,0,0.2-0.1,0.3-0.1l0,1.9c-0.1-0.1-0.2-0.1-0.3-0.1V6.6z M34.4,8.4l0-1.9c0.1,0.1,0.2,0.1,0.3,0.1v1.6
	C34.6,8.3,34.5,8.3,34.4,8.4z M25.4,6.3c-0.3,0-0.5-0.1-0.6-0.3c-0.1-0.2-0.2-0.4-0.1-0.6c0-0.2,0.2-0.4,0.3-0.5
	c0.2-0.1,0.4-0.2,0.7-0.2c0.3,0,0.5,0.2,0.7,0.4c0.1,0.2,0.2,0.4,0.2,0.6l0,3.2c0,0.2-0.1,0.4-0.2,0.6c-0.2,0.2-0.4,0.4-0.7,0.4
	c-0.2,0-0.5,0-0.7-0.2c-0.2-0.1-0.3-0.3-0.3-0.5c0-0.2,0-0.4,0.1-0.6c0.2-0.2,0.4-0.3,0.7-0.3c0.2,0,0.4,0.2,0.4,0.4l0,0
	c0,0.1,0,0.2-0.1,0.3c-0.1,0.1-0.2,0.1-0.3,0.1c-0.1,0-0.2-0.1-0.2-0.2c0,0,0-0.1,0-0.1c0,0,0.1-0.1,0.2-0.1l0-0.3
	c-0.1,0-0.3,0-0.4,0.2C25,9.1,25,9.2,25,9.3c0,0.3,0.2,0.5,0.6,0.5c0.2,0,0.4-0.1,0.6-0.3c0.1-0.2,0.2-0.3,0.2-0.5c0,0,0,0,0-0.1
	l0-3.1c0,0,0-0.1,0-0.1c0-0.2-0.1-0.4-0.2-0.5C26,5.1,25.7,5,25.5,5c0,0,0,0,0,0c-0.1,0-0.3,0.1-0.4,0.2C25,5.3,25,5.5,25,5.6
	c0,0.3,0.3,0.5,0.6,0.5l0-0.3c0,0,0,0,0,0c-0.1,0-0.2-0.1-0.2-0.2c0-0.1,0-0.1,0.1-0.2c0,0,0.1-0.1,0.2-0.1c0,0,0,0,0,0
	c0.1,0,0.2,0.1,0.3,0.2c0.1,0.1,0.1,0.2,0.1,0.3c0,0,0,0,0,0.1h0l0,0C25.9,6.1,25.7,6.3,25.4,6.3C25.5,6.3,25.5,6.3,25.4,6.3z
	 M33.8,5.8c0-0.2,0.1-0.4,0.2-0.6c0.1-0.2,0.4-0.4,0.6-0.4c0.2,0,0.4-0.1,0.7,0.1c0.2,0.1,0.3,0.3,0.3,0.5c0,0.2,0,0.4-0.1,0.6
	c-0.2,0.2-0.4,0.3-0.7,0.3c-0.2,0-0.4-0.2-0.4-0.4l0,0c0,0,0,0,0-0.1c0-0.1,0-0.2,0.1-0.3c0.1-0.1,0.2-0.2,0.3-0.2
	c0.1,0,0.1,0,0.2,0.1c0,0,0.1,0.1,0.1,0.2c0,0.1-0.1,0.2-0.2,0.2l0,0.3c0.2,0,0.5-0.2,0.6-0.5c0-0.1,0-0.3-0.2-0.4
	C35.1,5.1,35,5,34.8,5c-0.2,0-0.4,0.1-0.6,0.3c-0.1,0.1-0.2,0.3-0.2,0.5c0,0,0,0.1,0,0.1l0,3.1c0,0,0,0,0,0.1c0,0.2,0.1,0.4,0.2,0.5
	c0.1,0.2,0.3,0.3,0.6,0.3c0,0,0,0,0,0c0.3,0,0.5-0.2,0.6-0.5c0-0.1,0-0.2-0.1-0.3c-0.1-0.1-0.3-0.2-0.4-0.2l0,0.3
	c0.1,0,0.1,0,0.2,0.1c0,0,0,0.1,0,0.1c0,0.1-0.1,0.2-0.2,0.2c0,0,0,0,0,0c-0.1,0-0.2-0.1-0.3-0.1c-0.1-0.1-0.1-0.2-0.1-0.3h0v0
	c0-0.2,0.2-0.4,0.4-0.5c0.3,0,0.5,0.1,0.7,0.3c0.1,0.2,0.2,0.4,0.1,0.6c0,0.2-0.2,0.4-0.3,0.5c-0.3,0.2-0.6,0.2-0.7,0.1
	c-0.2-0.1-0.5-0.2-0.6-0.4c-0.1-0.2-0.2-0.4-0.2-0.6V5.8z M26.5,4.8c0.1-0.2,0.2-0.4,0.4-0.6c0.1,0,0.2,0.1,0.3,0.1
	c-0.3,0.2-0.5,0.4-0.6,0.8c0,0,0,0,0-0.1C26.6,5,26.5,4.9,26.5,4.8z M33.1,4.3c0.1,0,0.2-0.1,0.3-0.1c0.2,0.2,0.3,0.4,0.4,0.6
	C33.8,4.9,33.8,5,33.7,5c0,0,0,0,0,0.1C33.6,4.8,33.4,4.5,33.1,4.3z M26,4.5C26,4.3,26.2,4,26.4,3.8c0,0,0,0,0,0
	c0.1,0.1,0.1,0.1,0.2,0.2c-0.2,0.2-0.3,0.4-0.4,0.6C26.1,4.6,26,4.5,26,4.5z M33.7,4.1c0,0,0.1-0.1,0.1-0.1c0,0,0.1-0.1,0.1-0.1
	c0.2,0.2,0.3,0.4,0.4,0.7c-0.1,0-0.2,0.1-0.2,0.1C34.1,4.4,33.9,4.2,33.7,4.1z M27.9,3.7c0.7-0.3,1.7-0.8,2.3-1.4
	c0.6,0.5,1.6,1,2.3,1.4c0.1,0.1,0.3,0.1,0.5,0.1c0.3,0,0.6-0.3,0.6-0.6c0-0.1,0-0.2-0.1-0.3c-0.1-0.1-0.2-0.2-0.4-0.2
	c-0.1,0-0.3,0-0.4,0.3L33,3c0-0.1,0.1-0.1,0.1-0.1c0.1,0,0.1,0,0.1,0.1c0,0,0,0.1,0,0.1c0,0.1-0.1,0.3-0.3,0.3c-0.1,0-0.2,0-0.2,0
	c0,0,0,0-0.1,0c0,0,0,0,0,0c-0.1-0.1-0.2-0.2-0.2-0.3c0-0.2,0-0.3,0.1-0.4c0.1-0.1,0.3-0.2,0.5-0.3c0.2,0,0.4,0,0.6,0.2
	c0.2,0.1,0.3,0.3,0.3,0.6c0,0.3-0.1,0.6-0.2,0.7C33.5,3.9,33.2,4,33,4c-0.2,0-0.4,0-0.6-0.1c0,0,0,0-0.1,0c0,0,0,0,0,0c0,0,0,0,0,0
	v0c-0.7-0.3-1.4-0.7-2-1.1l-0.1-0.1l-0.1,0.1c-0.7,0.5-1.4,0.8-2,1.1l0,0c0,0,0,0,0,0c0,0,0,0,0,0c0,0,0,0-0.1,0
	C27.8,4,27.6,4,27.4,4c-0.3,0-0.5-0.1-0.7-0.3c-0.2-0.2-0.2-0.4-0.2-0.6c0-0.2,0.1-0.4,0.3-0.6c0.2-0.1,0.3-0.2,0.6-0.2
	c0.2,0,0.4,0.1,0.5,0.3c0.1,0.1,0.1,0.3,0.1,0.4c0,0.1-0.1,0.3-0.2,0.3c0,0,0,0,0,0c0,0,0,0-0.1,0c-0.1,0-0.2,0-0.2,0
	c-0.1,0-0.3-0.1-0.3-0.3c0,0,0-0.1,0-0.1c0,0,0.1-0.1,0.1-0.1c0,0,0,0,0.1,0.1l0.3-0.1c-0.1-0.2-0.3-0.3-0.4-0.3
	c-0.2,0-0.3,0.1-0.4,0.2c-0.1,0.1-0.1,0.2-0.1,0.3c0,0.3,0.3,0.6,0.6,0.6C27.5,3.8,27.7,3.7,27.9,3.7z M28.2,2.7
	c0.4-0.2,1.1-0.6,1.5-0.9c0,0.1,0.1,0.2,0.2,0.2c-0.4,0.4-1.1,0.7-1.7,1c0,0,0,0,0-0.1C28.3,2.9,28.3,2.8,28.2,2.7z M30.4,2.1
	c0.1-0.1,0.1-0.2,0.2-0.2c0.4,0.3,1.1,0.7,1.5,0.9c0,0.1,0,0.2,0,0.3c0,0,0,0,0,0.1C31.5,2.8,30.9,2.4,30.4,2.1z M30.2,1.9
	c-0.1-0.1-0.2-0.4-0.2-0.6c0-0.3,0.1-0.5,0.2-0.6c0.2,0.1,0.2,0.4,0.2,0.6C30.4,1.5,30.3,1.7,30.2,1.9z M31.6,10.2L31.6,10.2v0.3
	h0.7c0.2,0,0.4,0.1,0.6,0.2c0.2,0.2,0.4,0.4,0.4,0.7c0,0.2,0,0.5-0.2,0.7c-0.1,0.2-0.3,0.3-0.5,0.3c-0.2,0-0.4,0-0.6-0.1
	c-0.2-0.2-0.3-0.4-0.3-0.6c0-0.2,0.2-0.4,0.4-0.5c0,0,0,0,0,0v0c0,0,0.1,0,0.1,0c0.1,0,0.2,0,0.3,0.1c0.1,0.1,0.2,0.3,0.1,0.4
	c0,0-0.1,0.1-0.2,0.1c0,0,0,0,0,0c-0.1,0-0.1-0.1-0.1-0.2l-0.3,0c0,0.2,0.2,0.5,0.5,0.5c0.2,0,0.4-0.1,0.5-0.3
	c0.2-0.3,0.1-0.6-0.2-0.8c-0.2-0.1-0.3-0.2-0.5-0.2c0,0-0.1,0-0.1,0c-0.3,0-0.6,0-0.8,0h0v-0.6v-0.1V8.8l-0.9-0.4l0.2-0.1l0.8,0.4
	v1.4V10.2z M28.9,10.8c-0.3,0-0.6,0-0.8,0c0,0-0.1,0-0.1,0c-0.2,0-0.3,0.1-0.5,0.2c-0.3,0.2-0.3,0.6-0.2,0.8
	c0.1,0.2,0.3,0.3,0.5,0.3c0.3,0,0.5-0.3,0.5-0.5l-0.3,0c0,0,0,0.2-0.1,0.2c0,0,0,0,0,0c-0.1,0-0.2-0.1-0.2-0.1
	c-0.1-0.1,0-0.3,0.1-0.4c0.1-0.1,0.2-0.1,0.3-0.1c0,0,0,0,0.1,0v0c0,0,0,0,0,0c0.2,0,0.4,0.2,0.4,0.5c0,0.2-0.1,0.5-0.3,0.6
	c-0.2,0.1-0.4,0.2-0.6,0.1c-0.2,0-0.4-0.2-0.5-0.3c-0.1-0.2-0.2-0.4-0.2-0.7c0-0.3,0.2-0.5,0.4-0.7c0.2-0.1,0.4-0.2,0.6-0.2h0.7
	v-0.3v-0.1V8.7l2.7-1.4V6.1l-1.3-0.6l0,0l-1.3,0.6v2.1l-0.2,0.1V6l1.5-0.7L31.6,6v0.3v1.1c-0.4,0.2-0.8,0.4-1.2,0.6
	c-0.1,0-0.1,0.1-0.2,0.1l-0.5,0.2c-0.2,0.1-0.5,0.2-0.7,0.4l-0.2,0.1v1.3v0.1v0.3V10.8z M33.1,10L33.1,10L33.1,10L33.1,10L33.1,10
	L33.1,10L33.1,10L33.1,10L33.1,10L33.1,10L33.1,10L33.1,10L33.1,10L33.1,10L33.1,10L33.1,10L33.1,10L33.1,10L33.1,10L33.1,10
	L33.1,10L33.1,10L33.1,10L33.1,10L33.1,10L33.1,10L33.1,10L33.1,10L33.1,10L33.1,10L33.1,10L33.1,10L33.1,10L33,10.1l0,0v0l0,0l0,0
	l0,0l0,0l0,0l0,0l0,0l0,0l0,0l0,0l0,0l0,0h0c0,0,0,0.1-0.1,0.1h-0.6c0,0-0.1,0-0.1,0H32V8.4L31.2,8c0.2-0.1,0.5-0.2,0.8-0.4V6.3V6.1
	h0l0-0.3c0,0,0-0.1,0-0.1l-0.2-0.1v0l-1.6-0.8l-1.5,0.7l-0.1,0.1v0l-0.2,0.1c0,0,0,0.1,0,0.1l0,0.2v2.4v0.4v1.4h-0.3
	c0,0-0.1,0-0.1,0h-0.6c0,0,0-0.1-0.1-0.1h0c0,0,0,0,0-0.1l0,0l0,0l0,0l0,0l0,0l0,0l0,0l0,0l0,0l0,0l0,0l0,0l0,0l0,0l0,0l0,0l0,0l0,0
	l0,0l0,0l0,0c-0.1-0.1-0.2-0.2-0.4-0.3v0V9.4V9.1c0,0,0-0.1,0-0.1V5.9c0,0,0-0.1,0-0.1V5.7c0-0.8,0.5-1.2,1.2-1.5c0,0,0,0,0.1,0
	c0.7-0.3,1.4-0.7,2-1.1c0.6,0.5,1.3,0.8,2,1.1c0,0,0,0,0.1,0C33,4.6,33.5,5,33.5,5.7v0.1c0,0,0,0.1,0,0.1V9c0,0,0,0.1,0,0.1v0.3v0.2
	v0C33.3,9.7,33.2,9.8,33.1,10z M30.2,0.2L30.2,0.2c-0.4,0.3-0.6,0.7-0.6,1.1c0,0.1,0,0.2,0,0.2c-0.4,0.3-1.1,0.7-1.5,0.9
	c0,0,0-0.1-0.1-0.1C27.9,2.1,27.6,2,27.3,2c-0.3,0-0.6,0.1-0.8,0.2c-0.2,0.2-0.4,0.5-0.4,0.8c0,0.2,0,0.4,0.1,0.6
	c-0.2,0.2-0.5,0.6-0.6,0.9c-0.3,0-0.6,0-0.8,0.2c-0.3,0.2-0.4,0.4-0.5,0.7c0,0.3,0,0.6,0.2,0.8c0.2,0.3,0.5,0.4,0.8,0.4v1.6
	c-0.3,0-0.6,0.2-0.8,0.4c-0.2,0.2-0.2,0.5-0.2,0.8c0.1,0.3,0.2,0.6,0.5,0.7c0.2,0.1,0.3,0.2,0.5,0.2v1.3h1.3c0,0.2,0.1,0.3,0.2,0.5
	c0.2,0.3,0.4,0.4,0.7,0.5c0.3,0,0.6,0,0.8-0.2c0.3-0.2,0.5-0.6,0.5-0.9c0-0.2-0.1-0.3-0.2-0.5l0.6,0V11v-1V9
	c0.6-0.3,0.8-0.4,0.9-0.5L31.1,9v1v1v0v0.2l0.6,0c-0.1,0.1-0.2,0.3-0.2,0.5c0,0.4,0.1,0.7,0.5,0.9c0.2,0.2,0.5,0.2,0.8,0.2
	c0.3-0.1,0.6-0.2,0.7-0.5c0.1-0.2,0.2-0.3,0.2-0.5H35v-1.3c0.2,0,0.3-0.1,0.5-0.2c0.3-0.2,0.4-0.4,0.5-0.7c0-0.3,0-0.6-0.2-0.8
	c-0.2-0.3-0.5-0.4-0.8-0.4V6.7c0.3,0,0.6-0.2,0.8-0.4C36,6,36.1,5.7,36,5.4c-0.1-0.3-0.2-0.6-0.5-0.7c-0.2-0.2-0.5-0.2-0.8-0.2
	c-0.1-0.3-0.3-0.7-0.6-0.9c0.1-0.2,0.1-0.4,0.1-0.6c0-0.3-0.2-0.6-0.4-0.8C33.6,2,33.3,1.9,33,2c-0.3,0-0.6,0.2-0.7,0.4
	c0,0,0,0.1-0.1,0.1c-0.4-0.2-1.1-0.6-1.5-0.9c0-0.1,0-0.2,0-0.3C30.8,0.8,30.6,0.4,30.2,0.2L30.2,0.2z"/>
<path class="st1" d="M27.8,9.6h-0.5c0.1,0.1,0.2,0.2,0.3,0.3h0v0h0.2H28h0.2V9.6V6.7V6V5.8c0-0.1,0-0.2,0.1-0.3l0.5-0.3l1.4-0.7
	l1.4,0.7l0.2,0.1l0.3,0.2c0.1,0,0.1,0.2,0.1,0.3v0.3v0.3v0.2v1.1l-0.1,0.1C31.9,7.9,31.8,8,31.7,8l0.5,0.3V10h0h0.1h0.4v0h0
	c0.1-0.1,0.2-0.2,0.3-0.3h-0.5V8.1L32.4,8L32.5,8V6.7V6.5V5.8c0-0.3-0.1-0.5-0.3-0.6L31.7,5l-0.2-0.1l-1.4-0.7l-1.8,0.9l-0.2,0.1
	c-0.2,0.1-0.3,0.3-0.3,0.6V6v0.7V9.6z"/>
<g>
	<path class="st0" d="M1.8,7.7c-0.5,0-0.9-0.1-1.2-0.4C0.4,7,0.2,6.6,0.2,6.2V4.9h0.9V6c0,0.6,0.3,0.9,0.9,0.9h0.7V3.4h0.9v4.3H1.8z
		 M1.5,3.4V2.6h0.9v0.8H1.5z"/>
	<path class="st0" d="M4.7,6.5V1.6h0.9v4.9H4.7z"/>
	<path class="st0" d="M9.8,5.8C9.9,5.8,9.9,5.8,9.8,5.8l0,0.7c0,0,0,0,0,0c0,0,0,0-0.1,0H9.4c0,0.5-0.2,0.8-0.5,1
		C8.6,7.8,8.3,8,7.8,8L7.4,7.2c0.3,0,0.5-0.1,0.6-0.1C8.2,7,8.3,6.9,8.4,6.8c0.1-0.1,0.1-0.3,0.1-0.5V4.1c-0.1,0-0.3,0-0.4,0
		c-0.5,0-0.8,0.3-0.8,0.9c0,0.3,0.1,0.5,0.2,0.6c0.1,0.1,0.3,0.2,0.6,0.2h0.3L8,6.5H7.9c-0.3,0-0.6-0.1-0.8-0.2
		C6.9,6.2,6.7,6,6.6,5.8S6.4,5.2,6.4,4.9c0-0.3,0.1-0.6,0.2-0.8C6.7,3.8,7,3.6,7.2,3.5c0.3-0.1,0.6-0.2,0.9-0.2c0.3,0,0.7,0,1.3,0.1
		v2.3L9.8,5.8C9.8,5.8,9.8,5.8,9.8,5.8z"/>
	<path class="st0" d="M10.7,5.8C10.7,5.8,10.7,5.8,10.7,5.8l0,0.7c0,0,0,0,0,0c0,0,0,0-0.1,0H9.8c0,0,0,0-0.1,0c0,0,0,0,0,0V5.8
		c0,0,0,0,0,0c0,0,0,0,0.1,0L10.7,5.8C10.6,5.8,10.7,5.8,10.7,5.8z"/>
	<path class="st0" d="M11.5,5.8C11.5,5.8,11.5,5.8,11.5,5.8l0,0.7c0,0,0,0,0,0c0,0,0,0-0.1,0h-0.8c0,0,0,0-0.1,0c0,0,0,0,0,0V5.8
		c0,0,0,0,0,0c0,0,0,0,0.1,0L11.5,5.8C11.5,5.8,11.5,5.8,11.5,5.8z"/>
	<path class="st0" d="M12.3,5.8C12.3,5.8,12.4,5.8,12.3,5.8l0,0.7c0,0,0,0,0,0c0,0,0,0-0.1,0h-0.8c0,0,0,0-0.1,0c0,0,0,0,0,0V5.8
		c0,0,0,0,0,0c0,0,0,0,0.1,0L12.3,5.8C12.3,5.8,12.3,5.8,12.3,5.8z"/>
	<path class="st0" d="M13.2,5.8C13.2,5.8,13.2,5.8,13.2,5.8l0,0.7c0,0,0,0,0,0c0,0,0,0-0.1,0h-0.8c0,0,0,0-0.1,0c0,0,0,0,0,0V5.8
		c0,0,0,0,0,0c0,0,0,0,0.1,0L13.2,5.8C13.1,5.8,13.2,5.8,13.2,5.8z"/>
	<path class="st0" d="M14,5.8C14,5.8,14,5.8,14,5.8l0,0.7c0,0,0,0,0,0c0,0,0,0-0.1,0h-0.8c0,0,0,0-0.1,0c0,0,0,0,0,0V5.8
		c0,0,0,0,0,0c0,0,0,0,0.1,0L14,5.8C14,5.8,14,5.8,14,5.8z"/>
	<path class="st0" d="M18.5,3.5c0.3,0.1,0.5,0.3,0.6,0.6c0.1,0.2,0.2,0.5,0.2,0.8c0,0.4-0.1,0.9-0.4,1.6h-5c0,0,0,0-0.1,0
		c0,0,0,0,0,0V5.8c0,0,0,0,0,0c0,0,0,0,0.1,0h0.6V3.4h0.9V4c0.7-0.5,1.4-0.7,2.1-0.7C18,3.3,18.3,3.4,18.5,3.5z M16.4,4.3
		c-0.3,0.1-0.6,0.3-1,0.5v1h2.8c0.1-0.3,0.1-0.6,0.1-0.8c0-0.3-0.1-0.5-0.3-0.6c-0.2-0.2-0.4-0.2-0.7-0.2
		C17.1,4.1,16.8,4.1,16.4,4.3z M17.1,2.8V2H18v0.8H17.1z"/>
	<path class="st0" d="M20.8,7.6c-0.3,0.3-0.6,0.4-1,0.5l-0.4-0.8c0.2,0,0.4-0.1,0.5-0.1s0.2-0.1,0.3-0.3c0.1-0.1,0.1-0.3,0.1-0.5v-3
		h0.9v3C21.2,6.9,21,7.3,20.8,7.6z"/>
</g>
<g>
	<path class="st1" d="M0.9,11.6c-0.1,0-0.2,0-0.3-0.1c-0.1,0-0.2-0.1-0.2-0.2c-0.1-0.1-0.1-0.2-0.1-0.3v-0.6h0.2v0.6
		c0,0.1,0,0.2,0.1,0.3c0.1,0.1,0.2,0.1,0.3,0.1h0.5V9.9h0.2v1.8H0.9z M0.8,9.8V9.6H1v0.2H0.8z"/>
	<path class="st1" d="M1.8,9.2l0-0.1h0.6v0.1H1.8z M2.2,10.9c0,0,0.1,0.1,0.2,0.1h0.1c0,0,0,0,0,0c0,0,0,0,0,0v0.1c0,0,0,0,0,0
		c0,0,0,0,0,0H2.4c-0.1,0-0.2,0-0.3-0.1C2.1,11,2,10.9,2,10.7V9.5h0.2v1.3C2.2,10.8,2.2,10.9,2.2,10.9z"/>
	<path class="st1" d="M3.5,9.9c0.1,0.1,0.2,0.1,0.2,0.2s0.1,0.2,0.1,0.3c0,0.1,0,0.2,0,0.3S3.7,11,3.7,11.1H2.5c0,0,0,0,0,0s0,0,0,0
		V11c0,0,0,0,0,0c0,0,0,0,0,0h0.2V9.9c0.2,0,0.3-0.1,0.4-0.1C3.3,9.8,3.4,9.9,3.5,9.9z M2.9,10v1h0.7c0.1-0.2,0.1-0.3,0.1-0.5
		c0-0.1,0-0.3-0.1-0.4S3.3,10,3.1,10C3,10,3,10,2.9,10z"/>
	<path class="st1" d="M4.6,8.9l0,0.1C4.5,9,4.4,9,4.4,9c0,0,0,0-0.1,0c0,0,0,0,0,0.1c0,0,0,0.1,0,0.1h0.3v0.1H4.1l0-0.1h0.1
		c0,0,0-0.1,0-0.1c0-0.1,0-0.1,0.1-0.2c0,0,0.1-0.1,0.1-0.1C4.4,8.9,4.5,8.9,4.6,8.9z M4.5,10.9c0,0,0.1,0.1,0.2,0.1h0.1
		c0,0,0,0,0,0c0,0,0,0,0,0v0.1c0,0,0,0,0,0c0,0,0,0,0,0H4.6c-0.1,0-0.2,0-0.3-0.1c-0.1-0.1-0.1-0.2-0.1-0.3V9.5h0.2v1.3
		C4.4,10.8,4.4,10.9,4.5,10.9z"/>
	<path class="st1" d="M4.7,11.1C4.7,11.1,4.7,11.1,4.7,11.1C4.7,11.1,4.7,11.1,4.7,11.1l0-0.1c0,0,0,0,0,0c0,0,0,0,0,0h0.4V9.9h0.2
		v1.3H4.7z M5.1,11.7v-0.2h0.2v0.2H5.1z"/>
	<path class="st1" d="M8.4,10.9c0,0,0.1,0.1,0.2,0.1h0.1c0,0,0,0,0,0c0,0,0,0,0,0v0.1c0,0,0,0,0,0c0,0,0,0,0,0H8.6
		c-0.2,0-0.3-0.1-0.3-0.2c-0.2,0.1-0.3,0.2-0.5,0.2H7c-0.1,0-0.2,0-0.3-0.1S6.5,11,6.4,10.9c-0.1-0.1-0.1-0.2-0.1-0.3v-0.4h0.2v0.4
		c0,0.1,0,0.2,0.1,0.3C6.7,10.9,6.8,11,7,11h0.8c0.2,0,0.3,0,0.4-0.1c0,0,0-0.1,0-0.1V9h0.2v1.7C8.4,10.8,8.4,10.9,8.4,10.9z
		 M7.6,9.7l0,0.1c0,0-0.1,0-0.1,0c0,0-0.1,0-0.1,0c0,0,0,0.1,0,0.1c0,0.1,0,0.1,0.1,0.1h0.4v0.1H7l0-0.1h0.2c0,0-0.1-0.1-0.1-0.2
		c0-0.1,0-0.1,0.1-0.2c0-0.1,0.1-0.1,0.2-0.1C7.5,9.6,7.5,9.7,7.6,9.7z"/>
	<path class="st1" d="M9.2,10.8c0,0.1,0.1,0.1,0.1,0.2C9.4,11,9.5,11,9.6,11c0,0,0,0,0,0c0,0,0,0,0,0v0.1c0,0,0,0,0,0c0,0,0,0,0,0
		c-0.2,0-0.3-0.1-0.4-0.2C9.1,11,9,11,9,11.1c-0.1,0-0.2,0.1-0.3,0.1H8.7c0,0,0,0,0,0s0,0,0,0V11c0,0,0,0,0,0c0,0,0,0,0,0h0.1
		c0.1,0,0.2,0,0.3-0.1c0.1-0.1,0.1-0.2,0.1-0.3V9.1h0.2v1.5C9.2,10.7,9.2,10.7,9.2,10.8z"/>
	<path class="st1" d="M10.3,10.8c0,0.1,0.1,0.1,0.2,0.2c0.1,0,0.2,0.1,0.3,0.1c0,0,0,0,0,0c0,0,0,0,0,0v0.1c0,0,0,0,0,0c0,0,0,0,0,0
		c-0.1,0-0.2,0-0.3-0.1c-0.1,0-0.2-0.1-0.2-0.2c0,0.1-0.1,0.1-0.2,0.2s-0.2,0.1-0.3,0.1H9.6c0,0,0,0,0,0s0,0,0,0V11c0,0,0,0,0,0
		c0,0,0,0,0,0h0.2c0.1,0,0.2,0,0.3-0.1s0.1-0.2,0.1-0.3V9.9h0.2v0.7C10.4,10.6,10.4,10.7,10.3,10.8z M9.9,9.6V9.3h0.2v0.2H9.9z
		 M10.4,9.6V9.3h0.2v0.2H10.4z"/>
	<path class="st1" d="M11.9,9.9c0.1,0.1,0.2,0.1,0.2,0.2s0.1,0.2,0.1,0.3c0,0.1,0,0.2,0,0.3S12.1,11,12,11.1h-1.2c0,0,0,0,0,0
		s0,0,0,0V11c0,0,0,0,0,0c0,0,0,0,0,0h0.2V9.9c0.2,0,0.3-0.1,0.4-0.1C11.6,9.8,11.8,9.9,11.9,9.9z M11.2,10v1h0.7
		c0.1-0.2,0.1-0.3,0.1-0.5c0-0.1,0-0.3-0.1-0.4S11.7,10,11.5,10C11.4,10,11.3,10,11.2,10z"/>
	<path class="st1" d="M12.9,11.3l0,0.1c-0.1,0-0.1,0-0.1,0c0,0,0,0-0.1,0c0,0,0,0,0,0.1c0,0,0,0.1,0,0.1h0.3v0.1h-0.5l0-0.1h0.1
		c0,0,0-0.1,0-0.1c0-0.1,0-0.1,0.1-0.2s0.1-0.1,0.1-0.1C12.8,11.2,12.8,11.2,12.9,11.3z M12.6,11.1V9.1h0.2v2.1H12.6z"/>
	<path class="st1" d="M13.2,11.1v-0.2h0.2v0.2H13.2z"/>
	<path class="st1" d="M13.8,11.1v-0.2H14v0.2H13.8z"/>
	<path class="st1" d="M15,11.6c-0.2,0-0.3,0-0.5-0.1c-0.1-0.1-0.2-0.2-0.2-0.4v-0.6h0.2V11c0,0.1,0,0.2,0.1,0.3
		c0.1,0.1,0.2,0.1,0.3,0.1h0.4V9.8h0.2v1.8H15z M14.9,9.8V9.5h0.3v0.3H14.9z"/>
	<path class="st1" d="M16.1,11.1V9.1h0.2v2.1H16.1z"/>
	<path class="st1" d="M18.2,10.9C18.2,10.9,18.2,10.9,18.2,10.9l0,0.2c0,0,0,0,0,0c0,0,0,0,0,0h-0.3c0,0.2-0.1,0.3-0.2,0.4
		c-0.1,0.1-0.3,0.2-0.5,0.2l-0.1-0.2c0.2,0,0.3-0.1,0.4-0.1c0.1-0.1,0.1-0.2,0.1-0.3v-1.1c-0.1,0-0.2,0-0.2,0c-0.1,0-0.2,0-0.3,0.1
		c-0.1,0.1-0.1,0.2-0.1,0.3c0,0.1,0,0.2,0.1,0.3c0.1,0.1,0.2,0.1,0.3,0.1h0.2l-0.1,0.2h-0.1c-0.1,0-0.2,0-0.3-0.1
		c-0.1-0.1-0.2-0.1-0.2-0.2c-0.1-0.1-0.1-0.2-0.1-0.3c0-0.1,0-0.2,0.1-0.3C16.9,10,17,10,17.1,9.9c0.1-0.1,0.2-0.1,0.4-0.1
		c0.1,0,0.2,0,0.4,0c0,0,0,0,0.1,0v1.1L18.2,10.9C18.2,10.9,18.2,10.9,18.2,10.9z"/>
	<path class="st1" d="M20.1,9.9c0.1,0.1,0.2,0.1,0.2,0.2s0.1,0.2,0.1,0.3c0,0.1,0,0.2-0.1,0.3c0,0.1-0.1,0.2-0.1,0.3h-2c0,0,0,0,0,0
		s0,0,0,0v-0.2c0,0,0,0,0,0s0,0,0,0h0.3V9.8h0.2v0.3c0.2-0.1,0.3-0.2,0.5-0.3c0.1-0.1,0.3-0.1,0.5-0.1C19.9,9.8,20,9.8,20.1,9.9z
		 M19.2,10.1c-0.1,0.1-0.3,0.2-0.5,0.3v0.5h1.3c0.1-0.1,0.1-0.3,0.1-0.4c0-0.1,0-0.2-0.1-0.3C20,10.1,19.8,10,19.7,10
		C19.5,10,19.4,10.1,19.2,10.1z M19.6,9.6V9.3h0.3v0.3H19.6z"/>
	<path class="st1" d="M20.6,11.8l-0.1-0.2c0.1,0,0.2-0.1,0.3-0.1c0.1-0.1,0.1-0.2,0.1-0.3V9.8h0.2v1.3
		C21.1,11.5,20.9,11.7,20.6,11.8z"/>
</g>
</svg>
