<?xml version="1.0" encoding="utf-8"?>
<!-- Generator: Adobe Illustrator 24.0.3, SVG Export Plug-In . SVG Version: 6.00 Build 0)  -->
<svg version="1.1" id="Layer_1" xmlns="http://www.w3.org/2000/svg" xmlns:xlink="http://www.w3.org/1999/xlink" x="0px" y="0px"
	 viewBox="0 0 38 64" style="enable-background:new 0 0 38 64;" xml:space="preserve">
<style type="text/css">
	.st0{fill:#BF966C;}
	.st1{fill:#9B9B9B;}
</style>
<path class="st0" d="M19,18.6l2.9,1.5v2.4l-5.8,3v-5.4L19,18.6z M4.6,33.3c0.1,0,0.2,0,0.3,0c0.2,0,0.4-0.1,0.6-0.2v2.5h2.3
	c-0.1,0.2-0.1,0.4-0.2,0.6c0,0.1,0,0.2,0,0.3h-3V33.3z M30.3,35.6h2.3v-2.5c0.1,0,0.2,0.1,0.3,0.1c0.2,0,0.4,0.1,0.6,0.1v3.1h-3
	c0-0.1,0-0.2,0-0.3C30.4,36,30.3,35.8,30.3,35.6z M28.7,33.5l0-0.3c0.1-0.7,0.7-1.4,1.4-1.5l0.3-0.1c0.3,0.4,0.6,0.7,1,1v1.9h-1.8
	C29.4,34.1,29.1,33.8,28.7,33.5z M6.6,32.5c0.4-0.3,0.7-0.6,1-1l0.3,0.1c0.7,0.1,1.3,0.8,1.4,1.5l0,0.3c-0.4,0.3-0.7,0.6-1,1H6.6
	V32.5z M4.6,21.1C5,21,5.3,20.9,5.5,20.7l0,6c-0.3-0.2-0.6-0.3-0.9-0.4V21.1z M32.5,26.7l0-6c0.3,0.2,0.6,0.3,0.9,0.4v5.1
	C33.1,26.3,32.8,26.5,32.5,26.7z M3.9,20.1c-0.8,0-1.5-0.4-2-1c-0.4-0.5-0.5-1.2-0.4-1.8c0.1-0.7,0.5-1.3,1.1-1.7
	c0.6-0.4,1.4-0.6,2.1-0.5c0.8,0.1,1.6,0.7,2.1,1.4c0.4,0.6,0.6,1.3,0.6,2l0,10.3c0,0.7-0.3,1.4-0.6,2c-0.5,0.7-1.3,1.2-2.1,1.4
	c-0.7,0.1-1.5,0-2.1-0.5c-0.6-0.4-1-1-1.1-1.7c-0.1-0.6,0.1-1.3,0.4-1.8c0.5-0.7,1.3-1.1,2.2-1c0.7,0.1,1.3,0.7,1.4,1.4l0,0.1
	c0,0.4-0.1,0.7-0.3,1c-0.2,0.3-0.6,0.5-1,0.5c-0.3,0-0.7-0.2-0.7-0.6c0-0.1,0-0.2,0.1-0.3c0.1-0.1,0.4-0.2,0.6-0.2l0-1.1
	c-0.4,0-1,0.1-1.3,0.5c-0.3,0.3-0.4,0.6-0.4,1c0,0.9,0.8,1.6,1.8,1.6c0.7,0,1.4-0.3,1.8-0.9c0.4-0.5,0.6-1.1,0.6-1.6
	c0-0.1,0-0.1,0-0.2l0-9.8c0-0.1,0-0.2,0-0.4c0-0.6-0.2-1.1-0.6-1.6C5.6,16.4,4.9,16,4.2,16c0,0,0,0,0,0c-0.5,0-0.9,0.2-1.3,0.5
	c-0.3,0.4-0.5,0.8-0.5,1.3c0,1,1,1.6,1.8,1.5l0-1.1c0,0,0,0,0,0c-0.2,0-0.7-0.2-0.7-0.5c0-0.2,0.1-0.4,0.2-0.5
	c0.1-0.1,0.3-0.2,0.5-0.2c0,0,0,0,0,0c0.4,0,0.8,0.2,1,0.5c0.2,0.3,0.3,0.6,0.3,1c0,0.1,0,0.2,0,0.2h0l0,0c-0.1,0.7-0.7,1.3-1.4,1.3
	C4.1,20.1,4,20.1,3.9,20.1z M30.6,18.5c0-0.7,0.3-1.4,0.6-2c0.5-0.7,1.1-1.2,1.9-1.4c0.6-0.1,1.4-0.2,2.3,0.4c0.6,0.4,1,1,1.1,1.7
	c0.1,0.6-0.1,1.3-0.4,1.8c-0.5,0.7-1.3,1-2.2,1c-0.7-0.1-1.2-0.6-1.4-1.3l0,0c0-0.1,0-0.2,0-0.2c0-0.4,0.1-0.7,0.3-1
	c0.2-0.3,0.6-0.5,1-0.5c0.2,0,0.4,0.1,0.5,0.2c0.1,0.1,0.2,0.3,0.2,0.5c0,0.3-0.4,0.5-0.7,0.5l0,1.1c0.7,0,1.7-0.5,1.8-1.5
	c0-0.5-0.2-0.9-0.5-1.3c-0.3-0.4-0.8-0.5-1.3-0.5c-0.7,0-1.4,0.4-1.8,0.9c-0.4,0.5-0.5,1-0.6,1.6c0,0.1,0,0.2,0,0.3l0,9.8
	c0,0.1,0,0.1,0,0.2c0,0.6,0.2,1.2,0.6,1.6c0.4,0.5,1.1,0.9,1.8,0.9c0,0,0,0,0,0c1,0,1.7-0.7,1.8-1.6c0-0.4-0.1-0.8-0.4-1
	c-0.4-0.4-0.9-0.5-1.3-0.5l0,1.1c0.2,0,0.4,0.1,0.6,0.2c0.1,0.1,0.1,0.2,0.1,0.3c0,0.4-0.4,0.6-0.7,0.6c0,0,0,0,0,0
	c-0.4,0-0.8-0.2-1-0.5c-0.2-0.3-0.3-0.6-0.3-1h0v-0.1c0.1-0.7,0.7-1.4,1.4-1.4c0.9-0.1,1.7,0.3,2.2,1c0.4,0.5,0.6,1.2,0.4,1.8
	c-0.1,0.7-0.5,1.3-1.1,1.7c-0.9,0.6-1.8,0.6-2.3,0.4c-0.7-0.2-1.4-0.7-1.9-1.4c-0.4-0.6-0.6-1.3-0.6-2V18.5z M7.2,15.4
	c0.3-0.7,0.8-1.3,1.4-1.9c0.3,0.1,0.7,0.2,1.1,0.3c-0.8,0.6-1.5,1.4-1.9,2.4c0-0.1-0.1-0.2-0.1-0.2C7.6,15.8,7.4,15.6,7.2,15.4z
	 M28.3,13.8c0.4-0.1,0.7-0.2,1.1-0.3c0.6,0.6,1.1,1.2,1.4,1.9c-0.2,0.2-0.3,0.4-0.5,0.6c-0.1,0.1-0.1,0.2-0.1,0.2
	C29.8,15.2,29.1,14.4,28.3,13.8z M5.6,14.3c0.3-0.7,0.8-1.6,1.4-2.1c0,0,0.1,0.1,0.1,0.1c0.2,0.2,0.4,0.4,0.6,0.6
	c-0.6,0.5-1,1.1-1.3,1.8C6.1,14.6,5.9,14.4,5.6,14.3z M30.4,12.9c0.1-0.1,0.3-0.2,0.4-0.3c0.1-0.1,0.2-0.2,0.3-0.3
	c0.6,0.5,1.1,1.3,1.4,2.1c-0.3,0.1-0.5,0.2-0.7,0.4C31.4,14.1,30.9,13.5,30.4,12.9z M11.6,11.6c2.2-1,5.5-2.7,7.4-4.3
	c1.9,1.7,5.2,3.3,7.4,4.3c0.5,0.3,1,0.4,1.6,0.3c1-0.1,1.8-1,1.8-1.9c0-0.4-0.1-0.8-0.3-1.1c-0.3-0.4-0.8-0.7-1.3-0.7
	c-0.3,0-0.9,0.1-1.3,0.9l1,0.4c0.1-0.2,0.2-0.2,0.3-0.2c0.2,0,0.4,0.1,0.5,0.2c0.1,0.1,0.1,0.3,0.1,0.4c0,0.5-0.4,0.9-0.9,0.9
	c-0.3,0-0.5,0-0.8-0.1c-0.1,0-0.1-0.1-0.2-0.1c0,0-0.1-0.1-0.1-0.1c-0.3-0.2-0.5-0.6-0.6-1.1c-0.1-0.5,0.1-1,0.4-1.4
	c0.4-0.4,0.9-0.7,1.6-0.8c0.7-0.1,1.3,0.1,1.8,0.5c0.5,0.4,0.8,1.1,0.9,1.8c0.1,1.1-0.4,1.8-0.8,2.2c-0.5,0.5-1.3,0.9-2.1,0.9
	c-0.7,0-1.2,0-1.8-0.3c-0.1,0-0.1-0.1-0.2-0.1c0,0,0,0,0,0c0,0,0,0-0.1,0v0c-2.3-1.1-4.4-2.1-6.5-3.6L19,8.5l-0.3,0.2
	c-2.1,1.5-4.3,2.6-6.5,3.6l0,0c0,0,0,0-0.1,0c0,0,0,0,0,0c-0.1,0-0.1,0.1-0.2,0.1c-0.6,0.3-1.2,0.4-1.8,0.3
	c-0.9-0.1-1.7-0.5-2.2-1.1c-0.5-0.6-0.7-1.3-0.6-2c0.1-0.7,0.4-1.3,0.9-1.8c0.5-0.4,1.1-0.6,1.8-0.5c0.6,0.1,1.2,0.4,1.6,0.8
	c0.3,0.4,0.4,0.9,0.4,1.4c-0.1,0.5-0.3,0.9-0.6,1.1c0,0-0.1,0.1-0.1,0.1c-0.1,0-0.1,0.1-0.2,0.1c-0.2,0.1-0.5,0.1-0.8,0.1
	c-0.5-0.1-0.9-0.5-0.9-0.9c0-0.1,0-0.3,0.1-0.4c0.1-0.2,0.3-0.2,0.5-0.2c0.1,0,0.2,0,0.3,0.2l1-0.4c-0.3-0.8-0.9-0.9-1.3-0.9
	c-0.5,0-1,0.3-1.3,0.7C8.3,9.2,8.2,9.6,8.2,10c0,1,0.8,1.8,1.8,1.9C10.6,12,11.2,11.9,11.6,11.6z M12.9,8.7c1.2-0.6,3.4-1.9,4.8-2.9
	c0.1,0.3,0.3,0.6,0.6,0.8c-1.4,1.1-3.5,2.3-5.3,3.2c0-0.1,0-0.1,0-0.2C12.9,9.3,12.9,9,12.9,8.7z M19.8,6.6c0.2-0.2,0.4-0.5,0.6-0.8
	c1.4,1,3.6,2.3,4.8,2.9c-0.1,0.3-0.1,0.6,0,0.9c0,0.1,0,0.2,0,0.2C23.3,8.9,21.2,7.8,19.8,6.6z M19,5.9c-0.4-0.4-0.7-1.1-0.7-1.9
	c0-0.8,0.3-1.6,0.7-2.1c0.5,0.5,0.8,1.1,0.8,1.9C19.8,4.7,19.5,5.4,19,5.9z M23.7,32.5L23.7,32.5v1.1H26c0.7,0,1.4,0.3,2,0.6
	c0.7,0.5,1.2,1.3,1.4,2.1c0.1,0.7,0,1.5-0.5,2.1c-0.4,0.6-1,1-1.7,1.1c-0.6,0.1-1.3-0.1-1.8-0.4c-0.7-0.5-1-1.3-1-2.1
	c0-0.8,0.6-1.4,1.4-1.5c0,0,0,0,0,0v0c0.1,0,0.2,0,0.2,0c0.4,0,0.6,0.1,1,0.3c0.4,0.3,0.5,0.9,0.3,1.3c-0.1,0.1-0.2,0.4-0.6,0.4
	c0,0,0,0,0,0c-0.3,0-0.5-0.4-0.5-0.5l-1.1,0c0,0.6,0.5,1.5,1.5,1.6c0.6,0,1.2-0.3,1.6-0.9c0.5-0.8,0.2-2-0.6-2.7
	c-0.5-0.4-1-0.6-1.6-0.6c-0.1,0-0.2,0-0.3,0c-0.9,0-1.8,0-2.7,0v0v-1.9v-0.4V28l-2.7-1.4l0.8-0.4l2.6,1.4v4.6V32.5z M15,34.5
	c-0.9,0-1.8,0-2.7,0c-0.1,0-0.2,0-0.3,0c-0.6,0-1.1,0.2-1.6,0.6c-0.8,0.6-1.1,1.8-0.6,2.7c0.3,0.6,0.9,0.9,1.6,0.9
	c1,0,1.5-0.9,1.5-1.6l-1.1,0c0,0.1-0.1,0.5-0.5,0.5c0,0,0,0,0,0c-0.4,0-0.5-0.2-0.6-0.3c-0.2-0.4-0.1-1,0.3-1.3
	c0.3-0.2,0.6-0.3,1-0.3c0.1,0,0.2,0,0.2,0v0c0,0,0,0,0,0c0.7,0.1,1.3,0.7,1.3,1.5c0,0.8-0.3,1.6-1,2.1c-0.5,0.4-1.2,0.6-1.8,0.4
	c-0.7-0.1-1.3-0.5-1.7-1.1c-0.4-0.6-0.6-1.4-0.5-2.1c0.2-0.8,0.7-1.6,1.4-2.1c0.6-0.4,1.3-0.6,2-0.6h2.3v-1.1v-0.4v-4.6l8.6-4.4
	v-3.7l-4-2l0,0l-4,2V26l-0.7,0.4V19l4.7-2.4l4.7,2.4v1v3.6c-1.2,0.6-2.5,1.3-3.7,1.9c-0.2,0.1-0.4,0.2-0.5,0.3l-1.5,0.8
	c-0.8,0.4-1.5,0.8-2.3,1.1L15,27.9v4.2v0.4v1.1V34.5z M28.2,31.7L28.2,31.7L28.2,31.7L28.2,31.7L28.2,31.7L28.2,31.7L28.2,31.7
	L28.2,31.7L28.2,31.7L28.2,31.7L28.2,31.7L28.2,31.7l-0.1,0.1l0,0l0,0l0,0l0,0l0,0l0,0l0,0l0,0l0,0l0,0l0,0l0,0l0,0l0,0l0,0l0,0l0,0
	l0,0l0,0l0,0l0,0l0,0h0l0,0l0,0l0,0l0,0l0,0l0,0l0,0l0,0l0,0l0,0l0,0l0,0c-0.1,0.1-0.1,0.3-0.2,0.4H26c-0.1,0-0.2,0-0.3,0h-1v-5.7
	l-2.5-1.3c0.7-0.3,1.5-0.8,2.5-1.3v-4.3v-0.4h0v-1c0-0.1,0-0.3-0.2-0.3L24,17.9v0l-5-2.6l-4.6,2.3L14,17.9v0l-0.5,0.3
	c-0.1,0.1-0.2,0.2-0.2,0.3l0,0.6v7.7v1.2v4.5h-1c-0.1,0-0.2,0-0.3,0h-1.8c0-0.1-0.1-0.3-0.2-0.4h0c0-0.1-0.1-0.1-0.1-0.2l0,0l0,0
	l0,0l0,0l0,0l0,0l0,0l0,0l0,0l0,0l0,0l0,0l0,0l0,0l0,0l0,0l0,0l0,0l0,0l0,0l0,0c-0.3-0.4-0.8-0.8-1.3-1v-0.1v-0.8v-1
	c0-0.1,0-0.2,0-0.3v-9.8c0-0.1,0-0.2,0-0.3v-0.3c0.1-2.5,1.5-3.7,3.9-4.8c0.1,0,0.1-0.1,0.2-0.1c2.1-1,4.3-2.1,6.4-3.5
	c2.1,1.4,4.2,2.5,6.4,3.5c0.1,0,0.1,0.1,0.2,0.1c2.3,1.1,3.8,2.4,3.9,4.9v0.2c0,0.1,0,0.2,0,0.3v9.8c0,0.1,0,0.2,0,0.3v1v0.8v0.1
	C29,30.9,28.6,31.2,28.2,31.7z M19,0.6l-0.3,0.2c-0.9,0.6-1.5,1.9-1.5,3.2c0,0.3,0,0.5,0.1,0.7c-1.2,1-3.6,2.4-4.8,3
	c-0.1-0.1-0.1-0.2-0.2-0.3c-0.5-0.7-1.4-1.1-2.3-1.2C9.1,6.2,8.1,6.5,7.4,7.1C6.7,7.7,6.3,8.6,6.2,9.6c0,0.6,0,1.2,0.3,1.8
	c-0.8,0.7-1.5,1.8-1.9,2.8C3.7,14,2.8,14.2,2,14.8c-0.8,0.6-1.4,1.4-1.5,2.4c-0.2,0.9,0.1,1.8,0.6,2.6c0.6,0.8,1.5,1.3,2.5,1.4v5
	c-1,0.1-1.9,0.6-2.5,1.4c-0.6,0.8-0.8,1.7-0.6,2.6c0.2,1,0.7,1.8,1.5,2.4c0.5,0.3,1,0.6,1.6,0.7v4.2h4.1c0.1,0.6,0.3,1.1,0.7,1.6
	c0.6,0.8,1.4,1.4,2.4,1.5c0.9,0.2,1.8-0.1,2.6-0.6c1-0.7,1.5-1.8,1.4-3c0-0.5-0.2-1-0.5-1.4l1.9,0v-0.7h0v-3.1v-3.2
	c1.8-0.9,2.6-1.3,3-1.5l2.8,1.5v3.2V35v0.5l1.9,0c-0.3,0.4-0.5,0.9-0.5,1.4c-0.1,1.2,0.5,2.3,1.4,3c0.8,0.6,1.7,0.8,2.6,0.6
	c1-0.2,1.8-0.7,2.4-1.5c0.3-0.5,0.6-1,0.7-1.6h4.1v-4.2c0.5-0.1,1.1-0.3,1.6-0.7c0.8-0.6,1.4-1.4,1.5-2.4c0.2-0.9-0.1-1.8-0.6-2.6
	c-0.6-0.8-1.5-1.3-2.5-1.4v-5c1-0.1,1.9-0.6,2.5-1.4c0.6-0.8,0.8-1.7,0.6-2.6c-0.2-1-0.7-1.8-1.5-2.4c-0.8-0.5-1.7-0.8-2.6-0.7
	c-0.3-1-1.1-2.1-1.9-2.8c0.2-0.5,0.3-1.1,0.3-1.8c-0.1-1-0.5-1.9-1.3-2.5C29.9,6.5,29,6.2,28,6.3c-0.9,0.1-1.8,0.5-2.3,1.2
	c-0.1,0.1-0.1,0.2-0.2,0.3c-1.2-0.6-3.6-2-4.8-3c0.1-0.3,0.1-0.6,0.1-0.9c0-1.3-0.6-2.4-1.6-3L19,0.6z"/>
<path class="st1" d="M19,14.6l4.3,2.2l0.6,0.3l1.1,0.6c0.3,0.1,0.4,0.5,0.4,0.8v1.1v1v0.7v3.4l-0.4,0.2c-0.5,0.2-0.9,0.5-1.4,0.7
	l1.7,0.9v5.2h0h0.3h1.3v0h0.2c0.2-0.4,0.5-0.8,0.8-1.1h-1.5v-4.8L26,25.5l0.5-0.2v-4v-0.7v-2.1c0-0.9-0.4-1.5-1-1.8l-1.6-0.8
	l-0.6-0.3L19,13.4L19,14.6z"/>
<path class="st1" d="M11,31.7h0.5H12h0.6v-1.1v-9.3v-2.1v-0.7c0-0.3,0.1-0.7,0.4-0.8l1.7-0.9l4.3-2.2l0,0l0-1.2l0,0l-5.7,2.9v0
	l-0.8,0.4c-0.5,0.3-1,0.9-1,1.8v0.7v2.1v9.3H10c0.3,0.3,0.6,0.7,0.8,1.1L11,31.7L11,31.7z"/>
<g>
	<path class="st0" d="M3.7,55.5c-1.1,0-2-0.3-2.5-0.9s-0.8-1.3-0.8-2.2v-2.6h1.9v2.3c0,1.2,0.7,1.8,2,1.8h1.6v-7.5h1.9v9.1H3.7z
		 M3,46.5v-1.7h1.9v1.7H3z"/>
	<path class="st0" d="M9.7,53.1V42.8h1.9v10.3H9.7z"/>
	<path class="st0" d="M20.6,51.6C20.6,51.6,20.6,51.6,20.6,51.6l0,1.4c0,0,0,0.1,0,0.1c0,0-0.1,0-0.1,0h-0.8c-0.1,1-0.4,1.8-1,2.2
		s-1.4,0.8-2.4,0.9l-0.8-1.7c0.6-0.1,1-0.2,1.3-0.3c0.3-0.1,0.6-0.3,0.7-0.6c0.2-0.3,0.3-0.6,0.3-1V48c-0.3-0.1-0.6-0.1-0.9-0.1
		c-1.1,0-1.6,0.6-1.6,1.8c0,0.5,0.1,1,0.4,1.3c0.3,0.3,0.7,0.5,1.2,0.5h0.6l-0.7,1.6h-0.2c-0.6,0-1.2-0.1-1.7-0.4S14,52,13.7,51.5
		c-0.3-0.5-0.4-1.1-0.4-1.8c0-0.6,0.2-1.2,0.5-1.8c0.3-0.5,0.7-0.9,1.3-1.2c0.6-0.3,1.2-0.4,1.9-0.4c0.6,0,1.5,0.1,2.7,0.3v4.9h0.8
		C20.5,51.5,20.6,51.5,20.6,51.6z"/>
	<path class="st0" d="M22.3,51.6C22.4,51.6,22.4,51.6,22.3,51.6l0,1.4c0,0,0,0.1,0,0.1c0,0-0.1,0-0.1,0h-1.8c-0.1,0-0.1,0-0.1,0
		c0,0,0-0.1,0-0.1v-1.3c0,0,0-0.1,0-0.1c0,0,0.1,0,0.1,0h1.8C22.3,51.5,22.3,51.5,22.3,51.6z"/>
	<path class="st0" d="M31.9,46.8c0.6,0.3,1,0.7,1.3,1.2c0.3,0.5,0.4,1.1,0.4,1.8c0,0.8-0.3,2-0.8,3.4H22.2c-0.1,0-0.1,0-0.1,0
		c0,0,0-0.1,0-0.1v-1.3c0,0,0-0.1,0-0.1c0,0,0.1,0,0.1,0h1.3v-5.1h1.9v1.4c1.5-1,3-1.5,4.4-1.5C30.7,46.3,31.3,46.5,31.9,46.8z
		 M27.5,48.4c-0.7,0.3-1.3,0.6-2,1.1v2h5.9c0.2-0.6,0.3-1.2,0.3-1.7c0-0.5-0.2-1-0.6-1.3c-0.4-0.3-0.9-0.5-1.5-0.5
		C28.8,48,28.1,48.1,27.5,48.4z M28.8,45.3v-1.7h1.9v1.7H28.8z"/>
	<path class="st0" d="M36.6,55.3c-0.5,0.6-1.2,0.9-2.1,1l-0.8-1.7c0.4-0.1,0.8-0.1,1-0.3c0.3-0.1,0.4-0.3,0.6-0.5s0.2-0.6,0.2-1
		v-6.3h1.9v6.3C37.4,53.9,37.2,54.8,36.6,55.3z"/>
</g>
<g>
	<path class="st1" d="M3.9,62.2c-0.2,0-0.3,0-0.5-0.1c-0.1-0.1-0.3-0.2-0.3-0.3C3,61.7,3,61.5,3,61.4v-1h0.2v1
		c0,0.2,0.1,0.3,0.2,0.4c0.1,0.1,0.3,0.2,0.5,0.2h0.7v-2.5h0.2v2.7H3.9z M3.8,59.4V59h0.3v0.4H3.8z"/>
	<path class="st1" d="M5.3,58.5l0-0.2h0.9v0.2H5.3z M6,61.1c0.1,0.1,0.1,0.1,0.3,0.1h0.1c0,0,0,0,0,0c0,0,0,0,0,0v0.2c0,0,0,0,0,0
		c0,0,0,0,0,0H6.3c-0.2,0-0.4-0.1-0.5-0.2S5.7,61,5.7,60.8v-2H6v2C6,61,6,61.1,6,61.1z"/>
	<path class="st1" d="M8,59.6c0.2,0.1,0.3,0.2,0.3,0.4c0.1,0.2,0.1,0.3,0.1,0.5c0,0.2,0,0.3-0.1,0.5c-0.1,0.2-0.1,0.3-0.2,0.5H6.4
		c0,0,0,0,0,0s0,0,0,0v-0.2c0,0,0,0,0,0s0,0,0,0h0.4v-1.7c0.3-0.1,0.5-0.1,0.7-0.1C7.7,59.4,7.9,59.5,8,59.6z M7,59.7v1.5h1.1
		c0.1-0.2,0.2-0.5,0.2-0.8c0-0.2-0.1-0.4-0.2-0.6c-0.1-0.2-0.3-0.2-0.6-0.2C7.3,59.6,7.2,59.7,7,59.7z"/>
	<path class="st1" d="M9.6,58l-0.1,0.2c-0.1,0-0.1,0-0.2,0c0,0-0.1,0-0.1,0c0,0,0,0.1,0,0.1c0,0,0,0.1,0.1,0.1h0.4v0.2H8.9l0-0.2
		h0.2c0-0.1,0-0.1,0-0.2c0-0.1,0-0.2,0.1-0.2c0.1-0.1,0.1-0.1,0.2-0.1C9.4,57.9,9.5,58,9.6,58z M9.5,61.1c0.1,0.1,0.1,0.1,0.3,0.1
		h0.1c0,0,0,0,0,0c0,0,0,0,0,0v0.2c0,0,0,0,0,0c0,0,0,0,0,0H9.8c-0.2,0-0.4-0.1-0.5-0.2S9.2,61,9.2,60.8v-2h0.2v2
		C9.4,61,9.5,61.1,9.5,61.1z"/>
	<path class="st1" d="M9.9,61.4C9.9,61.4,9.8,61.4,9.9,61.4C9.8,61.4,9.8,61.4,9.9,61.4l0-0.2c0,0,0,0,0,0s0,0,0,0h0.6v-1.7h0.2v2
		H9.9z M10.4,62.3V62h0.3v0.4H10.4z"/>
	<path class="st1" d="M15.6,61.1c0.1,0.1,0.1,0.1,0.3,0.1H16c0,0,0,0,0,0c0,0,0,0,0,0v0.2c0,0,0,0,0,0c0,0,0,0,0,0h-0.1
		c-0.2,0-0.4-0.1-0.5-0.3c-0.2,0.2-0.5,0.3-0.8,0.3h-1.2c-0.2,0-0.3,0-0.5-0.1c-0.1-0.1-0.3-0.2-0.3-0.3c-0.1-0.1-0.1-0.3-0.1-0.4
		V60h0.2v0.6c0,0.2,0.1,0.3,0.2,0.4c0.1,0.1,0.3,0.2,0.5,0.2h1.3c0.3,0,0.5-0.1,0.7-0.2c0,0,0-0.1,0-0.2v-2.7h0.2v2.7
		C15.5,61,15.6,61.1,15.6,61.1z M14.4,59.2l-0.1,0.2c-0.1,0-0.1,0-0.2,0c-0.1,0-0.1,0-0.2,0.1s-0.1,0.1-0.1,0.2c0,0.1,0,0.2,0.1,0.2
		h0.5V60h-1.1l0-0.2h0.3c-0.1-0.1-0.1-0.2-0.1-0.2c0-0.1,0-0.2,0.1-0.3c0.1-0.1,0.2-0.1,0.3-0.1C14.2,59.1,14.3,59.2,14.4,59.2z"/>
	<path class="st1" d="M16.9,60.9c0,0.1,0.1,0.2,0.2,0.2c0.1,0.1,0.2,0.1,0.4,0.1c0,0,0,0,0,0s0,0,0,0v0.2c0,0,0,0,0,0s0,0,0,0
		c-0.3,0-0.5-0.1-0.7-0.4c-0.1,0.1-0.2,0.2-0.3,0.3c-0.1,0.1-0.2,0.1-0.4,0.1H16c0,0,0,0,0,0s0,0,0,0v-0.2c0,0,0,0,0,0s0,0,0,0h0.1
		c0.2,0,0.3-0.1,0.4-0.2c0.1-0.1,0.2-0.3,0.2-0.4v-2.4h0.2v2.4C16.9,60.7,16.9,60.8,16.9,60.9z"/>
	<path class="st1" d="M18.6,60.9c0,0.1,0.1,0.2,0.3,0.2s0.3,0.1,0.5,0.1c0,0,0,0,0,0c0,0,0,0,0,0v0.2c0,0,0,0,0,0c0,0,0,0,0,0
		c-0.2,0-0.4,0-0.5-0.1s-0.2-0.2-0.3-0.3c-0.1,0.1-0.2,0.2-0.3,0.3c-0.1,0.1-0.2,0.1-0.4,0.1h-0.4c0,0,0,0,0,0s0,0,0,0v-0.2
		c0,0,0,0,0,0s0,0,0,0h0.4c0.2,0,0.3-0.1,0.4-0.2c0.1-0.1,0.2-0.3,0.2-0.4v-1.2h0.2v1.2C18.6,60.7,18.6,60.8,18.6,60.9z M18,59v-0.4
		h0.3V59H18z M18.7,59v-0.4H19V59H18.7z"/>
	<path class="st1" d="M21,59.6c0.2,0.1,0.3,0.2,0.3,0.4c0.1,0.2,0.1,0.3,0.1,0.5c0,0.2,0,0.3-0.1,0.5c-0.1,0.2-0.1,0.3-0.2,0.5h-1.8
		c0,0,0,0,0,0s0,0,0,0v-0.2c0,0,0,0,0,0s0,0,0,0h0.4v-1.7c0.3-0.1,0.5-0.1,0.7-0.1C20.6,59.4,20.8,59.5,21,59.6z M20,59.7v1.5H21
		c0.1-0.2,0.2-0.5,0.2-0.8c0-0.2-0.1-0.4-0.2-0.6c-0.1-0.2-0.3-0.2-0.6-0.2C20.2,59.6,20.1,59.7,20,59.7z"/>
	<path class="st1" d="M22.5,61.6l-0.1,0.2c-0.1,0-0.1,0-0.2,0c0,0-0.1,0-0.1,0c0,0,0,0.1,0,0.1c0,0,0,0.1,0.1,0.1h0.4v0.2h-0.8
		l0-0.2H22c0-0.1,0-0.1,0-0.2c0-0.1,0-0.2,0.1-0.2c0.1-0.1,0.1-0.1,0.2-0.1C22.3,61.6,22.4,61.6,22.5,61.6z M22.2,61.4v-3.2h0.2v3.2
		H22.2z"/>
	<path class="st1" d="M23.1,61.4V61h0.3v0.4H23.1z"/>
	<path class="st1" d="M23.9,61.4V61h0.3v0.4H23.9z"/>
	<path class="st1" d="M25.8,62.2c-0.3,0-0.5-0.1-0.7-0.2c-0.2-0.2-0.3-0.4-0.3-0.6v-0.9h0.4v0.9c0,0.2,0.1,0.3,0.2,0.4
		c0.1,0.1,0.3,0.2,0.5,0.2h0.7v-2.4h0.4v2.7H25.8z M25.6,59.4V59H26v0.4H25.6z"/>
	<path class="st1" d="M27.6,61.4v-3.2h0.4v3.2H27.6z"/>
	<path class="st1" d="M30.8,61.1C30.8,61.1,30.8,61.1,30.8,61.1l0,0.3c0,0,0,0,0,0c0,0,0,0,0,0h-0.4c0,0.3-0.1,0.5-0.2,0.7
		c-0.2,0.2-0.4,0.3-0.7,0.3l-0.2-0.3c0.3,0,0.4-0.1,0.6-0.2c0.1-0.1,0.2-0.2,0.2-0.4v-1.7c-0.1,0-0.3,0-0.4,0
		c-0.2,0-0.4,0.1-0.5,0.2c-0.1,0.1-0.2,0.3-0.2,0.5c0,0.2,0.1,0.3,0.2,0.5s0.3,0.2,0.5,0.2h0.3l-0.1,0.3h-0.1c-0.2,0-0.4,0-0.5-0.1
		c-0.2-0.1-0.3-0.2-0.3-0.4s-0.1-0.3-0.1-0.5c0-0.2,0-0.3,0.1-0.5c0.1-0.2,0.2-0.3,0.4-0.4s0.4-0.1,0.6-0.1c0.2,0,0.4,0,0.6,0.1
		c0,0,0.1,0,0.1,0v1.6L30.8,61.1C30.8,61.1,30.8,61.1,30.8,61.1z"/>
	<path class="st1" d="M33.7,59.5c0.2,0.1,0.3,0.2,0.4,0.4c0.1,0.2,0.1,0.3,0.1,0.5c0,0.2,0,0.3-0.1,0.5c-0.1,0.2-0.1,0.4-0.2,0.5
		h-3.2c0,0,0,0,0,0s0,0,0,0v-0.2c0,0,0,0,0,0s0,0,0,0h0.5v-1.7h0.4V60c0.3-0.2,0.5-0.3,0.8-0.4c0.2-0.1,0.5-0.1,0.7-0.1
		C33.3,59.4,33.5,59.4,33.7,59.5z M32.4,59.9c-0.2,0.1-0.5,0.2-0.7,0.4v0.8h2c0.1-0.2,0.1-0.4,0.1-0.7c0-0.2-0.1-0.4-0.2-0.5
		c-0.1-0.1-0.3-0.2-0.6-0.2C32.8,59.7,32.6,59.8,32.4,59.9z M32.9,59v-0.4h0.4V59H32.9z"/>
	<path class="st1" d="M34.4,62.4l-0.1-0.3c0.2,0,0.3-0.1,0.4-0.2c0.1-0.1,0.1-0.2,0.1-0.5v-2h0.4v2C35.2,62,34.9,62.3,34.4,62.4z"/>
</g>
</svg>
