<?xml version="1.0" encoding="utf-8"?>
<!-- Generator: Adobe Illustrator 24.0.3, SVG Export Plug-In . SVG Version: 6.00 Build 0)  -->
<svg version="1.1" id="Layer_1" xmlns="http://www.w3.org/2000/svg" xmlns:xlink="http://www.w3.org/1999/xlink" x="0px" y="0px"
	 viewBox="0 0 64 64" style="enable-background:new 0 0 64 64;" xml:space="preserve">
<style type="text/css">
	.st0{fill:#D6CBBC;}
</style>
<path class="st0" d="M55.2,50.5v6.3c0,0.2,0,0.3,0.1,0.4c0.1,0.1,0.2,0.1,0.3,0.2v0.2H53v-0.2c0.2-0.1,0.3-0.1,0.3-0.2
	c0.1-0.1,0.1-0.2,0.1-0.4V48c0-0.2,0-0.3-0.1-0.3c-0.1-0.1-0.2-0.1-0.3-0.2v-0.2h3.1v0.2c-0.2,0.1-0.3,0.2-0.3,0.3
	c0,0.1,0.1,0.3,0.2,0.4l5.1,5.9V48c0-0.2,0-0.3-0.1-0.3c-0.1-0.1-0.2-0.1-0.3-0.2v-0.2h2.7v0.2c-0.2,0-0.3,0.1-0.3,0.2
	c-0.1,0.1-0.1,0.2-0.1,0.3v8.8c0,0.2,0,0.3,0.1,0.4c0.1,0.1,0.2,0.1,0.3,0.2v0.2h-2.9v-0.2c0.2,0,0.3-0.2,0.3-0.3
	c0-0.1-0.1-0.3-0.3-0.5L55.2,50.5z M47.9,53.5l-1.5-3.7l-1.5,3.7H47.9z M48.4,54.9h-4.2l-0.6,1.5c-0.1,0.2-0.1,0.4-0.1,0.5
	c0,0.2,0.2,0.4,0.5,0.5v0.2h-3.1v-0.2c0.2,0,0.3-0.1,0.4-0.2c0.1-0.1,0.2-0.3,0.3-0.6l3.4-8c0.1-0.3,0.2-0.5,0.2-0.6
	c0-0.2-0.1-0.4-0.4-0.5v-0.2h3.3v0.2c-0.3,0.1-0.4,0.2-0.4,0.4c0,0.1,0,0.3,0.1,0.5l3.5,8c0.1,0.3,0.3,0.6,0.4,0.7
	c0.1,0.1,0.3,0.2,0.5,0.2v0.2h-3.4v-0.2c0.3-0.1,0.4-0.2,0.4-0.5c0-0.1,0-0.3-0.1-0.5L48.4,54.9z M36.8,54.6l2.4-6.1
	c0.1-0.3,0.2-0.5,0.2-0.6c0-0.2-0.2-0.4-0.4-0.4v-0.2h3.2v0.2c-0.2,0-0.3,0.1-0.4,0.2c-0.1,0.1-0.2,0.4-0.4,0.8l-3.2,7.7
	c-0.1,0.3-0.2,0.5-0.2,0.6c0,0.3,0.1,0.4,0.4,0.5v0.2h-3.2v-0.2c0.3,0,0.4-0.2,0.4-0.5c0-0.1-0.1-0.3-0.2-0.6l-3.2-7.7
	c-0.2-0.5-0.3-0.7-0.4-0.8c-0.1-0.1-0.2-0.2-0.4-0.2v-0.2h3.3v0.2c-0.3,0.1-0.4,0.2-0.4,0.4c0,0.1,0.1,0.3,0.2,0.6L36.8,54.6z
	 M25.3,55.9h4.8c0.1,0,0.2,0,0.3-0.1c0.1-0.1,0.1-0.2,0.2-0.4h0.2v2.7h-0.2c0-0.2-0.1-0.3-0.2-0.4c-0.1-0.1-0.2-0.1-0.3-0.1h-8.1
	v-0.5l5.4-8.1h-4.6c-0.1,0-0.2,0-0.3,0.1c-0.1,0.1-0.1,0.2-0.2,0.4h-0.2v-2.7h0.2c0.1,0.2,0.1,0.3,0.2,0.4c0.1,0.1,0.2,0.1,0.3,0.1
	h8v0.4L25.3,55.9z M14.3,53v2.8h5.9c0.1,0,0.2,0,0.3-0.1c0.1-0.1,0.1-0.2,0.2-0.4h0.2v2.7h-0.2c0-0.2-0.1-0.3-0.2-0.4
	c-0.1-0.1-0.2-0.1-0.3-0.1h-8.4v-0.2c0.2-0.1,0.3-0.1,0.3-0.2c0.1-0.1,0.1-0.2,0.1-0.4V48c0-0.2,0-0.3-0.1-0.4
	c-0.1-0.1-0.2-0.1-0.3-0.2v-0.2H20c0.1,0,0.2,0,0.3-0.1c0.1-0.1,0.1-0.2,0.2-0.4h0.2v2.7h-0.2c0-0.2-0.1-0.3-0.2-0.4
	c-0.1-0.1-0.2-0.1-0.3-0.1h-5.8v2.5H18c0.1,0,0.2,0,0.3-0.1c0.1-0.1,0.1-0.2,0.2-0.4h0.2v2.6h-0.2c0-0.2-0.1-0.3-0.2-0.4
	C18.2,53.1,18.1,53,18,53H14.3z M3.1,51.7h3.1c0.5,0,0.8,0,1,0c0.2,0,0.4-0.1,0.5-0.2c0.3-0.2,0.5-0.6,0.5-1.1
	c0-0.5-0.2-0.9-0.5-1.1C7.5,49.1,7.4,49,7.2,49c-0.2,0-0.5,0-1,0H3.1V51.7z M3.1,53.4v3.4c0,0.2,0,0.3,0.1,0.4
	c0.1,0.1,0.2,0.1,0.3,0.2v0.2H0.6v-0.2c0.2-0.1,0.3-0.1,0.3-0.2C1,57.1,1.1,57,1.1,56.8V48c0-0.2,0-0.3-0.1-0.4
	c-0.1-0.1-0.2-0.1-0.3-0.2v-0.2h5.8c0.7,0,1.3,0,1.7,0.1c0.4,0.1,0.8,0.3,1.1,0.5c0.4,0.3,0.6,0.6,0.8,1.1c0.2,0.4,0.2,0.9,0.2,1.4
	c0,1.7-0.8,2.7-2.5,3l1.8,2.9c0.3,0.5,0.5,0.8,0.7,1c0.1,0.1,0.3,0.2,0.5,0.2v0.2H7.4v-0.2c0.2,0,0.3-0.1,0.3-0.3
	c0-0.1-0.1-0.3-0.3-0.7l-1.9-3H3.1z"/>
<path class="st0" d="M52.2,60.3v0.4h-1.3v0.9H52V62h-1.1v1h1.3v0.4h-1.7v-3H52.2z M47.9,60.3l0.9,1.8l0.9-1.8H50v3h-0.4l0-2.1
	l-0.6,1.3h-0.4l-0.6-1.2l0,2h-0.4v-3H47.9z M45.3,62.4c0,0.2,0.1,0.4,0.2,0.5c0.1,0.1,0.3,0.2,0.4,0.2c0.2,0,0.3-0.1,0.4-0.2
	c0.1-0.1,0.2-0.3,0.2-0.5v-1.1c0-0.2-0.1-0.4-0.2-0.5c-0.1-0.1-0.3-0.2-0.4-0.2c-0.2,0-0.3,0.1-0.4,0.2c-0.1,0.1-0.2,0.3-0.2,0.5
	V62.4z M44.9,61.2c0-0.2,0-0.4,0.1-0.5c0.1-0.1,0.2-0.3,0.4-0.3c0.2-0.1,0.3-0.1,0.5-0.1s0.4,0,0.5,0.1c0.2,0.1,0.3,0.2,0.4,0.3
	C47,60.8,47,61,47,61.2v1.2c0,0.2,0,0.4-0.1,0.5c-0.1,0.1-0.2,0.3-0.4,0.3c-0.2,0.1-0.3,0.1-0.5,0.1s-0.4,0-0.5-0.1
	c-0.2-0.1-0.3-0.2-0.4-0.3c-0.1-0.1-0.1-0.3-0.1-0.5V61.2z M42.8,60.3v1.3H44v-1.3h0.4v3H44v-1.4h-1.2v1.4h-0.4v-3H42.8z M40.6,63.1
	c-0.1,0.1-0.2,0.2-0.3,0.2c-0.1,0.1-0.3,0.1-0.4,0.1c-0.3,0-0.5-0.1-0.7-0.3c-0.2-0.2-0.2-0.4-0.2-0.7v-1.2c0-0.2,0-0.4,0.1-0.5
	c0.1-0.1,0.2-0.3,0.4-0.3c0.2-0.1,0.3-0.1,0.5-0.1c0.2,0,0.5,0.1,0.6,0.2c0.2,0.1,0.3,0.3,0.3,0.4L40.5,61c0-0.1-0.1-0.2-0.2-0.2
	c-0.1-0.1-0.2-0.1-0.4-0.1c-0.2,0-0.3,0.1-0.4,0.2c-0.1,0.1-0.2,0.3-0.2,0.5v1.1c0,0.2,0,0.4,0.1,0.5c0.1,0.1,0.2,0.2,0.4,0.2
	c0.1,0,0.2,0,0.3-0.1c0.1-0.1,0.2-0.1,0.3-0.2v-0.6H40v-0.4h1v1.7h-0.3L40.6,63.1z M36.9,60.3l1.2,2.3l0-2.3h0.4v3H38l-1.2-2.3
	l0,2.3h-0.4v-3H36.9z M35.9,60.3v3h-0.4v-3H35.9z M33.6,62.4v0.9h-0.4v-3h0.4v1.5l1.1-1.5h0.5l-1,1.3l1,1.7l-0.5,0.1L33.9,62
	L33.6,62.4z M31,62.4c0,0.2,0.1,0.4,0.2,0.5c0.1,0.1,0.3,0.2,0.4,0.2c0.2,0,0.3-0.1,0.4-0.2c0.1-0.1,0.2-0.3,0.2-0.5v-1.1
	c0-0.2-0.1-0.4-0.2-0.5c-0.1-0.1-0.3-0.2-0.4-0.2c-0.2,0-0.3,0.1-0.4,0.2c-0.1,0.1-0.2,0.3-0.2,0.5V62.4z M30.6,61.2
	c0-0.2,0-0.4,0.1-0.5c0.1-0.1,0.2-0.3,0.4-0.3c0.2-0.1,0.3-0.1,0.5-0.1c0.2,0,0.4,0,0.5,0.1c0.2,0.1,0.3,0.2,0.4,0.3
	c0.1,0.1,0.1,0.3,0.1,0.5v1.2c0,0.2,0,0.4-0.1,0.5c-0.1,0.1-0.2,0.3-0.4,0.3c-0.2,0.1-0.3,0.1-0.5,0.1c-0.2,0-0.4,0-0.5-0.1
	c-0.2-0.1-0.3-0.2-0.4-0.3c-0.1-0.1-0.1-0.3-0.1-0.5V61.2z M28.5,62.4c0,0.2,0.1,0.4,0.2,0.5c0.1,0.1,0.3,0.2,0.4,0.2
	c0.2,0,0.3-0.1,0.4-0.2c0.1-0.1,0.2-0.3,0.2-0.5v-1.1c0-0.2-0.1-0.4-0.2-0.5c-0.1-0.1-0.3-0.2-0.4-0.2c-0.2,0-0.3,0.1-0.4,0.2
	c-0.1,0.1-0.2,0.3-0.2,0.5V62.4z M28,61.2c0-0.2,0-0.4,0.1-0.5c0.1-0.1,0.2-0.3,0.4-0.3c0.2-0.1,0.3-0.1,0.5-0.1
	c0.2,0,0.4,0,0.5,0.1c0.2,0.1,0.3,0.2,0.4,0.3c0.1,0.1,0.1,0.3,0.1,0.5v1.2c0,0.2,0,0.4-0.1,0.5c-0.1,0.1-0.2,0.3-0.4,0.3
	c-0.2,0.1-0.3,0.1-0.5,0.1c-0.2,0-0.4,0-0.5-0.1c-0.2-0.1-0.3-0.2-0.4-0.3c-0.1-0.1-0.1-0.3-0.1-0.5V61.2z M26.8,62.9
	c0.1,0,0.3,0,0.3-0.1c0.1-0.1,0.1-0.2,0.1-0.3v-0.1c0-0.1,0-0.2-0.1-0.3C27,62,26.9,62,26.8,62H26v1H26.8z M26.8,61.6
	c0.1,0,0.2,0,0.3-0.1c0.1-0.1,0.1-0.2,0.1-0.3v-0.1c0-0.2,0-0.3-0.1-0.3c-0.1-0.1-0.2-0.1-0.4-0.1H26v0.9H26.8z M26.7,60.3
	c0.3,0,0.5,0.1,0.7,0.2c0.2,0.1,0.2,0.3,0.2,0.6v0.2c0,0.1,0,0.2-0.1,0.3c0,0.1-0.1,0.2-0.2,0.2c0.1,0,0.2,0.1,0.3,0.2
	c0.1,0.1,0.1,0.2,0.1,0.4l0,0.2c0,0.2-0.1,0.4-0.2,0.5c-0.1,0.1-0.4,0.2-0.6,0.2h-1.1v-3H26.7z M24.2,60.3v0.4h-1.3v0.9H24V62h-1.1
	v1h1.3v0.4h-1.7v-3H24.2z M20.4,60.3l1.2,2.3l0-2.3H22v3h-0.5l-1.2-2.3l0,2.3h-0.4v-3H20.4z M19.4,60.3v3H19v-3H19.4z M17.4,60.3
	v2.6h1.3v0.4h-1.7v-3H17.4z M14.8,60.3l1.2,2.3l0-2.3h0.4v3H16l-1.2-2.3l0,2.3h-0.4v-3H14.8z M12.2,62.4c0,0.2,0.1,0.4,0.2,0.5
	c0.1,0.1,0.3,0.2,0.4,0.2c0.2,0,0.3-0.1,0.4-0.2c0.1-0.1,0.2-0.3,0.2-0.5v-1.1c0-0.2-0.1-0.4-0.2-0.5c-0.1-0.1-0.3-0.2-0.4-0.2
	c-0.2,0-0.3,0.1-0.4,0.2c-0.1,0.1-0.2,0.3-0.2,0.5V62.4z M11.8,61.2c0-0.2,0-0.4,0.1-0.5c0.1-0.1,0.2-0.3,0.4-0.3
	c0.2-0.1,0.3-0.1,0.5-0.1c0.2,0,0.4,0,0.5,0.1c0.2,0.1,0.3,0.2,0.4,0.3c0.1,0.1,0.1,0.3,0.1,0.5v1.2c0,0.2,0,0.4-0.1,0.5
	c-0.1,0.1-0.2,0.3-0.4,0.3c-0.2,0.1-0.3,0.1-0.5,0.1c-0.2,0-0.4,0-0.5-0.1c-0.2-0.1-0.3-0.2-0.4-0.3c-0.1-0.1-0.1-0.3-0.1-0.5V61.2z
	"/>
<path class="st0" d="M32,20.2l3.2,1.6v2.6l-6.3,3.2v-5.8L32,20.2z M16.4,36.2c0.1,0,0.2,0,0.3,0c0.2,0,0.4-0.1,0.7-0.2v2.7h2.5
	c-0.1,0.2-0.1,0.4-0.2,0.7c0,0.1,0,0.2,0,0.3h-3.2V36.2z M44.2,38.6h2.5V36c0.1,0,0.2,0.1,0.3,0.1c0.2,0.1,0.4,0.1,0.6,0.1v3.4h-3.2
	c0-0.1,0-0.2,0-0.3C44.3,39.1,44.3,38.9,44.2,38.6z M42.5,36.4l0-0.4c0.1-0.7,0.8-1.5,1.5-1.6l0.3-0.1c0.3,0.4,0.7,0.8,1.1,1.1v2.1
	h-1.9C43.3,37.1,43,36.7,42.5,36.4z M18.5,35.4c0.4-0.3,0.8-0.7,1.1-1.1l0.3,0.1c0.7,0.1,1.4,0.9,1.5,1.6l0,0.4
	c-0.4,0.3-0.8,0.7-1.1,1.1h-1.9V35.4z M16.4,23c0.3-0.1,0.7-0.2,1-0.5l0,6.5c-0.3-0.2-0.6-0.4-1-0.5V23z M46.7,29l0-6.5
	c0.3,0.2,0.6,0.4,1,0.5v5.6C47.3,28.6,47,28.8,46.7,29z M15.6,21.9c-0.9,0-1.7-0.4-2.2-1.1c-0.4-0.6-0.6-1.3-0.5-2
	c0.1-0.7,0.5-1.4,1.2-1.8c0.7-0.5,1.5-0.7,2.3-0.5c0.9,0.2,1.7,0.7,2.3,1.5c0.4,0.6,0.7,1.4,0.7,2.1l0,11.2c0,0.7-0.3,1.5-0.7,2.1
	c-0.6,0.8-1.4,1.4-2.3,1.5c-0.8,0.1-1.6,0-2.3-0.5c-0.6-0.4-1.1-1.1-1.2-1.8c-0.1-0.7,0.1-1.4,0.5-2c0.5-0.7,1.4-1.1,2.4-1.1
	c0.8,0.1,1.4,0.7,1.5,1.5l0,0.2c0,0.4-0.1,0.7-0.4,1.1c-0.2,0.3-0.6,0.5-1.1,0.5c-0.4,0-0.8-0.2-0.8-0.6c0-0.1,0-0.2,0.1-0.3
	c0.2-0.2,0.4-0.2,0.6-0.2l0-1.2c-0.4,0-1,0.2-1.5,0.6c-0.3,0.3-0.5,0.7-0.4,1.1c0,1,0.8,1.8,1.9,1.8c0.8,0,1.5-0.4,2-1
	c0.4-0.5,0.6-1.1,0.6-1.8c0-0.1,0-0.1,0-0.2l0-10.6c0-0.1,0-0.3,0-0.4c0-0.6-0.2-1.2-0.6-1.7c-0.5-0.6-1.2-1-2-1c0,0,0,0,0,0
	c-0.5,0-1,0.2-1.4,0.6c-0.4,0.4-0.6,0.9-0.5,1.4c0,1.1,1.1,1.7,1.9,1.7l0-1.2c0,0,0,0,0,0c-0.2,0-0.7-0.2-0.7-0.5
	c0-0.2,0.1-0.4,0.2-0.5c0.1-0.2,0.3-0.2,0.5-0.2c0,0,0,0,0,0c0.4,0,0.8,0.2,1.1,0.6c0.2,0.3,0.4,0.7,0.4,1.1c0,0.1,0,0.2,0,0.3h0
	l0,0c-0.1,0.7-0.7,1.4-1.5,1.4C15.8,21.9,15.7,21.9,15.6,21.9z M44.6,20.1c0-0.7,0.3-1.5,0.7-2.1c0.5-0.7,1.3-1.3,2.1-1.5
	c0.6-0.2,1.5-0.2,2.5,0.5c0.7,0.4,1.1,1.1,1.2,1.8c0.1,0.7-0.1,1.4-0.5,2c-0.5,0.7-1.4,1.1-2.4,1.1c-0.7-0.1-1.4-0.7-1.5-1.4l0,0
	c0-0.1,0-0.2,0-0.2c0-0.4,0.1-0.7,0.4-1.1c0.2-0.3,0.6-0.5,1.1-0.6c0.2,0,0.4,0.1,0.5,0.2c0.1,0.1,0.2,0.3,0.2,0.5
	c0,0.3-0.5,0.5-0.7,0.5l0,1.2c0.7,0,1.9-0.6,1.9-1.7c0-0.5-0.2-1-0.5-1.4c-0.4-0.4-0.9-0.6-1.4-0.6c-0.7,0-1.5,0.4-2,1
	c-0.4,0.5-0.6,1.1-0.6,1.7c0,0.1,0,0.2,0,0.4l0,10.6c0,0.1,0,0.1,0,0.2c0,0.6,0.2,1.3,0.6,1.8c0.4,0.6,1.2,1,2,1c0,0,0,0,0,0
	c1.1,0,1.9-0.8,1.9-1.8c0-0.4-0.1-0.8-0.4-1.1c-0.4-0.4-1-0.6-1.5-0.6l0,1.2c0.2,0,0.5,0.1,0.6,0.2c0.1,0.1,0.1,0.2,0.1,0.3
	c0,0.4-0.4,0.6-0.8,0.6c0,0,0,0,0,0c-0.4,0-0.8-0.2-1-0.5c-0.2-0.3-0.4-0.7-0.4-1.1h0v-0.1c0.1-0.8,0.7-1.5,1.5-1.6
	c1-0.1,1.9,0.3,2.4,1.1c0.4,0.6,0.6,1.3,0.5,2c-0.1,0.7-0.5,1.4-1.2,1.8c-1,0.7-1.9,0.6-2.5,0.5c-0.8-0.2-1.6-0.7-2.1-1.5
	c-0.4-0.6-0.7-1.4-0.7-2.1V20.1z M19.2,16.7c0.3-0.8,0.9-1.5,1.5-2.1c0.4,0.2,0.8,0.3,1.2,0.3c-0.9,0.7-1.6,1.5-2,2.6
	c-0.1-0.1-0.1-0.2-0.2-0.2C19.5,17.1,19.4,16.9,19.2,16.7z M42.1,15c0.4-0.1,0.8-0.2,1.2-0.3c0.7,0.6,1.2,1.3,1.5,2.1
	c-0.2,0.2-0.4,0.4-0.5,0.6c-0.1,0.1-0.1,0.2-0.2,0.2C43.7,16.5,43,15.7,42.1,15z M17.4,15.6c0.3-0.8,0.9-1.7,1.5-2.3
	c0,0,0.1,0.1,0.1,0.1c0.2,0.2,0.4,0.4,0.6,0.6c-0.6,0.6-1.1,1.2-1.4,1.9C18,15.8,17.7,15.7,17.4,15.6z M44.3,14
	c0.2-0.1,0.3-0.2,0.4-0.4c0.1-0.1,0.2-0.2,0.3-0.3c0.6,0.6,1.2,1.5,1.5,2.3c-0.3,0.1-0.6,0.2-0.8,0.4C45.4,15.3,44.9,14.6,44.3,14z
	 M24,12.6c2.4-1.1,6-2.9,8-4.7c2.1,1.8,5.7,3.6,8,4.7c0.5,0.3,1.1,0.4,1.8,0.3c1.1-0.1,2-1.1,2-2.1c0-0.4-0.1-0.8-0.4-1.2
	c-0.3-0.5-0.8-0.7-1.4-0.7c-0.4,0-1,0.1-1.4,1l1.1,0.5c0.1-0.3,0.2-0.3,0.3-0.3c0.2,0,0.4,0.1,0.5,0.3c0.1,0.2,0.2,0.3,0.1,0.5
	c0,0.5-0.4,0.9-1,1c-0.3,0-0.6,0-0.8-0.1c-0.1,0-0.1-0.1-0.2-0.1c-0.1,0-0.1-0.1-0.1-0.1c-0.3-0.3-0.5-0.7-0.6-1.2
	c-0.1-0.6,0.1-1.1,0.4-1.5c0.4-0.5,1-0.8,1.7-0.9c0.7-0.1,1.4,0.1,1.9,0.6c0.6,0.5,0.9,1.1,1,1.9c0.1,1.2-0.4,1.9-0.9,2.4
	c-0.6,0.6-1.4,1-2.3,1c-0.7,0-1.3-0.1-2-0.3c-0.1,0-0.1-0.1-0.2-0.1c0,0,0,0,0,0c0,0,0,0-0.1,0v0c-2.4-1.1-4.8-2.3-7.1-4L32,9.2
	l-0.3,0.2c-2.3,1.6-4.7,2.9-7.1,4l0,0c0,0-0.1,0-0.1,0c0,0,0,0,0,0c-0.1,0-0.1,0.1-0.2,0.1c-0.6,0.3-1.3,0.4-2,0.3
	c-1-0.1-1.8-0.5-2.4-1.2c-0.5-0.6-0.8-1.4-0.7-2.2c0.1-0.8,0.4-1.5,1-1.9c0.5-0.4,1.2-0.6,1.9-0.6c0.7,0.1,1.3,0.4,1.7,0.9
	c0.3,0.4,0.5,0.9,0.4,1.5c-0.1,0.5-0.3,0.9-0.6,1.2c0,0-0.1,0.1-0.1,0.1c-0.1,0-0.2,0.1-0.2,0.1c-0.2,0.1-0.5,0.1-0.8,0.1
	c-0.5-0.1-0.9-0.5-1-1c0-0.1,0-0.3,0.1-0.5c0.1-0.2,0.3-0.2,0.5-0.3c0.1,0,0.2,0,0.3,0.3l1.1-0.5c-0.4-0.9-1-0.9-1.4-1
	c-0.6,0-1.1,0.3-1.4,0.7c-0.2,0.3-0.4,0.8-0.4,1.2c0,1.1,0.9,2,2,2.1C22.9,13,23.5,12.9,24,12.6z M25.3,9.5c1.3-0.6,3.7-2,5.2-3.2
	c0.2,0.3,0.4,0.6,0.6,0.9c-1.5,1.2-3.8,2.5-5.8,3.5c0-0.1,0-0.2,0-0.2C25.4,10.1,25.4,9.8,25.3,9.5z M32.9,7.2
	c0.2-0.3,0.4-0.5,0.6-0.9c1.5,1.1,3.9,2.5,5.2,3.2c-0.1,0.3-0.1,0.6,0,1c0,0.1,0,0.2,0,0.2C36.7,9.7,34.4,8.4,32.9,7.2z M32,6.4
	c-0.5-0.5-0.8-1.2-0.8-2.1c0-0.9,0.3-1.7,0.8-2.2c0.5,0.5,0.8,1.2,0.9,2.1C32.9,5,32.5,5.9,32,6.4z M37.1,35.4L37.1,35.4v1.2h2.5
	c0.7,0,1.5,0.3,2.1,0.7c0.8,0.6,1.4,1.4,1.5,2.3c0.1,0.8,0,1.6-0.5,2.3c-0.4,0.6-1.1,1.1-1.8,1.2c-0.7,0.1-1.4-0.1-2-0.5
	c-0.7-0.5-1.1-1.4-1.1-2.2c0-0.8,0.7-1.5,1.5-1.6c0,0,0,0,0,0v0c0.1,0,0.2,0,0.3,0c0.4,0,0.7,0.1,1.1,0.4c0.4,0.3,0.6,1,0.4,1.4
	c-0.1,0.2-0.3,0.4-0.7,0.4c0,0,0,0,0,0c-0.4,0-0.5-0.4-0.5-0.5l-1.2,0c0,0.7,0.6,1.7,1.7,1.7c0.7,0,1.4-0.4,1.7-1
	c0.5-0.9,0.2-2.2-0.7-2.9c-0.6-0.4-1.1-0.6-1.8-0.6c-0.1,0-0.2,0-0.4,0c-1,0-1.9,0-2.9,0v0v-2.1v-0.5v-4.5l-2.9-1.6l0.8-0.4l2.9,1.5
	v5V35.4z M27.7,37.5c-1,0-1.9,0-2.9,0c-0.1,0-0.3,0-0.4,0c-0.7,0-1.2,0.2-1.8,0.6c-0.9,0.7-1.2,2-0.7,2.9c0.3,0.6,1,1,1.7,1
	c1.1,0,1.7-1,1.7-1.7l-1.2,0c0,0.1-0.1,0.5-0.5,0.5c0,0,0,0,0,0c-0.4,0-0.6-0.2-0.6-0.4c-0.2-0.4-0.1-1.1,0.3-1.4
	c0.4-0.3,0.6-0.4,1.1-0.4c0.1,0,0.2,0,0.2,0v0c0,0,0,0,0,0c0.8,0.1,1.4,0.8,1.5,1.6c0,0.9-0.4,1.7-1.1,2.2c-0.6,0.4-1.3,0.6-2,0.5
	c-0.7-0.1-1.4-0.5-1.8-1.2c-0.5-0.7-0.7-1.5-0.5-2.3c0.2-0.9,0.7-1.7,1.5-2.3c0.6-0.4,1.4-0.7,2.1-0.7h2.5v-1.2v-0.5v-5l9.4-4.8v-4
	L32,18.9l0,0l-4.3,2.2v7.1l-0.8,0.4v-8L32,18l5.1,2.6v1v4c-1.3,0.7-2.7,1.4-4,2.1c-0.2,0.1-0.4,0.2-0.6,0.3l-1.6,0.8
	c-0.8,0.4-1.7,0.8-2.5,1.2l-0.6,0.3v4.5v0.5v1.2V37.5z M42,34.4L42,34.4L42,34.4L42,34.4L42,34.4L42,34.4L42,34.4L42,34.4L42,34.4
	L42,34.4L42,34.4L42,34.4l-0.1,0.1l0,0l0,0l0,0l0,0l0,0l0,0l0,0l0,0l0,0l0,0l0,0l0,0l0,0l0,0l0,0l0,0l0,0l0,0l0,0l0,0l0,0l0,0h0l0,0
	l0,0l0,0l0,0l0,0l0,0l0,0l0,0l0,0l0,0l0,0l0,0c-0.1,0.1-0.1,0.3-0.2,0.5h-1.9c-0.1,0-0.2,0-0.3,0h-1.1v-6.2l-2.8-1.4
	c0.7-0.4,1.6-0.8,2.8-1.4v-4.7v-0.4h0v-1.1c0-0.1,0-0.3-0.2-0.4l-0.6-0.3v0L32,16.7l-5,2.6l-0.4,0.2v0l-0.6,0.3
	c-0.1,0.1-0.2,0.2-0.2,0.4l0,0.6v8.4v1.3v4.9h-1.1c-0.1,0-0.2,0-0.3,0h-1.9c0-0.2-0.1-0.3-0.2-0.5h0c0-0.1-0.1-0.1-0.1-0.2l0,0l0,0
	l0,0l0,0l0,0l0,0l0,0l0,0l0,0l0,0l0,0l0,0l0,0l0,0l0,0l0,0l0,0l0,0l0,0l0,0l0,0c-0.4-0.5-0.8-0.8-1.4-1.1v-0.1v-0.8v-1.1
	c0-0.1,0-0.2,0-0.3V20.4c0-0.1,0-0.2,0-0.3v-0.3c0.1-2.7,1.7-4,4.2-5.3c0.1,0,0.1-0.1,0.2-0.1c2.3-1.1,4.7-2.3,7-3.9
	c2.2,1.6,4.6,2.7,7,3.8c0.1,0,0.1,0.1,0.2,0.1c2.5,1.2,4.1,2.6,4.2,5.3v0.3c0,0.1,0,0.2,0,0.3v10.7c0,0.1,0,0.2,0,0.3v1.1v0.8v0.1
	C42.9,33.6,42.4,34,42,34.4z M32,0.6l-0.3,0.2c-1,0.7-1.6,2-1.6,3.5c0,0.3,0,0.6,0.1,0.8c-1.3,1.1-3.9,2.6-5.2,3.2
	c-0.1-0.1-0.1-0.2-0.2-0.3c-0.6-0.7-1.5-1.2-2.5-1.3c-1-0.1-2,0.2-2.8,0.8c-0.8,0.7-1.3,1.6-1.4,2.7c-0.1,0.7,0,1.3,0.3,1.9
	c-0.9,0.7-1.7,1.9-2,3c-1-0.1-1.9,0.2-2.8,0.8c-0.9,0.6-1.5,1.5-1.7,2.6c-0.2,1,0.1,2,0.7,2.8c0.6,0.9,1.6,1.4,2.7,1.5v5.5
	c-1.1,0.1-2.1,0.7-2.7,1.5c-0.6,0.8-0.9,1.9-0.7,2.8c0.2,1,0.8,2,1.7,2.6c0.5,0.4,1.1,0.6,1.7,0.7v4.6h4.4c0.1,0.6,0.3,1.2,0.7,1.7
	c0.6,0.9,1.5,1.5,2.6,1.7c1,0.2,2-0.1,2.8-0.7c1-0.8,1.6-2,1.6-3.2c0-0.6-0.2-1.1-0.6-1.6l2.1,0v-0.7h0v-3.4v-3.4
	c1.9-0.9,2.8-1.4,3.3-1.6l3.1,1.6v3.4v3.5v0.6l2.1,0c-0.3,0.4-0.5,1-0.6,1.6c-0.1,1.3,0.5,2.5,1.6,3.2c0.8,0.6,1.9,0.9,2.8,0.7
	c1-0.2,2-0.8,2.6-1.7c0.4-0.5,0.6-1.1,0.7-1.7h4.4v-4.6c0.6-0.1,1.2-0.3,1.7-0.7c0.9-0.6,1.5-1.5,1.7-2.6c0.2-1-0.1-2-0.7-2.8
	c-0.6-0.9-1.6-1.4-2.7-1.5V23c1.1-0.1,2.1-0.6,2.7-1.5c0.6-0.8,0.9-1.8,0.7-2.8c-0.2-1-0.8-2-1.7-2.6c-0.8-0.6-1.8-0.8-2.8-0.8
	c-0.4-1.1-1.2-2.3-2-3c0.2-0.6,0.3-1.2,0.3-1.9c-0.1-1.1-0.6-2.1-1.4-2.7c-0.8-0.6-1.7-0.9-2.8-0.8c-1,0.1-1.9,0.6-2.5,1.3
	c-0.1,0.1-0.1,0.2-0.2,0.3c-1.4-0.7-3.9-2.1-5.2-3.2C34,4.8,34,4.5,34,4.1c0-1.4-0.7-2.6-1.7-3.3L32,0.6z"/>
<path class="st0" d="M32,15.9l4.7,2.4l0.6,0.3l1.2,0.6c0.3,0.1,0.5,0.6,0.4,0.9v1.2v1.1v0.8v3.7L38.6,27c-0.5,0.2-1,0.5-1.5,0.8
	l1.9,1v5.7h0h0.3h1.4v0h0.2c0.2-0.4,0.5-0.8,0.9-1.2h-1.7V28l-0.5-0.3l0.5-0.3v-4.4v-0.8v-2.3c0-0.9-0.5-1.6-1.1-1.9l-1.7-0.9
	L36.7,17L32,14.6L32,15.9z"/>
<path class="st0" d="M23.3,34.4h0.6h0.5H25v-1.2V23.1v-2.3v-0.7c0-0.3,0.1-0.7,0.4-0.9l1.8-0.9l4.7-2.4l0,0l0-1.3l0,0l-6.2,3.2v0
	l-0.8,0.4c-0.6,0.3-1.1,1-1.1,1.9v0.7v2.3v10.1h-1.7c0.4,0.3,0.7,0.7,0.9,1.2L23.3,34.4L23.3,34.4z"/>
</svg>
