<?xml version="1.0" encoding="utf-8"?>
<!-- Generator: Adobe Illustrator 24.0.1, SVG Export Plug-In . SVG Version: 6.00 Build 0)  -->
<svg version="1.1" id="Layer_1" xmlns="http://www.w3.org/2000/svg" xmlns:xlink="http://www.w3.org/1999/xlink" x="0px" y="0px"
	 viewBox="0 0 612 792" style="enable-background:new 0 0 612 792;" xml:space="preserve">
<style type="text/css">
	.st0{fill:#BF966C;}
	.st1{fill:#C4C5C4;}
	.st2{fill:#9B9B9B;}
</style>
<path class="st0" d="M438,466.3V502c0,0.9,0.2,1.6,0.5,2c0.4,0.5,1,0.8,1.9,1.1v1.4h-15.3v-1.4c0.9-0.3,1.5-0.7,1.9-1.1
	c0.4-0.5,0.5-1.1,0.5-2v-49.8c0-0.9-0.2-1.5-0.5-2c-0.4-0.5-1-0.8-1.9-1.1v-1.4h17.8v1.4c-1.1,0.3-1.6,1-1.6,2
	c0,0.7,0.4,1.4,1.1,2.3l29,33.7v-34.9c0-0.9-0.2-1.5-0.5-2c-0.4-0.5-1-0.8-1.9-1.1v-1.4h15.3v1.4c-0.9,0.3-1.5,0.7-1.9,1.1
	c-0.4,0.5-0.5,1.1-0.5,2V502c0,0.9,0.2,1.6,0.5,2c0.4,0.5,1,0.8,1.9,1.1v1.4h-16.5v-1.4c1.1-0.3,1.6-0.9,1.6-1.9
	c0-0.6-0.6-1.6-1.9-3L438,466.3z M396.1,483.5l-8.4-20.8l-8.6,20.8H396.1z M399.4,491.5h-23.6l-3.6,8.3c-0.5,1.2-0.7,2.1-0.7,2.7
	c0,1.3,0.9,2.2,2.6,2.6v1.4h-17.3v-1.4c1-0.2,1.8-0.6,2.3-1.2c0.5-0.6,1.2-1.7,1.8-3.4l19.3-45.2c0.6-1.4,0.9-2.6,0.9-3.5
	c0-1.3-0.7-2.3-2.2-2.8v-1.4h18.6v1.4c-1.5,0.5-2.3,1.3-2.3,2.5c0,0.8,0.2,1.8,0.7,2.8l19.9,45.3c0.9,1.9,1.6,3.2,2.2,3.9
	c0.6,0.7,1.5,1.2,2.6,1.4v1.4h-19.3v-1.4c1.7-0.3,2.5-1.2,2.5-2.7c0-0.6-0.3-1.5-0.8-2.7L399.4,491.5z M333.3,489.6l13.8-34.7
	c0.6-1.5,0.9-2.6,0.9-3.4c0-1.2-0.9-2-2.5-2.4v-1.4h17.9v1.4c-1.1,0.2-1.9,0.5-2.3,1.1c-0.4,0.5-1.2,2.1-2.3,4.7l-18.1,44
	c-0.8,1.9-1.2,3.1-1.2,3.7c0,1.5,0.8,2.3,2.4,2.6v1.4h-18v-1.4c1.6-0.3,2.4-1.1,2.4-2.6c0-0.5-0.4-1.8-1.2-3.6l-18.1-44
	c-1.1-2.6-1.8-4.2-2.3-4.7c-0.4-0.5-1.2-0.9-2.3-1.1v-1.4h18.6v1.4c-1.7,0.4-2.5,1.2-2.5,2.4c0,0.8,0.3,1.9,0.9,3.4L333.3,489.6z
	 M268.4,496.9h27.2c0.8,0,1.4-0.2,1.8-0.6c0.4-0.4,0.7-1.1,1-2.1h1.3v15.2h-1.3c-0.2-1-0.6-1.7-1-2.1c-0.4-0.4-1-0.6-1.8-0.6h-45.8
	v-3l30.4-46.1h-26.1c-0.8,0-1.4,0.2-1.8,0.6c-0.4,0.4-0.7,1.1-1,2.1h-1.3V445h1.3c0.3,1,0.6,1.7,1,2.1c0.4,0.4,1,0.6,1.8,0.6h45.1
	v2.5L268.4,496.9z M205.6,480.7v16.1h33.6c0.8,0,1.4-0.2,1.8-0.6c0.4-0.4,0.7-1.1,1-2.1h1.3v15.2H242c-0.2-1-0.6-1.7-1-2.1
	c-0.4-0.4-1-0.6-1.8-0.6h-47.5v-1.4c0.9-0.3,1.5-0.7,1.9-1.1c0.4-0.5,0.5-1.1,0.5-2v-49.7c0-0.9-0.2-1.6-0.5-2
	c-0.4-0.5-1-0.8-1.9-1.1v-1.4h46.6c0.8,0,1.4-0.2,1.8-0.6c0.4-0.4,0.7-1.1,1-2.1h1.3v15.2H241c-0.2-1-0.6-1.7-1-2.1
	c-0.4-0.4-1-0.6-1.8-0.6h-32.7v13.9h21.2c0.8,0,1.3-0.2,1.8-0.6c0.4-0.4,0.7-1.1,1-2.1h1.3v14.8h-1.3c-0.2-1-0.6-1.7-1-2.1
	c-0.4-0.4-1-0.6-1.8-0.6H205.6z M142.1,472.9h17.7c2.6,0,4.5-0.1,5.5-0.3c1.1-0.2,2.1-0.5,3-1.1c2-1.2,2.9-3.3,2.9-6.4
	c0-3.1-1-5.2-2.9-6.4c-0.9-0.6-1.9-0.9-2.9-1.1c-1-0.2-2.9-0.2-5.6-0.2h-17.7V472.9z M142.1,482.6v19.5c0,0.9,0.2,1.5,0.6,2
	c0.4,0.5,1,0.8,1.9,1.1v1.4h-16.3v-1.4c0.9-0.3,1.5-0.7,1.9-1.1c0.4-0.5,0.5-1.1,0.5-2v-49.8c0-0.9-0.2-1.6-0.5-2
	c-0.4-0.5-1-0.8-1.9-1.1v-1.4H161c4,0,7.2,0.3,9.5,0.8c2.3,0.5,4.4,1.4,6.1,2.7c2,1.5,3.5,3.5,4.5,6.1c0.9,2.5,1.4,5.1,1.4,7.9
	c0,9.6-4.8,15.2-14.2,16.9l10.2,16.2c1.8,2.8,3.1,4.7,3.9,5.5c0.8,0.8,1.8,1.3,3,1.4v1.4h-18.9v-1.4c1.3-0.2,2-0.8,2-1.5
	c0-0.5-0.6-1.8-1.8-3.7L156,482.6H142.1z"/>
<path class="st1" d="M420.8,521.9v2.2h-7.3v5.1h6.1v2.1h-6.1v5.5h7.5v2.1h-9.9v-17.1H420.8z M396.2,521.9l4.9,10.1l4.9-10.1h2.1V539
	h-2.4l0.1-11.9l-3.7,7.4h-2.3l-3.5-7l0.1,11.5h-2.4v-17.1H396.2z M381.9,533.6c0,1.1,0.3,2,1,2.6c0.7,0.6,1.5,0.9,2.5,0.9
	c1,0,1.8-0.3,2.5-0.9c0.7-0.6,1-1.5,1-2.6v-6.3c0-1.1-0.3-2-1-2.6c-0.7-0.6-1.5-1-2.5-1c-1,0-1.9,0.3-2.5,1c-0.7,0.6-1,1.5-1,2.6
	V533.6z M379.5,527c0-1.1,0.3-2,0.8-2.9c0.5-0.8,1.2-1.5,2.1-1.9c0.9-0.4,1.9-0.7,3-0.7c1.1,0,2.1,0.2,3,0.7
	c0.9,0.4,1.6,1.1,2.1,1.9c0.5,0.8,0.8,1.8,0.8,2.9v6.9c0,1.1-0.3,2-0.8,2.9c-0.5,0.8-1.2,1.5-2.1,1.9c-0.9,0.4-1.9,0.7-3,0.7
	c-1.1,0-2.1-0.2-3-0.7c-0.9-0.4-1.6-1.1-2.1-1.9c-0.5-0.8-0.8-1.8-0.8-2.9V527z M367.7,521.9v7.2h6.6v-7.2h2.4V539h-2.4v-7.8h-6.6
	v7.8h-2.4v-17.1H367.7z M355,537.6c-0.6,0.5-1.2,1-1.9,1.3c-0.7,0.3-1.5,0.5-2.3,0.5c-1.6,0-2.8-0.5-3.7-1.4c-0.9-1-1.3-2.3-1.3-4
	v-7c0-1.1,0.2-2,0.7-2.9c0.5-0.8,1.2-1.4,2.1-1.9c0.9-0.4,1.9-0.7,3-0.7c1.4,0,2.6,0.3,3.5,0.9c1,0.6,1.6,1.5,1.9,2.5l-2.3,0.6
	c-0.2-0.6-0.6-1-1.1-1.4c-0.5-0.3-1.2-0.5-2-0.5c-1,0-1.8,0.3-2.4,0.9c-0.6,0.6-0.9,1.5-0.9,2.6v6.3c0,1.1,0.3,2,0.8,2.7
	c0.5,0.6,1.3,1,2.3,1c0.7,0,1.3-0.2,2-0.5c0.6-0.3,1.2-0.8,1.6-1.3V532h-3.4v-2.1h5.8v9.4h-1.7L355,537.6z M333.7,521.9l6.9,12.8
	l-0.1-12.8h2.3V539h-2.6l-6.9-12.8l0.1,12.8h-2.3v-17.1H333.7z M328.2,521.9V539h-2.4v-17.1H328.2z M315.2,534.1v4.9h-2.4v-17.1h2.4
	v8.4l6.2-8.4h2.9l-5.7,7.6l5.8,9.4l-2.6,0.3l-4.7-7.8L315.2,534.1z M300.6,533.6c0,1.1,0.3,2,1,2.6c0.7,0.6,1.5,0.9,2.5,0.9
	c1,0,1.8-0.3,2.5-0.9c0.7-0.6,1-1.5,1-2.6v-6.3c0-1.1-0.3-2-1-2.6c-0.7-0.6-1.5-1-2.5-1c-1,0-1.9,0.3-2.5,1c-0.7,0.6-1,1.5-1,2.6
	V533.6z M298.2,527c0-1.1,0.3-2,0.8-2.9c0.5-0.8,1.2-1.5,2.1-1.9c0.9-0.4,1.9-0.7,3-0.7c1.1,0,2.1,0.2,3,0.7
	c0.9,0.4,1.6,1.1,2.1,1.9c0.5,0.8,0.8,1.8,0.8,2.9v6.9c0,1.1-0.3,2-0.8,2.9c-0.5,0.8-1.2,1.5-2.1,1.9c-0.9,0.4-1.9,0.7-3,0.7
	c-1.1,0-2.1-0.2-3-0.7c-0.9-0.4-1.6-1.1-2.1-1.9c-0.5-0.8-0.8-1.8-0.8-2.9V527z M286.1,533.6c0,1.1,0.3,2,1,2.6
	c0.7,0.6,1.5,0.9,2.5,0.9c1,0,1.8-0.3,2.5-0.9c0.7-0.6,1-1.5,1-2.6v-6.3c0-1.1-0.3-2-1-2.6c-0.7-0.6-1.5-1-2.5-1c-1,0-1.9,0.3-2.5,1
	c-0.7,0.6-1,1.5-1,2.6V533.6z M283.7,527c0-1.1,0.3-2,0.8-2.9c0.5-0.8,1.2-1.5,2.1-1.9c0.9-0.4,1.9-0.7,3-0.7c1.1,0,2.1,0.2,3,0.7
	c0.9,0.4,1.6,1.1,2.1,1.9c0.5,0.8,0.8,1.8,0.8,2.9v6.9c0,1.1-0.3,2-0.8,2.9c-0.5,0.8-1.2,1.5-2.1,1.9c-0.9,0.4-1.9,0.7-3,0.7
	c-1.1,0-2.1-0.2-3-0.7c-0.9-0.4-1.6-1.1-2.1-1.9c-0.5-0.8-0.8-1.8-0.8-2.9V527z M276.4,536.9c0.8,0,1.5-0.2,1.9-0.6
	c0.4-0.4,0.6-1,0.6-1.7v-0.6c0-0.8-0.2-1.4-0.6-1.8c-0.4-0.4-1-0.7-1.7-0.7h-4.3v5.5H276.4z M276.5,529.3c0.7,0,1.2-0.2,1.6-0.6
	c0.4-0.4,0.6-1,0.6-1.8v-0.4c0-0.9-0.2-1.6-0.6-1.9c-0.4-0.3-1.1-0.5-2.1-0.5h-3.5v5.2H276.5z M275.9,521.9c1.7,0,3,0.3,3.8,1
	c0.9,0.7,1.3,1.7,1.3,3.2v1c0,0.6-0.1,1.1-0.4,1.7c-0.3,0.6-0.7,1-1.2,1.3c0.6,0.2,1.1,0.7,1.4,1.3c0.4,0.6,0.6,1.3,0.6,2.1l0,1.2
	c0,1.3-0.4,2.3-1.2,3.1c-0.8,0.8-2,1.2-3.6,1.2H270v-17.1H275.9z M262,521.9v2.2h-7.3v5.1h6.1v2.1h-6.1v5.5h7.5v2.1h-9.9v-17.1H262z
	 M240.1,521.9l6.9,12.8l-0.1-12.8h2.3V539h-2.6l-6.9-12.8L240,539h-2.3v-17.1H240.1z M234.7,521.9V539h-2.4v-17.1H234.7z
	 M223.1,521.9v14.9h7.4v2.1h-9.8v-17.1H223.1z M208.6,521.9l6.9,12.8l-0.1-12.8h2.3V539h-2.6l-6.9-12.8l0.1,12.8h-2.3v-17.1H208.6z
	 M193.8,533.6c0,1.1,0.3,2,1,2.6c0.7,0.6,1.5,0.9,2.5,0.9c1,0,1.8-0.3,2.5-0.9c0.7-0.6,1-1.5,1-2.6v-6.3c0-1.1-0.3-2-1-2.6
	c-0.7-0.6-1.5-1-2.5-1c-1,0-1.9,0.3-2.5,1c-0.7,0.6-1,1.5-1,2.6V533.6z M191.5,527c0-1.1,0.3-2,0.8-2.9c0.5-0.8,1.2-1.5,2.1-1.9
	c0.9-0.4,1.9-0.7,3-0.7c1.1,0,2.1,0.2,3,0.7c0.9,0.4,1.6,1.1,2.1,1.9c0.5,0.8,0.8,1.8,0.8,2.9v6.9c0,1.1-0.3,2-0.8,2.9
	c-0.5,0.8-1.2,1.5-2.1,1.9c-0.9,0.4-1.9,0.7-3,0.7c-1.1,0-2.1-0.2-3-0.7c-0.9-0.4-1.6-1.1-2.1-1.9c-0.5-0.8-0.8-1.8-0.8-2.9V527z"/>
<path class="st0" d="M306.2,294.3l17.9,9.1v14.9l-35.9,18.2v-33.1L306.2,294.3z M217.4,385.1c0.6-0.1,1.1-0.1,1.7-0.2
	c1.3-0.2,2.5-0.6,3.7-1V399h14.1c-0.4,1.2-0.8,2.5-1,3.7c-0.1,0.5-0.2,1.1-0.2,1.6h-18.3V385.1z M375.5,399h14v-15.2
	c0.6,0.2,1.3,0.4,1.9,0.6c1.2,0.3,2.3,0.5,3.5,0.6v19.3h-18.3c-0.1-0.5-0.1-1.1-0.2-1.6C376.3,401.5,375.9,400.2,375.5,399z
	 M366,386.2l0.2-2.1c0.4-4.1,4.5-8.5,8.6-9.3l1.8-0.4c1.8,2.3,3.9,4.4,6.3,6.1v12h-10.9C370.4,390.1,368.4,388,366,386.2z
	 M229.4,380.5c2.4-1.7,4.5-3.7,6.3-6.1l1.8,0.4c4.2,0.8,8.2,5.2,8.6,9.3l0.2,2.1c-2.4,1.8-4.4,3.9-6.1,6.2h-10.9V380.5z M217.4,310
	c2-0.5,3.8-1.4,5.4-2.6l0.1,36.9c-1.6-1.2-3.5-2.1-5.5-2.6V310z M389.5,344.3l0.1-36.9c1.6,1.2,3.5,2.1,5.4,2.6v31.7
	C393,342.2,391.1,343.1,389.5,344.3z M213.1,303.9c-4.9,0-9.4-2.2-12.2-6.1c-2.4-3.3-3.4-7.3-2.7-11.1c0.7-4.1,3.1-7.8,6.8-10.3
	c4-2.8,8.5-3.8,13-2.9c5.1,0.9,9.8,4.1,13,8.6c2.4,3.5,3.8,7.9,4,12.1l0,63.6c-0.1,4.2-1.6,8.6-4,12.1c-3.1,4.6-7.9,7.7-13,8.6
	c-4.5,0.8-9-0.2-13-2.9c-3.7-2.6-6.1-6.2-6.8-10.3c-0.7-3.9,0.3-7.8,2.7-11.2c3.1-4.2,8.1-6.5,13.6-6c4.4,0.4,8,4.2,8.4,8.8l0,0.9
	c0,2.2-0.7,4.3-2.1,6.1c-1.3,1.7-3.7,2.9-6,2.8c-2.1,0-4.3-1.3-4.3-3.7c0-0.7,0.2-1.3,0.7-1.7c0.9-0.9,2.5-1.3,3.6-1.4l0-6.6
	c-2.4,0-5.9,0.9-8.3,3.3c-1.7,1.7-2.6,4-2.5,6.5c0.1,5.7,4.8,10.1,10.9,10.2c4.4-0.1,8.8-2,11.3-5.4c2.3-3,3.4-6.5,3.4-10.1
	c0-0.4,0-0.8,0-1.1l-0.1-60.2c0.1-0.7,0.1-1.4,0.1-2.2c0-3.6-1.2-7-3.4-9.9c-2.7-3.5-7.1-5.7-11.3-5.7c0,0-0.1,0-0.1,0
	c-2.9,0-5.7,1.2-7.8,3.4c-2.1,2.2-3.1,5-3,7.9c0.3,6.1,6.3,9.7,10.9,9.4l-0.1-6.6c0,0,0,0,0,0c-1.2,0-4.1-1.1-4.2-3
	c0-1.1,0.4-2.2,1.2-3.1c0.8-0.9,1.9-1.4,3.1-1.4c0,0,0,0,0,0c2.2,0,4.6,1.3,6,3.1c1.4,1.8,2,3.8,2.1,6c0,0.5,0,1-0.1,1.4h0l0,0.2
	c-0.7,4.3-4.2,7.7-8.3,8.1C214,303.8,213.5,303.9,213.1,303.9z M377.5,294.1c0.1-4.2,1.6-8.6,4-12.1c2.8-4.1,7.1-7.1,11.7-8.3
	c3.5-0.9,8.8-1.2,14.3,2.7c3.7,2.6,6.1,6.2,6.8,10.3c0.6,3.9-0.3,7.8-2.7,11.1c-3.1,4.2-8,6.5-13.6,6c-4.2-0.4-7.7-3.9-8.3-8.2
	l0-0.2c-0.1-0.5-0.1-0.9-0.1-1.4c0-2.2,0.7-4.2,2.1-6c1.4-1.9,3.7-3,6-3.1c1.2,0,2.3,0.5,3.1,1.4c0.8,0.8,1.2,1.9,1.2,3.1
	c-0.1,1.9-2.7,3.1-4.2,3l-0.1,6.6c4.1,0.1,10.6-3.3,10.9-9.4c0.1-2.9-0.9-5.8-3-7.9c-2.1-2.2-4.8-3.1-7.9-3.4
	c-4.2,0-8.6,2.2-11.3,5.8c-2.2,2.9-3.4,6.3-3.4,9.9c0,0.7,0,1.4,0.1,2.1l-0.1,60.4c0,0.3,0,0.7,0,1.1c0,3.7,1.2,7.2,3.4,10.1
	c2.6,3.3,6.8,5.4,11.2,5.4c0.1,0,0.1,0,0.2,0c6.1-0.1,10.8-4.4,10.9-10.1c0-2.5-0.8-4.7-2.5-6.5c-2.4-2.4-5.9-3.3-8.3-3.4l0,6.6
	c1.1,0,2.7,0.4,3.6,1.4c0.5,0.5,0.7,1,0.7,1.7c0,2.4-2.2,3.6-4.3,3.6c0,0-0.1,0-0.1,0c-2.3,0-4.6-1.1-5.9-2.8
	c-1.4-1.8-2.1-3.8-2.1-6.1h0v-0.8c0.4-4.6,4-8.5,8.4-8.8c5.5-0.5,10.6,1.8,13.6,6c2.4,3.3,3.4,7.3,2.7,11.2
	c-0.7,4.1-3.1,7.8-6.8,10.3c-5.6,3.8-10.9,3.6-14.3,2.7c-4.6-1.2-8.8-4.2-11.7-8.4c-2.4-3.4-3.8-7.9-4-12.1V294.1z M233.4,274.6
	c2-4.4,4.9-8.3,8.8-11.8c2.1,0.9,4.3,1.5,6.6,1.9c-5,3.9-9.1,8.7-11.5,15c-0.3-0.5-0.6-0.9-0.9-1.4
	C235.4,276.9,234.4,275.7,233.4,274.6z M363.6,264.7c2.3-0.4,4.5-1,6.6-1.9c3.9,3.5,6.8,7.4,8.8,11.8c-1.1,1.1-2.1,2.3-3,3.6
	c-0.3,0.5-0.6,0.9-0.9,1.4C372.7,273.4,368.6,268.6,363.6,264.7z M223.5,268.1c1.7-4.6,5.1-9.6,8.5-12.8c0.2,0.2,0.4,0.4,0.5,0.6
	c1.1,1.3,2.3,2.4,3.6,3.4c-3.4,3.4-6.1,7-8.1,11C226.6,269.4,225.1,268.7,223.5,268.1z M376.2,259.3c0.9-0.7,1.7-1.4,2.4-2.1
	c0.6-0.6,1.2-1.3,1.8-2c3.5,3.2,6.8,8.2,8.5,12.8c-1.6,0.6-3.1,1.4-4.6,2.3C382.3,266.3,379.6,262.7,376.2,259.3z M260.7,251.5
	c13.4-6.4,33.8-16.5,45.5-26.7c11.7,10.2,32.2,20.2,45.6,26.7c2.9,1.7,6.2,2.3,10,1.8c6.1-0.7,11.1-6,11.3-12
	c0.1-2.3-0.7-4.7-2.1-6.7c-1.9-2.6-4.7-4.1-8.1-4.2c-2.1-0.1-5.7,0.6-7.9,5.4l6,2.7c0.7-1.5,1.2-1.4,1.7-1.5c1.3,0,2.2,0.5,2.9,1.5
	c0.6,0.9,0.9,2,0.8,2.6c-0.1,2.8-2.6,5.3-5.5,5.7c-1.8,0.2-3.4,0-4.8-0.5c-0.4-0.2-0.8-0.4-1.3-0.6c-0.3-0.2-0.6-0.4-0.8-0.6
	c-1.9-1.5-3.1-3.9-3.5-6.8c-0.4-3.1,0.4-6,2.3-8.4c2.2-2.7,5.7-4.5,9.6-4.9c4.1-0.4,7.9,0.7,10.8,3.2c3.2,2.6,5.1,6.5,5.4,10.9
	c0.5,6.6-2.4,11-4.9,13.5c-3.3,3.3-8,5.4-12.9,5.8c-4,0.3-7.6-0.3-11.2-1.9c-0.4-0.2-0.7-0.3-1-0.5c0,0-0.1,0-0.1-0.1
	c-0.1-0.1-0.3-0.1-0.4-0.2v0c-13.9-6.5-27.4-13.2-40.2-22.4l-1.9-1.4l-1.9,1.4c-12.8,9.3-26.8,16.2-40.1,22.4l0,0
	c-0.1,0.1-0.3,0.1-0.5,0.2c0,0,0,0,0,0c-0.3,0.2-0.7,0.3-1,0.5c-3.6,1.6-7.2,2.2-11.3,1.9c-5.4-0.4-10.4-2.9-13.8-6.7
	c-2.9-3.4-4.3-7.8-4-12.5c0.3-4.4,2.2-8.3,5.4-10.9c2.9-2.5,6.8-3.7,10.8-3.2c3.9,0.4,7.4,2.2,9.6,4.9c1.9,2.4,2.7,5.2,2.3,8.4
	c-0.3,2.9-1.6,5.3-3.5,6.8c-0.2,0.2-0.5,0.4-0.8,0.5c-0.4,0.2-0.9,0.4-1.3,0.6c-1.4,0.5-3,0.7-4.7,0.5c-2.9-0.4-5.4-2.9-5.5-5.7
	c0-0.7,0.2-1.8,0.8-2.6c0.7-0.9,1.6-1.4,2.9-1.4c0.3,0,1,0,1.6,1.5l6-2.7c-2.2-4.8-5.8-5.3-7.9-5.4c-3.3,0.1-6.2,1.6-8.1,4.2
	c-1.4,1.9-2.1,4.4-2.1,6.7c0.2,6,5.2,11.3,11.3,12C254.4,253.8,257.8,253.1,260.7,251.5z M268.2,233.5c7.5-3.7,20.9-11.5,29.5-17.9
	c0.9,1.8,2.1,3.5,3.4,4.9c-8.4,7.1-21.5,14.2-32.9,19.9c0.1-0.5,0.2-0.9,0.2-1.4C268.6,237.1,268.5,235.3,268.2,233.5z M311.2,220.4
	c1.4-1.4,2.5-3.1,3.5-4.8c8.5,6.4,22.1,14.3,29.6,18c-0.3,1.8-0.4,3.6-0.2,5.6c0.1,0.5,0.1,0.9,0.2,1.4
	C332.8,234.7,319.6,227.5,311.2,220.4z M306,216.2c-2.8-2.8-4.4-7-4.5-11.9c-0.1-5.1,1.7-9.7,4.5-12.7c3,2.8,4.8,7.1,4.9,11.8
	C311.1,208.3,309.3,213,306,216.2z M335,380.4L335,380.4v6.6h14.3c4.2,0.1,8.6,1.6,12.1,4c4.6,3.1,7.7,7.9,8.6,13
	c0.8,4.5-0.2,9-2.9,13c-2.5,3.7-6.2,6.1-10.3,6.8c-3.9,0.6-7.8-0.3-11.2-2.7c-4.1-3-6.4-7.8-6.1-12.7c0.3-4.7,3.8-8.6,8.3-9.3
	c0,0,0.1,0,0.1,0v0c0.5-0.1,1.1-0.1,1.5-0.1c2.3,0,4,0.6,6,2.1c2.4,1.8,3.4,5.5,2,7.9c-0.5,0.9-1.5,2.2-3.7,2.2c0,0,0,0-0.1,0
	c-2.2,0-2.9-2.4-2.9-3.1l-6.6,0.1c0,4,3.3,9.5,9.4,9.6c3.7-0.1,7.7-2,9.6-5.5c3-5.2,1.3-12.6-3.8-16.4c-3.1-2.4-6.2-3.4-10-3.4
	c-0.6,0-1.4,0.1-2,0.1c-5.5,0-11.1,0-16.6,0v0v-12v-2.7v-25.6l-16.7-8.8l4.8-2.5l16.2,8.6v28.3V380.4z M281.7,392.4
	c-5.5,0-11.1,0-16.6,0c-0.7-0.1-1.4,0-2-0.1c-3.8,0-6.9,1.1-10,3.4c-5.1,3.9-6.8,11.2-3.8,16.4c1.9,3.5,5.4,5.4,9.6,5.5
	c6.1-0.1,9.4-5.6,9.5-9.6l-6.6-0.1c0,0.6-0.7,3-2.9,3.1c0,0,0,0,0,0c-2.2,0-3.3-1.3-3.7-2.1c-1.4-2.5-0.4-6.2,2-8
	c2-1.5,3.5-2.1,6.1-2.1c0.5,0,0.9,0,1.4,0.1v0c0,0,0.1,0,0.1,0c4.5,0.7,8.1,4.6,8.3,9.3c0.3,4.9-2.1,9.7-6.1,12.7
	c-3.3,2.4-7.3,3.4-11.2,2.7c-4.1-0.7-7.8-3.1-10.3-6.8c-2.8-4-3.8-8.5-2.9-13c0.9-5.1,4.1-9.8,8.6-13c3.4-2.4,7.9-3.8,12.1-4h14.3
	v-6.6v-2.7v-28.3l53.3-27.1v-23l-24.5-12.5l0,0l-24.5,12.5v40.5l-4.3,2.2v-45.4l28.8-14.6l28.8,14.6v5.9v22.5
	c-7.6,3.9-15.3,7.8-22.9,11.7c-1.1,0.6-2.3,1.2-3.4,1.8l-9.2,4.7c-4.7,2.3-9.5,4.6-14.2,7l-3.7,1.8v25.6v2.7v6.6V392.4z M363.1,375
	L363.1,375L363.1,375l-0.1,0.2l0,0l0,0l-0.1,0.1l0,0l0,0l-0.1,0.1l0,0.1l0,0l-0.1,0.1l0,0l-0.1,0.2l-0.1,0.1l-0.1,0.1l0,0l0,0.1
	l-0.1,0.1l0,0l0,0.1l-0.1,0.1l0,0l0,0l-0.1,0.1l0,0l0,0l0,0.1l0,0.1l0,0l-0.1,0.2l0,0l0,0.1l0,0.1h0l0,0l-0.1,0.2l0,0l0,0.1l0,0.1
	l0,0l0,0.1l0,0.1l0,0l0,0l0,0.1l0,0c-0.4,0.8-0.8,1.7-1.1,2.6h-10.9c-0.6,0-1.1,0-1.7,0h-6.2v-35.1l-15.7-8.2
	c4.1-2.1,9.2-4.7,15.7-8v-26.6v-2.2h0v-6.1c0-0.8-0.2-1.7-1-2.1l-3.4-1.7v0l-31-15.8l-28.5,14.5l-2.5,1.3v0l-3.4,1.7
	c-0.8,0.4-1,1.3-1,2.1l0,3.5v47.6v7.4v27.7h-6.2c-0.5,0-1.1,0-1.6,0h-10.9c-0.3-0.9-0.6-1.8-1.1-2.6h0c-0.2-0.4-0.5-0.8-0.7-1.3l0,0
	l-0.2-0.2l0-0.1l0,0l-0.1-0.2l0,0l-0.1-0.2l-0.1-0.2l0,0l-0.1-0.1l0,0l0-0.1l-0.1-0.1l0,0l0,0l-0.1-0.1l0,0l0,0l-0.1-0.1l0-0.1l0,0
	c-2-2.6-4.7-4.8-7.8-6v-0.6v-4.6v-6c0-0.6,0-1.1,0-1.7v-60.5c0-0.6,0-1.1,0-1.7v-1.7c0.4-15.3,9.4-22.9,23.9-29.9
	c0.4-0.2,0.7-0.3,1.1-0.5c13-6.1,26.8-12.8,39.7-21.9c12.7,8.9,26,15.4,39.6,21.8c0.4,0.2,0.8,0.4,1.3,0.6
	c14.5,6.9,23.5,14.5,23.9,29.9v1.5c0,0.6,0,1.2,0,1.8v60.4c0,0.6,0,1.1,0,1.7v6v4.6v0.6C367.9,370.3,365.2,372.4,363.1,375z
	 M306,183.3l-1.8,1.2c-5.8,4-9.3,11.5-9.2,19.8c0,1.6,0.2,3.1,0.4,4.6c-7.7,6.2-22,14.5-29.7,18.4c-0.3-0.5-0.7-1.1-1.1-1.6
	c-3.3-4.1-8.5-6.8-14.1-7.4c-5.8-0.6-11.4,1.1-15.7,4.7c-4.5,3.8-7.3,9.3-7.7,15.5c-0.3,3.9,0.3,7.5,1.6,10.9
	c-4.9,4.1-9.5,10.8-11.6,17.1c-5.6-0.5-11,1-15.8,4.3c-5.2,3.6-8.6,8.8-9.6,14.7c-1,5.6,0.4,11.4,3.9,16.1c3.6,5,9.1,8,15.3,8.7v31
	c-6.1,0.6-11.7,3.7-15.3,8.6c-3.5,4.8-4.9,10.5-3.9,16.2c1,5.9,4.4,11.1,9.6,14.7c3,2.1,6.3,3.4,9.6,4V411h25.1
	c0.6,3.4,2,6.7,4.1,9.8c3.6,5.2,8.8,8.6,14.7,9.6c5.6,1,11.4-0.4,16.2-3.9c5.9-4.3,9.2-11.2,8.8-18.4c-0.2-3.3-1.4-6.4-3.2-8.9
	l11.9,0v-4.2h0v-19.2v-19.5c10.9-5.4,15.9-7.8,18.5-9.1l17.4,9.1v19.5v20.1v3.2l11.9,0c-1.9,2.5-3,5.6-3.2,8.9
	c-0.4,7.2,2.9,14.1,8.8,18.4c4.8,3.5,10.6,4.9,16.2,3.9c5.9-1,11.1-4.4,14.7-9.6c2.1-3.1,3.5-6.3,4.1-9.8h25v-26.1
	c3.4-0.6,6.6-2,9.6-4c5.2-3.6,8.6-8.8,9.6-14.7c1-5.6-0.4-11.4-3.9-16.2c-3.6-5-9.1-8-15.3-8.7v-31c6.1-0.6,11.7-3.7,15.3-8.7
	c3.5-4.8,4.9-10.5,3.9-16.1c-1-5.9-4.4-11.1-9.6-14.7c-4.8-3.3-10.2-4.8-15.8-4.3c-2.1-6.3-6.7-13.1-11.6-17.1
	c1.3-3.3,1.9-7,1.6-10.9c-0.5-6.2-3.2-11.7-7.7-15.5c-4.3-3.6-9.9-5.2-15.7-4.7c-5.7,0.6-10.8,3.3-14.1,7.4c-0.4,0.5-0.8,1-1.1,1.6
	c-7.7-3.9-22-12.2-29.6-18.3c0.4-1.9,0.6-3.8,0.6-5.8c-0.1-7.8-3.8-14.8-9.7-18.7L306,183.3z"/>
<path class="st2" d="M306.2,269.8l26.7,13.6l3.6,1.8l6.8,3.4c1.9,0.8,2.6,3.2,2.5,5v6.7v6.2v4.4v20.8l-2.3,1.2
	c-2.8,1.4-5.6,2.8-8.4,4.3l10.7,5.6V375h0h1.8h8.1v0h0.9c1.3-2.5,3.1-4.7,5.2-6.6h-9.5v-29.7l-2.9-1.5l2.9-1.5v-24.9v-4.4v-12.9
	c0-5.3-2.8-9.1-6.1-10.8l-9.7-4.9l-3.6-1.8l-26.7-13.6L306.2,269.8z"/>
<path class="st2" d="M256.6,375h3.4h2.9h3.7v-6.6v-57.5v-13.2v-4.1c-0.1-1.8,0.6-4.2,2.5-5l10.4-5.3l26.5-13.5l0.2-0.1l0-7.4
	l-0.2,0.1l-35.2,17.9v0l-4.7,2.4c-3.4,1.7-6.1,5.5-6.1,10.8v4.1v13.2v57.5h-9.5c2.1,1.9,3.9,4.1,5.2,6.6L256.6,375L256.6,375z"/>
</svg>
