<?xml version="1.0" ?><svg data-name="Layer 1" id="Layer_1" viewBox="0 0 128 128" xmlns="http://www.w3.org/2000/svg"><title/><path fill="#fff" d="M82,74H28a2,2,0,0,0,0,4H76.67749a25.12968,25.12968,0,0,1,5.43616-3.98853C82.07526,74.00928,82.03894,74,82,74Z"/><path fill="#fff" d="M93.0343,120.97552,93.03522,124H17L16.96478,4H93l.01965,67.0249C93.3454,71.01227,93.67126,71,94,71a25.1046,25.1046,0,0,1,3,.18634V4a3.9828,3.9828,0,0,0-3.96478-4H16.96478A3.9828,3.9828,0,0,0,13,4V124a3.9828,3.9828,0,0,0,3.96478,4H93.03522A3.9828,3.9828,0,0,0,97,124v-3.18634A25.10462,25.10462,0,0,1,94,121C93.67615,121,93.35516,120.98779,93.0343,120.97552Z"/><path fill="#fff" d="M75.53516,64A4.424,4.424,0,0,0,80,59.62793V35.90332a5.20392,5.20392,0,0,0-1.43164-3.42187L57.97266,11.248A4.593,4.593,0,0,0,54.82617,10.001a4.369,4.369,0,0,0-3.09375,1.34961L31.39746,32.459A5.387,5.387,0,0,0,30,35.90332V59.62793A4.42374,4.42374,0,0,0,34.46387,64ZM50.98242,48.05566A.22311.22311,0,0,1,51.14844,48h7.70313c.085,0,.13281.03516.14844.01953V60H50.99988ZM34,59.62793V35.91113a1.593,1.593,0,0,1,.27832-.67676L54.61523,14.124A.39448.39448,0,0,1,54.89551,14a.33484.33484,0,0,1,.248.0752L75.73145,35.30078A1.47857,1.47857,0,0,1,76,35.90332V59.62793A.43181.43181,0,0,1,75.53516,60H63V47.98926A4.07632,4.07632,0,0,0,58.85156,44H51.14844A4.07632,4.07632,0,0,0,47,47.98926V60H34.46387A.43145.43145,0,0,1,34,59.62793Z"/><path fill="#fff" d="M94,75a21,21,0,1,0,21,21A21.0003,21.0003,0,0,0,94,75Zm0,38a17,17,0,1,1,17-17A17.01924,17.01924,0,0,1,94,113Z"/><path fill="#fff" d="M73.29834,82H28a2,2,0,0,0,0,4H71.09381A24.98468,24.98468,0,0,1,73.29834,82Z"/><path fill="#fff" d="M69.73285,90H28a2,2,0,0,0,0,4H69.08716A24.86342,24.86342,0,0,1,69.73285,90Z"/><path fill="#fff" d="M28,106a2,2,0,0,0,0,4H73.29834a24.98468,24.98468,0,0,1-2.20453-4Z"/><path fill="#fff" d="M28,98a2,2,0,0,0,0,4H69.73285a24.86342,24.86342,0,0,1-.64569-4Z"/><path fill="#fff" d="M28,114a2,2,0,0,0,0,4H82c.03894,0,.07526-.00928.11365-.01147A25.12968,25.12968,0,0,1,76.67749,114Z"/><path fill="#fff" d="M101.80859,89.39355,89.78711,98.3125,86.4834,94.6582a2.00022,2.00022,0,1,0-2.9668,2.68359l4.52148,5a2.00045,2.00045,0,0,0,2.6748.26465l13.47852-10a2,2,0,0,0-2.38281-3.21289Z"/></svg>