<?xml version="1.0" ?><svg style="enable-background:new 0 0 48 48;" version="1.1" viewBox="0 0 48 48" xml:space="preserve" xmlns="http://www.w3.org/2000/svg" xmlns:xlink="http://www.w3.org/1999/xlink"><style type="text/css">
	.st0{display:none;}
	.st1{display:inline;}
	.st2{fill:none;stroke:#000;stroke-width:2;stroke-miterlimit:10;}
	.st3{fill:none;stroke:#000;stroke-width:2;stroke-linejoin:round;stroke-miterlimit:10;}
	.st4{fill:none;stroke:#000;stroke-width:2;stroke-miterlimit:10;stroke-dasharray:3.3333,3.3333;}
	.st5{fill:none;stroke:#000;stroke-width:2;stroke-miterlimit:10;stroke-dasharray:2;}
</style><g class="st0" id="Layer_1"/><g id="Layer_2"><g><g><polyline class="st2" points="1.9,35.1 6.2,30.8 17.5,42.1 13.2,46.4    "/><path class="st2" d="M21.7,29.6h7.1c2.2,0,3.9-1.8,3.9-3.9v-0.1c0-0.5-0.4-1-1-1H18.9c-2.7,0-5.4,1-7.4,2.8l-4.7,4.1"/><path class="st2" d="M31.7,28.6h0.9c2.1,0,4.1-0.5,5.9-1.4l2.1-1c1.8-0.9,4-0.4,5.2,1.2v0c0.5,0.7,0.3,1.6-0.4,2.1l-10.6,6.9     c-1.3,0.8-2.8,1.3-4.4,1.3h-9.3c-2.2,0-4.2,0.9-5.7,2.4l0,0"/><line class="st2" x1="12.5" x2="13.9" y1="41.4" y2="42.9"/><line class="st2" x1="37.7" x2="37.7" y1="13.6" y2="27.6"/><line class="st2" x1="15.7" x2="15.7" y1="24.6" y2="13.6"/><polyline class="st2" points="21.7,13.6 39.7,13.6 26.7,1.6 13.7,13.6 19.7,13.6    "/><polyline class="st2" points="22.7,24.6 22.7,17.6 30.7,17.6 30.7,24.6    "/></g></g></g></svg>