<?xml version="1.0" encoding="utf-8"?>
<!-- Generator: Adobe Illustrator 24.0.1, SVG Export Plug-In . SVG Version: 6.00 Build 0)  -->
<svg version="1.1" id="Layer_1" xmlns="http://www.w3.org/2000/svg" xmlns:xlink="http://www.w3.org/1999/xlink" x="0px" y="0px"
	 viewBox="0 0 612 792" style="enable-background:new 0 0 612 792;" xml:space="preserve">
<style type="text/css">
	.st0{fill-rule:evenodd;clip-rule:evenodd;fill:#fff;}
</style>
<g id="atm">
	<g>
		<path class="st0" d="M428.77,257.02H205.29c-6.11,0-11.06,5.02-11.06,11.22v276.87c0,6.2,4.95,11.22,11.06,11.22h223.48
			c6.11,0,11.06-5.02,11.06-11.22V268.24C439.83,262.04,434.88,257.02,428.77,257.02z M234.59,295.94c0-2.21,1.77-4.01,3.95-4.01
			h156.97c2.18,0,3.95,1.79,3.95,4.01v94.02c0,2.21-1.77,4.01-3.95,4.01H238.54c-2.18,0-3.95-1.8-3.95-4.01V295.94z M295.88,516.58
			c0,2.21-1.77,4.01-3.95,4.01h-43.52c-2.18,0-3.95-1.8-3.95-4.01v-68.46c0-2.21,1.77-4.01,3.95-4.01h43.52
			c2.18,0,3.95,1.8,3.95,4.01V516.58z M310.95,441.64c0,2.21-1.77,4.01-3.95,4.01h-4.8c-2.18,0-3.95-1.8-3.95-4.01v-2.13h-56.01
			v2.13c0,2.21-1.77,4.01-3.95,4.01h-4.88c-2.18,0-3.95-1.8-3.95-4.01v-11.04c0-2.21,1.77-4.01,3.95-4.01H307
			c2.18,0,3.95,1.8,3.95,4.01V441.64z M341.48,519.57c0,1.53-1.23,2.77-2.74,2.77h-16.01c-1.51,0-2.74-1.25-2.74-2.77v-16.25
			c0-1.53,1.22-2.77,2.74-2.77h16.01c1.51,0,2.74,1.24,2.74,2.77V519.57z M341.48,487.56c0,1.53-1.23,2.77-2.74,2.77h-16.01
			c-1.51,0-2.74-1.25-2.74-2.77v-16.25c0-1.53,1.22-2.78,2.74-2.78h16.01c1.51,0,2.74,1.24,2.74,2.78V487.56z M341.48,455.54
			c0,1.53-1.23,2.78-2.74,2.78h-16.01c-1.51,0-2.74-1.24-2.74-2.78v-16.24c0-1.53,1.22-2.78,2.74-2.78h16.01
			c1.51,0,2.74,1.25,2.74,2.78V455.54z M373.04,519.57c0,1.53-1.22,2.77-2.74,2.77h-16.01c-1.51,0-2.74-1.25-2.74-2.77v-16.25
			c0-1.53,1.23-2.77,2.74-2.77h16.01c1.51,0,2.74,1.24,2.74,2.77V519.57z M373.04,487.56c0,1.53-1.22,2.77-2.74,2.77h-16.01
			c-1.51,0-2.74-1.25-2.74-2.77v-16.25c0-1.53,1.23-2.78,2.74-2.78h16.01c1.51,0,2.74,1.24,2.74,2.78V487.56z M373.04,455.54
			c0,1.53-1.22,2.78-2.74,2.78h-16.01c-1.51,0-2.74-1.24-2.74-2.78v-16.24c0-1.53,1.23-2.78,2.74-2.78h16.01
			c1.51,0,2.74,1.25,2.74,2.78V455.54z M404.6,519.57c0,1.53-1.23,2.77-2.74,2.77h-16.01c-1.51,0-2.74-1.25-2.74-2.77v-16.25
			c0-1.53,1.23-2.77,2.74-2.77h16.01c1.51,0,2.74,1.24,2.74,2.77V519.57z M404.6,487.56c0,1.53-1.23,2.77-2.74,2.77h-16.01
			c-1.51,0-2.74-1.25-2.74-2.77v-16.25c0-1.53,1.23-2.78,2.74-2.78h16.01c1.51,0,2.74,1.24,2.74,2.78V487.56z M404.6,455.54
			c0,1.53-1.23,2.78-2.74,2.78h-16.01c-1.51,0-2.74-1.24-2.74-2.78v-16.24c0-1.53,1.23-2.78,2.74-2.78h16.01
			c1.51,0,2.74,1.25,2.74,2.78V455.54z M250.76,366.91h7.28c1.19,0,2.23-0.8,2.55-1.96l2.98-10.89h13.23l3.25,10.95
			c0.34,1.14,1.37,1.91,2.53,1.91h7.74c0.84,0,1.63-0.4,2.13-1.09c0.5-0.69,0.65-1.57,0.4-2.39l-14.06-45.98
			c-0.34-1.12-1.37-1.89-2.53-1.89h-11.65c-1.16,0-2.19,0.77-2.53,1.9l-13.86,45.98c-0.25,0.81-0.1,1.7,0.4,2.38
			C249.13,366.5,249.92,366.91,250.76,366.91z M268.24,334.49c0.49-1.75,0.95-3.82,1.39-5.84c0.13-0.57,0.25-1.14,0.38-1.68
			c0.61,2.49,1.29,5.23,1.96,7.51l2.85,9.85h-9.3L268.24,334.49z M291.17,326.31h10.62v37.91c0,1.48,1.19,2.68,2.65,2.68h7.14
			c1.46,0,2.65-1.2,2.65-2.68v-37.91h10.84c1.46,0,2.65-1.2,2.65-2.68v-5.39c0-1.48-1.18-2.68-2.65-2.68h-33.9
			c-1.46,0-2.65,1.2-2.65,2.68v5.39C288.52,325.11,289.71,326.31,291.17,326.31z M333.08,366.91h6.22c1.41,0,2.58-1.13,2.64-2.56
			l0.79-17.03c0.24-4.09,0.42-8.82,0.59-13.39c0.03-0.92,0.07-1.84,0.1-2.75c1,4.88,2.26,10.17,3.6,15.06l4.87,17.89
			c0.32,1.17,1.36,1.97,2.55,1.97h5.67c1.16,0,2.18-0.76,2.53-1.88l5.56-18.08c1.62-5.01,3.23-10.52,4.55-15.62
			c0.06,6.16,0.25,12,0.42,16.63l0.66,17.19c0.06,1.44,1.22,2.58,2.64,2.58h6.81c0.73,0,1.42-0.3,1.92-0.84
			c0.5-0.54,0.76-1.26,0.72-2l-2.49-45.98c-0.08-1.43-1.24-2.54-2.64-2.54h-11.17c-1.15,0-2.17,0.75-2.52,1.86l-4.81,15.2
			c-0.01,0.02-0.01,0.04-0.02,0.07c-1.54,5.34-3.04,11.21-4.15,15.78c-0.91-4.49-2.11-9.55-3.74-15.69c0-0.02-0.01-0.04-0.02-0.06
			l-4.4-15.22c-0.33-1.14-1.36-1.93-2.54-1.93h-11.44c-1.4,0-2.55,1.1-2.64,2.51l-2.89,45.98c-0.05,0.74,0.21,1.47,0.71,2.01
			C331.65,366.6,332.35,366.91,333.08,366.91z"/>
	</g>
</g>
</svg>
