<?xml version="1.0" encoding="utf-8"?>
<!-- Generator: Adobe Illustrator 24.0.1, SVG Export Plug-In . SVG Version: 6.00 Build 0)  -->
<svg version="1.1" id="Layer_1" xmlns="http://www.w3.org/2000/svg" xmlns:xlink="http://www.w3.org/1999/xlink" x="0px" y="0px"
	 viewBox="0 0 512 512" style="enable-background:new 0 0 512 512;" xml:space="preserve">
<style type="text/css">
	.st0{fill:#000;}
</style>
<path id="hospital" class="st0" d="M345,124.9c0-13.2-10.7-23.9-23.9-23.9H190.9c-13.2,0-23.9,10.7-23.9,23.9v130.3
	c0,13.2,10.7,23.9,23.9,23.9h130.3c13.2,0,23.9-10.7,23.9-23.9V124.9z M312,253h-36v-50h-43v50h-36V132h36v42h43v-42h36V253z"/>
<path class="st0" d="M254.2,4.9C152.7,4.9,70.5,87.2,70.5,188.7c0,182.4,183.8,318.1,183.8,318.1S438,371.1,438,188.7
	C438,87.2,355.8,4.9,254.2,4.9z M252,329.8c-79,0-143.1-64.1-143.1-143.1S173,43.7,252,43.7S395,107.7,395,186.7
	S331,329.8,252,329.8z"/>
</svg>
