<?xml version="1.0" encoding="utf-8"?>
<!-- Generator: Adobe Illustrator 24.0.1, SVG Export Plug-In . SVG Version: 6.00 Build 0)  -->
<svg version="1.1" id="Layer_1" xmlns="http://www.w3.org/2000/svg" xmlns:xlink="http://www.w3.org/1999/xlink" x="0px" y="0px"
	 viewBox="0 0 64 64" style="enable-background:new 0 0 64 64;" xml:space="preserve">
<style type="text/css">
	.st0{fill:#59738A;}
</style>
<g>
	<g id="XMLID_3731_">
		<path id="XMLID_3732_" class="st0" d="M55.5,34.8v15.5h-47V34.8c0-0.6,0.4-1,1-1h45.1C55.1,33.8,55.5,34.3,55.5,34.8z"/>
		<rect id="XMLID_3733_" x="8.5" y="52.3" class="st0" width="47.1" height="3.9"/>
		<path id="XMLID_3734_" class="st0" d="M8.5,58.2h47.1V63c0,0.6-0.5,1-1,1H9.5c-0.6,0-1-0.4-1-1V58.2z"/>
		<path id="XMLID_3735_" class="st0" d="M55.5,34.8v15.5h-47V34.8c0-0.6,0.4-1,1-1h45.1C55.1,33.8,55.5,34.3,55.5,34.8z"/>
		<rect id="XMLID_3736_" x="8.5" y="52.3" class="st0" width="47.1" height="3.9"/>
		<path id="XMLID_3737_" class="st0" d="M8.5,58.2h47.1V63c0,0.6-0.5,1-1,1H9.5c-0.6,0-1-0.4-1-1V58.2z"/>
	</g>
	<path id="XMLID_3738_" class="st0" d="M63.9,36.5C63.4,38,62.2,39,60.7,39h-3.1v-2h3.1c0.9,0,1.2-0.9,1.3-1.1c0.2-0.7,0-1.5-0.7-2
		L41,22.1c-4.2,6.6-13.9,6.7-18,0L2.8,34c-0.7,0.4-0.9,1.3-0.7,2c0,0.2,0.3,1,1.2,1h3.1v2H3.3c-1.5,0-2.8-1-3.2-2.6
		c-0.4-1.7,0.2-3.4,1.6-4.2l21.1-12.4l0,0l3.6-2.1l0,0c0.2-0.1,0.5-0.2,0.7-0.3l0,0c0.2-0.1,0.5-0.1,0.8-0.1l0,0H31V13
		c0-0.5,0.5-1,1-1c2.7,0,5-2.2,5-5c0-2.7-2.2-5-5-5c-2.7,0-5,2.2-5,5c0,0.6-0.4,1-1,1s-1-0.4-1-1c0-3.9,3.1-7,7-7c3.8,0,7,3.1,7,7
		c0,3.5-2.6,6.4-6,6.9v3.4h3l0,0c0.3,0,0.5,0,0.7,0.1l0,0c0.3,0.1,0.5,0.2,0.7,0.3l0,0l3.6,2.1l0,0l21,12.4
		C63.7,33.1,64.3,34.8,63.9,36.5z"/>
</g>
</svg>
