<?xml version="1.0" encoding="utf-8"?>
<!-- Generator: Adobe Illustrator 24.0.1, SVG Export Plug-In . SVG Version: 6.00 Build 0)  -->
<svg version="1.1" id="Layer_1" xmlns="http://www.w3.org/2000/svg" xmlns:xlink="http://www.w3.org/1999/xlink" x="0px" y="0px"
	 viewBox="0 0 612 792" style="enable-background:new 0 0 612 792;" xml:space="preserve">
<style type="text/css">
	.st0{fill-rule:evenodd;clip-rule:evenodd;fill:#000;}
</style>
<g id="restaurant">
	<g>
		<path class="st0" d="M224.91,364.45c0.24-3.99,0.49-7.99,1.01-12.03c0.96-9.58,3.02-19.2,5.13-28.55
			c1.28-4.67,2.67-9.28,4.13-13.78c1.86-4.4,3.69-8.77,5.51-13.04c4.12-8.34,8.73-16.14,14.23-22.66c1.31-1.68,2.6-3.31,3.87-4.94
			c1.45-1.46,2.89-2.87,4.29-4.29c2.94-2.68,5.5-5.59,8.44-7.72c5.86-4.38,11.04-8.53,16.32-11.11c5.08-2.86,9.44-5.34,13.38-6.74
			c7.71-3.12,12.08-4.7,12.08-4.7s-3.73,2.98-10.26,7.83c-3.37,2.22-6.93,5.72-11.19,9.31c-4.42,3.41-8.44,8.32-13.21,13.01
			c-2.38,2.4-4.24,5.41-6.49,8.19c-1.1,1.41-2.22,2.84-3.38,4.28c-0.94,1.6-1.91,3.2-2.89,4.83c-4.21,6.29-7.36,13.68-10.64,21.17
			c-1.34,3.92-2.71,7.9-4.1,11.91c-0.95,4.18-2,8.4-3.15,12.6c-1.72,8.65-3.41,17.45-4.14,26.52c-0.51,3.29-0.75,6.61-1.05,9.94
			c71.44,0.01,126.73,0.06,204.11,0.06c0.27-3.42,0.4-6.88,0.4-10.36c0-65.69-47.49-119.79-108.58-126.96
			c3.94-3.72,6.44-9,6.44-14.87c0.02-11.29-9.04-20.41-20.21-20.41c-11.18,0-20.26,9.12-20.26,20.41c0,5.88,2.49,11.14,6.45,14.87
			c-61.1,7.16-108.58,61.27-108.58,126.96c0,3.46,0.13,6.88,0.38,10.29H224.91z M180.29,372.05v25.74h289.32v-25.74H180.29z
			 M350.85,416.05c-14.71,7.2-65.99,25.85-65.99,25.85l-60.61-3.83c0,0,34.67-9.72,48.1-12.77c13.46-3.04,7.6-18.34,0.16-18.34
			c-7.44,0-72.31,2.7-72.31,2.7l-43.07,15.64l11.4,72.73c0,0,8.87-15.31,17.71-15.31c8.88,0,85.78,2.07,96.22,0
			c10.44-2.09,74.05-45.94,81.67-51.07C371.74,426.56,365.59,408.84,350.85,416.05z M99.22,433.11v94.28l65.99-12.45l-16.51-90.6
			L99.22,433.11z"/>
	</g>
</g>
</svg>
