<?xml version="1.0" encoding="utf-8"?>
<!-- Generator: Adobe Illustrator 24.0.1, SVG Export Plug-In . SVG Version: 6.00 Build 0)  -->
<svg version="1.1" id="Layer_1" xmlns="http://www.w3.org/2000/svg" xmlns:xlink="http://www.w3.org/1999/xlink" x="0px" y="0px"
	 viewBox="0 0 512 512" style="enable-background:new 0 0 512 512;" xml:space="preserve">
<style type="text/css">
	.st0{fill-rule:evenodd;clip-rule:evenodd;fill:#fff;}
</style>
<path class="st0" d="M171.9,272.1h263.5v23.7H171.9V272.1L171.9,272.1z M435.4,305.3v152.1h-113v-41.7c0.9-1.3,1.4-2.8,1.4-4.3
	c0-8.9-15.8-10-20.2-17.4c-4.4,7.4-20.2,8.6-20.2,17.4c0,1.5,0.5,3,1.4,4.3v41.7h-113V305.3H435.4L435.4,305.3z M79.8,457.3V147
	h80.4v310.3H79.8L79.8,457.3z M428.8,222.5c0,13.4-3.1,26.1-8.8,37.9H303.7H187.3c-5.7-11.7-8.8-24.5-8.8-37.9
	c0-78,97.8-87.8,125.1-153.2C331,134.7,428.8,144.5,428.8,222.5L428.8,222.5z M163.4,119.3c0,5.6-1.1,11-3,16H120H79.6
	c-2-4.9-3-10.3-3-16c0-32.9,33.9-37.1,43.4-64.7C129.5,82.2,163.4,86.4,163.4,119.3z"/>
</svg>
