<?xml version="1.0" encoding="utf-8"?>
<!-- Generator: Adobe Illustrator 24.0.1, SVG Export Plug-In . SVG Version: 6.00 Build 0)  -->
<svg version="1.1" id="Layer_1" xmlns="http://www.w3.org/2000/svg" xmlns:xlink="http://www.w3.org/1999/xlink" x="0px" y="0px"
	 viewBox="0 0 612 792" style="enable-background:new 0 0 612 792;" xml:space="preserve">
<style type="text/css">
	.st0{fill:#000;}
</style>
<path class="st0" d="M403.4,529.3v-19.6l0-67.3h0.2v-22.7h-0.2v-25.4l0-48c0.1-0.5,9.9-57.6-96-83.6c1.7-0.6,3-1.5,3-3
	c0-1.8-2-3.2-4.5-3.4v-1.1c1.9-0.2,3.5-1.3,3.5-2.9c0-1.5-1.6-2.6-3.5-2.8v-1.1c1.5-0.2,2.8-0.9,2.8-1.9s-1.2-1.8-2.8-1.9v-1.7
	c1.3-0.2,2.4-0.8,2.4-1.6s-1.1-1.4-2.4-1.6V238c1.3-0.2,2.4-0.8,2.4-1.6c0-0.8-1.1-1.4-2.4-1.6v-5.1c2.3-0.2,4.1-1.2,4.1-2.6
	s-1.9-2.4-4.1-2.6v-1.3c1.3-0.2,2.4-1.3,2.4-2.7c0-1.4-1.1-2.4-2.4-2.7v-0.3c0.6-0.7,1-2.1,1-4.2c0-2.1-0.5-3.6-1-4.2v-46.9H305V209
	c-0.6,0.7-1.1,2.1-1.1,4.2c0,2.1,0.5,3.6,1.1,4.2v0.3c-1.4,0.3-2.4,1.3-2.4,2.7c0,1.4,1.1,2.4,2.4,2.6v1.4c-2.3,0.2-4.1,1.2-4.1,2.6
	c0,1.4,1.8,2.4,4.1,2.6v5.2c-1.4,0.2-2.4,0.8-2.4,1.6c0,0.8,1.1,1.4,2.4,1.6v1.8c-1.4,0.2-2.4,0.8-2.4,1.6s1.1,1.4,2.4,1.6v1.7
	c-1.5,0.2-2.8,0.9-2.8,1.9s1.2,1.8,2.8,1.9v1.1c-1.9,0.2-3.5,1.3-3.5,2.8c0,1.5,1.5,2.6,3.5,2.8v1.1c-2.5,0.2-4.5,1.6-4.5,3.4
	c0,1.4,1.3,2.4,2.9,2.9c-105.9,26-96.1,83.1-96.1,83.4v20.2v28.1v25.4h-0.1v22.7h0.1v21.9c0,0-0.8,59.1-0.8,65"/>
</svg>
