<?xml version="1.0" encoding="utf-8"?>
<!-- Generator: Adobe Illustrator 24.0.1, SVG Export Plug-In . SVG Version: 6.00 Build 0)  -->
<svg version="1.1" id="Layer_1" xmlns="http://www.w3.org/2000/svg" xmlns:xlink="http://www.w3.org/1999/xlink" x="0px" y="0px"
	 viewBox="0 0 612 792" style="enable-background:new 0 0 612 792;" xml:space="preserve">
<style type="text/css">
	.st0{fill-rule:evenodd;clip-rule:evenodd;fill:#59738A;}
</style>
<g id="airport">
	<g>
		<path class="st0" d="M180.18,389.55c-0.01,0.01-0.02,0.01-0.03,0.02c-3.28,1.69-4.7,5.6-3.27,8.99c1.44,3.39,5.26,5.12,8.78,3.95
			l99.17-32.78l-18.54,30.08c-1.35,2.19-1.06,5,0.7,6.87c1.76,1.87,4.56,2.35,6.85,1.17l19.45-10.04c0.56-0.29,1.07-0.67,1.5-1.11
			l57.61-59.79l71.1-36.86c26.93-14.42,23.81-25.51,22.21-28.56c-1.24-2.37-4.01-5.54-10.16-7.22c-6.24-1.71-14.67-1.57-25.76,0.41
			c-3.7,0.67-5.75,0.61-7.91,0.55c-7.61-0.21-12.77,0.3-38.4,13.53l-140.19,72.38l-54.37-28.03c-2.05-1.06-4.49-1.05-6.54,0.01
			l-9.16,4.73c-1.89,0.97-3.23,2.73-3.67,4.8c-0.44,2.07,0.08,4.22,1.41,5.86l37.73,46.69L180.18,389.55z M438.36,446.28H172.95
			c-7.46,0-13.51,6.01-13.51,13.43c0,7.42,6.05,13.43,13.51,13.43h265.41c7.46,0,13.51-6.01,13.51-13.43
			C451.87,452.28,445.82,446.28,438.36,446.28z"/>
	</g>
</g>
</svg>
