<?xml version="1.0" encoding="utf-8"?>
<!-- Generator: Adobe Illustrator 24.0.1, SVG Export Plug-In . SVG Version: 6.00 Build 0)  -->
<svg version="1.1" id="Layer_1" xmlns="http://www.w3.org/2000/svg" xmlns:xlink="http://www.w3.org/1999/xlink" x="0px" y="0px"
	 viewBox="0 0 612 792" style="enable-background:new 0 0 612 792;" xml:space="preserve">
<style type="text/css">
	.st0{fill-rule:evenodd;clip-rule:evenodd;fill:#59738A;}
</style>
<g id="train">
	<g>
		<path class="st0" d="M483.9,320.84l-140.3-41.06L369.22,248h15.77c-0.8,3.33,0.73,6.9,3.89,8.54c1.1,0.57,2.28,0.84,3.44,0.84
			c2.74,0,5.38-1.51,6.71-4.13l0.9-1.78c2.33-4.58,2.37-9.36,0.09-13.12c-2.14-3.54-5.96-5.56-10.47-5.56h-53.04
			c-7.04,0-14.66,4.93-18.12,11.74c-1.9,3.73-0.44,8.32,3.26,10.23c3.7,1.92,8.25,0.45,10.15-3.29c0.94-1.85,3.6-3.47,4.71-3.47
			h13.27l-21.99,27.28c-7.89-2.09-15.41-3.86-21.51-5.24c-2.54-0.58-10.14-1.68-20.68-1.68c-16.67,0-42.11,2.72-68.6,15.67
			c-35.85,17.53-61.49,55.13-70.84,70.48l-0.93,1.53c-7.43,12.18-15.12,24.78-19.98,38.94c-7.06,20.55,0.59,37.58,20.48,45.55
			c7.84,3.14,16.81,4.66,27.42,4.66c0.67,0,1.33,0,2-0.02c18.93-0.31,34.24-0.95,48.19-2c18.31-1.38,34.31-4.25,48.89-8.77
			c47.95-14.84,93.4-31.16,147.84-50.95c14.02-5.1,28.25-10.34,42.01-15.41c6.56-2.42,19.87-7.3,19.96-7.33
			c6.37-2.11,7.31-6.94,7.29-9.67l0-22.91C489.33,324.75,487.12,321.78,483.9,320.84z M474.25,347.39
			c-5.78,2.12-11.56,4.25-17.34,6.38c-13.75,5.06-27.96,10.3-41.95,15.38c-54.24,19.72-99.52,35.99-147.15,50.72
			c-13.5,4.18-28.42,6.84-45.6,8.14c-7.23,0.55-14.86,0.98-23.2,1.31c10.27-12.6,13.31-23.28,9.28-32.41
			c-4.76-10.77-18.37-16.79-41.61-18.41c-6.13-0.43-12.05-0.48-17-0.38l7.23-11.63l9.06,1.61c0.01,0,23.24,4.35,42.96,0.02
			c12.84-2.82,22.11-12.05,27.71-17.32c0.42-0.4,44.62-41.7,44.25-52.03c-0.11-2.98-1.31-5.66-3.52-7.52
			c-2.63-2.23-7.21-4.42-20.05-4.87c10.86-2.16,20.6-2.8,28.28-2.8c9.67,0,16.16,1.02,17.36,1.3c7.97,1.82,18.45,4.29,28.79,7.28
			l125.08,36.61l-142.54-3.32c-0.04,0-0.09-0.01-0.13-0.01c-33.05,0-60.25,38.71-61.4,40.35c-0.43,0.62-0.45,1.44-0.06,2.09
			c0.35,0.57,0.96,0.9,1.6,0.9c0.09,0,0.19-0.01,0.28-0.02l219.66-28.22L474.25,347.39z"/>
	</g>
</g>
</svg>
