<?xml version="1.0" encoding="utf-8"?>
<!-- Generator: Adobe Illustrator 24.0.1, SVG Export Plug-In . SVG Version: 6.00 Build 0)  -->
<svg version="1.1" id="Default" xmlns="http://www.w3.org/2000/svg" xmlns:xlink="http://www.w3.org/1999/xlink" x="0px" y="0px"
	 viewBox="0 0 100 100" style="enable-background:new 0 0 100 100;" xml:space="preserve">
<style type="text/css">
	.st0{fill:#59738A;}
</style>
<title></title>
<path class="st0" d="M75.8,44.9c0.8-3.8-1.6-7.5-5.4-8.3c-0.6-0.1-1.1-0.2-1.7-0.1L30.5,38l-1.4-5.2c-0.3-1.1-1-2.1-2-2.7l-7.3-4.3
	c-1.2-0.8-2.7-0.4-3.5,0.7c-0.8,1.2-0.4,2.7,0.7,3.5c0.1,0,0.1,0.1,0.2,0.1l5.5,3.3c1,0.6,1.7,1.6,2,2.7l9,34
	c0.4,1.6,1.9,2.7,3.5,2.7h32.8c1.4,0,2.5-1.1,2.5-2.5s-1.1-2.5-2.5-2.5h-29c-1.7,0-3.1-1.1-3.5-2.7l29.6-3.6c3-0.4,5.5-2.6,6.1-5.6
	L75.8,44.9z M69,41.5c1.1,0,2,0.9,2,2c0,0.1,0,0.2,0,0.3l-0.2,0.9c-0.1,0.6-0.6,1-1.2,1.1L63,46.5c-0.8,0.1-1.4-0.5-1.5-1.3
	c0,0,0-0.1,0-0.1v-2c0-0.7,0.6-1.4,1.3-1.4L69,41.5z M48.6,47.8c-0.7,0.1-1.4-0.4-1.5-1.2l-0.4-2.7c-0.1-0.8,0.4-1.5,1.2-1.6
	c0.1,0,0.1,0,0.2,0l7-0.3c0.8,0,1.4,0.6,1.4,1.3c0,0,0,0,0,0.1v2.4c0,0.7-0.5,1.3-1.3,1.4L48.6,47.8z M54.9,52.2
	c0.8-0.1,1.4,0.5,1.5,1.3c0,0,0,0.1,0,0.1v2.8c0,0.7-0.5,1.3-1.2,1.4l-4.9,0.6c-0.7,0.1-1.4-0.4-1.5-1.2l-0.5-3
	c-0.1-0.8,0.4-1.5,1.2-1.6c0,0,0.1,0,0.1,0L54.9,52.2z M40.2,42.7c0.7,0,1.3,0.5,1.4,1.2l0.5,3.1c0.1,0.8-0.4,1.5-1.2,1.6
	c0,0-0.1,0-0.1,0l-6.1,0.6c-0.7,0.1-1.3-0.4-1.5-1l-0.9-3.4c-0.2-0.7,0.3-1.5,1-1.7c0.1,0,0.2,0,0.3,0L40.2,42.7z M37.6,60
	c-0.7,0.1-1.3-0.3-1.5-1l-0.9-3.3c-0.2-0.7,0.2-1.5,1-1.7c0.1,0,0.1,0,0.2,0l5.3-0.5c0.7-0.1,1.4,0.4,1.5,1.2l0.5,3.2
	c0.1,0.8-0.4,1.5-1.2,1.6c0,0,0,0,0,0L37.6,60z M68.5,54.8c-0.2,0.9-0.9,1.6-1.8,1.7L63,56.9c-0.8,0.1-1.5-0.4-1.5-1.2
	c0-0.1,0-0.1,0-0.2v-2.6c0-0.7,0.5-1.3,1.3-1.4l4.8-0.4c0.8-0.1,1.5,0.4,1.6,1.2c0,0.2,0,0.3,0,0.5L68.5,54.8z"/>
<circle class="st0" cx="36.9" cy="82.9" r="6"/>
<circle class="st0" cx="70.7" cy="82.9" r="6"/>
</svg>
