<?xml version="1.0" encoding="utf-8"?>
<!-- Generator: Adobe Illustrator 24.0.1, SVG Export Plug-In . SVG Version: 6.00 Build 0)  -->
<svg version="1.1" id="Layer_1" xmlns="http://www.w3.org/2000/svg" xmlns:xlink="http://www.w3.org/1999/xlink" x="0px" y="0px"
	 viewBox="0 0 612 792" style="enable-background:new 0 0 612 792;" xml:space="preserve">
<style type="text/css">
	.st0{fill-rule:evenodd;clip-rule:evenodd;fill:#000;}
</style>
<g id="Forma_1_4_">
	<g>
		<path class="st0" d="M390.2,411.9l-25.7-15.3l30.6-11l-4.2-12.6l-41.1,14.7l-11.9-7.1l9.4-16.7l-11.2-20l13.7-8.2l41.1,14.7
			l4.2-12.6l-30.6-11l25.7-15.3l28.8,8l10.1-38.9l-37.6-10.4l-7.7,29.8l-25.7,15.3l6.1-32.9l-12.7-2.5l-8.2,44.2l-13.7,8.2
			l-9.4-16.7h-20.5v-17.4l32.9-29.5l-8.5-10.1l-24.5,21.9v-30.6l21.1-21.8l-27.5-28.5l-27.5,28.5l21.1,21.8v30.6l-24.5-21.9
			l-8.4,10.1l32.9,29.5v17.4h-20.5l-9.4,16.7l-13.7-8.2L235,280l-12.7,2.5l6.1,32.9L202.8,300l-7.7-29.8l-37.6,10.4l10.1,38.9
			l28.8-8l25.7,15.3l-30.6,11l4.2,12.6l41.1-14.7l13.7,8.2l-11.2,20l9.4,16.7l-11.9,7.1L195.7,373l-4.2,12.6l30.6,11l-25.7,15.3
			l-28.8-8l-10.1,38.9l37.6,10.4l7.7-29.8l25.7-15.3l-6.1,32.9l12.7,2.5l8.2-44.2l11.9-7.1l11.2,20h20.5v13.1l-32.9,29.4l8.4,10.1
			l24.5-21.9v30.6l-21.1,21.8l27.5,28.5l27.5-28.5l-21.1-21.8v-30.6l24.5,21.9l8.4-10.1l-32.9-29.5v-13.1h20.5l11.2-20l11.9,7.1
			l8.2,44.2l12.7-2.5l-6.1-32.9l25.7,15.3l7.7,29.8l37.6-10.4L419,403.9L390.2,411.9z M400.6,286.6l12.7,3.5l-3.4,13.1l-12.7-3.5
			L400.6,286.6z M176.7,303.2l-3.4-13.1l12.7-3.5l3.4,13.1L176.7,303.2z M186,436.8l-12.7-3.5l3.4-13.1l12.7,3.5L186,436.8z
			 M284,228.1l9.3-9.6l9.3,9.6l-9.3,9.6L284,228.1z M302.6,495.3l-9.3,9.6l-9.3-9.6l9.3-9.6L302.6,495.3z M312.8,398.8h-39
			l-19.5-34.9l19.5-34.9h39l19.5,34.9L312.8,398.8z M400.6,436.8l-3.4-13.1l12.7-3.5l3.4,13.1L400.6,436.8z"/>
	</g>
</g>
</svg>
