<?xml version="1.0" ?><svg style="enable-background:new 0 0 64 64;" version="1.1" viewBox="0 0 64 64" xml:space="preserve" xmlns="http://www.w3.org/2000/svg" xmlns:xlink="http://www.w3.org/1999/xlink"><style type="text/css">
	.st0{display:none;}
	.st1{display:inline;}
	.st2{fill:#000;}
	.st3{fill:#000;}
	.st4{fill:#000;}
	.st5{fill:#000;}
	.st6{fill:#000;}
	.st7{fill:#000;}
	.st8{fill:#000;}
	.st9{fill:#000;}
	.st10{display:inline;fill:#000;}
	.st11{fill:#000;}
	.st12{fill:#000;}
	.st13{fill:#000;}
	.st14{display:inline;fill:#000;}
	.st15{fill:#000;}
	.st16{fill:#000;}
</style><g class="st0" id="Layer_1"><g class="st1"><g><g><g><g><path class="st2" d="M32,60.9c-1.1,0-2-0.9-2-2V48.2c0-1.1,0.9-2,2-2s2,0.9,2,2v10.8C34,60.1,33.1,60.9,32,60.9z"/></g></g><g><g><g><path class="st2" d="M18.9,55.6c-1.1,0-2-0.9-2-2V42.8c0-1.1,0.9-2,2-2s2,0.9,2,2v10.8C20.9,54.7,20,55.6,18.9,55.6z"/></g></g><g><g><path class="st2" d="M45.1,55.6c-1.1,0-2-0.9-2-2V42.8c0-1.1,0.9-2,2-2s2,0.9,2,2v10.8C47.1,54.7,46.2,55.6,45.1,55.6z"/></g></g></g></g><path class="st3" d="M58,3.1H6c-3.3,0-6,2.7-6,6v20.5c0,3.3,2.7,6,6,6h52c3.3,0,6-2.7,6-6V9.1C64,5.8,61.3,3.1,58,3.1z"/></g><path class="st7" d="M54,27.5H10c-1.1,0-2-0.9-2-2s0.9-2,2-2h44c1.1,0,2,0.9,2,2S55.1,27.5,54,27.5z"/><path class="st8" d="M56,13c0,1.1-0.9,2-2,2s-2-0.9-2-2v-0.8c0-1.1,0.9-2,2-2s2,0.9,2,2V13z"/></g></g><g id="Layer_2"><g><g><g><g><path d="M32,60.9c-1.1,0-2-0.9-2-2V48.2c0-1.1,0.9-2,2-2s2,0.9,2,2v10.8C34,60.1,33.1,60.9,32,60.9z"/></g></g><g><g><g><path d="M18.9,55.6c-1.1,0-2-0.9-2-2V42.8c0-1.1,0.9-2,2-2s2,0.9,2,2v10.8C20.9,54.7,20,55.6,18.9,55.6z"/></g></g><g><g><path d="M45.1,55.6c-1.1,0-2-0.9-2-2V42.8c0-1.1,0.9-2,2-2s2,0.9,2,2v10.8C47.1,54.7,46.2,55.6,45.1,55.6z"/></g></g></g></g><path d="M58,3.1H6c-3.3,0-6,2.7-6,6v20.5c0,3.3,2.7,6,6,6h52c3.3,0,6-2.7,6-6V9.1C64,5.8,61.3,3.1,58,3.1z M54,27.5H10    c-1.1,0-2-0.9-2-2s0.9-2,2-2h44c1.1,0,2,0.9,2,2S55.1,27.5,54,27.5z M56,13c0,1.1-0.9,2-2,2s-2-0.9-2-2v-0.8c0-1.1,0.9-2,2-2    s2,0.9,2,2V13z"/></g></g><g class="st0" id="Layer_3"><g class="st1"><path class="st13" d="M58,3.1H6c-3.3,0-6,2.7-6,6v20.5c0,3.3,2.7,6,6,6h52c3.3,0,6-2.7,6-6V9.1C64,5.7,61.3,3.1,58,3.1z M60,29.5    c0,1.1-0.9,2-2,2H6c-1.1,0-2-0.9-2-2V9.1c0-1.1,0.9-2,2-2h52c1.1,0,2,0.9,2,2V29.5z"/><path class="st13" d="M54,23.5H10c-1.1,0-2,0.9-2,2s0.9,2,2,2h44c1.1,0,2-0.9,2-2S55.1,23.5,54,23.5z"/><path class="st13" d="M54,10.3c-1.1,0-2,0.9-2,2V13c0,1.1,0.9,2,2,2s2-0.9,2-2v-0.8C56,11.1,55.1,10.3,54,10.3z"/><path class="st13" d="M32,46.2c-1.1,0-2,0.9-2,2v10.8c0,1.1,0.9,2,2,2s2-0.9,2-2V48.2C34,47.1,33.1,46.2,32,46.2z"/><path class="st13" d="M18.9,40.8c-1.1,0-2,0.9-2,2v10.8c0,1.1,0.9,2,2,2s2-0.9,2-2V42.8C20.9,41.7,20,40.8,18.9,40.8z"/><path class="st13" d="M45.1,40.8c-1.1,0-2,0.9-2,2v10.8c0,1.1,0.9,2,2,2s2-0.9,2-2V42.8C47.1,41.7,46.2,40.8,45.1,40.8z"/></g></g><g class="st0" id="Layer_4"><g class="st1"><g><g><path class="st16" d="M58,35.5H6c-3.3,0-6-2.7-6-6V9.1c0-3.3,2.7-6,6-6h52c3.3,0,6,2.7,6,6v20.5C64,32.8,61.3,35.5,58,35.5z       M6,7.1c-1.1,0-2,0.9-2,2v20.5c0,1.1,0.9,2,2,2h52c1.1,0,2-0.9,2-2V9.1c0-1.1-0.9-2-2-2H6z"/></g><g><path class="st15" d="M54,27.5H10c-1.1,0-2-0.9-2-2s0.9-2,2-2h44c1.1,0,2,0.9,2,2S55.1,27.5,54,27.5z"/></g></g><g><g><path class="st15" d="M54,15c-1.1,0-2-0.9-2-2v-0.8c0-1.1,0.9-2,2-2s2,0.9,2,2V13C56,14.1,55.1,15,54,15z"/></g></g><g><g><g><path class="st16" d="M32,60.9c-1.1,0-2-0.9-2-2V48.2c0-1.1,0.9-2,2-2s2,0.9,2,2v10.8C34,60.1,33.1,60.9,32,60.9z"/></g></g><g><g><g><path class="st16" d="M18.9,55.6c-1.1,0-2-0.9-2-2V42.8c0-1.1,0.9-2,2-2s2,0.9,2,2v10.8C20.9,54.7,20,55.6,18.9,55.6z"/></g></g><g><g><path class="st16" d="M45.1,55.6c-1.1,0-2-0.9-2-2V42.8c0-1.1,0.9-2,2-2s2,0.9,2,2v10.8C47.1,54.7,46.2,55.6,45.1,55.6z"/></g></g></g></g></g></g></svg>