<?xml version="1.0" ?><!DOCTYPE svg  PUBLIC '-//W3C//DTD SVG 1.1//EN'  'http://www.w3.org/Graphics/SVG/1.1/DTD/svg11.dtd'><svg enable-background="new 0 0 50 50" id="Layer_1" version="1.1" viewBox="0 0 50 50" xml:space="preserve" xmlns="http://www.w3.org/2000/svg" xmlns:xlink="http://www.w3.org/1999/xlink"><g><path d="M49,4.25501V45.745c0,0.55994-0.44995,1-1,1H2c-0.55005,0-1-0.44006-1-1c0-0.54993,0.44995-1,1-1h3.38013   v-7.17004c0-0.54993,0.44995-1,1-1h6.75977l-0.02979-7.18994c0-0.27002,0.10986-0.52002,0.2998-0.70996   c0.18018-0.19006,0.43994-0.30005,0.7002-0.30005c0.00977,0,0.00977,0,0.00977,0l6.22021,0.03003L20.33008,20.625   c0-0.27002,0.10986-0.52002,0.30005-0.70996c0.17993-0.19006,0.43994-0.29004,0.69995-0.29004h8.15991v-7.17993   c0-0.55005,0.43994-1,1-1h6.75l-0.02002-7.19006c0-0.26001,0.1001-0.52002,0.29004-0.71008   c0.18994-0.17993,0.43994-0.28992,0.70996-0.28992H48C48.55005,3.25501,49,3.70508,49,4.25501z" fill="#fff"/></g></svg>