<?xml version="1.0" ?><svg data-name="Layer 1" id="Layer_1" viewBox="0 0 64 64" xmlns="http://www.w3.org/2000/svg"><title/><rect height="12" width="12" x="10" y="9"/><rect height="12" width="12" x="26" y="9"/><rect height="12" width="12" x="42" y="9"/><path d="M8.99,49.83V50H5V45H3.64A1.647,1.647,0,0,1,2,43.36v-.42A1.93,1.93,0,0,1,3.97,41H6.53a2.4,2.4,0,0,1,2.4,2.39Z"/><polygon points="10.535 62 11.465 62 12.131 61 9.869 61 10.535 62"/><path d="M62,42.94v.42A1.647,1.647,0,0,1,60.36,45H59v5H55.01v-.17l.06-6.45A2.4,2.4,0,0,1,57.47,41h2.56A1.93,1.93,0,0,1,62,42.94Z"/><path d="M59,52v2.43A4.575,4.575,0,0,1,54.43,59H9.57A4.575,4.575,0,0,1,5,54.43V52Z"/><polygon points="52.535 62 53.465 62 54.131 61 51.869 61 52.535 62"/><path d="M51.54,33H12.46A5.467,5.467,0,0,0,7,38.46v.59a4.369,4.369,0,0,1,3.93,4.33l.06,6.45V50H53.01v-.17l.06-6.46A4.367,4.367,0,0,1,57,39.05v-.59A5.467,5.467,0,0,0,51.54,33ZM15,47H13V45h2Zm0-10H13V35h2Zm4,5H17V40h2Zm3,5H20V45h2Zm0-10H20V35h2Zm4,5H24V40h2Zm3,5H27V45h2Zm0-10H27V35h2Zm4,5H31V40h2Zm3,5H34V45h2Zm0-10H34V35h2Zm4,5H38V40h2Zm3,5H41V45h2Zm0-10H41V35h2Zm4,5H45V40h2Zm3,5H48V45h2Zm0-10H48V35h2Z"/></svg>