<?xml version="1.0" ?><!DOCTYPE svg  PUBLIC '-//W3C//DTD SVG 1.1//EN'  'http://www.w3.org/Graphics/SVG/1.1/DTD/svg11.dtd'><svg enable-background="new 0 0 24 24" height="24px" id="Layer_1" version="1.1" viewBox="0 0 24 24" width="24px" xml:space="preserve" xmlns="http://www.w3.org/2000/svg" xmlns:xlink="http://www.w3.org/1999/xlink"><g><path d="M3.7,21.3c-0.3,0-0.5,0.2-0.5,0.5c0,0.2,0.2,0.4,0.5,0.4c0.3,0,0.5-0.2,0.5-0.4v-0.1C4.2,21.4,4,21.3,3.7,21.3z"/><path d="M20,21.3c-0.2,0-0.4,0.2-0.4,0.5c0,0.2,0.2,0.4,0.4,0.4c0.3,0,0.5-0.2,0.5-0.4v-0.1C20.5,21.4,20.3,21.3,20,21.3z"/><g><path d="M20.8,6.5H3c-1,0-1.8,0.8-1.8,1.8v10.8c0,1,0.8,1.8,1.8,1.8h17.7c1,0,1.8-0.8,1.8-1.8V8.3C22.6,7.3,21.8,6.5,20.8,6.5z     M5.7,18.5H4.5v-0.9h1.2V18.5z M5.7,17H4.5v-0.9h1.2V17z M5.1,14.7c-0.7,0-1.3-0.6-1.3-1.3c0-0.8,0.6-1.4,1.3-1.4    c0.8,0,1.4,0.6,1.4,1.4C6.5,14.1,5.9,14.7,5.1,14.7z M5.1,11.3c-0.7,0-1.3-0.6-1.3-1.4c0-0.7,0.6-1.3,1.3-1.3    c0.8,0,1.4,0.6,1.4,1.3C6.5,10.7,5.9,11.3,5.1,11.3z M19.9,17.5c0,0.7-0.6,1.4-1.4,1.4c-0.7,0-1.2-0.5-1.3-1.1h0v-0.3V17V9.9    c0-0.3-0.2-0.5-0.5-0.5s-0.5,0.2-0.5,0.5v0.5v7.1c0,0.7-0.6,1.4-1.3,1.4c-0.7,0-1.2-0.5-1.3-1.1h0v-0.3V17V9.9    c0-0.3-0.2-0.5-0.4-0.5c-0.2,0-0.4,0.2-0.4,0.5v0.5v7.1c0,0.7-0.6,1.4-1.4,1.4c-0.6,0-1.2-0.5-1.3-1.1h0v-0.3V17V9.9    c0-0.3-0.2-0.5-0.5-0.5S9,9.7,9,9.9v0.5v7.5H8.1v-7.5V9.9V9.7h0c0.1-0.6,0.7-1.1,1.3-1.1c0.8,0,1.4,0.6,1.4,1.4V17v0.4    c0,0.2,0.2,0.4,0.4,0.4c0.3,0,0.5-0.2,0.5-0.4v-7.1V9.9V9.7h0c0.1-0.6,0.7-1.1,1.3-1.1c0.8,0,1.4,0.6,1.4,1.4V17v0.4    c0,0.2,0.2,0.4,0.5,0.4c0.2,0,0.4-0.2,0.4-0.4v-7.1V9.9V9.7h0c0.1-0.6,0.7-1.1,1.3-1.1c0.7,0,1.4,0.6,1.4,1.4V17v0.4    c0,0.2,0.2,0.4,0.5,0.4c0.3,0,0.5-0.2,0.5-0.4V9.7h0.9V17.5z"/></g><path d="M7.8,3.6L7.8,3.6c0.5,0.5,0.5,1.3,0,1.8C7.6,5.6,7.6,5.9,7.8,6C7.9,6.1,8,6.2,8.1,6.2c0.1,0,0.2,0,0.3-0.1   c0.9-0.9,0.9-2.2,0-3.1l0,0c-0.5-0.5-0.5-1.3,0-1.8c0.2-0.2,0.2-0.4,0-0.6C8.2,0.3,8,0.3,7.8,0.5C6.9,1.3,6.9,2.7,7.8,3.6L7.8,3.6z   "/><path d="M11.6,3.6L11.6,3.6c0.5,0.5,0.5,1.3,0,1.8c-0.2,0.2-0.2,0.5,0,0.6c0.1,0.1,0.2,0.1,0.3,0.1c0.1,0,0.2,0,0.3-0.1   c0.9-0.9,0.9-2.2,0-3.1l0,0c-0.5-0.5-0.5-1.3,0-1.8c0.2-0.2,0.2-0.4,0-0.6c-0.2-0.2-0.5-0.2-0.6,0C10.7,1.3,10.7,2.7,11.6,3.6   L11.6,3.6z"/><path d="M15.4,3.6L15.4,3.6c0.5,0.5,0.5,1.3,0,1.8c-0.2,0.2-0.2,0.5,0,0.6c0.1,0.1,0.2,0.1,0.3,0.1c0.1,0,0.2,0,0.3-0.1   c0.9-0.9,0.9-2.2,0-3.1l0,0c-0.5-0.5-0.5-1.3,0-1.8c0.2-0.2,0.2-0.4,0-0.6c-0.2-0.2-0.5-0.2-0.6,0C14.5,1.3,14.5,2.7,15.4,3.6   L15.4,3.6z"/></g></svg>