<?xml version="1.0" ?>
<svg id="Слой_1" style="enable-background:new 0 0 300 300;" version="1.1" viewBox="0 0 300 300" xml:space="preserve"
     xmlns="http://www.w3.org/2000/svg" xmlns:xlink="http://www.w3.org/1999/xlink"><style>
    g,path{fill:#fff;}
</style><g><rect height="8.356" width="7.894" x="61.313" y="116.704"/><rect
        height="8.356" width="7.894" x="100.937" y="116.704"/><rect height="8.356" width="7.894" x="100.937"
                                                                    y="243.596"/><path
        d="M124.696,272.035c6.495,0,11.779-6.525,11.779-14.545V111.897c0-8.019-5.285-14.543-11.779-14.543   c-6.496,0-11.781,6.524-11.781,14.543V257.49C112.915,265.51,118.2,272.035,124.696,272.035z"/><path
        d="M236.654,255.146c1.121,0,2.033-0.912,2.033-2.033v-10.68c0-1.122-0.912-2.034-2.033-2.034s-2.033,0.912-2.033,2.034v10.68   C234.622,254.234,235.534,255.146,236.654,255.146z"/><rect
        height="8.356" width="7.894" x="61.313" y="243.596"/><rect height="8.356" width="7.896" x="140.559"
                                                                   y="243.596"/><path
        d="M85.072,272.035c6.496,0,11.781-6.525,11.781-14.545V111.897c0-8.019-5.285-14.543-11.781-14.543   s-11.781,6.524-11.781,14.543V257.49C73.291,265.51,78.576,272.035,85.072,272.035z"/><path
        d="M203.943,272.035c6.495,0,11.779-6.525,11.779-14.545V111.897c0-8.019-5.285-14.543-11.779-14.543   c-6.496,0-11.781,6.524-11.781,14.543V257.49C192.162,265.51,197.447,272.035,203.943,272.035z"/><rect
        height="8.356" width="10.732" x="219.806" y="243.596"/><path
        d="M236.654,128.255c1.121,0,2.033-0.912,2.033-2.033v-10.68c0-1.122-0.912-2.034-2.033-2.034s-2.033,0.912-2.033,2.034v10.68   C234.622,127.343,235.534,128.255,236.654,128.255z"/><rect
        height="8.356" width="10.732" x="219.806" y="116.704"/><path
        d="M164.319,272.035c6.496,0,11.781-6.525,11.781-14.545V111.897c0-8.019-5.285-14.543-11.781-14.543   c-6.495,0-11.779,6.524-11.779,14.543V257.49C152.539,265.51,157.824,272.035,164.319,272.035z"/><rect
        height="8.356" width="7.894" x="180.183" y="116.704"/><rect height="8.356" width="7.896" x="140.559"
                                                                    y="116.704"/><rect height="8.356" width="7.894"
                                                                                       x="180.183" y="243.596"/><path
        d="M110.579,88.775c0.398,0.394,0.916,0.589,1.435,0.589c0.526,0,1.054-0.203,1.453-0.608   c3.461-3.509,7.191-9.732,5.314-19.46c-0.269-1.392-0.649-2.791-1.129-4.157c-0.816-2.321-2.03-4.657-3.709-7.142   c-0.931-1.375-1.928-2.699-3.106-4.112c-1.619-1.788-3.614-4.705-3.917-8.456c-0.359-4.436,1.69-9.143,6.086-13.986   c0.758-0.835,0.695-2.126-0.14-2.884c-0.835-0.759-2.126-0.697-2.884,0.14c-5.188,5.711-7.587,11.452-7.134,17.06   c0.396,4.894,2.917,8.611,4.904,10.802c1.048,1.26,1.938,2.444,2.805,3.724c1.481,2.191,2.541,4.222,3.24,6.207   c0.413,1.179,0.741,2.382,0.972,3.578c1.236,6.409-0.181,11.731-4.212,15.817C109.768,86.69,109.776,87.984,110.579,88.775z"/><path
        d="M138.919,88.743c0.398,0.394,0.916,0.589,1.433,0.589c0.528,0,1.054-0.203,1.454-0.608   c3.461-3.509,7.191-9.732,5.313-19.46c-0.269-1.395-0.649-2.795-1.129-4.16c-0.816-2.32-2.029-4.655-3.709-7.139   c-0.931-1.375-1.926-2.699-3.104-4.112c-1.619-1.788-3.614-4.705-3.917-8.456c-0.359-4.438,1.688-9.143,6.085-13.985   c0.759-0.835,0.697-2.127-0.138-2.885c-0.835-0.758-2.127-0.694-2.885,0.138c-5.186,5.711-7.586,11.452-7.133,17.061   c0.395,4.894,2.916,8.611,4.903,10.802c1.048,1.26,1.94,2.444,2.805,3.724c1.482,2.191,2.542,4.221,3.24,6.207   c0.413,1.175,0.741,2.38,0.972,3.578c1.238,6.409-0.179,11.731-4.21,15.817C138.106,86.658,138.116,87.952,138.919,88.743z"/><path
        d="M167.257,88.709c0.398,0.394,0.916,0.589,1.435,0.589c0.526,0,1.053-0.203,1.453-0.608   c3.461-3.507,7.191-9.729,5.314-19.458c-0.27-1.399-0.65-2.797-1.129-4.16c-0.816-2.32-2.03-4.655-3.709-7.139   c-0.931-1.375-1.928-2.699-3.106-4.112c-1.619-1.788-3.614-4.705-3.917-8.456c-0.359-4.438,1.69-9.143,6.086-13.985   c0.758-0.835,0.695-2.127-0.14-2.885c-0.835-0.759-2.126-0.695-2.884,0.138c-5.188,5.711-7.587,11.452-7.134,17.061   c0.396,4.894,2.917,8.611,4.904,10.802c1.048,1.26,1.938,2.444,2.805,3.724c1.481,2.191,2.541,4.221,3.24,6.207   c0.412,1.173,0.739,2.377,0.972,3.578c1.236,6.409-0.179,11.731-4.21,15.816C166.446,86.625,166.454,87.917,167.257,88.709z"/></g></svg>