<?xml version="1.0" ?><!DOCTYPE svg  PUBLIC '-//W3C//DTD SVG 1.1//EN'  'http://www.w3.org/Graphics/SVG/1.1/DTD/svg11.dtd'><svg enable-background="new 0 0 66 66" id="Layer_1" version="1.1" viewBox="0 0 66 66" xml:space="preserve" xmlns="http://www.w3.org/2000/svg" xmlns:xlink="http://www.w3.org/1999/xlink"><g><g><g><g><g><g><path d="M42.7,50.5v2.1c0,0.5-0.4,1-1,1h-6.4c-0.5,0-1-0.4-1-1v-2.1H42.7z"/></g><g><path d="M17.4,50.5v2.1c0,0.5-0.4,1-1,1H10c-0.5,0-1-0.4-1-1v-2.1H17.4z"/></g></g></g></g></g><g><g><path d="M65,38.7v7.8c0,0.5-0.4,1-1,1h-4.2c-0.5,0-1-0.4-1-1v-4.8h-2.5v1.5c0,0.5-0.4,1-1,1h-2.7v6c0,0.5-0.4,1-1,1     c-0.5,0-1-0.4-1-1V13.4c0-0.5,0.4-1,1-1c0.5,0,1,0.4,1,1v14.4h2.7c0.5,0,1,0.4,1,1s-0.4,1-1,1h-2.7V33h2.7c0.5,0,1,0.4,1,1v1.5     h5.5C63.6,35.5,65,36.9,65,38.7z"/></g></g><g><g><path d="M32.4,37.1c-0.4,0.4-1,0.4-1.4,0c-0.4-0.4-0.4-1,0-1.4l1.7-1.7c-0.4-0.2-0.9-0.3-1.4-0.3c-0.8,0-1.6,0.3-2.2,0.9     c-1.2,1.2-1.2,3.2,0,4.4c2,2,5.3,0.6,5.3-2.2c0-0.5-0.1-1-0.3-1.4L32.4,37.1z"/></g><g><path d="M5.7,15.1c-2.6,0-4.7,2.1-4.7,4.7v23.9c0,2.6,2.1,4.7,4.7,4.7h43.1V15.1H5.7z M14.1,38.1c-2.3,0-4.1-1.9-4.1-4.1     c0-1.9,2.7-6.9,3.3-7.9c0.3-0.6,1.4-0.6,1.7,0c0.5,1,3.3,6,3.3,7.9C18.2,36.3,16.4,38.1,14.1,38.1z M27.7,40.4     c-3.2-3.2-0.9-8.6,3.6-8.6c2.8,0,5.1,2.3,5.1,5.1C36.4,41.3,30.9,43.6,27.7,40.4z M41.4,41.9h-1c-0.5,0-1-0.4-1-1     c0-0.5,0.4-1,1-1h1c0.5,0,1,0.4,1,1C42.4,41.5,41.9,41.9,41.4,41.9z M41.4,38.4h-1c-0.5,0-1-0.4-1-1c0-0.5,0.4-1,1-1h1     c0.5,0,1,0.4,1,1C42.4,37.9,41.9,38.4,41.4,38.4z M41.4,34.9h-1c-0.5,0-1-0.4-1-1c0-0.5,0.4-1,1-1h1c0.5,0,1,0.4,1,1     C42.4,34.4,41.9,34.9,41.4,34.9z M43.7,27.8c0,0.5-0.4,1-1,1H25.9c-0.5,0-1-0.4-1-1v-5.1c0-0.5,0.4-1,1-1h16.8c0.5,0,1,0.4,1,1     V27.8z"/></g></g></g></svg>