<?xml version="1.0" ?><!DOCTYPE svg  PUBLIC '-//W3C//DTD SVG 1.1//EN'  'http://www.w3.org/Graphics/SVG/1.1/DTD/svg11.dtd'><svg enable-background="new 0 0 66 66" id="Layer_1" version="1.1" viewBox="0 0 66 66" xml:space="preserve" xmlns="http://www.w3.org/2000/svg" xmlns:xlink="http://www.w3.org/1999/xlink"><g><g><g><path d="M21.9,23.5h9l6.1,6.1c0.4,0.4,1,0.4,1.4,0s0.4-1,0-1.4l-4.7-4.7h4.6c0.6,0,1-0.4,1-1c0-0.6-0.4-1-1-1h-4.6l4.7-4.7     c0.4-0.4,0.4-1,0-1.4c-0.4-0.4-1-0.4-1.4,0l-6.1,6.1h-8.1l8.3-8.3c0.4-0.4,0.4-1,0-1.4c-0.4-0.4-1-0.4-1.4,0l-8.3,8.3V12L27.4,6     c0.4-0.4,0.4-1,0-1.4c-0.4-0.4-1-0.4-1.4,0l-4.7,4.7V4.6c0-0.6-0.4-1-1-1c-0.6,0-1,0.4-1,1v4.6l-4.7-4.7c-0.4-0.4-1-0.4-1.4,0     c-0.4,0.4-0.4,1,0,1.4l6.1,6.1v9l-9.2-9.2c-0.4-0.4-1-0.4-1.4,0c-0.4,0.4-0.4,1,0,1.4l8.3,8.3H9.9l-6.1-6.1c-0.4-0.4-1-0.4-1.4,0     c-0.4,0.4-0.4,1,0,1.4L7,21.5H2.5c-0.6,0-1,0.4-1,1c0,0.6,0.4,1,1,1H7l-4.7,4.7c-0.4,0.4-0.4,1,0,1.4s1,0.4,1.4,0l6.1-6.1H18     l-9.2,9.2c-0.4,0.4-0.4,1,0,1.4c0.4,0.4,1,0.4,1.4,0l9.2-9.2V33l-6.1,6.1c-0.4,0.4-0.4,1,0,1.4c0.4,0.4,1,0.4,1.4,0l4.7-4.7v4.6     c0,0.6,0.4,1,1,1c0.6,0,1-0.4,1-1v-4.6l4.7,4.7c0.4,0.4,1,0.4,1.4,0c0.4-0.4,0.4-1,0-1.4L21.4,33v-7.2l8.3,8.3     c0.4,0.4,1,0.4,1.4,0c0.4-0.4,0.4-1,0-1.4L21.9,23.5z"/></g><g><path d="M16.4,46.4c-0.3-0.5-0.9-0.7-1.4-0.4l-5.2,2.8v-5.3c0-0.6-0.4-1-1-1c-0.6,0-1,0.4-1,1v5.3L2.7,46     c-0.5-0.3-1.1-0.1-1.4,0.4c-0.3,0.5-0.1,1.1,0.4,1.4l5,2.8l-5,2.8c-0.5,0.3-0.7,0.9-0.4,1.4c0.3,0.5,0.9,0.7,1.4,0.4l5.2-2.8v5.3     c0,0.6,0.4,1,1,1c0.6,0,1-0.4,1-1v-5.3L15,55c0.5,0.3,1.1,0.1,1.4-0.4c0.3-0.5,0.1-1.1-0.4-1.4l-5-2.8l5-2.8     C16.5,47.5,16.6,46.9,16.4,46.4z"/></g></g><g><path d="M59.5,34h2.2c0.6,0,1-0.4,1-1s-0.4-1-1-1h-2.2c-0.6,0-1,0.4-1,1S58.9,34,59.5,34z"/></g><g><path d="M59.5,29.1h2.2c0.6,0,1-0.4,1-1c0-0.6-0.4-1-1-1h-2.2c-0.6,0-1,0.4-1,1C58.5,28.7,58.9,29.1,59.5,29.1z"/></g><g><path d="M59.5,24.2h3c0.6,0,1-0.4,1-1c0-0.6-0.4-1-1-1h-3c-0.6,0-1,0.4-1,1C58.5,23.8,58.9,24.2,59.5,24.2z"/></g><g><path d="M59.5,19.2h2.2c0.6,0,1-0.4,1-1c0-0.6-0.4-1-1-1h-2.2c-0.6,0-1,0.4-1,1C58.5,18.7,58.9,19.2,59.5,19.2z"/></g><g><path d="M59.5,14.3h2.2c0.6,0,1-0.4,1-1c0-0.6-0.4-1-1-1h-2.2c-0.6,0-1,0.4-1,1C58.5,13.8,58.9,14.3,59.5,14.3z"/></g><g><path d="M59.5,9.4h3c0.6,0,1-0.4,1-1c0-0.6-0.4-1-1-1h-3c-0.6,0-1,0.4-1,1C58.5,8.9,58.9,9.4,59.5,9.4z"/></g><g><g><path d="M50.9,43.1c-3.8,0-6.9,3.1-6.9,6.9c0,3.8,3.1,6.9,6.9,6.9c3.8,0,6.9-3.1,6.9-6.9C57.7,46.1,54.6,43.1,50.9,43.1z"/></g><g><path d="M56.2,37V7.5c0-3-2.4-5.4-5.4-5.4s-5.4,2.4-5.4,5.4V37c-5.2,2.2-8.6,7.3-8.6,12.9c0,7.7,6.3,14,14,14s14-6.3,14-14     C64.8,44.3,61.4,39.2,56.2,37z M50.9,58.8c-4.9,0-8.9-4-8.9-8.9c0-4.5,3.4-8.3,7.9-8.8V15.8c0-0.6,0.4-1,1-1c0.6,0,1,0.4,1,1     v25.4c4.4,0.5,7.9,4.3,7.9,8.8C59.7,54.8,55.7,58.8,50.9,58.8z"/></g></g></g></svg>