<?xml version="1.0" encoding="utf-8"?>
<!-- Generator: Adobe Illustrator 24.0.1, SVG Export Plug-In . SVG Version: 6.00 Build 0)  -->
<svg version="1.1" id="Layer_1" xmlns="http://www.w3.org/2000/svg" xmlns:xlink="http://www.w3.org/1999/xlink" x="0px" y="0px"
	 viewBox="0 0 612 792" style="enable-background:new 0 0 612 792;" xml:space="preserve">
<style type="text/css">
	.st0{fill-rule:evenodd;clip-rule:evenodd;fill:#000;}
</style>
<g id="Forma_1_3_">
	<g>
		<path class="st0" d="M214.3,504.5c-3.5,7.1-8.8,13.3-16.7,14.5c-2.4-2.1-5.6-3.4-9-3.4c-7.7,0-13.9,6.2-13.9,13.9
			c0,7.7,6.2,13.9,13.9,13.9c5.5,0,10.1-3.2,12.4-7.7c15.2-3,25.6-16.7,31.5-30.9h-8C221,504.8,217.6,504.7,214.3,504.5z
			 M417.6,515.6c-3.1,0-5.9,1-8.2,2.7c-6.7-2.2-11.6-8.2-14.9-14.7c-5.1,0.9-9.7,1.2-13.1,1.2h-6c4.9,13.3,13.8,26.2,29.5,30.2
			c2.1,4.9,7,8.4,12.8,8.4c7.7,0,13.9-6.2,13.9-13.9C431.5,521.8,425.2,515.6,417.6,515.6z M394.8,278.6l-28.4-28.4
			c-5.2,1.3-21.2,11.6-26,16.6l37.8,37.7C383.2,299.8,393.4,284,394.8,278.6z M340.9,289.2c0.7,0,1.4-0.3,2-0.8l4-4
			c0.3-0.3,0.4-0.5,0.6-0.9c0.5-1,0.3-2.3-0.6-3.1c-0.8-0.9-2.1-1-3.1-0.6c-0.3,0.1-0.6,0.3-0.9,0.6l-4,4c-1.1,1.1-1.1,2.9,0,4
			C339.5,288.9,340.2,289.2,340.9,289.2z M328.9,301.2c0.7,0,1.4-0.3,2-0.8l4-4c1.1-1.1,1.1-2.9,0-4c-1.1-1.1-2.9-1.1-4,0l-4,4
			c-1.1,1.1-1.1,2.9,0,4C327.5,300.9,328.2,301.2,328.9,301.2z M316.9,313.1c0.7,0,1.4-0.3,2-0.8l4-4c1.1-1.1,1.1-2.9,0-4
			c-1.1-1.1-2.9-1.1-4,0l-4,4c-1.1,1.1-1.1,2.9,0,4C315.5,312.9,316.2,313.1,316.9,313.1z M355.5,291.5c0.5-1,0.3-2.3-0.6-3.1
			c-0.9-0.9-2.1-1-3.1-0.6c-0.3,0.1-0.6,0.3-0.9,0.6l-4,4c-1.1,1.1-1.1,2.9,0,4c0.6,0.6,1.3,0.8,2,0.8c0.7,0,1.4-0.3,2-0.8l4-4
			C355.1,292.1,355.3,291.8,355.5,291.5z M342.9,300.3c-1.1-1.1-2.9-1.1-4,0l-4,4c-1.1,1.1-1.1,2.9,0,4c0.6,0.6,1.3,0.8,2,0.8
			c0.7,0,1.4-0.3,2-0.8l4-4C344,303.2,344,301.4,342.9,300.3z M330.9,312.3c-1.1-1.1-2.9-1.1-4,0l-4,4c-1.1,1.1-1.1,2.9,0,4
			c0.6,0.6,1.3,0.8,2,0.8c0.7,0,1.4-0.3,2-0.8l4-4C332,315.2,332,313.4,330.9,312.3z M356.9,305.2c0.7,0,1.4-0.3,2-0.8l4-4
			c0.3-0.3,0.4-0.6,0.6-0.9c0.5-1,0.3-2.3-0.6-3.1c-0.8-0.9-2.1-1-3.1-0.6c-0.3,0.1-0.6,0.3-0.9,0.6l-4,4c-1.1,1.1-1.1,2.9,0,4
			C355.4,304.9,356.2,305.2,356.9,305.2z M344.9,317.1c0.7,0,1.4-0.3,2-0.8l4-4c1.1-1.1,1.1-2.9,0-4c-1.1-1.1-2.9-1.1-4,0l-4,4
			c-1.1,1.1-1.1,2.9,0,4C343.4,316.9,344.2,317.1,344.9,317.1z M332.9,329.1c0.7,0,1.4-0.3,2-0.8l4-4c1.1-1.1,1.1-2.9,0-4
			c-1.1-1.1-2.9-1.1-4,0l-4,4c-1.1,1.1-1.1,2.9,0,4C331.5,328.8,332.2,329.1,332.9,329.1z M460.4,363.6h-17V233.8
			c0-3.1-2.5-5.7-5.7-5.7h-24.6c-1.4,0-2.8,0.5-3.8,1.5l-20.3,18.7c-4.6-1.2-9.9,0.4-13.1,1.7l19.4,19.4c1.4-3.6,2.7-8.5,1.6-13
			l18.5-17h16.7v124.2h-294c-6.2,0-11.3,5.1-11.3,11.3v11.3c0,6.2,5.1,11.3,11.3,11.3h7c0.9,4.4,2,9.4,3.4,15.2l7.9,37.9
			c11.1,40.9,33.5,47.6,60.1,48.4c2.6,0.1,5.2,0.1,7.8,0.1h10.2l138.8,0c0,0,0-0.1,0-0.1c0,0,0,0,0,0.1h7.9c3.2,0,6.9-0.2,10.8-0.8
			c17.4-2.6,40-12.5,50.5-44.8l12.9-56h4.9c0.3,0,0.6-0.1,0.9-0.1c5.8-0.5,10.4-5.3,10.4-11.2v-11.3
			C471.7,368.7,466.7,363.6,460.4,363.6z"/>
	</g>
</g>
</svg>
