<?xml version="1.0" encoding="utf-8"?>
<!-- Generator: Adobe Illustrator 24.0.1, SVG Export Plug-In . SVG Version: 6.00 Build 0)  -->
<svg version="1.1" id="Layer_1" xmlns="http://www.w3.org/2000/svg" xmlns:xlink="http://www.w3.org/1999/xlink" x="0px" y="0px"
	 viewBox="0 0 612 792" style="enable-background:new 0 0 612 792;" xml:space="preserve">
<style type="text/css">
	.st0{fill-rule:evenodd;clip-rule:evenodd;fill:#fff;}
</style>
<g id="secure_parking">
	<g>
		<path class="st0" d="M219.6,300.8c1.4,0.2,3.3,0.3,5.4,0.3c9.3,0,17.3-2.3,22.7-7.6c4.1-4,6.4-10,6.4-17c0-7-3-13-7.5-16.6
			c-4.7-3.8-11.6-5.7-21.4-5.7c-9.7,0-16.5,0.6-21.4,1.5v70.7h15.7V300.8z M219.6,267.1L219.6,267.1c1.1-0.3,3.3-0.6,6.5-0.6
			c7.9,0,12.3,3.9,12.3,10.5c0,7.3-5.2,11.7-13.6,11.7c-2.3,0-3.9-0.1-5.3-0.4V267.1z M190.1,348.6h78c9.9,0,17.9-8.2,17.9-18.3
			v-79.9c0-10.1-8-18.3-17.9-18.3h-78c-9.9,0-17.9,8.2-17.9,18.3v79.9C172.2,340.4,180.2,348.6,190.1,348.6z M186.3,251.5
			c0-2.7,2.2-4.9,4.8-4.9H267c2.7,0,4.8,2.2,4.8,4.9v77.8c0,2.7-2.2,4.9-4.8,4.9h-75.9c-2.7,0-4.8-2.2-4.8-4.9V251.5z M244.5,444.3
			c-17.2,0-31.2,14.3-31.2,32c0,17.7,14,32,31.2,32c17.2,0,31.2-14.3,31.2-32C275.7,458.6,261.8,444.3,244.5,444.3z M244.5,485.9
			c-5.2,0-9.4-4.3-9.4-9.7c0-5.3,4.2-9.7,9.4-9.7c5.2,0,9.4,4.3,9.4,9.7C253.9,481.6,249.7,485.9,244.5,485.9z M471.7,450.1
			l-5.1-42.5c-1-8.2-8-14.2-16-13.7l-11.2,0.6l-34.7-32.1c-3.3-3.1-7.7-4.8-12.2-4.8l-70.5,0c-15.8,0-31.2,5.5-43.5,15.7l-39.3,32.4
			l-52.9,13.5c-6.8,1.7-11.6,8-11.6,15.2v15.6c-2.2,0-4.1,1.9-4.1,4.2v20.7c0,2.9,2.3,5.3,5.2,5.3h29.9c-0.1-1.3-0.4-2.6-0.4-4
			c0-22.2,17.6-40.2,39.3-40.2c21.7,0,39.2,18,39.2,40.2c0,1.4-0.3,2.6-0.4,4h82.7c-0.1-1.3-0.4-2.6-0.4-4
			c0-22.2,17.6-40.2,39.3-40.2c21.7,0,39.2,18,39.2,40.2c0,1.4-0.3,2.6-0.4,4h27.9c2.9,0,5.2-2.4,5.2-5.3v-19.5
			C476.9,452.5,474.6,450.1,471.7,450.1z M367,397.8l-98.4,5.1l18.8-15.5c10.2-8.4,23-13,36.1-13H367V397.8z M383.4,397v-22.6h6.4
			c2.2,0,4.4,0.8,6,2.4l20.1,18.5L383.4,397z M405,444.3c-17.2,0-31.2,14.3-31.2,32c0,17.7,14,32,31.2,32c17.2,0,31.2-14.3,31.2-32
			C436.2,458.6,422.2,444.3,405,444.3z M405,485.9c-5.2,0-9.4-4.3-9.4-9.7c0-5.3,4.2-9.7,9.4-9.7c5.2,0,9.4,4.3,9.4,9.7
			C414.4,481.6,410.2,485.9,405,485.9z"/>
	</g>
</g>
</svg>
