<?xml version="1.0" encoding="utf-8"?>
<!-- Generator: Adobe Illustrator 24.0.1, SVG Export Plug-In . SVG Version: 6.00 Build 0)  -->
<svg version="1.1" id="Layer_1" xmlns="http://www.w3.org/2000/svg" xmlns:xlink="http://www.w3.org/1999/xlink" x="0px" y="0px"
	 viewBox="0 0 612 792" style="enable-background:new 0 0 612 792;" xml:space="preserve">
<style type="text/css">
	.st0{fill-rule:evenodd;clip-rule:evenodd;fill:#fff;}
</style>
<g id="free_parking">
	<g>
		<path class="st0" d="M303,320.8c-8.6,0-14.2,0.8-17.5,1.7v55.6c3.7,0.8,8.1,1.1,14.2,1.1c22.4,0,36.2-11.5,36.2-30.8
			C335.9,331.1,324,320.8,303,320.8z M431.2,209.3H180.8c-22.1,0-40,18.1-40,40.5v260.9c0,22.4,17.9,40.5,40,40.5h250.4
			c22.1,0,40-18.1,40-40.5V249.8C471.2,227.4,453.3,209.3,431.2,209.3z M424.8,526.2H186.7c-12,0-21.8-9.9-21.8-22V256.8
			c0-12.2,9.8-22,21.8-22h238.1c12,0,21.8,9.9,21.8,22v247.4h0C446.6,516.4,436.8,526.2,424.8,526.2z M424.8,250.3H186.7
			c-3.5,0-6.4,2.9-6.4,6.5v247.4c0,3.6,2.9,6.5,6.4,6.5h238.1c3.5,0,6.4-2.9,6.4-6.5V256.8C431.2,253.2,428.3,250.3,424.8,250.3z
			 M360.6,392.1c-14.4,13.7-35.7,19.8-60.6,19.8c-5.5,0-10.3-0.3-14.4-0.8v67.6h-41.4V292.5c13-2.2,31.2-3.9,56.9-3.9
			c26,0,44.5,5,56.9,15.1c11.9,9.5,19.9,25.2,19.9,43.6C377.7,365.8,371.6,381.4,360.6,392.1z"/>
	</g>
</g>
</svg>
