<?xml version="1.0" encoding="utf-8"?>
<!-- Generator: Adobe Illustrator 24.0.1, SVG Export Plug-In . SVG Version: 6.00 Build 0)  -->
<svg version="1.1" id="Layer_1" xmlns="http://www.w3.org/2000/svg" xmlns:xlink="http://www.w3.org/1999/xlink" x="0px" y="0px"
	 viewBox="0 0 612 792" style="enable-background:new 0 0 612 792;" xml:space="preserve">
<style type="text/css">
	.st0{fill-rule:evenodd;clip-rule:evenodd;fill:#fff;}
</style>
<g id="bed_size">
	<g>
		<path class="st0" d="M444.1,428.7c0-0.4,0-0.8-0.1-1.2c0-0.1,0-0.1,0-0.1c-0.1-0.3-0.2-0.7-0.3-1c0-0.1-0.1-0.2-0.1-0.3
			c0-0.1-0.1-0.1-0.1-0.2l-20.5-41c6.3-2.5,10.7-8.5,10.7-15.6v-79.5c0-9.7-8-17.5-17.9-17.5c-1.1,0-2.2,0.1-3.3,0.3
			c-3.8,0.7-7.2,2.5-9.7,5.2c-16.4-18.5-62.6-28.3-106.5-28.3c-42.9,0-88,9.4-105.3,27c-2.4-2-5.2-3.4-8.4-3.9
			c-1.1-0.2-2.2-0.3-3.3-0.3c-9.9,0-17.9,7.9-17.9,17.5v79.5c0,7.1,4.5,13.1,10.7,15.6l-20.5,41c0,0.1-0.1,0.1-0.1,0.2
			c0,0.1-0.1,0.2-0.1,0.3c-0.1,0.3-0.2,0.7-0.3,1c0,0.1,0,0.1,0,0.2c-0.1,0.4-0.1,0.8-0.1,1.2c0,0.1,0,0.1,0,0.2v52.7
			c0,3.8,3.1,6.9,7,6.9h18.9v16.9c0,3.8,3.1,6.9,7,6.9h29.9c3.9,0,7-3.1,7-6.9v-16.9h156v16.9c0,3.8,3.1,6.9,7,6.9h29.9
			c3.9,0,7-3.1,7-6.9v-16.9h16.4c3.9,0,7-3.1,7-6.9v-52.7C444.2,428.8,444.1,428.7,444.1,428.7z M314.9,315.5c0-3.9,3.3-7.1,7.3-7.1
			H377c4,0,7.3,3.2,7.3,7.1v31.3c0,3.9-3.3,7.1-7.3,7.1h-54.9c-4,0-7.3-3.2-7.3-7.1V315.5z M210.9,315.5c0-3.9,3.3-7.1,7.3-7.1H273
			c4,0,7.3,3.2,7.3,7.1v31.3c0,3.9-3.3,7.1-7.3,7.1h-54.9c-4,0-7.3-3.2-7.3-7.1V315.5z M169.3,422l31.5-63.1
			c3.9,5.3,10.2,8.9,17.4,8.9H273c7.9,0,14.8-4.2,18.5-10.5h12.2c3.7,6.3,10.6,10.5,18.5,10.5H377c7.2,0,13.5-3.5,17.4-8.9
			l31.5,63.1H169.3z"/>
	</g>
</g>
</svg>
