<?xml version="1.0" ?><!DOCTYPE svg  PUBLIC '-//W3C//DTD SVG 1.1//EN'  'http://www.w3.org/Graphics/SVG/1.1/DTD/svg11.dtd'><svg enable-background="new 0 0 512 512" height="512px" version="1.1" viewBox="0 0 512 512" width="512px" xml:space="preserve" xmlns="http://www.w3.org/2000/svg" xmlns:xlink="http://www.w3.org/1999/xlink"><g id="SOLID"><g><path d="M449.595,264H124.343c-4.238,0-8.188,2.147-10.492,5.705c-2.304,3.557-2.648,8.039-0.916,11.906    c9.96,22.227,25.135,43.233,44.064,61.057v94.209C157,452.936,169.584,466,185.052,466h100.189    C300.83,466,314,452.663,314,436.877v-44.1c64.834-9.137,120.504-50.944,147.036-111.243c1.701-3.865,1.335-8.328-0.973-11.865    C457.756,266.133,453.818,264,449.595,264z"/><path d="M169,232.5v-151c0-6.903-5.597-12.5-12.5-12.5h-29.733c3.446-2.226,5.733-6.093,5.733-10.5c0-6.903-5.596-12.5-12.5-12.5    h-18c-6.904,0-12.5,5.597-12.5,12.5c0,4.407,2.287,8.274,5.733,10.5H62.405c-3.789,0-7.374,1.719-9.747,4.674    c-2.373,2.954-3.277,6.825-2.458,10.525l33.396,151c1.266,5.726,6.342,9.801,12.205,9.801H156.5    C163.403,245,169,239.403,169,232.5z"/><path d="M449,206H211c-11.046,0-20,8.954-20,20s8.954,20,20,20h238c11.046,0,20-8.954,20-20S460.046,206,449,206z"/></g></g></svg>