<?xml version="1.0" ?><!DOCTYPE svg  PUBLIC '-//W3C//DTD SVG 1.1//EN'  'http://www.w3.org/Graphics/SVG/1.1/DTD/svg11.dtd'><svg height="110px" id="Слой_7" style="enable-background:new 0 0 110 110;" version="1.1" viewBox="0 0 110 110" width="110px" xml:space="preserve" xmlns="http://www.w3.org/2000/svg" xmlns:xlink="http://www.w3.org/1999/xlink"><g><path d="M57.409,34.737h8.054L54.12,76.169h-5.408l-8.53-26.612l-8.4,26.612H26.08L14.795,34.737h8.756l6.068,25.94l8.393-25.94    h5.291l7.94,25.94L57.409,34.737z M93.562,67.646c-0.904,0.546-1.962,0.998-3.178,1.352c-1.216,0.353-2.703,0.528-4.466,0.528    c-1.885,0-3.538-0.344-4.967-1.03c-1.433-0.688-2.625-1.65-3.584-2.884c-0.962-1.233-1.677-2.725-2.146-4.47    c-0.471-1.745-0.705-3.679-0.705-5.8c0-4.87,0.989-8.463,2.97-10.779c1.975-2.316,4.591-3.476,7.846-3.476    c1.763,0,3.259,0.1,4.497,0.294c1.233,0.196,2.3,0.511,3.204,0.94l1.586-6.817c-1.057-0.432-2.399-0.803-4.026-1.117    c-1.627-0.314-3.615-0.47-5.967-0.47c-2.196,0-4.393,0.361-6.585,1.089c-2.196,0.723-4.18,1.918-5.966,3.584    c-1.784,1.666-3.23,3.86-4.347,6.583c-1.117,2.726-1.677,6.104-1.677,10.14c0,3.876,0.501,7.176,1.5,9.896    s2.341,4.936,4.026,6.639c1.687,1.704,3.635,2.938,5.845,3.702c2.214,0.764,4.561,1.148,7.027,1.148    c2.034,0,4.027-0.194,5.966-0.584c1.939-0.388,3.535-1.029,4.791-1.924L93.562,67.646z"/></g></svg>