<?xml version="1.0" encoding="utf-8"?>
<!-- Generator: Adobe Illustrator 24.0.1, SVG Export Plug-In . SVG Version: 6.00 Build 0)  -->
<svg version="1.1" id="Layer_1" xmlns="http://www.w3.org/2000/svg" xmlns:xlink="http://www.w3.org/1999/xlink" x="0px"
     y="0px"
     viewBox="0 0 48 48" style="enable-background:new 0 0 48 48;" xml:space="preserve">
<style type="text/css">
	.st1{fill:none;stroke:#000;stroke-miterlimit:10;}
	.st2{fill:none;stroke:#000;stroke-miterlimit:10;stroke-dasharray:3.3333,3.3333;}
</style>
    <g id="Layer_2_1_">
	<g>
		<g>
			<polygon class="st1" points="47,1 17,1 17,15 1,15 1,47 33,47 33,31 47,31"/>
            <g>
				<g>
					<line class="st1" x1="17" y1="15" x2="20" y2="15"/>
                    <line class="st2" x1="23.3" y1="15" x2="28.3" y2="15"/>
                    <polyline class="st1" points="30,15 33,15 33,18"/>
                    <line class="st2" x1="33" y1="21.3" x2="33" y2="26.3"/>
                    <line class="st1" x1="33" y1="28" x2="33" y2="31"/>
				</g>
			</g>
            <path class="st1" d="M9,41V31h3c1.7,0,3,1.3,3,3v7"/>
            <path class="st1" d="M15,41v-7c0-1.7,1.3-3,3-3l0,0c1.7,0,3,1.3,3,3v7"/>
            <line class="st1" x1="9" y1="33" x2="9" y2="29"/>
            <path class="st1"
                  d="M20,21h3.8c0.7,0,1.2,0.6,1.2,1.2l0,0c0,0.5-0.3,0.9-0.7,1.1l-1.5,0.8C21.7,24.7,21,25.8,21,27l0,0h5"/>
		</g>
	</g>
</g>
</svg>
