<?xml version="1.0" ?><!DOCTYPE svg  PUBLIC '-//W3C//DTD SVG 1.1//EN'  'http://www.w3.org/Graphics/SVG/1.1/DTD/svg11.dtd'><svg enable-background="new 0 0 300 300" id="Layer_1" version="1.1" viewBox="0 0 300 300" xml:space="preserve" xmlns="http://www.w3.org/2000/svg" xmlns:xlink="http://www.w3.org/1999/xlink"><g><path d="M287.4,148.3c-0.5-0.4-1.1-0.7-1.8-0.6c-1.4,0.1-2.8,0.2-4.3,0.2c-18.5,0-36.7-9.5-48.7-17.4c-6.4-4.2-13.8-6.5-21.5-6.5   V39.5c0-6.6-5.4-11.9-11.9-11.9H157V13.7c0-4.8-3.9-8.7-8.7-8.7H74.7c-4.8,0-8.7,3.9-8.7,8.7v13.9H23.8c-6.6,0-11.9,5.4-11.9,11.9   v242.3c0,6.6,5.4,11.9,11.9,11.9h68.3h42.4h1.5h63.8c0.4,0,0.8-0.1,1.2-0.3c3.3,0.9,6.7,1.5,10.2,1.6c22.9-0.5,43.4-22.1,53.6-34.9   c15.3-19.3,23.4-44.6,23.4-73.4V150C288.1,149.3,287.9,148.7,287.4,148.3z M74.7,9.7h73.6c2.2,0,4,1.8,4,4v13.9H70.7V13.7   C70.7,11.5,72.5,9.7,74.7,9.7z M16.5,281.8V39.5c0-4,3.3-7.3,7.3-7.3h44.6h86.3h44.6c4,0,7.3,3.3,7.3,7.3v84.6   c-6.1,0.7-11.9,2.8-17,6.3c-12,8-30.2,17.4-48.7,17.4c-1.4,0-2.9-0.1-4.3-0.2c-0.7,0-1.3,0.2-1.8,0.6c-0.5,0.4-0.8,1.1-0.8,1.7   v36.7c0,8.2,0.7,16.1,2,23.6H82.5c-1.3,0-2.3,1-2.3,2.3v21.4c0,1.3,1,2.3,2.3,2.3h7.3v52.7h-66C19.8,289.1,16.5,285.8,16.5,281.8z    M111,289.1H94.5v-52.5H111V289.1z M132.2,289.1h-16.6v-52.5h16.6L132.2,289.1z M84.9,231.8V215h52c1.2,5.8,2.8,11.4,4.8,16.8H84.9   z M136.9,289.1l0-52.7h5.9c0.2,0,0.4-0.1,0.6-0.1c3.6,8.7,8.3,16.7,14,23.8c7,8.8,18.7,21.6,32.8,29H136.9z M283.5,186.7   c0,27.7-7.7,52.1-22.4,70.5c-7.8,9.8-28.3,32.7-49.9,33.2c-21.8-0.5-42.3-23.4-50.1-33.2c-14.6-18.4-22.4-42.8-22.4-70.5v-34.2   c0.7,0,1.4,0,2.1,0c19.6,0,38.7-9.9,51.2-18.2c5.7-3.8,12.2-5.7,19-5.7c6.8,0,13.4,2,19,5.7c12.5,8.3,31.6,18.2,51.2,18.2   c0.7,0,1.4,0,2.1,0V186.7z"/><path d="M155.2,104.5h13.9c0.1,0,0.2,0,0.3-0.1c0.1,0,0.2,0.1,0.3,0.1h13.9c1.3,0,2.3-1,2.3-2.3v-32c0-1.3-1-2.3-2.3-2.3h-13.9   c-0.1,0-0.2,0-0.3,0.1c-0.1,0-0.2-0.1-0.3-0.1h-13.9c-1.3,0-2.3,1-2.3,2.3v32C152.9,103.4,153.9,104.5,155.2,104.5z M172,72.5h9.2   v27.3H172V72.5z M157.5,72.5h9.8v27.3h-9.8V72.5z"/><path d="M97.4,170.4h13.9c0.1,0,0.2,0,0.3-0.1c0.1,0,0.2,0.1,0.3,0.1h13.9c1.3,0,2.3-1,2.3-2.3v-32c0-1.3-1-2.3-2.3-2.3h-13.9   c-0.1,0-0.2,0-0.3,0.1c-0.1,0-0.2-0.1-0.3-0.1H97.4c-1.3,0-2.3,1-2.3,2.3v32C95,169.4,96.1,170.4,97.4,170.4z M114.1,138.4h9.2   v27.3h-9.2V138.4z M99.7,138.4h9.8v27.3h-9.8V138.4z"/><path d="M97.4,104.5h13.9c0.1,0,0.2,0,0.3-0.1c0.1,0,0.2,0.1,0.3,0.1h13.9c1.3,0,2.3-1,2.3-2.3v-32c0-1.3-1-2.3-2.3-2.3h-13.9   c-0.1,0-0.2,0-0.3,0.1c-0.1,0-0.2-0.1-0.3-0.1H97.4c-1.3,0-2.3,1-2.3,2.3v32C95,103.4,96.1,104.5,97.4,104.5z M114.1,72.5h9.2v27.3   h-9.2V72.5z M99.7,72.5h9.8v27.3h-9.8V72.5z"/><path d="M67.9,205.2H54c-0.1,0-0.2,0-0.3,0.1c-0.1,0-0.2-0.1-0.3-0.1H39.5c-1.3,0-2.3,1-2.3,2.3v32c0,1.3,1,2.3,2.3,2.3h13.9   c0.1,0,0.2,0,0.3-0.1c0.1,0,0.2,0.1,0.3,0.1h13.9c1.3,0,2.3-1,2.3-2.3v-32C70.2,206.2,69.1,205.2,67.9,205.2z M41.8,209.8h9.8v27.3   h-9.8V209.8z M65.5,237.2h-9.2v-27.3h9.2V237.2z"/><path d="M67.9,133.8H54c-0.1,0-0.2,0-0.3,0.1c-0.1,0-0.2-0.1-0.3-0.1H39.5c-1.3,0-2.3,1-2.3,2.3v32c0,1.3,1,2.3,2.3,2.3h13.9   c0.1,0,0.2,0,0.3-0.1c0.1,0,0.2,0.1,0.3,0.1h13.9c1.3,0,2.3-1,2.3-2.3v-32C70.2,134.8,69.1,133.8,67.9,133.8z M41.8,138.4h9.8v27.3   h-9.8V138.4z M65.5,165.8h-9.2v-27.3h9.2V165.8z"/><path d="M67.9,67.8H54c-0.1,0-0.2,0-0.3,0.1c-0.1,0-0.2-0.1-0.3-0.1H39.5c-1.3,0-2.3,1-2.3,2.3v32c0,1.3,1,2.3,2.3,2.3h13.9   c0.1,0,0.2,0,0.3-0.1c0.1,0,0.2,0.1,0.3,0.1h13.9c1.3,0,2.3-1,2.3-2.3v-32C70.2,68.9,69.1,67.8,67.9,67.8z M41.8,72.5h9.8v27.3   h-9.8V72.5z M65.5,99.8h-9.2V72.5h9.2V99.8z"/><path d="M268.2,163.8c-0.1,0-9.7,1.4-39.7-13.9c-0.6-0.3-1.2-0.6-1.8-0.9c-3.6-2-8-4.4-15.6-4.4c-7.6,0-12.1,2.4-15.6,4.4   c-0.6,0.3-1.2,0.6-1.8,0.9c-29.8,15.2-39.4,14-39.6,14c-0.7-0.1-1.4,0-2,0.5s-0.9,1.1-0.9,1.8v40.7c0,0,0,0,0,0c0,0,0,0,0,0.1   c0,0.5,2.7,47.7,58.9,71.7c0,0,0.1,0,0.1,0c0.3,0.1,0.5,0.2,0.8,0.2c0,0,0,0,0,0c0.3,0,0.6-0.1,0.8-0.2c0,0,0.1,0,0.1,0   c56.2-23.9,58.9-71.2,58.9-71.7c0,0,0,0,0-0.1c0,0,0,0,0-0.1v-40.7c0-0.7-0.3-1.3-0.8-1.8C269.6,163.9,268.8,163.7,268.2,163.8z    M226.4,154c23.4,12,35,14.2,39.9,14.5v36h-52.9v-55.2c5,0.4,8.1,2.1,11.1,3.7C225.1,153.4,225.8,153.7,226.4,154z M155.9,168.5   c4.7-0.3,16.4-2.4,39.9-14.5c0.6-0.3,1.2-0.7,1.9-1c3-1.6,6.1-3.3,11.1-3.7v55.2h-52.9V168.5z M156.2,209.1h52.6v63.7   C165.4,252.9,157.5,218.5,156.2,209.1z M213.4,272.8v-63.7H266C264.7,218.5,256.8,252.9,213.4,272.8z"/></g></svg>