<?xml version="1.0" ?><!DOCTYPE svg  PUBLIC '-//W3C//DTD SVG 1.1//EN'  'http://www.w3.org/Graphics/SVG/1.1/DTD/svg11.dtd'><svg enable-background="new 0 0 100 100" height="100px" id="Layer_1" version="1.1" viewBox="0 0 100 100" width="100px" xml:space="preserve" xmlns="http://www.w3.org/2000/svg" xmlns:xlink="http://www.w3.org/1999/xlink"><g><path d="M90.633,53.907c-0.166,0-0.342,0.011-0.525,0.034l-17.959,2.262l1.605-3.446   c2.326-4.984,0.148-10.964-4.836-13.289l-12.859-5.996c0.072-0.748-0.004-1.523-0.26-2.282c-0.773-2.295-2.916-3.746-5.211-3.745   c-0.584,0-1.176,0.093-1.758,0.289c-0.848,0.286-1.576,0.762-2.162,1.359l-16.721-7.797c-1.357-0.633-2.787-0.933-4.197-0.933   c-3.771,0.001-7.4,2.141-9.092,5.769L8.205,44.258c-2.326,4.984-0.148,10.964,4.836,13.289l17.629,8.22   c-1.273,5.044-5.375,8.801-10.092,8.801h-0.002l-10-0.001v-8.498c0-0.828-0.672-1.5-1.5-1.5c-0.83,0-1.5,0.672-1.5,1.5v20   c0,0.828,0.67,1.5,1.5,1.5c0.828,0,1.5-0.672,1.5-1.5v-8.502l10,0.001c0,0,0,0,0.002,0c5.916,0,11.07-4.46,12.84-10.52   l18.594,8.671c1.357,0.633,2.787,0.933,4.199,0.933c3.771,0,7.398-2.141,9.092-5.769l1.795-3.849l9.66,15.632   c0.555,0.896,1.234,1.341,1.896,1.341c0.717,0,1.412-0.524,1.896-1.563l11.834-25.378C93.236,55.241,92.447,53.907,90.633,53.907z    M49.789,30.576c0.26-0.088,0.529-0.132,0.799-0.132c1.072,0,2.025,0.685,2.369,1.703c0.213,0.633,0.166,1.311-0.129,1.909   c-0.297,0.599-0.809,1.046-1.441,1.259c-0.262,0.088-0.529,0.132-0.801,0.132c-1.072,0-2.023-0.684-2.367-1.702   C47.779,32.438,48.482,31.016,49.789,30.576z M62.584,69.616c-1.145,2.451-3.646,4.036-6.373,4.036c-1.02,0-2.004-0.22-2.932-0.651   L14.309,54.829c-3.498-1.632-5.018-5.805-3.385-9.303l8.453-18.127c1.143-2.451,3.645-4.035,6.373-4.036   c1.018,0,2.002,0.22,2.93,0.651l16.549,7.717c-0.217,0.954-0.188,1.977,0.146,2.972c0.775,2.296,2.916,3.744,5.211,3.744   c0.584,0,1.176-0.093,1.758-0.289c1.086-0.365,1.98-1.037,2.623-1.886l12.684,5.914c3.498,1.632,5.018,5.805,3.385,9.303   L62.584,69.616z M78.49,79.764l-9.877-15.982l2.035-4.366l18.412-2.319L78.49,79.764z" fill="#000"/><path d="M56.49,21.338c-3.137-1.549-6.807-1.179-9.576,0.966c-0.656,0.508-0.775,1.449-0.268,2.104   c0.506,0.654,1.449,0.774,2.104,0.269c1.855-1.437,4.313-1.687,6.412-0.649c2.043,1.011,3.34,3.057,3.383,5.339   c0.016,0.818,0.686,1.471,1.5,1.471c0.01,0,0.02,0,0.029,0c0.828-0.017,1.486-0.701,1.471-1.529   C61.479,25.902,59.543,22.848,56.49,21.338z" fill="#000"/><path d="M45.916,17.058c3.979-2.102,8.754-2.17,12.777-0.184c4.035,1.992,6.805,5.678,7.602,10.112   c0.131,0.726,0.762,1.234,1.475,1.234c0.088,0,0.178-0.008,0.268-0.023c0.814-0.146,1.357-0.927,1.211-1.742   c-0.953-5.302-4.402-9.889-9.225-12.271c-4.885-2.414-10.684-2.331-15.51,0.221c-0.732,0.388-1.012,1.295-0.625,2.027   C44.277,17.165,45.184,17.446,45.916,17.058z" fill="#000"/></g></svg>