<?xml version="1.0" encoding="utf-8"?>
<!-- Generator: Adobe Illustrator 24.0.1, SVG Export Plug-In . SVG Version: 6.00 Build 0)  -->
<svg version="1.1" id="Layer_1" xmlns="http://www.w3.org/2000/svg" xmlns:xlink="http://www.w3.org/1999/xlink" x="0px" y="0px"
	 viewBox="0 0 68 68" style="enable-background:new 0 0 68 68;" xml:space="preserve">
<style type="text/css">
	path,.st0{fill:#fff;}
</style>
<g>
	<path d="M62.1,65h-4.9V13.9c0-1.7-1.3-3-3-3c-47.7,0,5.9,0-40.3,0c-1.7,0-3,1.3-3,3V65H5.9V5c0-1.1,0.9-2,2-2h52.1c1.1,0,2,0.9,2,2
		V65z M38,65V12.9h16.2c0.6,0,1,0.4,1,1V65H38z M32,65V12.9h4V65H32z M12.8,65V13.9c0-0.6,0.4-1,1-1H30V65H12.8z M60.1,1H7.9
		c-2.2,0-4,1.8-4,4v61c0,0.6,0.5,1,1,1c50.4,0,7.7,0,58.1,0c0.5,0,1-0.4,1-1V5C64.1,2.8,62.3,1,60.1,1z"/>
	<g>
		<g>
			<path d="M458.3,11.3c0.4-0.7,0.2-1.6-0.5-2L425.3-9.4c-0.7-0.4-1.6-0.2-2,0.5l-21.6,37.4l3.1,1.8l18.4-31.9c0.6-1,1.9-1.4,3-0.8
				c28.8,16.6-4.6-2.7,25.1,14.5c1,0.6,1.4,1.9,0.8,3L433.6,47l3.1,1.8L458.3,11.3z M432.4,46.3l18.4-31.9c0.2-0.3,0.1-0.8-0.3-1
				l-10.1-5.8l-18.8,32.5L432.4,46.3z M420.4,39.4l18.8-32.5l-2.5-1.4l-18.8,32.5L420.4,39.4z M416.7,37.2l18.8-32.5l-10.1-5.8
				c-0.3-0.2-0.8-0.1-1,0.3L406,31L416.7,37.2z M459.5,12.1l-22,38c-0.2,0.3-0.6,0.5-1,0.3c-31.4-18.1-4.8-2.8-36.2-20.9
				c-0.3-0.2-0.5-0.6-0.3-1l22-38c0.8-1.4,2.6-1.8,3.9-1.1l32.5,18.8C459.9,8.9,460.3,10.7,459.5,12.1z"/>
		</g>
		<g>
			<path d="M458.3,43.7c0.4-0.7,0.2-1.6-0.5-2L425.3,23c-0.7-0.4-1.6-0.2-2,0.5l-21.6,37.4l3.1,1.8l18.4-31.9c0.6-1,1.9-1.4,3-0.8
				c28.8,16.6-4.6-2.7,25.1,14.5c1,0.6,1.4,1.9,0.8,3l-18.4,31.9l3.1,1.8L458.3,43.7z M432.4,78.6l18.4-31.9c0.2-0.3,0.1-0.8-0.3-1
				l-10.1-5.8l-18.8,32.5L432.4,78.6z M420.4,71.7l18.8-32.5l-2.5-1.4l-18.8,32.5L420.4,71.7z M416.7,69.6l18.8-32.5l-10.1-5.8
				c-0.3-0.2-0.8-0.1-1,0.3L406,63.4L416.7,69.6z M459.5,44.4l-22,38c-0.2,0.3-0.6,0.5-1,0.3c-31.4-18.1-4.8-2.8-36.2-20.9
				c-0.3-0.2-0.5-0.6-0.3-1l22-38c0.8-1.4,2.6-1.8,3.9-1.1l32.5,18.8C459.9,41.3,460.3,43,459.5,44.4z"/>
		</g>
		<g>
			<path d="M74.4,425.3c0.4-0.7,0.2-1.6-0.5-2l-32.5-18.8c-0.7-0.4-1.6-0.2-2,0.5l-21.6,37.4l3.1,1.8l18.4-31.9c0.6-1,1.9-1.4,3-0.8
				c28.8,16.6-4.6-2.7,25.1,14.5c1,0.6,1.4,1.9,0.8,3L49.7,461l3.1,1.8L74.4,425.3z M48.5,460.2l18.4-31.9c0.2-0.3,0.1-0.8-0.3-1
				l-10.1-5.8l-18.8,32.5L48.5,460.2z M36.6,453.3l18.8-32.5l-2.5-1.4l-18.8,32.5L36.6,453.3z M32.8,451.2l18.8-32.5l-10.1-5.8
				c-0.3-0.2-0.8-0.1-1,0.3L22.1,445L32.8,451.2z M75.6,426l-22,38c-0.2,0.3-0.6,0.5-1,0.3c-31.4-18.1-4.8-2.8-36.2-20.9
				c-0.3-0.2-0.5-0.6-0.3-1l22-38c0.8-1.4,2.6-1.8,3.9-1.1l32.5,18.8C76,422.9,76.4,424.7,75.6,426z"/>
		</g>
		<g>
			<path d="M42.1,425.3c0.4-0.7,0.2-1.6-0.5-2L9,404.6c-0.7-0.4-1.6-0.2-2,0.5l-21.6,37.4l3.1,1.8l18.4-31.9c0.6-1,1.9-1.4,3-0.8
				c28.8,16.6-4.6-2.7,25.1,14.5c1,0.6,1.4,1.9,0.8,3L17.4,461l3.1,1.8L42.1,425.3z M16.2,460.2l18.4-31.9c0.2-0.3,0.1-0.8-0.3-1
				l-10.1-5.8L5.5,454.1L16.2,460.2z M4.2,453.3L23,420.9l-2.5-1.4L1.7,451.9L4.2,453.3z M0.5,451.2l18.8-32.5l-10.1-5.8
				c-0.3-0.2-0.8-0.1-1,0.3L-10.2,445L0.5,451.2z M43.3,426l-22,38c-0.2,0.3-0.6,0.5-1,0.3c-31.4-18.1-4.8-2.8-36.2-20.9
				c-0.3-0.2-0.5-0.6-0.3-1l22-38c0.8-1.4,2.6-1.8,3.9-1.1l32.5,18.8C43.6,422.9,44.1,424.7,43.3,426z"/>
		</g>
		<g>
			<path d="M-334.4,36.3c0.4-0.7,0.2-1.6-0.5-2l-32.5-18.8c-0.7-0.4-1.6-0.2-2,0.5L-391,53.5l3.1,1.8l18.4-31.9c0.6-1,1.9-1.4,3-0.8
				c28.8,16.6-4.6-2.7,25.1,14.5c1,0.6,1.4,1.9,0.8,3l-18.4,31.9l3.1,1.8L-334.4,36.3z M-360.3,71.2l18.4-31.9
				c0.2-0.3,0.1-0.8-0.3-1l-10.1-5.8L-371,65L-360.3,71.2z M-372.3,64.3l18.8-32.5l-2.5-1.4l-18.8,32.5L-372.3,64.3z M-376,62.1
				l18.8-32.5l-10.1-5.8c-0.3-0.2-0.8-0.1-1,0.3L-386.7,56L-376,62.1z M-333.2,37l-22,38c-0.2,0.3-0.6,0.5-1,0.3
				c-31.4-18.1-4.8-2.8-36.2-20.9c-0.3-0.2-0.5-0.6-0.3-1l22-38c0.8-1.4,2.6-1.8,3.9-1.1l32.5,18.8C-332.9,33.8-332.4,35.6-333.2,37
				z"/>
		</g>
		<g>
			<path d="M-334.4,3.9c0.4-0.7,0.2-1.6-0.5-2l-32.5-18.8c-0.7-0.4-1.6-0.2-2,0.5L-391,21.1l3.1,1.8L-369.6-9c0.6-1,1.9-1.4,3-0.8
				c28.8,16.6-4.6-2.7,25.1,14.5c1,0.6,1.4,1.9,0.8,3l-18.4,31.9l3.1,1.8L-334.4,3.9z M-360.3,38.9L-341.9,7c0.2-0.3,0.1-0.8-0.3-1
				l-10.1-5.8L-371,32.7L-360.3,38.9z M-372.3,32l18.8-32.5L-356-2l-18.8,32.5L-372.3,32z M-376,29.8l18.8-32.5l-10.1-5.8
				c-0.3-0.2-0.8-0.1-1,0.3l-18.4,31.9L-376,29.8z M-333.2,4.7l-22,38c-0.2,0.3-0.6,0.5-1,0.3c-31.4-18.1-4.8-2.8-36.2-20.9
				c-0.3-0.2-0.5-0.6-0.3-1l22-38c0.8-1.4,2.6-1.8,3.9-1.1l32.5,18.8C-332.9,1.5-332.4,3.3-333.2,4.7z"/>
		</g>
		<g>
			<path d="M55.6-373.3c0.4-0.7,0.2-1.6-0.5-2L22.6-394c-0.7-0.4-1.6-0.2-2,0.5l-21.6,37.4l3.1,1.8l18.4-31.9c0.6-1,1.9-1.4,3-0.8
				c28.8,16.6-4.6-2.7,25.1,14.5c1,0.6,1.4,1.9,0.8,3L31-337.6l3.1,1.8L55.6-373.3z M29.7-338.4l18.4-31.9c0.2-0.3,0.1-0.8-0.3-1
				L37.8-377L19-344.5L29.7-338.4z M17.8-345.3l18.8-32.5l-2.5-1.4l-18.8,32.5L17.8-345.3z M14.1-347.4l18.8-32.5l-10.1-5.8
				c-0.3-0.2-0.8-0.1-1,0.3L3.4-353.6L14.1-347.4z M56.9-372.6l-22,38c-0.2,0.3-0.6,0.5-1,0.3c-31.4-18.1-4.8-2.8-36.2-20.9
				c-0.3-0.2-0.5-0.6-0.3-1l22-38c0.8-1.4,2.6-1.8,3.9-1.1l32.5,18.8C57.2-375.7,57.7-373.9,56.9-372.6z"/>
		</g>
		<g>
			<path d="M88-373.3c0.4-0.7,0.2-1.6-0.5-2L55-394c-0.7-0.4-1.6-0.2-2,0.5l-21.6,37.4l3.1,1.8l18.4-31.9c0.6-1,1.9-1.4,3-0.8
				c28.8,16.6-4.6-2.7,25.1,14.5c1,0.6,1.4,1.9,0.8,3l-18.4,31.9l3.1,1.8L88-373.3z M62.1-338.4l18.4-31.9c0.2-0.3,0.1-0.8-0.3-1
				L70.1-377l-18.8,32.5L62.1-338.4z M50.1-345.3l18.8-32.5l-2.5-1.4l-18.8,32.5L50.1-345.3z M46.4-347.4l18.8-32.5l-10.1-5.8
				c-0.3-0.2-0.8-0.1-1,0.3l-18.4,31.9L46.4-347.4z M89.2-372.6l-22,38c-0.2,0.3-0.6,0.5-1,0.3c-31.4-18.1-4.8-2.8-36.2-20.9
				c-0.3-0.2-0.5-0.6-0.3-1l22-38c0.8-1.4,2.6-1.8,3.9-1.1l32.5,18.8C89.6-375.7,90-373.9,89.2-372.6z"/>
		</g>
		<g>
			<path d="M49.4-309.3c0.4-0.7,0.2-1.6-0.5-2L16.3-330c-0.7-0.4-1.6-0.2-2,0.5l-21.6,37.4l3.1,1.8l18.4-31.9c0.6-1,1.9-1.4,3-0.8
				c28.8,16.6-4.6-2.7,25.1,14.5c1,0.6,1.4,1.9,0.8,3l-18.4,31.9l3.1,1.8L49.4-309.3z M23.5-274.4l18.4-31.9c0.2-0.3,0.1-0.8-0.3-1
				L31.5-313l-18.8,32.5L23.5-274.4z M11.5-281.3l18.8-32.5l-2.5-1.4L9-282.7L11.5-281.3z M7.8-283.4l18.8-32.5l-10.1-5.8
				c-0.3-0.2-0.8-0.1-1,0.3l-18.4,31.9L7.8-283.4z M50.6-308.6l-22,38c-0.2,0.3-0.6,0.5-1,0.3c-31.4-18.1-4.8-2.8-36.2-20.9
				c-0.3-0.2-0.5-0.6-0.3-1l22-38c0.8-1.4,2.6-1.8,3.9-1.1l32.5,18.8C50.9-311.7,51.4-309.9,50.6-308.6z"/>
		</g>
		<g>
			<path d="M-308.4,33.2c0.4-0.7,0.2-1.6-0.5-2l-32.5-18.8c-0.7-0.4-1.6-0.2-2,0.5L-365,50.5l3.1,1.8l18.4-31.9c0.6-1,1.9-1.4,3-0.8
				c28.8,16.6-4.6-2.7,25.1,14.5c1,0.6,1.4,1.9,0.8,3L-333,68.9l3.1,1.8L-308.4,33.2z M-334.3,68.2l18.4-31.9c0.2-0.3,0.1-0.8-0.3-1
				l-10.1-5.8L-345,62L-334.3,68.2z M-346.2,61.3l18.8-32.5l-2.5-1.4l-18.8,32.5L-346.2,61.3z M-350,59.1l18.8-32.5l-10.1-5.8
				c-0.3-0.2-0.8-0.1-1,0.3l-18.4,31.9L-350,59.1z M-307.1,34l-22,38c-0.2,0.3-0.6,0.5-1,0.3c-31.4-18.1-4.8-2.8-36.2-20.9
				c-0.3-0.2-0.5-0.6-0.3-1l22-38c0.8-1.4,2.6-1.8,3.9-1.1l32.5,18.8C-306.8,30.8-306.3,32.6-307.1,34z"/>
		</g>
		<g>
			<path d="M53.9,371.2c0.4-0.7,0.2-1.6-0.5-2l-32.5-18.8c-0.7-0.4-1.6-0.2-2,0.5l-21.6,37.4l3.1,1.8l18.4-31.9c0.6-1,1.9-1.4,3-0.8
				c28.8,16.6-4.6-2.7,25.1,14.5c1,0.6,1.4,1.9,0.8,3l-18.4,31.9l3.1,1.8L53.9,371.2z M28,406.1l18.4-31.9c0.2-0.3,0.1-0.8-0.3-1
				l-10.1-5.8L17.3,400L28,406.1z M16.1,399.2l18.8-32.5l-2.5-1.4l-18.8,32.5L16.1,399.2z M12.3,397.1l18.8-32.5L21,358.8
				c-0.3-0.2-0.8-0.1-1,0.3L1.6,390.9L12.3,397.1z M55.2,371.9l-22,38c-0.2,0.3-0.6,0.5-1,0.3c-31.4-18.1-4.8-2.8-36.2-20.9
				c-0.3-0.2-0.5-0.6-0.3-1l22-38c0.8-1.4,2.6-1.8,3.9-1.1L54.1,368C55.5,368.8,56,370.6,55.2,371.9z"/>
		</g>
		<g>
			<path d="M407.1,24.7c0.4-0.7,0.2-1.6-0.5-2L374.1,4c-0.7-0.4-1.6-0.2-2,0.5l-21.6,37.4l3.1,1.8l18.4-31.9c0.6-1,1.9-1.4,3-0.8
				c28.8,16.6-4.6-2.7,25.1,14.5c1,0.6,1.4,1.9,0.8,3l-18.4,31.9l3.1,1.8L407.1,24.7z M381.2,59.6l18.4-31.9c0.2-0.3,0.1-0.8-0.3-1
				l-10.1-5.8l-18.8,32.5L381.2,59.6z M369.2,52.7L388,20.2l-2.5-1.4l-18.8,32.5L369.2,52.7z M365.5,50.5l18.8-32.5l-10.1-5.8
				c-0.3-0.2-0.8-0.1-1,0.3l-18.4,31.9L365.5,50.5z M408.3,25.4l-22,38c-0.2,0.3-0.6,0.5-1,0.3c-31.4-18.1-4.8-2.8-36.2-20.9
				c-0.3-0.2-0.5-0.6-0.3-1l22-38c0.8-1.4,2.6-1.8,3.9-1.1l32.5,18.8C408.6,22.3,409.1,24,408.3,25.4z"/>
		</g>
		<g>
			<path d="M407.1,57c0.4-0.7,0.2-1.6-0.5-2l-32.5-18.8c-0.7-0.4-1.6-0.2-2,0.5l-21.6,37.4l3.1,1.8l18.4-31.9c0.6-1,1.9-1.4,3-0.8
				c28.8,16.6-4.6-2.7,25.1,14.5c1,0.6,1.4,1.9,0.8,3l-18.4,31.9l3.1,1.8L407.1,57z M381.2,91.9l18.4-31.9c0.2-0.3,0.1-0.8-0.3-1
				l-10.1-5.8l-18.8,32.5L381.2,91.9z M369.2,85L388,52.6l-2.5-1.4l-18.8,32.5L369.2,85z M365.5,82.9l18.8-32.5l-10.1-5.8
				c-0.3-0.2-0.8-0.1-1,0.3l-18.4,31.9L365.5,82.9z M408.3,57.7l-22,38c-0.2,0.3-0.6,0.5-1,0.3c-31.4-18.1-4.8-2.8-36.2-20.9
				c-0.3-0.2-0.5-0.6-0.3-1l22-38c0.8-1.4,2.6-1.8,3.9-1.1l32.5,18.8C408.6,54.6,409.1,56.4,408.3,57.7z"/>
		</g>
		<g>
			<path d="M-302.4,45.8c0.4-0.7,0.2-1.6-0.5-2l-32.5-18.8c-0.7-0.4-1.6-0.2-2,0.5L-359,63l3.1,1.8l18.4-31.9c0.6-1,1.9-1.4,3-0.8
				c28.8,16.6-4.6-2.7,25.1,14.5c1,0.6,1.4,1.9,0.8,3L-327,81.5l3.1,1.8L-302.4,45.8z M-328.3,80.7l18.4-31.9c0.2-0.3,0.1-0.8-0.3-1
				l-10.1-5.8L-339,74.6L-328.3,80.7z M-340.2,73.9l18.8-32.5l-2.5-1.4l-18.8,32.5L-340.2,73.9z M-344,71.7l18.8-32.5l-10.1-5.8
				c-0.3-0.2-0.8-0.1-1,0.3l-18.4,31.9L-344,71.7z M-301.1,46.5l-22,38c-0.2,0.3-0.6,0.5-1,0.3c-31.4-18.1-4.8-2.8-36.2-20.9
				c-0.3-0.2-0.5-0.6-0.3-1l22-38c0.8-1.4,2.6-1.8,3.9-1.1l32.5,18.8C-300.8,43.4-300.3,45.2-301.1,46.5z"/>
		</g>
		<g>
			<path d="M-302.4,13.5c0.4-0.7,0.2-1.6-0.5-2l-32.5-18.8c-0.7-0.4-1.6-0.2-2,0.5L-359,30.7l3.1,1.8l18.4-31.9c0.6-1,1.9-1.4,3-0.8
				c28.8,16.6-4.6-2.7,25.1,14.5c1,0.6,1.4,1.9,0.8,3L-327,49.1l3.1,1.8L-302.4,13.5z M-328.3,48.4l18.4-31.9c0.2-0.3,0.1-0.8-0.3-1
				l-10.1-5.8L-339,42.2L-328.3,48.4z M-340.2,41.5L-321.5,9l-2.5-1.4l-18.8,32.5L-340.2,41.5z M-344,39.4l18.8-32.5L-335.3,1
				c-0.3-0.2-0.8-0.1-1,0.3l-18.4,31.9L-344,39.4z M-301.1,14.2l-22,38c-0.2,0.3-0.6,0.5-1,0.3c-31.4-18.1-4.8-2.8-36.2-20.9
				c-0.3-0.2-0.5-0.6-0.3-1l22-38c0.8-1.4,2.6-1.8,3.9-1.1l32.5,18.8C-300.8,11.1-300.3,12.8-301.1,14.2z"/>
		</g>
		<g>
			<path d="M426.2,24.7c0.4-0.7,0.2-1.6-0.5-2L393.2,4c-0.7-0.4-1.6-0.2-2,0.5l-21.6,37.4l3.1,1.8l18.4-31.9c0.6-1,1.9-1.4,3-0.8
				c28.8,16.6-4.6-2.7,25.1,14.5c1,0.6,1.4,1.9,0.8,3l-18.4,31.9l3.1,1.8L426.2,24.7z M400.3,59.6l18.4-31.9c0.2-0.3,0.1-0.8-0.3-1
				l-10.1-5.8l-18.8,32.5L400.3,59.6z M388.4,52.7l18.8-32.5l-2.5-1.4l-18.8,32.5L388.4,52.7z M384.6,50.5l18.8-32.5l-10.1-5.8
				c-0.3-0.2-0.8-0.1-1,0.3l-18.4,31.9L384.6,50.5z M427.5,25.4l-22,38c-0.2,0.3-0.6,0.5-1,0.3c-31.4-18.1-4.8-2.8-36.2-20.9
				c-0.3-0.2-0.5-0.6-0.3-1l22-38c0.8-1.4,2.6-1.8,3.9-1.1l32.5,18.8C427.8,22.3,428.3,24,427.5,25.4z"/>
		</g>
		<g>
			<path d="M426.2,57c0.4-0.7,0.2-1.6-0.5-2l-32.5-18.8c-0.7-0.4-1.6-0.2-2,0.5l-21.6,37.4l3.1,1.8l18.4-31.9c0.6-1,1.9-1.4,3-0.8
				c28.8,16.6-4.6-2.7,25.1,14.5c1,0.6,1.4,1.9,0.8,3l-18.4,31.9l3.1,1.8L426.2,57z M400.3,91.9l18.4-31.9c0.2-0.3,0.1-0.8-0.3-1
				l-10.1-5.8l-18.8,32.5L400.3,91.9z M388.4,85l18.8-32.5l-2.5-1.4l-18.8,32.5L388.4,85z M384.6,82.9l18.8-32.5l-10.1-5.8
				c-0.3-0.2-0.8-0.1-1,0.3l-18.4,31.9L384.6,82.9z M427.5,57.7l-22,38c-0.2,0.3-0.6,0.5-1,0.3c-31.4-18.1-4.8-2.8-36.2-20.9
				c-0.3-0.2-0.5-0.6-0.3-1l22-38c0.8-1.4,2.6-1.8,3.9-1.1l32.5,18.8C427.8,54.6,428.3,56.4,427.5,57.7z"/>
		</g>
		<g>
			<path d="M74.5-309.3c0.4-0.7,0.2-1.6-0.5-2L41.5-330c-0.7-0.4-1.6-0.2-2,0.5l-21.6,37.4l3.1,1.8l18.4-31.9c0.6-1,1.9-1.4,3-0.8
				c28.8,16.6-4.6-2.7,25.1,14.5c1,0.6,1.4,1.9,0.8,3l-18.4,31.9l3.1,1.8L74.5-309.3z M48.6-274.4L67-306.2c0.2-0.3,0.1-0.8-0.3-1
				L56.7-313l-18.8,32.5L48.6-274.4z M36.7-281.3l18.8-32.5l-2.5-1.4l-18.8,32.5L36.7-281.3z M32.9-283.4l18.8-32.5l-10.1-5.8
				c-0.3-0.2-0.8-0.1-1,0.3l-18.4,31.9L32.9-283.4z M75.8-308.6l-22,38c-0.2,0.3-0.6,0.5-1,0.3c-31.4-18.1-4.8-2.8-36.2-20.9
				c-0.3-0.2-0.5-0.6-0.3-1l22-38c0.8-1.4,2.6-1.8,3.9-1.1l32.5,18.8C76.1-311.7,76.6-309.9,75.8-308.6z"/>
		</g>
		<g>
			<path d="M-283.2,33.2c0.4-0.7,0.2-1.6-0.5-2l-32.5-18.8c-0.7-0.4-1.6-0.2-2,0.5l-21.6,37.4l3.1,1.8l18.4-31.9
				c0.6-1,1.9-1.4,3-0.8c28.8,16.6-4.6-2.7,25.1,14.5c1,0.6,1.4,1.9,0.8,3l-18.4,31.9l3.1,1.8L-283.2,33.2z M-309.1,68.2l18.4-31.9
				c0.2-0.3,0.1-0.8-0.3-1l-10.1-5.8L-319.8,62L-309.1,68.2z M-321.1,61.3l18.8-32.5l-2.5-1.4l-18.8,32.5L-321.1,61.3z M-324.8,59.1
				l18.8-32.5l-10.1-5.8c-0.3-0.2-0.8-0.1-1,0.3l-18.4,31.9L-324.8,59.1z M-282,34l-22,38c-0.2,0.3-0.6,0.5-1,0.3
				c-31.4-18.1-4.8-2.8-36.2-20.9c-0.3-0.2-0.5-0.6-0.3-1l22-38c0.8-1.4,2.6-1.8,3.9-1.1L-283,30C-281.6,30.8-281.2,32.6-282,34z"/>
		</g>
		<g>
			<path d="M78.5,371.2c0.4-0.7,0.2-1.6-0.5-2l-32.5-18.8c-0.7-0.4-1.6-0.2-2,0.5l-21.6,37.4l3.1,1.8l18.4-31.9c0.6-1,1.9-1.4,3-0.8
				c28.8,16.6-4.6-2.7,25.1,14.5c1,0.6,1.4,1.9,0.8,3l-18.4,31.9l3.1,1.8L78.5,371.2z M52.6,406.1L71,374.3c0.2-0.3,0.1-0.8-0.3-1
				l-10.1-5.8L41.9,400L52.6,406.1z M40.7,399.2l18.8-32.5l-2.5-1.4l-18.8,32.5L40.7,399.2z M36.9,397.1l18.8-32.5l-10.1-5.8
				c-0.3-0.2-0.8-0.1-1,0.3l-18.4,31.9L36.9,397.1z M79.8,371.9l-22,38c-0.2,0.3-0.6,0.5-1,0.3c-31.4-18.1-4.8-2.8-36.2-20.9
				c-0.3-0.2-0.5-0.6-0.3-1l22-38c0.8-1.4,2.6-1.8,3.9-1.1L78.7,368C80.1,368.8,80.5,370.6,79.8,371.9z"/>
		</g>
		<g>
			<path d="M432.2,24.7c0.4-0.7,0.2-1.6-0.5-2L399.2,4c-0.7-0.4-1.6-0.2-2,0.5l-21.6,37.4l3.1,1.8l18.4-31.9c0.6-1,1.9-1.4,3-0.8
				c28.8,16.6-4.6-2.7,25.1,14.5c1,0.6,1.4,1.9,0.8,3l-18.4,31.9l3.1,1.8L432.2,24.7z M406.3,59.6l18.4-31.9c0.2-0.3,0.1-0.8-0.3-1
				l-10.1-5.8l-18.8,32.5L406.3,59.6z M394.4,52.7l18.8-32.5l-2.5-1.4l-18.8,32.5L394.4,52.7z M390.6,50.5l18.8-32.5l-10.1-5.8
				c-0.3-0.2-0.8-0.1-1,0.3l-18.4,31.9L390.6,50.5z M433.5,25.4l-22,38c-0.2,0.3-0.6,0.5-1,0.3c-31.4-18.1-4.8-2.8-36.2-20.9
				c-0.3-0.2-0.5-0.6-0.3-1l22-38c0.8-1.4,2.6-1.8,3.9-1.1l32.5,18.8C433.8,22.3,434.3,24,433.5,25.4z"/>
		</g>
		<g>
			<path d="M432.2,57c0.4-0.7,0.2-1.6-0.5-2l-32.5-18.8c-0.7-0.4-1.6-0.2-2,0.5l-21.6,37.4l3.1,1.8l18.4-31.9c0.6-1,1.9-1.4,3-0.8
				c28.8,16.6-4.6-2.7,25.1,14.5c1,0.6,1.4,1.9,0.8,3l-18.4,31.9l3.1,1.8L432.2,57z M406.3,91.9l18.4-31.9c0.2-0.3,0.1-0.8-0.3-1
				l-10.1-5.8l-18.8,32.5L406.3,91.9z M394.4,85l18.8-32.5l-2.5-1.4l-18.8,32.5L394.4,85z M390.6,82.9l18.8-32.5l-10.1-5.8
				c-0.3-0.2-0.8-0.1-1,0.3l-18.4,31.9L390.6,82.9z M433.5,57.7l-22,38c-0.2,0.3-0.6,0.5-1,0.3c-31.4-18.1-4.8-2.8-36.2-20.9
				c-0.3-0.2-0.5-0.6-0.3-1l22-38c0.8-1.4,2.6-1.8,3.9-1.1l32.5,18.8C433.8,54.6,434.3,56.4,433.5,57.7z"/>
		</g>
		<g>
			<path d="M-276.3,39.3c0.4-0.7,0.2-1.6-0.5-2l-32.5-18.8c-0.7-0.4-1.6-0.2-2,0.5l-21.6,37.4l3.1,1.8l18.4-31.9
				c0.6-1,1.9-1.4,3-0.8c28.8,16.6-4.6-2.7,25.1,14.5c1,0.6,1.4,1.9,0.8,3L-301,74.9l3.1,1.8L-276.3,39.3z M-302.2,74.2l18.4-31.9
				c0.2-0.3,0.1-0.8-0.3-1l-10.1-5.8L-312.9,68L-302.2,74.2z M-314.2,67.3l18.8-32.5l-2.5-1.4l-18.8,32.5L-314.2,67.3z M-317.9,65.2
				l18.8-32.5l-10.1-5.8c-0.3-0.2-0.8-0.1-1,0.3L-328.6,59L-317.9,65.2z M-275.1,40l-22,38c-0.2,0.3-0.6,0.5-1,0.3
				c-31.4-18.1-4.8-2.8-36.2-20.9c-0.3-0.2-0.5-0.6-0.3-1l22-38c0.8-1.4,2.6-1.8,3.9-1.1l32.5,18.8C-274.7,36.9-274.3,38.6-275.1,40
				z"/>
		</g>
		<g>
			<path d="M-276.3,6.9c0.4-0.7,0.2-1.6-0.5-2l-32.5-18.8c-0.7-0.4-1.6-0.2-2,0.5l-21.6,37.4l3.1,1.8L-311.4-6c0.6-1,1.9-1.4,3-0.8
				c28.8,16.6-4.6-2.7,25.1,14.5c1,0.6,1.4,1.9,0.8,3L-301,42.6l3.1,1.8L-276.3,6.9z M-302.2,41.9l18.4-31.9c0.2-0.3,0.1-0.8-0.3-1
				l-10.1-5.8l-18.8,32.5L-302.2,41.9z M-314.2,35l18.8-32.5l-2.5-1.4l-18.8,32.5L-314.2,35z M-317.9,32.8l18.8-32.5l-10.1-5.8
				c-0.3-0.2-0.8-0.1-1,0.3l-18.4,31.9L-317.9,32.8z M-275.1,7.7l-22,38c-0.2,0.3-0.6,0.5-1,0.3c-31.4-18.1-4.8-2.8-36.2-20.9
				c-0.3-0.2-0.5-0.6-0.3-1l22-38c0.8-1.4,2.6-1.8,3.9-1.1l32.5,18.8C-274.7,4.5-274.3,6.3-275.1,7.7z"/>
		</g>
		<g>
			<path d="M68.4,361.3c0.4-0.7,0.2-1.6-0.5-2l-32.5-18.8c-0.7-0.4-1.6-0.2-2,0.5l-21.6,37.4l3.1,1.8l18.4-31.9c0.6-1,1.9-1.4,3-0.8
				c28.8,16.6-4.6-2.7,25.1,14.5c1,0.6,1.4,1.9,0.8,3L43.7,397l3.1,1.8L68.4,361.3z M42.5,396.2l18.4-31.9c0.2-0.3,0.1-0.8-0.3-1
				l-10.1-5.8l-18.8,32.5L42.5,396.2z M30.6,389.3l18.8-32.5l-2.5-1.4l-18.8,32.5L30.6,389.3z M26.8,387.2l18.8-32.5l-10.1-5.8
				c-0.3-0.2-0.8-0.1-1,0.3L16.1,381L26.8,387.2z M69.6,362l-22,38c-0.2,0.3-0.6,0.5-1,0.3c-31.4-18.1-4.8-2.8-36.2-20.9
				c-0.3-0.2-0.5-0.6-0.3-1l22-38c0.8-1.4,2.6-1.8,3.9-1.1l32.5,18.8C70,358.9,70.4,360.7,69.6,362z"/>
		</g>
		<g>
			<path d="M36.1,361.3c0.4-0.7,0.2-1.6-0.5-2L3,340.6c-0.7-0.4-1.6-0.2-2,0.5l-21.6,37.4l3.1,1.8l18.4-31.9c0.6-1,1.9-1.4,3-0.8
				c28.8,16.6-4.6-2.7,25.1,14.5c1,0.6,1.4,1.9,0.8,3L11.4,397l3.1,1.8L36.1,361.3z M10.2,396.2l18.4-31.9c0.2-0.3,0.1-0.8-0.3-1
				l-10.1-5.8l-18.8,32.5L10.2,396.2z M-1.8,389.3L17,356.9l-2.5-1.4l-18.8,32.5L-1.8,389.3z M-5.5,387.2l18.8-32.5l-10.1-5.8
				c-0.3-0.2-0.8-0.1-1,0.3L-16.2,381L-5.5,387.2z M37.3,362l-22,38c-0.2,0.3-0.6,0.5-1,0.3c-31.4-18.1-4.8-2.8-36.2-20.9
				c-0.3-0.2-0.5-0.6-0.3-1l22-38c0.8-1.4,2.6-1.8,3.9-1.1l32.5,18.8C37.6,358.9,38.1,360.7,37.3,362z"/>
		</g>
		<g>
			<path d="M400.2,26.3c0.4-0.7,0.2-1.6-0.5-2L367.2,5.6c-0.7-0.4-1.6-0.2-2,0.5l-21.6,37.4l3.1,1.8L365,13.5c0.6-1,1.9-1.4,3-0.8
				c28.8,16.6-4.6-2.7,25.1,14.5c1,0.6,1.4,1.9,0.8,3L375.5,62l3.1,1.8L400.2,26.3z M374.3,61.3l18.4-31.9c0.2-0.3,0.1-0.8-0.3-1
				l-10.1-5.8l-18.8,32.5L374.3,61.3z M362.3,54.4l18.8-32.5l-2.5-1.4l-18.8,32.5L362.3,54.4z M358.6,52.2l18.8-32.5l-10.1-5.8
				c-0.3-0.2-0.8-0.1-1,0.3L347.9,46L358.6,52.2z M401.4,27.1l-22,38c-0.2,0.3-0.6,0.5-1,0.3c-31.4-18.1-4.8-2.8-36.2-20.9
				c-0.3-0.2-0.5-0.6-0.3-1l22-38c0.8-1.4,2.6-1.8,3.9-1.1l32.5,18.8C401.7,23.9,402.2,25.7,401.4,27.1z"/>
		</g>
		<g>
			<path d="M294.6-202c0.4-0.7,0.2-1.6-0.5-2l-32.5-18.8c-0.7-0.4-1.6-0.2-2,0.5L238-184.8l3.1,1.8l18.4-31.9c0.6-1,1.9-1.4,3-0.8
				c28.8,16.6-4.6-2.7,25.1,14.5c1,0.6,1.4,1.9,0.8,3l-18.4,31.9l3.1,1.8L294.6-202z M268.7-167.1l18.4-31.9c0.2-0.3,0.1-0.8-0.3-1
				l-10.1-5.8L258-173.2L268.7-167.1z M256.7-174l18.8-32.5l-2.5-1.4l-18.8,32.5L256.7-174z M253-176.1l18.8-32.5l-10.1-5.8
				c-0.3-0.2-0.8-0.1-1,0.3l-18.4,31.9L253-176.1z M295.8-201.3l-22,38c-0.2,0.3-0.6,0.5-1,0.3c-31.4-18.1-4.8-2.8-36.2-20.9
				c-0.3-0.2-0.5-0.6-0.3-1l22-38c0.8-1.4,2.6-1.8,3.9-1.1l32.5,18.8C296.1-204.4,296.6-202.7,295.8-201.3z"/>
		</g>
		<g>
			<path d="M-327.5,27.9c0.4-0.7,0.2-1.6-0.5-2l-32.5-18.8c-0.7-0.4-1.6-0.2-2,0.5l-21.6,37.4l3.1,1.8l18.4-31.9
				c0.6-1,1.9-1.4,3-0.8c28.8,16.6-4.6-2.7,25.1,14.5c1,0.6,1.4,1.9,0.8,3l-18.4,31.9l3.1,1.8L-327.5,27.9z M-353.4,62.8L-335,31
				c0.2-0.3,0.1-0.8-0.3-1l-10.1-5.8l-18.8,32.5L-353.4,62.8z M-365.4,55.9l18.8-32.5l-2.5-1.4l-18.8,32.5L-365.4,55.9z
				 M-369.1,53.8l18.8-32.5l-10.1-5.8c-0.3-0.2-0.8-0.1-1,0.3l-18.4,31.9L-369.1,53.8z M-326.3,28.6l-22,38c-0.2,0.3-0.6,0.5-1,0.3
				c-31.4-18.1-4.8-2.8-36.2-20.9c-0.3-0.2-0.5-0.6-0.3-1l22-38c0.8-1.4,2.6-1.8,3.9-1.1l32.5,18.8C-326,25.5-325.5,27.2-326.3,28.6
				z"/>
		</g>
		<g>
			<path d="M47.9-363.4c0.4-0.7,0.2-1.6-0.5-2l-32.5-18.8c-0.7-0.4-1.6-0.2-2,0.5l-21.6,37.4l3.1,1.8l18.4-31.9c0.6-1,1.9-1.4,3-0.8
				c28.8,16.6-4.6-2.7,25.1,14.5c1,0.6,1.4,1.9,0.8,3l-18.4,31.9l3.1,1.8L47.9-363.4z M22-328.5l18.4-31.9c0.2-0.3,0.1-0.8-0.3-1
				L30-367.1l-18.8,32.5L22-328.5z M10-335.4l18.8-32.5l-2.5-1.4L7.5-336.8L10-335.4z M6.3-337.5L25-370L15-375.8
				c-0.3-0.2-0.8-0.1-1,0.3l-18.4,31.9L6.3-337.5z M49.1-362.7l-22,38c-0.2,0.3-0.6,0.5-1,0.3c-31.4-18.1-4.8-2.8-36.2-20.9
				c-0.3-0.2-0.5-0.6-0.3-1l22-38c0.8-1.4,2.6-1.8,3.9-1.1l32.5,18.8C49.4-365.8,49.9-364,49.1-362.7z"/>
		</g>
		<g>
			<path d="M77.7-363.4c0.4-0.7,0.2-1.6-0.5-2l-32.5-18.8c-0.7-0.4-1.6-0.2-2,0.5l-21.6,37.4l3.1,1.8l18.4-31.9c0.6-1,1.9-1.4,3-0.8
				c28.8,16.6-4.6-2.7,25.1,14.5c1,0.6,1.4,1.9,0.8,3L53-327.7l3.1,1.8L77.7-363.4z M51.8-328.5l18.4-31.9c0.2-0.3,0.1-0.8-0.3-1
				l-10.1-5.8l-18.8,32.5L51.8-328.5z M39.8-335.4l18.8-32.5l-2.5-1.4l-18.8,32.5L39.8-335.4z M36.1-337.5L54.9-370l-10.1-5.8
				c-0.3-0.2-0.8-0.1-1,0.3l-18.4,31.9L36.1-337.5z M78.9-362.7l-22,38c-0.2,0.3-0.6,0.5-1,0.3c-31.4-18.1-4.8-2.8-36.2-20.9
				c-0.3-0.2-0.5-0.6-0.3-1l22-38c0.8-1.4,2.6-1.8,3.9-1.1l32.5,18.8C79.3-365.8,79.7-364,78.9-362.7z"/>
		</g>
		<g>
			<path d="M451.4,29.6c0.4-0.7,0.2-1.6-0.5-2L418.4,8.8c-0.7-0.4-1.6-0.2-2,0.5l-21.6,37.4l3.1,1.8l18.4-31.9c0.6-1,1.9-1.4,3-0.8
				c28.8,16.6-4.6-2.7,25.1,14.5c1,0.6,1.4,1.9,0.8,3l-18.4,31.9l3.1,1.8L451.4,29.6z M425.5,64.5l18.4-31.9c0.2-0.3,0.1-0.8-0.3-1
				l-10.1-5.8l-18.8,32.5L425.5,64.5z M413.5,57.6l18.8-32.5l-2.5-1.4l-18.8,32.5L413.5,57.6z M409.8,55.4L428.6,23l-10.1-5.8
				c-0.3-0.2-0.8-0.1-1,0.3l-18.4,31.9L409.8,55.4z M452.6,30.3l-22,38c-0.2,0.3-0.6,0.5-1,0.3c-31.4-18.1-4.8-2.8-36.2-20.9
				c-0.3-0.2-0.5-0.6-0.3-1l22-38c0.8-1.4,2.6-1.8,3.9-1.1l32.5,18.8C453,27.2,453.4,28.9,452.6,30.3z"/>
		</g>
		<g>
			<path d="M90-309.3c0.4-0.7,0.2-1.6-0.5-2L57-330c-0.7-0.4-1.6-0.2-2,0.5l-21.6,37.4l3.1,1.8l18.4-31.9c0.6-1,1.9-1.4,3-0.8
				c28.8,16.6-4.6-2.7,25.1,14.5c1,0.6,1.4,1.9,0.8,3l-18.4,31.9l3.1,1.8L90-309.3z M64.1-274.4l18.4-31.9c0.2-0.3,0.1-0.8-0.3-1
				L72.1-313l-18.8,32.5L64.1-274.4z M52.1-281.3l18.8-32.5l-2.5-1.4l-18.8,32.5L52.1-281.3z M48.4-283.4l18.8-32.5l-10.1-5.8
				c-0.3-0.2-0.8-0.1-1,0.3l-18.4,31.9L48.4-283.4z M91.2-308.6l-22,38c-0.2,0.3-0.6,0.5-1,0.3c-31.4-18.1-4.8-2.8-36.2-20.9
				c-0.3-0.2-0.5-0.6-0.3-1l22-38c0.8-1.4,2.6-1.8,3.9-1.1l32.5,18.8C91.6-311.7,92-309.9,91.2-308.6z"/>
		</g>
	</g>
</g>
<path class="st0" d="M37.5,4.9c-1.1,0-2,0.9-2,2c0,1.1,0.9,2,2,2c1.1,0,2-0.9,2-2C39.5,5.8,38.6,4.9,37.5,4.9z M30.5,4.9
	c-1.1,0-2,0.9-2,2c0,1.1,0.9,2,2,2c1.1,0,2-0.9,2-2C32.5,5.8,31.6,4.9,30.5,4.9z M49.4,25.9l-1.8,1.8v-7.2c0-0.6-0.4-1-1-1
	c-0.6,0-1,0.4-1,1v7.2l-1.8-1.8c-0.4-0.4-1-0.4-1.4,0c-0.4,0.4-0.4,1,0,1.4l3.5,3.5c0.2,0.2,0.4,0.3,0.7,0.3s0.5-0.1,0.7-0.3
	l3.5-3.5c0.4-0.4,0.4-1,0-1.4C50.4,25.5,49.8,25.5,49.4,25.9z M25.7,23.4l-3.5-3.5c-0.2-0.2-0.4-0.3-0.7-0.3c-0.3,0-0.5,0.1-0.7,0.3
	l-3.5,3.5c-0.4,0.4-0.4,1,0,1.4c0.4,0.4,1,0.4,1.4,0l1.8-1.8v7.2c0,0.6,0.4,1,1,1c0.6,0,1-0.4,1-1V23l1.8,1.8c0.4,0.4,1,0.4,1.4,0
	C26.1,24.4,26.1,23.8,25.7,23.4z"/>
</svg>
