<?xml version="1.0" ?><svg id="Layer_1" style="enable-background:new 0 0 512 512;" version="1.1" viewBox="0 0 512 512" xml:space="preserve" xmlns="http://www.w3.org/2000/svg" xmlns:xlink="http://www.w3.org/1999/xlink"><style type="text/css">
	.st0{fill:#fff;}
</style><g><path class="st0" d="M478.4,24.7c-1.1-0.9-2.5-1.4-3.9-1.2l-95.7,12.7l-7.8,1c-2.4,0.3-4.3,2.4-4.3,4.9v17.6h-48.4V49.4   c0-2.7-2.2-4.9-4.9-4.9h-90.7c-2.7,0-4.9,2.2-4.9,4.9v10.3l-27.3,0c-2.1-0.1-29.7-0.6-61.7,10c-43.5,14.5-74.1,43.1-88.3,82.6   c-13.5,37.6-10.8,90.1,8,155.9c9.7,34,23.3,69.8,40.3,106.6c0.6,1.4,1.3,2.7,1.4,3c0.8,1.9,2.6,3.1,4.5,3.1c0.6,0,1.2-0.1,1.8-0.4   c2.5-1,3.7-3.9,2.7-6.4c-0.2-0.5-0.6-1.4-1.6-3.5C74,359.8,22,232.6,49.7,155.8c13.3-37.1,40.9-62.8,81.9-76.6   c31-10.4,58.4-9.6,58.7-9.6c0.1,0,0.1,0,0.2,0l27.4,0v10.3c0,2.7,2.2,4.9,4.9,4.9h40.4v15.7c-52.1,1.3-94,44.1-94,96.5v286.7   c0,2.7,2.2,4.9,4.9,4.9h188c2.7,0,4.9-2.2,4.9-4.9V196.9c0-52.4-41.9-95.1-94-96.5V84.8h40.4c2.7,0,4.9-2.2,4.9-4.9V69.5h48.4v17.6   c0,2.5,1.8,4.5,4.3,4.9l103.5,13.7c0.2,0,0.4,0,0.6,0c1.2,0,2.3-0.4,3.2-1.2c1.1-0.9,1.7-2.3,1.7-3.7V28.4   C480,27,479.4,25.6,478.4,24.7z M357.1,196.9v281.8H178.9V196.9c0-47.8,38.9-86.7,86.7-86.7h4.8   C318.2,110.2,357.1,149.1,357.1,196.9z M308.5,75h-80.9V54.3h80.9V75z M470.2,95.3l-93.7-12.4V46.4L470.2,34V95.3z"/><path class="st0" d="M213.7,235.1v157.4c0,2.7,2.2,4.9,4.9,4.9h99c2.7,0,4.9-2.2,4.9-4.9V235.1c0-2.7-2.2-4.9-4.9-4.9h-99   C215.9,230.3,213.7,232.4,213.7,235.1z M223.4,240h89.2v147.6h-89.2V240z"/></g></svg>