<?xml version="1.0" ?><!DOCTYPE svg  PUBLIC '-//W3C//DTD SVG 1.1//EN'  'http://www.w3.org/Graphics/SVG/1.1/DTD/svg11.dtd'><svg enable-background="new 0 0 512 512" height="512px" id="icon" version="1.1" viewBox="0 0 512 512" width="512px" xml:space="preserve" xmlns="http://www.w3.org/2000/svg" xmlns:xlink="http://www.w3.org/1999/xlink"><g><path d="M451.237,477.316V25.737H204.393v85.916H67.813v35.307v4.474v325.882H47.835v8.947h416.33v-8.947H451.237z    M314.537,477.316H76.761V151.434h110.066h127.71V477.316z M314.537,142.492h-127.71H76.761v-21.897h237.776V142.492z    M442.289,477.316H323.474V151.434v-4.474v-35.307H213.329V34.679h228.96V477.316z" fill="#000"/><path d="M104.042,230.601h18.904h32.127V179.57h-51.031V230.601z M112.989,188.512h33.148v33.147h-23.191h-9.957   V188.512z" fill="#000"/><path d="M104.042,303.16h18.904h32.127v-51.024h-51.031V303.16z M112.989,261.078h33.148v33.145h-23.191h-9.957   V261.078z" fill="#000"/><path d="M104.042,376.625h18.904h32.127v-51.031h-51.031V376.625z M112.989,334.529h33.148v33.148h-23.191h-9.957   V334.529z" fill="#000"/><path d="M104.042,449.18h18.904h32.127v-51.031h-51.031V449.18z M112.989,407.096h33.148v33.137h-23.191h-9.957   V407.096z" fill="#000"/><path d="M175.018,230.601h18.893h32.139V179.57h-51.031V230.601z M183.965,188.512h33.147v33.147h-23.202h-9.945   V188.512z" fill="#000"/><path d="M175.018,303.16h18.893h32.139v-51.029h-51.031V303.16z M183.965,261.073h33.147v33.149h-23.202h-9.945   V261.073z" fill="#000"/><path d="M175.018,376.613h18.893h32.139v-51.031h-51.031V376.613z M183.965,334.529h33.147v33.148h-23.202h-9.945   V334.529z" fill="#000"/><path d="M175.018,449.18h18.893h32.139v-51.031h-51.031V449.18z M183.965,407.086h33.147v33.146h-23.202h-9.945   V407.086z" fill="#000"/><path d="M421.873,121.313V70.282h-78.695v51.032h28.388H421.873z M352.125,79.224h60.812v33.148h-41.371h-19.44   V79.224z" fill="#000"/><path d="M421.873,193.874v-51.031h-78.695v51.031h28.388H421.873z M352.125,151.785h60.812v33.147h-41.371h-19.44   V151.785z" fill="#000"/><path d="M421.873,267.326v-51.023h-78.695v51.023h28.388H421.873z M352.125,225.245h60.812v33.142h-41.371h-19.44   V225.245z" fill="#000"/><path d="M421.873,339.893v-51.031h-78.695v51.031h28.388H421.873z M352.125,297.809h60.812v33.137h-41.371h-19.44   V297.809z" fill="#000"/><path d="M421.873,418.707v-51.029h-78.695v51.029h28.388H421.873z M352.125,376.625h60.812v33.135h-41.371h-19.44   V376.625z" fill="#000"/></g></svg>