<?xml version="1.0" encoding="utf-8"?>
<!-- Generator: Adobe Illustrator 24.0.1, SVG Export Plug-In . SVG Version: 6.00 Build 0)  -->
<svg version="1.1" id="Layer_1" xmlns="http://www.w3.org/2000/svg" xmlns:xlink="http://www.w3.org/1999/xlink" x="0px" y="0px"
	 viewBox="0 0 612 792" style="enable-background:new 0 0 612 792;" xml:space="preserve">
<style type="text/css">
	.st0{fill:none;stroke:#587289;stroke-width:7;stroke-miterlimit:10;}
</style>
<g id="secure_parking">
	<g>
		<path class="st0" d="M193.4,323.6c1.7,0.2,3.9,0.4,6.4,0.4c11.1,0,20.7-2.8,27.1-9c4.9-4.8,7.7-11.9,7.7-20.3s-3.6-15.5-8.9-19.8
			c-5.5-4.6-13.8-6.8-25.5-6.8c-11.5,0-19.7,0.8-25.5,1.8v84.3h18.7V323.6z M193.3,283.4L193.3,283.4c1.4-0.4,3.9-0.8,7.8-0.8
			c9.4,0,14.7,4.7,14.7,12.5c0,8.7-6.2,13.9-16.2,13.9c-2.7,0-4.7-0.1-6.3-0.5V283.4z M158.1,380.6h93c11.8,0,21.3-9.8,21.3-21.8
			v-95.3c0-12-9.5-21.8-21.3-21.8h-93c-11.8,0-21.3,9.8-21.3,21.8v95.3C136.8,370.8,146.4,380.6,158.1,380.6z M153.6,264.8
			c0-3.3,2.6-5.9,5.7-5.9h90.4c3.2,0,5.7,2.6,5.7,5.9v92.7c0,3.3-2.6,5.9-5.7,5.9h-90.4c-3.2,0-5.7-2.6-5.7-5.9L153.6,264.8
			L153.6,264.8z M223.1,494.7c-20.6,0-37.2,17.1-37.2,38.1c0,21.1,16.7,38.1,37.2,38.1s37.2-17.1,37.2-38.1
			C260.2,511.7,243.6,494.7,223.1,494.7z M223.1,544.3c-6.2,0-11.2-5.2-11.2-11.5s5.1-11.5,11.2-11.5c6.2,0,11.2,5.2,11.2,11.5
			S229.2,544.3,223.1,544.3z M493.8,501.6l-6.1-50.7c-1.2-9.7-9.5-16.9-19.1-16.3l-13.3,0.7L414,397c-4-3.7-9.1-5.7-14.5-5.7h-84.1
			c-18.9,0-37.2,6.6-51.9,18.7l-46.9,38.6l-63.1,16.1c-8.1,2.1-13.8,9.5-13.8,18.1v18.6c-2.7,0-4.8,2.2-4.8,5V531
			c0,3.5,2.8,6.4,6.2,6.4h35.6c-0.2-1.6-0.5-3.1-0.5-4.7c0-26.5,20.9-47.9,46.8-47.9c25.8,0,46.8,21.5,46.8,47.9
			c0,1.6-0.3,3.1-0.5,4.7H368c-0.2-1.6-0.5-3.1-0.5-4.7c0-26.5,21-47.9,46.8-47.9s46.8,21.5,46.8,47.9c0,1.6-0.3,3.1-0.5,4.7h33.2
			c3.4,0,6.2-2.8,6.2-6.4v-23.2C500,504.4,497.2,501.6,493.8,501.6z M369.1,439.2l-117.3,6.1l22.5-18.5c12.2-10.1,27.4-15.5,43-15.5
			h51.8L369.1,439.2L369.1,439.2z M388.5,438.2v-26.9h7.6c2.6,0,5.2,1,7.1,2.8l23.9,22.1L388.5,438.2z M414.3,494.7
			c-20.6,0-37.2,17.1-37.2,38.1c0,21.1,16.7,38.1,37.2,38.1s37.2-17.1,37.2-38.1C451.5,511.7,434.8,494.7,414.3,494.7z M414.3,544.3
			c-6.2,0-11.2-5.2-11.2-11.5s5.1-11.5,11.2-11.5c6.2,0,11.2,5.2,11.2,11.5S420.5,544.3,414.3,544.3z"/>
	</g>
</g>
</svg>
