<?xml version="1.0" ?><svg id="Layer_1" style="enable-background:new 0 0 68 68;" version="1.1" viewBox="0 0 68 68" xml:space="preserve" xmlns="http://www.w3.org/2000/svg" xmlns:xlink="http://www.w3.org/1999/xlink"><style type="text/css">
	.st0{fill:none;stroke:#000000;stroke-width:2;stroke-linecap:round;stroke-linejoin:round;stroke-miterlimit:10;}
</style><g><path class="st0" d="M62.5625,40.7919884H5.4375c-1.8984787,0-3.4375-1.5390205-3.4375-3.4375V17.0855217   c0-1.8984795,1.5390213-3.4375,3.4375-3.4375h57.125c1.8984756,0,3.4375,1.5390205,3.4375,3.4375v20.2689667   C66,39.2529678,64.4609756,40.7919884,62.5625,40.7919884z"/><g><rect class="st0" height="14.1945524" width="50.0544739" x="8.9727631" y="26.5974369"/><g><line class="st0" x1="13.8910503" x2="54.1089478" y1="31.55723" y2="31.55723"/><line class="st0" x1="13.8910503" x2="54.1089478" y1="35.8321991" y2="35.8321991"/></g></g><g><path class="st0" d="M14.3001928,46.2706528c0,0-1.5596571,2.1724014-0.8773069,3.3020477    c0.6823492,1.1296463,1.1919813,2.8675652,0.352294,4.7792778"/><path class="st0" d="M24.4126034,46.2706528c0,0-1.5596581,2.1724014-0.8773079,3.3020477    s1.1919804,2.8675652,0.3522949,4.7792778"/><path class="st0" d="M34.525013,46.2706528c0,0-1.5596581,2.1724014-0.8773079,3.3020477S34.8396873,52.4402657,34,54.3519783"/><path class="st0" d="M44.6374207,46.2706528c0,0-1.5596542,2.1724014-0.8773041,3.3020477    s1.1919785,2.8675652,0.3522949,4.7792778"/><path class="st0" d="M54.7498322,46.2706528c0,0-1.5596542,2.1724014-0.8773079,3.3020477    c0.6823502,1.1296463,1.1919823,2.8675652,0.3522949,4.7792778"/></g><g><path d="M60.409317,17.3542747c-0.7037125,0-1.2742271,0.5705166-1.2742271,1.2742844s0.5705147,1.2741756,1.2742271,1.2741756    c0.7037163,0,1.274231-0.5704079,1.274231-1.2741756S61.1130333,17.3542747,60.409317,17.3542747z"/><path d="M56.2481842,17.3542747c-0.7037125,0-1.2741737,0.5705166-1.2741737,1.2742844s0.5704613,1.2741756,1.2741737,1.2741756    c0.7037697,0,1.274231-0.5704079,1.274231-1.2741756S56.9519539,17.3542747,56.2481842,17.3542747z"/></g></g></svg>