<?xml version="1.0" encoding="utf-8"?>
<!-- Generator: Adobe Illustrator 24.0.1, SVG Export Plug-In . SVG Version: 6.00 Build 0)  -->
<svg version="1.1" id="Layer_1" xmlns="http://www.w3.org/2000/svg" xmlns:xlink="http://www.w3.org/1999/xlink" x="0px" y="0px"
	 viewBox="0 0 612 792" style="enable-background:new 0 0 612 792;" xml:space="preserve">
<style type="text/css">
	.st0{fill:none;stroke:#000;stroke-width:5;stroke-miterlimit:10;}
</style>
<g id="Forma_1_3_">
	<g>
		<path class="st0" d="M184.7,565.6c-5.1,10.5-12.9,19.5-24.5,21.4c-3.6-3.1-8.2-5-13.3-5c-11.3,0-20.5,9.1-20.5,20.4
			c0,11.3,9.2,20.4,20.5,20.4c8,0,14.9-4.7,18.3-11.4c22.4-4.4,37.7-24.6,46.4-45.4h-11.8C194.6,565.9,189.6,565.8,184.7,565.6z
			 M484.2,581.9c-4.5,0-8.7,1.5-12,4c-9.9-3.3-17.1-12-22-21.7c-7.6,1.3-14.3,1.7-19.4,1.7h-8.9c7.1,19.6,20.4,38.6,43.5,44.5
			c3.1,7.3,10.4,12.4,18.8,12.4c11.3,0,20.5-9.1,20.5-20.4C504.6,591.1,495.5,581.9,484.2,581.9z M450.7,232.8L408.8,191
			c-7.7,2-31.2,17.1-38.3,24.5l55.6,55.6C433.5,264,448.6,240.8,450.7,232.8z M371.2,248.4c1.1,0,2.1-0.4,2.9-1.2l5.9-5.9
			c0.4-0.4,0.6-0.8,0.8-1.3c0.7-1.5,0.4-3.4-0.8-4.6c-1.2-1.3-3.1-1.5-4.6-0.8c-0.4,0.2-0.9,0.5-1.3,0.8l-5.9,5.9
			c-1.6,1.6-1.6,4.3,0,5.9C369.1,248,370.2,248.4,371.2,248.4z M353.6,266c1.1,0,2.1-0.4,2.9-1.2l5.9-5.9c1.6-1.6,1.6-4.3,0-5.9
			c-1.6-1.6-4.3-1.6-5.9,0l-5.9,5.9c-1.6,1.6-1.6,4.3,0,5.9C351.4,265.6,352.5,266,353.6,266z M335.9,283.7c1.1,0,2.1-0.4,2.9-1.2
			l5.9-5.9c1.6-1.6,1.6-4.3,0-5.9c-1.6-1.6-4.3-1.6-5.9,0l-5.9,5.9c-1.6,1.6-1.6,4.3,0,5.9C333.8,283.3,334.8,283.7,335.9,283.7z
			 M392.7,251.8c0.7-1.5,0.4-3.4-0.8-4.6c-1.3-1.3-3.1-1.5-4.6-0.8c-0.4,0.2-0.9,0.5-1.3,0.8l-5.9,5.9c-1.6,1.6-1.6,4.3,0,5.9
			c0.8,0.8,1.9,1.2,2.9,1.2c1.1,0,2.1-0.4,2.9-1.2l5.9-5.9C392.2,252.7,392.5,252.3,392.7,251.8z M374.2,264.8
			c-1.6-1.6-4.3-1.6-5.9,0l-5.9,5.9c-1.6,1.6-1.6,4.3,0,5.9c0.8,0.8,1.9,1.2,2.9,1.2c1.1,0,2.1-0.4,2.9-1.2l5.9-5.9
			C375.8,269.1,375.8,266.4,374.2,264.8z M356.5,282.5c-1.6-1.6-4.3-1.6-5.9,0l-5.9,5.9c-1.6,1.6-1.6,4.3,0,5.9
			c0.8,0.8,1.9,1.2,2.9,1.2s2.1-0.4,2.9-1.2l5.9-5.9C358.1,286.7,358.1,284.1,356.5,282.5z M394.8,271.9c1.1,0,2.1-0.4,2.9-1.2
			l5.9-5.9c0.4-0.4,0.6-0.8,0.8-1.3c0.7-1.5,0.4-3.4-0.8-4.6c-1.2-1.3-3.1-1.5-4.6-0.8c-0.4,0.2-0.9,0.5-1.3,0.8l-5.9,5.9
			c-1.6,1.6-1.6,4.3,0,5.9C392.6,271.5,393.7,271.9,394.8,271.9z M377.1,289.6c1.1,0,2.1-0.4,2.9-1.2l5.9-5.9c1.6-1.6,1.6-4.3,0-5.9
			c-1.6-1.6-4.3-1.6-5.9,0l-5.9,5.9c-1.6,1.6-1.6,4.3,0,5.9C375,289.2,376,289.6,377.1,289.6z M359.4,307.2c1.1,0,2.1-0.4,2.9-1.2
			l5.9-5.9c1.6-1.6,1.6-4.3,0-5.9c-1.6-1.6-4.3-1.6-5.9,0l-5.9,5.9c-1.6,1.6-1.6,4.3,0,5.9C357.3,306.8,358.4,307.2,359.4,307.2z
			 M547.3,358h-25V166.8c0-4.6-3.7-8.3-8.3-8.3h-36.2c-2.1,0-4.1,0.8-5.6,2.2l-29.9,27.5c-6.8-1.7-14.6,0.6-19.4,2.5l28.6,28.6
			c2.1-5.3,4-12.6,2.4-19.2l27.2-25h24.6v183h-433c-9.2,0-16.7,7.4-16.7,16.6v16.6c0,9.2,7.5,16.6,16.7,16.6H83
			c1.3,6.4,2.9,13.8,5,22.4l11.7,55.8c16.3,60.3,49.3,70.1,88.5,71.3c3.8,0.1,7.6,0.2,11.5,0.2h15l204.5,0c0,0,0-0.1,0-0.1
			c0,0,0,0.1,0,0.1h11.6c4.7,0,10.1-0.3,15.9-1.2c25.6-3.8,58.9-18.4,74.4-66l18.9-82.5h7.3c0.4,0,0.9-0.1,1.3-0.1
			c8.6-0.7,15.3-7.8,15.3-16.5v-16.6C563.9,365.5,556.5,358,547.3,358z"/>
	</g>
</g>
</svg>
