<?xml version="1.0" ?><svg id="Layer_1" style="enable-background:new 0 0 64 64;" version="1.1" viewBox="0 0 64 64" xml:space="preserve" xmlns="http://www.w3.org/2000/svg" xmlns:xlink="http://www.w3.org/1999/xlink"><style type="text/css">
	.st0{fill:#000;}
	.st1{fill:#000;}
	.st2{fill:#000;}
</style><path class="st0" d="M62.1,47h-0.1V35.2c0-2-1.4-3.7-3.3-4.2V4.9c0-0.5-0.4-1-1-1h-3.8c-0.5,0-1,0.4-1,1v9.4c-3-0.1-5.3-1.2-6.9-3.3  c-2.4-3.1-5-4.8-7.8-4.8c-2.9,0-5.1,1.7-6.2,2.7c-1.1-1.1-3.4-2.8-6.3-2.7C22.9,6.3,20.4,7.9,18,11c-1.6,2.1-3.9,3.2-6.9,3.3V4.9  c0-0.5-0.4-1-1-1H6.3c-0.5,0-1,0.4-1,1V31c-1.9,0.5-3.3,2.2-3.3,4.2V47H1.9C0.9,47,0,47.9,0,49v2.7c0,1.1,0.9,1.9,1.9,1.9h2.8v5.5  c0,0.5,0.4,1,1,1h5.1c0.5,0,1-0.4,1-1v-5.5h40.5v5.5c0,0.5,0.4,1,1,1h5.1c0.5,0,1-0.4,1-1v-5.5h2.8c1.1,0,1.9-0.9,1.9-1.9V49  C64,47.9,63.1,47,62.1,47z M56.7,5.9v25h-1.9v-25H56.7z M19.6,12.2c2-2.6,4.1-4,6.2-4c2.9-0.1,5.1,2.3,5.5,2.8  c0.4,0.4,1.1,0.4,1.5,0c0,0,2.3-2.8,5.4-2.8c2.1,0,4.2,1.4,6.2,4c2,2.6,4.8,4,8.4,4.1v14.6h-2.5v-6.3c0-1.8-1.4-3.2-3.1-3.2H36.2  c-1.7,0-3.1,1.4-3.1,3.2v6.3h-2.2v-6.3c0-1.8-1.4-3.2-3.1-3.2H16.7c-1.7,0-3.1,1.4-3.1,3.2v6.3h-2.5V16.2  C14.7,16.2,17.6,14.8,19.6,12.2z M35.1,30.9v-6.3c0-0.7,0.5-1.3,1.1-1.3h11.1c0.6,0,1.1,0.6,1.1,1.3v6.3H35.1z M15.6,30.9v-6.3  c0-0.7,0.5-1.3,1.1-1.3h11.1c0.6,0,1.1,0.6,1.1,1.3v6.3H15.6z M9.2,5.9v25H7.3v-25H9.2z M4,35.2c0-1.3,1.1-2.4,2.4-2.4h3.7  c0,0,0,0,0,0s0,0,0,0h4.4c0,0,0,0,0,0s0,0,0,0h15.3c0,0,0,0,0,0c0,0,0,0,0,0h4.1c0,0,0,0,0,0c0,0,0,0,0,0h15.3c0,0,0,0,0,0  c0,0,0,0,0,0h4.4c0,0,0,0,0,0c0,0,0,0,0,0h3.7c1.3,0,2.4,1.1,2.4,2.4V47H4V35.2z M9.8,58.1H6.7v-4.5h3.1V58.1z M57.3,58.1h-3.1v-4.5  h3.1V58.1z M1.9,51.7V49h60.1l0,2.7H1.9z"/></svg>