<svg id="Layer_1" data-name="Layer 1" xmlns="http://www.w3.org/2000/svg" xmlns:xlink="http://www.w3.org/1999/xlink" viewBox="0 0 80 80"><defs><style>.cls-1{fill:none;stroke-linecap:round;stroke-linejoin:round;stroke-width:2.25px;stroke:#000;}</style></defs><title>RES</title><path class="cls-1" d="M59,38.9V74.45m-4.5-31.93L59,47l4.49-4.5m0,28.3L59,66.32l-4.5,4.5m-10.89-23L74.37,65.56M44.48,53.49l6.14-1.65L49,45.7m24.5,14.15L67.34,61.5,69,67.64m-25.4-2.08L74.37,47.78M49,67.64l1.64-6.15-6.14-1.64M69,45.7l-1.64,6.15,6.14,1.64M27.71,14.13A17.37,17.37,0,1,0,45.08,31.5,17.37,17.37,0,0,0,27.71,14.13Zm0,14.28a3.1,3.1,0,1,0,3.1,3.09A3.1,3.1,0,0,0,27.71,28.41Zm5.12-1.13a8.71,8.71,0,0,0,1.1-7.67M26.61,25a8.72,8.72,0,0,0-6.09-4.79m1,9a8.71,8.71,0,0,0-7.2,2.88m8.3,3.66a8.71,8.71,0,0,0-1.1,7.67m7.32-5.35a8.72,8.72,0,0,0,6.09,4.79m-1-9a8.72,8.72,0,0,0,7.2-2.88m9.19,10.48V11.78A2.89,2.89,0,0,0,47.44,8.9H8a2.88,2.88,0,0,0-2.88,2.88V51.23A2.89,2.89,0,0,0,8,54.11H39.82"/></svg>