<svg id="Layer_1" data-name="Layer 1" xmlns="http://www.w3.org/2000/svg" xmlns:xlink="http://www.w3.org/1999/xlink" viewBox="0 0 80 80"><defs><style>.cls-1{fill:none;stroke-linecap:round;stroke-linejoin:round;stroke-width:2.48px;stroke:#000;}</style></defs><title>icon set_HVAC</title><path class="cls-1" d="M5,27.92a12.05,12.05,0,0,1,4.6.76,16.5,16.5,0,0,1,3.16,1.77,17,17,0,0,0,3.16,1.76l.51.17m-3.61,6.88A17,17,0,0,0,9.61,37.5,11.81,11.81,0,0,0,5,36.73m8.22,11.58c.36.23.72.46,1.09.68A11.75,11.75,0,0,0,16,49.8l.39.14M9.67,46.28a10.63,10.63,0,0,0-2-.57,14.18,14.18,0,0,0-2.57-.19m66-13.66a17.13,17.13,0,0,1-3.17-1.76,16.18,16.18,0,0,0-3.16-1.76,11.79,11.79,0,0,0-4.59-.77l-.56,0M75.75,41.44a12,12,0,0,1-4.6-.76A16.2,16.2,0,0,1,68,38.91a17.36,17.36,0,0,0-3.16-1.76,12.09,12.09,0,0,0-4.6-.76c-.22,0-.41,0-.62,0M73.24,50a10.84,10.84,0,0,1-2-.57,12.35,12.35,0,0,1-1.67-.82c-.52-.3-1-.62-1.49-.94s-1-.64-1.49-1a11.75,11.75,0,0,0-1.67-.81,10.32,10.32,0,0,0-2-.57,13.34,13.34,0,0,0-2.57-.2m8.77-11.08,3.5-1.86-1.94-3.34m3.9,15.19,2.94-2.66-2.7-2.77M71.1,52.43l3.25-2.27L72,47.07M56.55,17.28H20V62.72H56.55Zm-18.27,7.3V55.42M32.86,26.16l5.42,5.41,5.41-5.41m0,27.68-5.41-5.41-5.41,5.41M24.92,32.28,51.63,47.7M23.58,37.76l7.39-2-2-7.39M53,42.24l-7.4,2,2,7.4M24.91,47.7,51.62,32.28M29,51.6l2-7.39-7.4-2m24-13.82-2,7.39,7.39,2"/></svg>