<?xml version="1.0" ?><!DOCTYPE svg  PUBLIC '-//W3C//DTD SVG 1.1//EN'  'http://www.w3.org/Graphics/SVG/1.1/DTD/svg11.dtd'><svg enable-background="new 0 0 100 100" height="100px" id="Layer_1" version="1.1" viewBox="0 0 100 100" width="100px" xml:space="preserve" xmlns="http://www.w3.org/2000/svg" xmlns:xlink="http://www.w3.org/1999/xlink"><g><path d="M92.934,36.363l-7.884,2.654l-7.835-4.481l7.833-4.481l7.886,2.653c0.159,0.053,0.32,0.078,0.479,0.078   c0.626,0,1.211-0.396,1.422-1.021c0.265-0.785-0.158-1.636-0.943-1.9l-5.358-1.803l4.879-2.79c0.719-0.411,0.969-1.327,0.557-2.047   c-0.411-0.718-1.328-0.97-2.047-0.557l-4.877,2.79l1.161-5.531c0.17-0.812-0.35-1.606-1.16-1.776   c-0.811-0.177-1.606,0.349-1.776,1.159l-1.708,8.141l-7.866,4.5v-9.346l6.217-5.526c0.619-0.551,0.675-1.498,0.125-2.117   c-0.551-0.621-1.499-0.676-2.118-0.125l-4.224,3.755v-5.622c0-0.828-0.672-1.5-1.5-1.5c-0.829,0-1.5,0.672-1.5,1.5v5.622   l-4.225-3.755c-0.62-0.551-1.568-0.496-2.118,0.125c-0.55,0.619-0.495,1.567,0.124,2.117l6.219,5.526v9.345l-7.865-4.499   l-1.711-8.141c-0.17-0.812-0.967-1.336-1.776-1.159c-0.811,0.17-1.329,0.966-1.159,1.776l1.162,5.531l-4.877-2.79   c-0.719-0.414-1.636-0.162-2.047,0.557c-0.412,0.72-0.162,1.636,0.557,2.047l4.879,2.79l-5.359,1.803   c-0.785,0.264-1.208,1.114-0.943,1.9c0.211,0.626,0.795,1.021,1.422,1.021c0.158,0,0.319-0.025,0.478-0.078l7.889-2.652l7.832,4.48   l-7.833,4.48l-7.888-2.653c-0.786-0.263-1.636,0.159-1.899,0.943c-0.265,0.785,0.158,1.636,0.943,1.9l5.359,1.803l-4.879,2.79   c-0.719,0.411-0.969,1.327-0.557,2.047c0.277,0.483,0.783,0.755,1.303,0.755c0.253,0,0.509-0.063,0.744-0.198l4.877-2.79   l-1.162,5.53c-0.17,0.811,0.349,1.606,1.159,1.776c0.104,0.022,0.208,0.032,0.31,0.032c0.695,0,1.318-0.484,1.467-1.191   l1.711-8.141l7.865-4.498v8.773l-6.219,5.528c-0.619,0.551-0.674,1.499-0.124,2.118c0.296,0.333,0.708,0.503,1.122,0.503   c0.354,0,0.71-0.125,0.996-0.379l4.225-3.756v5.621c0,0.828,0.671,1.5,1.5,1.5c0.828,0,1.5-0.672,1.5-1.5V49.91l4.224,3.756   c0.619,0.551,1.567,0.495,2.118-0.124c0.55-0.619,0.494-1.567-0.125-2.118l-6.217-5.528v-8.774l7.865,4.499l1.709,8.141   c0.148,0.706,0.771,1.191,1.467,1.191c0.102,0,0.206-0.01,0.31-0.032c0.812-0.17,1.33-0.965,1.16-1.776l-1.161-5.53l4.877,2.79   c0.235,0.135,0.491,0.198,0.744,0.198c0.52,0,1.026-0.271,1.303-0.755c0.412-0.72,0.162-1.636-0.557-2.047l-4.877-2.79l5.356-1.803   c0.785-0.265,1.208-1.115,0.943-1.9C94.569,36.521,93.72,36.102,92.934,36.363z" fill="#000"/><path d="M33.156,51.53c-4.987,1.341-10.803,3.301-12.697,4.673c-3.754,2.721-4.604,7.976-1.894,11.716   c1.567,2.162,4.104,3.454,6.784,3.454c1.781,0,3.489-0.555,4.938-1.604c2.242-1.626,6.347-7.591,7.552-9.381   c0.101-0.149,0.19-0.286,0.286-0.429c0.916,0.365,1.914,0.572,2.961,0.572c1.031,0,2.015-0.202,2.92-0.558   c0.092,0.138,0.18,0.27,0.276,0.414c1.204,1.79,5.31,7.755,7.552,9.381c1.449,1.05,3.157,1.604,4.938,1.604h0.001   c2.68,0,5.216-1.292,6.784-3.455c2.709-3.739,1.859-8.994-1.895-11.715c-1.888-1.368-7.669-3.317-12.644-4.658   c-0.272-2.204-1.439-4.126-3.128-5.398c0.132-0.35,0.265-0.703,0.405-1.089c0.743-2.025,3.164-8.85,3.164-11.618   c0-4.637-3.757-8.408-8.375-8.408c-4.619,0-8.377,3.771-8.377,8.408c0,2.785,2.407,9.596,3.145,11.617   c0.143,0.391,0.277,0.749,0.41,1.103C34.589,47.429,33.431,49.34,33.156,51.53z M28.528,67.339   c-0.934,0.676-2.033,1.034-3.179,1.034c-1.722,0-3.351-0.828-4.355-2.215c-1.739-2.4-1.189-5.775,1.226-7.525   c1.471-1.066,6.609-2.784,11.146-4.037c0.389,1.456,1.174,2.747,2.238,3.751C33.064,62.147,29.99,66.279,28.528,67.339z    M48.806,54.606c4.516,1.252,9.631,2.964,11.098,4.026c2.415,1.75,2.965,5.125,1.227,7.524c-1.006,1.388-2.635,2.216-4.356,2.216   c-1.146-0.001-2.245-0.358-3.179-1.034c-1.459-1.058-4.521-5.17-7.057-8.964C47.616,57.37,48.412,56.072,48.806,54.606z    M35.71,33.439c0-2.982,2.412-5.408,5.377-5.408c2.964,0,5.375,2.426,5.375,5.408c0,1.859-1.633,7.011-3.268,11.382   c-0.672-0.184-1.377-0.29-2.107-0.29c-0.736,0-1.447,0.107-2.125,0.294C37.334,40.467,35.71,35.322,35.71,33.439z M41.087,47.531   c2.757,0,5,2.243,5,5s-2.243,5-5,5s-5-2.243-5-5S38.33,47.531,41.087,47.531z" fill="#000"/><path d="M74.526,59.531c-0.736,0-1.347,0.532-1.473,1.232l-0.006-0.001c-3.666,14.227-16.605,24.769-31.961,24.769   c-18.196,0-33-14.804-33-33s14.804-33,33-33c3.588,0,7.04,0.583,10.276,1.646l0.001-0.003c0.166,0.063,0.344,0.102,0.531,0.102   c0.829,0,1.43-0.675,1.5-1.5c0.079-0.914-0.993-1.42-0.993-1.42c-3.56-1.179-7.36-1.825-11.315-1.825c-19.881,0-36,16.119-36,36   c0,19.883,16.119,36,36,36c16.831,0,30.96-11.551,34.902-27.156c0,0,0.037-0.226,0.037-0.344   C76.026,60.203,75.354,59.531,74.526,59.531z" fill="#000"/></g></svg>