<?xml version="1.0" ?><svg enable-background="new 0 0 64 64" id="Layer_1" version="1.1" viewBox="0 0 64 64" xml:space="preserve" xmlns="http://www.w3.org/2000/svg" xmlns:xlink="http://www.w3.org/1999/xlink"><g><g><g><path d="M63,60" fill="none" stroke="#231F20" stroke-miterlimit="10" stroke-width="2"/></g></g><g><g><path d="M1,60" fill="none" stroke="#231F20" stroke-miterlimit="10" stroke-width="2"/></g></g><g><g><g><path d="M22,21H10V9h12V21z M12,19h8v-8h-8V19z" fill="#231F20"/></g></g><g><g><path d="M38,21H26V9h12V21z M28,19h8v-8h-8V19z" fill="#231F20"/></g></g><g><g><path d="M54,21H42V9h12V21z M44,19h8v-8h-8V19z" fill="#231F20"/></g></g></g><g><g><path d="M54.4,61H9.6C5.9,61,3,58.1,3,54.4V50h58v4.4C61,58.1,58.1,61,54.4,61z M5,52v2.4C5,57,7,59,9.6,59h44.9     c2.5,0,4.6-2,4.6-4.6V52H5z" fill="#231F20"/></g></g><g><g><path d="M59,40h-2v-1.5c0-3-2.4-5.5-5.5-5.5H12.5c-3,0-5.5,2.4-5.5,5.5V40H5v-1.5c0-4.1,3.3-7.5,7.5-7.5h39.1     c4.1,0,7.5,3.3,7.5,7.5V40z" fill="#231F20"/></g></g><g><g><path d="M12,64h-2c-0.3,0-0.6-0.2-0.8-0.4l-2-3c-0.2-0.3-0.2-0.7,0-1C7.3,59.2,7.6,59,8,59h6     c0.4,0,0.7,0.2,0.9,0.5c0.2,0.3,0.2,0.7,0,1l-2,3C12.6,63.8,12.3,64,12,64z M10.5,62h0.9l0.7-1H9.9L10.5,62z" fill="#231F20"/></g></g><g><g><path d="M54,64h-2c-0.3,0-0.6-0.2-0.8-0.4l-2-3c-0.2-0.3-0.2-0.7,0-1c0.2-0.3,0.5-0.5,0.9-0.5h6     c0.4,0,0.7,0.2,0.9,0.5c0.2,0.3,0.2,0.7,0,1l-2,3C54.6,63.8,54.3,64,54,64z M52.5,62h0.9l0.7-1h-2.3L52.5,62z" fill="#231F20"/></g></g><g><g><rect fill="#231F20" height="2" width="2" x="17" y="40"/></g></g><g><g><rect fill="#231F20" height="2" width="2" x="24" y="40"/></g></g><g><g><rect fill="#231F20" height="2" width="2" x="31" y="40"/></g></g><g><g><rect fill="#231F20" height="2" width="2" x="38" y="40"/></g></g><g><g><rect fill="#231F20" height="2" width="2" x="45" y="40"/></g></g><g><g><rect fill="#231F20" height="2" width="2" x="20" y="45"/></g></g><g><g><rect fill="#231F20" height="2" width="2" x="13" y="45"/></g></g><g><g><rect fill="#231F20" height="2" width="2" x="27" y="45"/></g></g><g><g><rect fill="#231F20" height="2" width="2" x="34" y="45"/></g></g><g><g><rect fill="#231F20" height="2" width="2" x="41" y="45"/></g></g><g><g><rect fill="#231F20" height="2" width="2" x="48" y="45"/></g></g><g><g><rect fill="#231F20" height="2" width="2" x="20" y="35"/></g></g><g><g><rect fill="#231F20" height="2" width="2" x="13" y="35"/></g></g><g><g><rect fill="#231F20" height="2" width="2" x="27" y="35"/></g></g><g><g><rect fill="#231F20" height="2" width="2" x="34" y="35"/></g></g><g><g><rect fill="#231F20" height="2" width="2" x="41" y="35"/></g></g><g><g><rect fill="#231F20" height="2" width="2" x="48" y="35"/></g></g><g><g><path d="M11,52H3v-5.1c-1.7-0.3-3-1.8-3-3.6v-0.4C0,40.8,1.8,39,4,39h2.6c2.4,0,4.4,2,4.4,4.4L11,52z M5,50h4     l-0.1-6.6c0-1.3-1.1-2.4-2.4-2.4H4c-1.1,0-2,0.9-2,1.9v0.4C2,44.3,2.7,45,3.6,45H5V50z" fill="#231F20"/></g></g><g><g><path d="M61,52h-8l0.1-8.6c0-2.4,2-4.4,4.4-4.4H60c2.2,0,4,1.8,4,3.9v0.4c0,1.8-1.3,3.3-3,3.6V52z M55,50h4v-5     h1.4c0.9,0,1.6-0.7,1.6-1.6v-0.4c0-1.1-0.9-1.9-2-1.9h-2.6c-1.3,0-2.4,1.1-2.4,2.4L55,50z" fill="#231F20"/></g></g></g></svg>