<?xml version="1.0" ?><svg id="Layer_1" style="enable-background:new 0 0 64 64;" version="1.1" viewBox="0 0 64 64" xml:space="preserve" xmlns="http://www.w3.org/2000/svg" xmlns:xlink="http://www.w3.org/1999/xlink"><g><g><path d="M55.56,53.89c-1.63,0-2.97-1.33-2.97-2.97v-27.1c0-1.64,1.33-2.97,2.97-2.97c1.64,0,2.97,1.33,2.97,2.97v27.1    C58.52,52.56,57.19,53.89,55.56,53.89z M55.56,22.8c-0.57,0-1.03,0.46-1.03,1.03v27.1c0,0.57,0.46,1.03,1.03,1.03    c0.57,0,1.03-0.46,1.03-1.03v-27.1C56.58,23.26,56.12,22.8,55.56,22.8z"/></g><g><path d="M47.27,53.89c-1.64,0-2.97-1.33-2.97-2.97v-27.1c0-1.64,1.33-2.97,2.97-2.97c1.63,0,2.97,1.33,2.97,2.97v27.1    C50.23,52.56,48.9,53.89,47.27,53.89z M47.27,22.8c-0.57,0-1.03,0.46-1.03,1.03v27.1c0,0.57,0.46,1.03,1.03,1.03    s1.03-0.46,1.03-1.03v-27.1C48.29,23.26,47.83,22.8,47.27,22.8z"/></g><g><path d="M38.98,53.89c-1.64,0-2.97-1.33-2.97-2.97v-27.1c0-1.64,1.33-2.97,2.97-2.97c1.63,0,2.97,1.33,2.97,2.97v27.1    C41.95,52.56,40.62,53.89,38.98,53.89z M38.98,22.8c-0.57,0-1.03,0.46-1.03,1.03v27.1c0,0.57,0.46,1.03,1.03,1.03    s1.03-0.46,1.03-1.03v-27.1C40.01,23.26,39.55,22.8,38.98,22.8z"/></g><g><path d="M30.69,53.89c-1.63,0-2.97-1.33-2.97-2.97v-27.1c0-1.64,1.33-2.97,2.97-2.97c1.63,0,2.97,1.33,2.97,2.97v27.1    C33.66,52.56,32.33,53.89,30.69,53.89z M30.69,22.8c-0.57,0-1.03,0.46-1.03,1.03v27.1c0,0.57,0.46,1.03,1.03,1.03    s1.03-0.46,1.03-1.03v-27.1C31.72,23.26,31.26,22.8,30.69,22.8z"/></g><g><path d="M22.4,53.89c-1.63,0-2.97-1.33-2.97-2.97v-27.1c0-1.64,1.33-2.97,2.97-2.97c1.64,0,2.97,1.33,2.97,2.97v27.1    C25.37,52.56,24.04,53.89,22.4,53.89z M22.4,22.8c-0.57,0-1.03,0.46-1.03,1.03v27.1c0,0.57,0.46,1.03,1.03,1.03    c0.57,0,1.03-0.46,1.03-1.03v-27.1C23.43,23.26,22.97,22.8,22.4,22.8z"/></g><g><g><path d="M10.69,31.7c-2.58,0-4.68-2.1-4.68-4.68c0-2.58,2.1-4.68,4.68-4.68s4.68,2.1,4.68,4.68C15.37,29.6,13.27,31.7,10.69,31.7     z M10.69,24.28c-1.51,0-2.74,1.23-2.74,2.74c0,1.51,1.23,2.74,2.74,2.74c1.51,0,2.74-1.23,2.74-2.74     C13.43,25.51,12.2,24.28,10.69,24.28z"/></g><g><path d="M10.69,42.39c-2.58,0-4.68-2.1-4.68-4.68c0-2.58,2.1-4.68,4.68-4.68s4.68,2.1,4.68,4.68     C15.37,40.29,13.27,42.39,10.69,42.39z M10.69,34.96c-1.51,0-2.74,1.23-2.74,2.74c0,1.51,1.23,2.74,2.74,2.74     c1.51,0,2.74-1.23,2.74-2.74C13.43,36.19,12.2,34.96,10.69,34.96z"/></g><g><g><path d="M14.25,52.41c-1.62,0-2.93-1.31-2.93-2.93c0-1.62,1.32-2.93,2.93-2.93s2.93,1.32,2.93,2.93      C17.18,51.09,15.87,52.41,14.25,52.41z M14.25,48.48c-0.55,0-0.99,0.45-0.99,0.99c0,0.55,0.45,0.99,0.99,0.99      c0.55,0,0.99-0.45,0.99-0.99C15.24,48.93,14.8,48.48,14.25,48.48z"/></g><g><path d="M7.13,52.41c-1.62,0-2.93-1.31-2.93-2.93c0-1.62,1.32-2.93,2.93-2.93c1.62,0,2.93,1.32,2.93,2.93      C10.06,51.09,8.74,52.41,7.13,52.41z M7.13,48.48c-0.55,0-0.99,0.45-0.99,0.99c0,0.55,0.45,0.99,0.99,0.99      c0.55,0,0.99-0.45,0.99-0.99C8.12,48.93,7.67,48.48,7.13,48.48z"/></g></g></g><g><path d="M60.13,58.93H3.87C1.73,58.93,0,57.19,0,55.06V19.68c0-2.13,1.73-3.87,3.87-3.87h56.27c2.13,0,3.87,1.73,3.87,3.87v35.38    C64,57.19,62.27,58.93,60.13,58.93z M3.87,17.76c-1.06,0-1.93,0.87-1.93,1.93v35.38c0,1.06,0.87,1.93,1.93,1.93h56.27    c1.06,0,1.93-0.87,1.93-1.93V19.68c0-1.06-0.87-1.93-1.93-1.93H3.87z"/></g><g><g><path d="M48.65,13.29c-0.25,0-0.49-0.09-0.68-0.28c-0.38-0.38-0.39-0.99-0.01-1.37c1.36-1.38,0.85-2.42-0.24-4.29     c-1.04-1.78-2.47-4.22,0.28-6.74c0.4-0.36,1.01-0.33,1.37,0.06c0.36,0.39,0.33,1.01-0.06,1.37c-1.52,1.4-1.05,2.39,0.08,4.33     c1.02,1.74,2.41,4.12-0.05,6.62C49.15,13.19,48.9,13.29,48.65,13.29z"/></g><g><path d="M40.37,13.29c-0.25,0-0.49-0.09-0.68-0.28c-0.38-0.38-0.39-0.99-0.01-1.37c1.36-1.38,0.85-2.42-0.24-4.29     c-1.04-1.78-2.47-4.22,0.28-6.74c0.4-0.36,1.01-0.33,1.37,0.06c0.36,0.39,0.33,1.01-0.06,1.37c-1.52,1.4-1.05,2.39,0.08,4.33     c1.02,1.74,2.41,4.12-0.05,6.62C40.87,13.19,40.62,13.29,40.37,13.29z"/></g><g><path d="M32.09,13.29c-0.25,0-0.49-0.09-0.68-0.28c-0.38-0.38-0.39-0.99-0.01-1.37c1.36-1.38,0.85-2.42-0.24-4.29     c-1.04-1.78-2.47-4.22,0.28-6.74c0.39-0.36,1.01-0.33,1.37,0.06c0.36,0.39,0.33,1.01-0.06,1.37c-1.52,1.4-1.05,2.39,0.08,4.33     c1.02,1.74,2.41,4.12-0.05,6.62C32.59,13.19,32.34,13.29,32.09,13.29z"/></g><g><path d="M23.81,13.29c-0.25,0-0.49-0.09-0.68-0.28c-0.38-0.38-0.39-0.99-0.01-1.37c1.36-1.38,0.85-2.42-0.24-4.29     c-1.04-1.78-2.47-4.22,0.28-6.74c0.4-0.36,1.01-0.33,1.37,0.06c0.36,0.39,0.33,1.01-0.06,1.37c-1.52,1.4-1.05,2.39,0.08,4.33     c1.02,1.74,2.41,4.12-0.05,6.62C24.31,13.19,24.06,13.29,23.81,13.29z"/></g><g><path d="M15.53,13.29c-0.25,0-0.49-0.09-0.68-0.28c-0.38-0.38-0.39-0.99-0.01-1.37c1.36-1.38,0.85-2.42-0.24-4.29     c-1.04-1.78-2.47-4.22,0.28-6.74c0.4-0.36,1.01-0.33,1.37,0.06c0.36,0.39,0.33,1.01-0.06,1.37c-1.52,1.4-1.05,2.39,0.08,4.33     c1.02,1.74,2.41,4.12-0.05,6.62C16.04,13.19,15.79,13.29,15.53,13.29z"/></g></g><g><g><path d="M17.7,63.64H6.68c-1.07,0-1.94-0.87-1.94-1.94v-3.75c0-0.54,0.43-0.97,0.97-0.97s0.97,0.43,0.97,0.97v3.75l11.02,0     l0-3.74c0-0.54,0.43-0.97,0.97-0.97c0.54,0,0.97,0.43,0.97,0.97v3.75C19.64,62.77,18.77,63.64,17.7,63.64z"/></g><g><path d="M57.32,63.64H46.3c-1.07,0-1.94-0.87-1.94-1.94v-3.75c0-0.54,0.43-0.97,0.97-0.97c0.54,0,0.97,0.43,0.97,0.97v3.75     l11.02,0l0-3.74c0-0.54,0.43-0.97,0.97-0.97c0.54,0,0.97,0.43,0.97,0.97v3.75C59.26,62.77,58.39,63.64,57.32,63.64z"/></g></g></g></svg>