<svg id="Layer_1" data-name="Layer 1" xmlns="http://www.w3.org/2000/svg" xmlns:xlink="http://www.w3.org/1999/xlink" viewBox="0 0 80 80"><defs><style>.cls-1{fill:none;stroke-linecap:round;stroke-linejoin:round;stroke-width:2.25px;stroke:#000;}</style></defs><title>BA</title><path class="cls-1" d="M33.44,53.91a8.94,8.94,0,1,1-14-7.39V20a5,5,0,0,1,10.09,0V46.52A9,9,0,0,1,33.44,53.91Zm-8.94-30h4.55M24.5,28.67h4.55M24.5,33.4h4.55m-4.55,16a4.55,4.55,0,1,0,4.55,4.55A4.55,4.55,0,0,0,24.5,49.36Zm0,0V38.21M24.5,66v4H62.12V23.33H34.18m.65,40.39H56.45v-35H34.83m15.5,4.23V59.49M44,32.9V59.49M37.62,32.9V59.49"/></svg>