<?xml version="1.0" encoding="utf-8"?>
<!-- Generator: Adobe Illustrator 23.0.1, SVG Export Plug-In . SVG Version: 6.00 Build 0)  -->
<svg version="1.1" id="Layer_1" xmlns="http://www.w3.org/2000/svg" xmlns:xlink="http://www.w3.org/1999/xlink" x="0px" y="0px"
	 viewBox="0 0 150 150" style="enable-background:new 0 0 150 150;" xml:space="preserve">
<style type="text/css">
	.st2{fill:none;stroke:#000;stroke-width:4.22;stroke-linecap:round;stroke-linejoin:round;}
</style>
<path class="st2" d="M105.6,117.9H48.8c-3,0-5.4-2.4-5.4-5.4l0,0c0-3,2.4-5.4,5.4-5.4h52.5c3,0,5.4-2.4,5.4-5.4l0,0
	c0-3-2.4-5.4-5.4-5.4H25v-64h12.5 M106.2,27.2H43.8V37h62.5V27.2z M112.5,117.9H125V32.1h-18.8 M117.7,112l-5.9,5.9l5.9,5.9
	 M31.6,38l5.9-5.9l-5.9-5.9 M80.9,49.2L75,43.3l-5.9,5.8 M75,50.8c0,6.5-4.7,6.5-4.7,13c0,6.5,4.7,6.5,4.7,13c0,6.5-4.7,6.5-4.7,13
	 M99.6,49.2l-5.9-5.8l-5.9,5.8 M93.8,50.8c0,6.5-4.7,6.5-4.7,13s4.7,6.5,4.7,13c0,6.5-4.7,6.5-4.7,13 M62.1,49.2l-5.9-5.8l-5.9,5.8
	 M56.2,50.8c0,6.5-4.7,6.5-4.7,13s4.7,6.5,4.7,13c0,6.5-4.7,6.5-4.7,13"/>
</svg>
