<?xml version="1.0" ?><svg id="Слой_1" style="enable-background:new 0 0 300 300;" version="1.1" viewBox="0 0 300 300" xml:space="preserve" xmlns="http://www.w3.org/2000/svg" xmlns:xlink="http://www.w3.org/1999/xlink"><g><path d="M110.579,86.733c0.398,0.394,0.916,0.589,1.434,0.589c0.527,0,1.054-0.203,1.454-0.608   c3.461-3.509,7.191-9.732,5.313-19.46c-0.268-1.392-0.648-2.791-1.129-4.157c-0.816-2.321-2.029-4.657-3.709-7.142   c-0.931-1.375-1.927-2.699-3.105-4.112c-1.619-1.788-3.614-4.705-3.917-8.456c-0.359-4.436,1.689-9.143,6.086-13.986   c0.758-0.835,0.696-2.126-0.139-2.884c-0.835-0.759-2.127-0.697-2.884,0.14c-5.187,5.711-7.587,11.452-7.133,17.06   c0.396,4.894,2.916,8.611,4.904,10.802c1.048,1.26,1.939,2.444,2.805,3.724c1.482,2.191,2.541,4.222,3.24,6.207   c0.414,1.179,0.741,2.382,0.972,3.578c1.237,6.409-0.18,11.731-4.211,15.817C109.768,84.648,109.776,85.941,110.579,86.733z" style="fill:#000;"/><path d="M138.918,86.701c0.398,0.394,0.916,0.589,1.434,0.589c0.527,0,1.054-0.203,1.454-0.608   c3.461-3.509,7.191-9.732,5.313-19.46c-0.269-1.395-0.649-2.795-1.129-4.16c-0.816-2.32-2.029-4.655-3.709-7.139   c-0.931-1.375-1.927-2.699-3.105-4.112c-1.619-1.788-3.614-4.705-3.917-8.456c-0.359-4.438,1.689-9.143,6.086-13.985   c0.758-0.835,0.696-2.127-0.139-2.885c-0.835-0.758-2.127-0.694-2.884,0.138c-5.187,5.711-7.587,11.452-7.133,17.061   c0.396,4.894,2.916,8.611,4.904,10.802c1.048,1.26,1.939,2.444,2.805,3.724c1.482,2.191,2.541,4.221,3.24,6.207   c0.413,1.175,0.741,2.38,0.972,3.578c1.237,6.409-0.18,11.731-4.211,15.817C138.106,84.616,138.115,85.91,138.918,86.701z" style="fill:#000;"/><path d="M167.256,86.667c0.398,0.394,0.916,0.589,1.435,0.589c0.527,0,1.054-0.203,1.453-0.608   c3.461-3.507,7.192-9.729,5.314-19.458c-0.269-1.399-0.649-2.797-1.129-4.16c-0.816-2.32-2.029-4.655-3.709-7.139   c-0.931-1.375-1.927-2.699-3.105-4.112c-1.619-1.788-3.614-4.705-3.917-8.456c-0.359-4.438,1.689-9.143,6.086-13.985   c0.758-0.835,0.696-2.127-0.139-2.885c-0.835-0.759-2.127-0.695-2.884,0.138c-5.187,5.711-7.587,11.452-7.133,17.061   c0.396,4.894,2.916,8.611,4.904,10.802c1.048,1.26,1.939,2.444,2.805,3.724c1.482,2.191,2.541,4.221,3.24,6.207   c0.413,1.173,0.74,2.377,0.972,3.578c1.237,6.409-0.179,11.731-4.21,15.816C166.445,84.583,166.454,85.875,167.256,86.667z" style="fill:#000;"/><path d="M69.207,253.994v1.454c0,10.272,7.117,18.629,15.865,18.629c8.747,0,15.864-8.357,15.864-18.629   v-1.454h7.895v1.454c0,10.272,7.117,18.629,15.864,18.629s15.864-8.357,15.864-18.629v-1.454h7.895v1.454   c0,10.272,7.117,18.629,15.864,18.629c8.747,0,15.864-8.357,15.864-18.629v-1.454h7.895v1.454c0,10.272,7.117,18.629,15.864,18.629   s15.864-8.357,15.864-18.629v-1.454h11.508c1.041,1.894,3.031,3.195,5.341,3.195c3.373,0,6.117-2.744,6.117-6.117v-10.68   c0-3.374-2.744-6.118-6.117-6.118c-2.31,0-4.301,1.302-5.341,3.196h-11.507V127.102h11.508c1.041,1.894,3.031,3.195,5.341,3.195   c3.373,0,6.117-2.744,6.117-6.117V113.5c0-3.374-2.744-6.118-6.117-6.118c-2.31,0-4.301,1.302-5.341,3.196h-11.507v-0.723   c0-10.272-7.117-18.627-15.864-18.627s-15.864,8.356-15.864,18.627v0.723h-7.895v-0.723c0-10.272-7.117-18.627-15.864-18.627   c-8.747,0-15.864,8.356-15.864,18.627v0.723h-7.895v-0.723c0-10.272-7.117-18.627-15.864-18.627s-15.864,8.356-15.864,18.627v0.723   h-7.895v-0.723c0-10.272-7.117-18.627-15.864-18.627c-8.748,0-15.865,8.356-15.865,18.627v0.723h-9.937   c-1.128,0-2.042,0.915-2.042,2.042v12.44c0,1.127,0.914,2.042,2.042,2.042h9.937v110.367h-9.937c-1.128,0-2.042,0.915-2.042,2.042   v12.44c0,1.127,0.914,2.042,2.042,2.042H69.207z M234.621,240.392c0-1.122,0.912-2.034,2.033-2.034   c1.121,0,2.033,0.912,2.033,2.034v10.68c0,1.121-0.912,2.033-2.033,2.033c-1.121,0-2.033-0.912-2.033-2.033V240.392z    M234.621,113.5c0-1.122,0.912-2.034,2.033-2.034c1.121,0,2.033,0.912,2.033,2.034v10.68c0,1.121-0.912,2.033-2.033,2.033   c-1.121,0-2.033-0.912-2.033-2.033V113.5z M219.806,114.662h10.731v8.356h-10.731V114.662z M219.806,241.554h10.731v8.356h-10.731   V241.554z M192.162,109.855c0-8.019,5.285-14.543,11.78-14.543c6.495,0,11.78,6.524,11.78,14.543v145.593   c0,8.019-5.285,14.545-11.78,14.545c-6.495,0-11.78-6.525-11.78-14.545V109.855z M180.183,114.662h7.895v8.356h-7.895V114.662z    M180.183,127.102h7.895v110.367h-7.895V127.102z M180.183,241.554h7.895v8.356h-7.895V241.554z M152.539,109.855   c0-8.019,5.285-14.543,11.78-14.543c6.495,0,11.78,6.524,11.78,14.543v145.593c0,8.019-5.285,14.545-11.78,14.545   c-6.495,0-11.78-6.525-11.78-14.545V109.855z M140.559,114.662h7.895v8.356h-7.895V114.662z M140.559,127.102h7.895v110.367h-7.895   V127.102z M140.559,241.554h7.895v8.356h-7.895V241.554z M112.915,109.855c0-8.019,5.285-14.543,11.78-14.543   s11.78,6.524,11.78,14.543v145.593c0,8.019-5.285,14.545-11.78,14.545s-11.78-6.525-11.78-14.545V109.855z M100.936,114.662h7.895   v8.356h-7.895V114.662z M100.936,127.102h7.895v110.367h-7.895V127.102z M100.936,241.554h7.895v8.356h-7.895V241.554z    M73.291,109.855c0-8.019,5.285-14.543,11.781-14.543c6.495,0,11.78,6.524,11.78,14.543v145.593c0,8.019-5.285,14.545-11.78,14.545   c-6.496,0-11.781-6.525-11.781-14.545V109.855z M61.313,123.018v-8.356h7.894v8.356H61.313z M61.313,241.554h7.894v8.356h-7.894   V241.554z" style="fill:#000;"/></g></svg>