<?xml version="1.0" ?><svg id="Layer_1" style="enable-background:new 0 0 100 100;" version="1.1" viewBox="0 0 100 100" xml:space="preserve" xmlns="http://www.w3.org/2000/svg" xmlns:xlink="http://www.w3.org/1999/xlink"><path d="M68.8,16.9h-9.5c-2.6-3.3-5.8-5.4-9.3-5.4s-6.7,2.1-9.3,5.4h-9.5c-3.7,0-6.8,3-6.8,6.8v37.6c0,3.7,3,6.8,6.8,6.8h2.4  c1.5,3.4,3.6,6.4,7,7.6l-1.8,11.7c0,0.3,0,0.6,0.2,0.8c0.2,0.2,0.5,0.3,0.7,0.3h20.5c0.3,0,0.6-0.1,0.7-0.3c0.2-0.2,0.3-0.5,0.2-0.8  l-1.8-11.7c3.4-1.2,5.5-4.2,7-7.6h2.4c3.7,0,6.8-3,6.8-6.8V23.7C75.6,19.9,72.5,16.9,68.8,16.9z M50,13.4c6.3,0,13.9,10.6,13.9,23  c0,11-7.6,13.3-13.9,13.3s-13.9-2.3-13.9-13.3C36.1,24,43.7,13.4,50,13.4z M26.3,23.7c0-2.7,2.2-4.8,4.8-4.8h8.1  c-1.2,1.8-2.2,3.9-3,6.2h-9.9V23.7z M31.2,66.1c-2.7,0-4.8-2.2-4.8-4.8V26.9h9.3c-1,3.1-1.5,6.4-1.5,9.5c0,6.5,2.5,11.1,7.1,13.4h-5  c-3.2,0-5.8,2.6-5.8,5.8v2.6c0,0.1,0,0.1,0,0.2c0,0,0,0.1,0,0.1c0.2,0.7,0.4,1.4,0.6,2.1c0.5,1.8,1,3.7,1.7,5.5H31.2z M63.7,51.8  c2.1,0,3.9,1.7,3.9,3.9v1.6H32.4v-1.6c0-2.1,1.7-3.9,3.9-3.9H63.7z M58.1,74.1c-0.5,0.1-0.8,0.6-0.7,1.1l1.8,11.5H40.9l1.8-11.5  c0.1-0.5-0.2-1-0.7-1.1c-5.3-1.3-7.2-8.1-8.9-14c-0.1-0.3-0.2-0.6-0.3-0.9h34.6c-0.1,0.3-0.2,0.6-0.3,0.9  C65.4,66,63.4,72.7,58.1,74.1z M73.7,61.3c0,2.7-2.2,4.8-4.8,4.8h-1.6c0.7-1.8,1.2-3.8,1.7-5.5c0.2-0.7,0.4-1.4,0.6-2.1  c0,0,0-0.1,0-0.1c0-0.1,0-0.1,0-0.2v-2.6c0-3.2-2.6-5.8-5.8-5.8h-5c4.7-2.3,7.1-6.9,7.1-13.4c0-3.1-0.5-6.4-1.5-9.5h9.3V61.3z   M73.7,25h-9.9c-0.8-2.2-1.8-4.3-3-6.2h8.1c2.7,0,4.8,2.2,4.8,4.8V25z"/></svg>