<?xml version="1.0" ?><!DOCTYPE svg  PUBLIC '-//W3C//DTD SVG 1.1//EN'  'http://www.w3.org/Graphics/SVG/1.1/DTD/svg11.dtd'><svg enable-background="new 0 0 200 200" height="200px" id="Слой_1" version="1.1" viewBox="0 0 200 200" width="200px" xml:space="preserve" xmlns="http://www.w3.org/2000/svg" xmlns:xlink="http://www.w3.org/1999/xlink"><g><g><path d="M106.545,158.806H73.417c-2.31,0-4.377-1.711-4.808-3.979c-2.044-10.732-3.955-22.479-5.712-35.101    c-1.301,9.394-2.948,21.069-4.932,34.957c-0.33,2.312-2.418,4.123-4.754,4.123H20.29c-2.374,0-4.448-1.847-4.722-4.204    L2.899,45.762c-0.146-1.254,0.242-2.503,1.065-3.426c0.823-0.924,2.018-1.453,3.28-1.453h25.057c2.43,0,4.481,1.897,4.672,4.319    l3.114,39.547c1.276-11.989,2.892-25.254,4.84-39.718c0.313-2.326,2.397-4.148,4.745-4.148h27.006c2.4,0,4.471,1.864,4.716,4.244    C81.893,50,82.876,61.584,84.4,80.539l0.39,5.159c1.364-13.75,3.009-27.352,4.921-40.696c0.331-2.311,2.42-4.121,4.756-4.121    h25.056c1.262,0,2.458,0.53,3.281,1.454c0.823,0.923,1.21,2.172,1.064,3.425L111.267,154.6    C110.995,156.958,108.921,158.806,106.545,158.806z M74.208,152.956h31.36l12.299-106.225H95.373    c-3.477,24.442-6.051,49.751-7.649,75.239c-0.198,3.169-2.366,3.416-3.026,3.416c-0.652,0-2.796-0.244-3.032-3.377l-3.097-41.016    c-1.401-17.436-2.374-28.95-2.893-34.262H50.6c-3.953,29.466-6.511,53.864-7.603,72.526c-0.185,3.182-2.361,3.428-3.023,3.428    c-0.649,0-2.787-0.242-3.032-3.366l-5.717-72.589H8.901l12.365,106.225h31.037c3.807-26.653,6.351-45.02,7.562-54.599    c0.377-2.993,2.467-3.226,3.099-3.226c0.637,0,2.742,0.235,3.098,3.253C68.43,118.534,71.171,136.89,74.208,152.956z" fill="#1D1D1B"/></g><g><path d="M160.885,161.158c-9.004,0-16.587-1.685-22.539-5.009c-6.171-3.445-10.329-8.316-12.359-14.479    c-1.915-5.82-2.846-14.192-2.846-25.593V83.334c0-8.282,0.281-14.355,0.857-18.568c0.619-4.507,2.466-8.88,5.491-12.999    c3.039-4.139,7.278-7.427,12.601-9.772c5.214-2.3,11.26-3.466,17.965-3.466c9.076,0,16.729,1.813,22.746,5.387    c6.162,3.664,10.289,8.356,12.269,13.947c1.883,5.321,2.799,13.204,2.799,24.1v9.018c0,2.511-2.042,4.553-4.553,4.553h-25.888    c-2.511,0-4.553-2.042-4.553-4.553V73.131c0-7.498-0.569-9.159-0.684-9.416c-0.155-0.352-1.231-0.369-1.445-0.369    c-1.579,0-1.75,0.452-1.832,0.67c-0.236,0.622-0.782,2.839-0.782,10.042v52.056c0,6.88,0.539,9.004,0.77,9.598    c0.092,0.239,0.245,0.63,1.636,0.63c1.277,0,1.425-0.369,1.544-0.665c0.238-0.591,0.792-2.816,0.792-10.634v-12.461    c0-2.511,2.042-4.553,4.553-4.553h25.888c2.511,0,4.553,2.042,4.553,4.553v2.74c0,12.029-0.854,20.408-2.612,25.614    c-1.846,5.468-5.898,10.27-12.043,14.272C177.149,159.157,169.637,161.158,160.885,161.158z M160.055,44.379    c-5.888,0-11.138,0.999-15.606,2.97c-4.374,1.926-7.82,4.578-10.245,7.881c-2.441,3.325-3.925,6.801-4.41,10.331    c-0.532,3.891-0.803,9.871-0.803,17.773v32.743c0,10.621,0.859,18.617,2.553,23.765c1.578,4.791,4.736,8.455,9.654,11.201    c5.071,2.83,11.694,4.266,19.688,4.266c7.6,0,14.039-1.683,19.138-5.002c5.016-3.268,8.277-7.049,9.692-11.241    c1.53-4.53,2.305-12.519,2.305-23.744v-1.443h-23.294v11.164c0,8.679-0.649,11.408-1.214,12.816    c-0.651,1.62-2.423,4.333-6.972,4.333c-4.696,0-6.456-2.732-7.087-4.36c-0.501-1.283-1.168-3.9-1.168-11.718V74.058    c0-8.113,0.662-10.799,1.16-12.113c0.627-1.659,2.412-4.449,7.303-4.449c4.425,0,6.155,2.41,6.792,3.846    c0.552,1.243,1.186,3.707,1.186,11.788v16.554h23.294v-7.721c0-10.078-0.829-17.53-2.464-22.148    c-1.511-4.268-4.789-7.925-9.744-10.871C174.712,45.916,168.064,44.379,160.055,44.379z" fill="#1D1D1B"/></g></g></svg>