<?xml version="1.0" encoding="utf-8"?>
<!-- Generator: Adobe Illustrator 24.0.3, SVG Export Plug-In . SVG Version: 6.00 Build 0)  -->
<svg version="1.1" id="Layer_1" xmlns="http://www.w3.org/2000/svg" xmlns:xlink="http://www.w3.org/1999/xlink" x="0px" y="0px"
	 viewBox="0 0 38.3 34.5" style="enable-background:new 0 0 38.3 34.5;" xml:space="preserve">
<g id="Layer_2_1_">
	<g>
		<g>
			<g>
				<g>
					<path d="M19.2,34.3c-0.7,0-1.2-0.5-1.2-1.2v-6.3c0-0.7,0.5-1.2,1.2-1.2c0.7,0,1.2,0.5,1.2,1.2v6.4
						C20.3,33.9,19.8,34.3,19.2,34.3z"/>
				</g>
			</g>
			<g>
				<g>
					<g>
						<path d="M11.4,31.2c-0.7,0-1.2-0.5-1.2-1.2v-6.4c0-0.7,0.5-1.2,1.2-1.2c0.7,0,1.2,0.5,1.2,1.2V30
							C12.6,30.7,12.1,31.2,11.4,31.2z"/>
					</g>
				</g>
				<g>
					<g>
						<path d="M26.9,31.2c-0.7,0-1.2-0.5-1.2-1.2v-6.4c0-0.7,0.5-1.2,1.2-1.2c0.7,0,1.2,0.5,1.2,1.2V30
							C28.1,30.7,27.6,31.2,26.9,31.2z"/>
					</g>
				</g>
			</g>
		</g>
		<path d="M34.5,0.1H3.8c-2,0-3.6,1.6-3.6,3.6v12.1c0,2,1.6,3.6,3.6,3.6h30.8c2,0,3.6-1.6,3.6-3.6V3.7C38.1,1.7,36.5,0.1,34.5,0.1z
			 M32.2,14.6h-26C5.5,14.6,5,14,5,13.4c0-0.7,0.5-1.2,1.2-1.2h26c0.7,0,1.2,0.5,1.2,1.2C33.4,14,32.8,14.6,32.2,14.6z M33.4,6
			c0,0.7-0.5,1.2-1.2,1.2C31.5,7.2,31,6.6,31,6V5.5c0-0.7,0.5-1.2,1.2-1.2c0.7,0,1.2,0.5,1.2,1.2V6z"/>
	</g>
</g>
</svg>
