<?xml version="1.0" encoding="utf-8"?>
<!-- Generator: Adobe Illustrator 24.0.3, SVG Export Plug-In . SVG Version: 6.00 Build 0)  -->
<svg version="1.1" id="Layer_1" xmlns="http://www.w3.org/2000/svg" xmlns:xlink="http://www.w3.org/1999/xlink" x="0px" y="0px"
	 viewBox="0 0 50 45.4" style="enable-background:new 0 0 50 45.4;" xml:space="preserve">
<g>
	<g>
		<g>
			<g>
				<g>
					<g>
						<path fill="#fff" d="M32.5,35.6v1.6c0,0.3-0.3,0.8-0.8,0.8h-5c-0.3,0-0.8-0.3-0.8-0.8v-1.6H32.5z"/>
					</g>
					<g>
						<path fill="#fff" d="M13,35.6v1.6c0,0.3-0.3,0.8-0.8,0.8h-5c-0.3,0-0.8-0.3-0.8-0.8v-1.6H13z"/>
					</g>
				</g>
			</g>
		</g>
	</g>
	<g>
		<g>
			<path fill="#fff" d="M49.7,26.6v6c0,0.3-0.3,0.8-0.8,0.8h-3.2c-0.3,0-0.8-0.3-0.8-0.8v-3.7H43V30c0,0.3-0.3,0.8-0.8,0.8h-2.1v4.7
				c0,0.3-0.3,0.8-0.8,0.8c-0.3,0-0.8-0.3-0.8-0.8V7.1c0-0.3,0.3-0.8,0.8-0.8c0.3,0,0.8,0.3,0.8,0.8v11.1h2.1c0.3,0,0.8,0.3,0.8,0.8
				s-0.3,0.8-0.8,0.8h-2.1v2.4h2.1c0.3,0,0.8,0.3,0.8,0.8v1.1h4.2C48.6,24.2,49.7,25.2,49.7,26.6z"/>
		</g>
	</g>
	<g>
		<g>
			<path fill="#fff" d="M24.6,25.3c-0.3,0.3-0.8,0.3-1.1,0s-0.3-0.8,0-1.1l1.3-1.3c-0.3-0.2-0.6-0.2-1.1-0.2c-0.6,0-1.3,0.2-1.8,0.6
				c-1,1-1,2.4,0,3.4c1.6,1.6,4,0.5,4-1.8c0-0.3,0-0.8-0.2-1.1L24.6,25.3z"/>
		</g>
		<g>
			<path fill="#fff" d="M4,8.4C2,8.4,0.3,10,0.3,12.1v18.4c0,1.9,1.6,3.7,3.7,3.7h33.2V8.4H4z M10.4,26.1c-1.8,0-3.2-1.5-3.2-3.2
				c0-1.5,2.1-5.3,2.6-6c0.2-0.5,1.1-0.5,1.3,0c0.5,0.6,2.6,4.5,2.6,6C13.6,24.7,12.2,26.1,10.4,26.1z M20.9,27.9
				c-2.4-2.4-0.6-6.6,2.7-6.6c2.1,0,3.9,1.8,3.9,3.9C27.7,28.6,23.3,30.3,20.9,27.9z M31.5,29h-0.8c-0.3,0-0.8-0.3-0.8-0.8
				c0-0.3,0.3-0.8,0.8-0.8h0.8c0.3,0,0.8,0.3,0.8,0.8C32.2,28.7,31.8,29,31.5,29z M31.5,26.3h-0.8c-0.3,0-0.8-0.3-0.8-0.8
				c0-0.3,0.3-0.8,0.8-0.8h0.8c0.3,0,0.8,0.3,0.8,0.8C32.2,26,31.8,26.3,31.5,26.3z M31.5,23.7h-0.8c-0.3,0-0.8-0.3-0.8-0.8
				c0-0.3,0.3-0.8,0.8-0.8h0.8c0.3,0,0.8,0.3,0.8,0.8C32.2,23.2,31.8,23.7,31.5,23.7z M33.3,18.2c0,0.3-0.3,0.8-0.8,0.8H19.6
				c-0.3,0-0.8-0.3-0.8-0.8v-4c0-0.3,0.3-0.8,0.8-0.8h12.9c0.3,0,0.8,0.3,0.8,0.8V18.2z"/>
		</g>
	</g>
</g>
</svg>
