<?xml version="1.0" encoding="utf-8"?>
<!-- Generator: Adobe Illustrator 24.0.3, SVG Export Plug-In . SVG Version: 6.00 Build 0)  -->
<svg version="1.1" id="Layer_1" xmlns="http://www.w3.org/2000/svg" xmlns:xlink="http://www.w3.org/1999/xlink" x="0px" y="0px"
	 viewBox="0 0 50.8 44.9" style="enable-background:new 0 0 50.8 44.9;" xml:space="preserve">
<g>
	<path d="M8.9,31c1.2,1.7,3.6,2.2,5.3,1c1.3-0.9,4.8-4.4,6.2-6.9c1.4,2.5,5,6.1,6.2,6.9c1.7,1.2,4.1,0.7,5.3-1
		c1.2-1.7,0.7-4.1-1-5.3c-1.2-0.8-5.6-2.8-8.5-3.2c1.1-2.7,1.8-6.7,1.8-8.1c0-2.1-1.7-3.8-3.8-3.8s-3.8,1.7-3.8,3.8
		c0,1.4,0.7,5.4,1.8,8.1c-2.9,0.5-7.3,2.4-8.5,3.2C8.2,26.9,7.7,29.3,8.9,31z"/>
	<path d="M20.4,39.9c-8.9,0-16.1-7.2-16.1-16.1S11.6,7.7,20.4,7.7c1.4,0,2.9,0.2,4.2,0.6l2-3.5c-1.9-0.6-4-1-6.2-1
		c-11,0-20,8.9-20,20c0,11,8.9,20,20,20c9.7,0,17.8-6.9,19.6-16.1h-4C34.3,34.7,28,39.9,20.4,39.9z"/>
	<polygon points="49.5,13.5 45.3,14.9 41.8,13 45.3,11 49.5,12.4 50.4,9.8 48.5,9.2 50.2,8.2 48.9,5.8 47.1,6.8 47.5,4.8 44.8,4.2 
		43.9,8.6 40.4,10.6 40.4,6.4 43.8,3.5 41.9,1.4 40.4,2.7 40.4,0.7 37.7,0.7 37.7,2.7 36.2,1.4 34.3,3.5 37.7,6.4 37.7,10.6 
		34.2,8.6 33.3,4.2 30.6,4.8 31,6.8 29.3,5.8 27.9,8.2 29.6,9.2 27.7,9.8 28.6,12.4 32.8,11 36.3,13 32.8,14.9 28.6,13.5 27.7,16.1 
		29.6,16.8 27.9,17.8 29.3,20.2 31,19.2 30.6,21.2 33.3,21.7 34.2,17.3 37.7,15.4 37.7,19.2 34.3,22.2 36.2,24.2 37.7,22.9 
		37.7,24.9 40.4,24.9 40.4,22.9 41.9,24.2 43.8,22.2 40.4,19.2 40.4,15.4 43.9,17.3 44.8,21.7 47.5,21.2 47.1,19.2 48.9,20.2 
		50.2,17.8 48.5,16.8 50.4,16.1 	"/>
	<polygon points="27.7,16.1 27.7,16.1 27.7,16.1 	"/>
</g>
</svg>
