<?xml version="1.0" encoding="utf-8"?>
<!-- Generator: Adobe Illustrator 24.0.3, SVG Export Plug-In . SVG Version: 6.00 Build 0)  -->
<svg version="1.1" id="Layer_1" xmlns="http://www.w3.org/2000/svg" xmlns:xlink="http://www.w3.org/1999/xlink" x="0px" y="0px"
	 viewBox="0 0 46.5 45.4" style="enable-background:new 0 0 46.5 45.4;" xml:space="preserve">
<g>
	<g>
		<g>
			<path d="M15.2,15.8h6.5l4.5,4.5c0.3,0.3,0.7,0.3,1.1,0c0.3-0.3,0.3-0.7,0-1.1l-3.4-3.4h3.3c0.4,0,0.7-0.3,0.7-0.7
				c0-0.4-0.3-0.7-0.7-0.7h-3.3l3.4-3.4c0.3-0.3,0.3-0.7,0-1.1c-0.3-0.3-0.7-0.3-1.1,0l-4.5,4.5h-5.9L22,8.2c0.3-0.3,0.3-0.7,0-1.1
				c-0.3-0.3-0.7-0.3-1.1,0l-6.1,6.1V7.5l4.4-4.4c0.3-0.3,0.3-0.7,0-1.1c-0.3-0.3-0.7-0.3-1.1,0l-3.4,3.4V2c0-0.4-0.3-0.7-0.7-0.7
				c-0.4,0-0.7,0.3-0.7,0.7v3.3L9.9,2C9.5,1.7,9.1,1.7,8.8,2c-0.3,0.3-0.3,0.7,0,1.1l4.5,4.4V14L6.5,7.2c-0.3-0.3-0.7-0.3-1.1,0
				C5.1,7.6,5.1,8,5.5,8.3l6.1,6.1H6.4L1.9,9.9c-0.2-0.3-0.7-0.3-1,0c-0.2,0.3-0.3,0.7,0,1.1l3.3,3.4H1c-0.4,0-0.7,0.3-0.7,0.7
				s0.3,0.7,0.7,0.7h3.3l-3.4,3.3c-0.3,0.3-0.3,0.7,0,1.1s0.7,0.3,1.1,0l4.5-4.5h6l-6.7,6.7c-0.3,0.3-0.3,0.7,0,1.1
				C6,24,6.4,24,6.7,23.6l6.7-6.7v5.9L9,27.3c-0.3,0.3-0.3,0.7,0,1.1c0.3,0.3,0.7,0.3,1.1,0l3.4-3.4v3.3c0,0.4,0.3,0.7,0.7,0.7
				s0.7-0.3,0.7-0.7v-3.3l3.4,3.4c0.3,0.3,0.7,0.3,1.1,0c0.3-0.3,0.3-0.7,0-1.1L15,22.8v-5.2l6.1,6.1c0.3,0.3,0.7,0.3,1.1,0
				c0.3-0.3,0.3-0.7,0-1.1L15.2,15.8z"/>
		</g>
		<g>
			<path d="M11.1,32.5c-0.2-0.3-0.6-0.5-1.1-0.3l-3.7,2v-3.9c0-0.4-0.3-0.7-0.7-0.7S4.9,30,4.9,30.4v3.9l-3.7-2
				c-0.3-0.2-0.7-0.1-1.1,0.3c-0.2,0.3-0.1,0.7,0.3,1.1l3.6,2l-3.6,2c-0.3,0.2-0.5,0.6-0.3,1.1s0.6,0.5,1.1,0.3l3.7-2v3.9
				c0,0.4,0.3,0.7,0.7,0.7s0.7-0.3,0.7-0.7V37l3.7,1.9c0.3,0.2,0.7,0.1,1.1-0.3c0.3-0.4,0.1-0.7-0.3-1.1l-3.7-2.1l3.6-2
				C11.2,33.3,11.2,32.8,11.1,32.5z"/>
		</g>
	</g>
	<g>
		<path d="M42.6,23.5h1.6c0.4,0,0.7-0.3,0.7-0.7c0-0.4-0.3-0.7-0.7-0.7h-1.6c-0.4,0-0.7,0.3-0.7,0.7C41.9,23.2,42.2,23.5,42.6,23.5z
			"/>
	</g>
	<g>
		<path d="M42.6,19.9h1.6c0.4,0,0.7-0.3,0.7-0.7c0-0.4-0.3-0.7-0.7-0.7h-1.6c-0.4,0-0.7,0.3-0.7,0.7C41.9,19.6,42.2,19.9,42.6,19.9z
			"/>
	</g>
	<g>
		<path d="M42.6,16.4h2.1c0.4,0,0.7-0.3,0.7-0.7s-0.3-0.7-0.7-0.7h-2.1c-0.4,0-0.7,0.3-0.7,0.7C41.9,16,42.2,16.4,42.6,16.4z"/>
	</g>
	<g>
		<path d="M42.6,12.7h1.6c0.4,0,0.7-0.3,0.7-0.7s-0.3-0.7-0.7-0.7h-1.6c-0.4,0-0.7,0.3-0.7,0.7C41.9,12.3,42.2,12.7,42.6,12.7z"/>
	</g>
	<g>
		<path d="M42.6,9.1h1.6c0.4,0,0.7-0.3,0.7-0.7c0-0.4-0.3-0.7-0.7-0.7h-1.6c-0.4,0-0.7,0.3-0.7,0.7C41.9,8.7,42.2,9.1,42.6,9.1z"/>
	</g>
	<g>
		<path d="M42.6,5.5h2.1c0.4,0,0.7-0.3,0.7-0.7S45.2,4,44.8,4h-2.1c-0.4,0-0.7,0.3-0.7,0.7C41.9,5.2,42.2,5.5,42.6,5.5z"/>
	</g>
	<g>
		<g>
			<path d="M36.3,30.2c-2.8,0-5,2.2-5,5c0,2.8,2.2,5,5,5s5-2.2,5-5C41.2,32.3,39,30.2,36.3,30.2z"/>
		</g>
		<g>
			<path d="M40.2,25.7V4.1c0-2.1-1.7-4-4-4c-2.1,0-4,1.7-4,4v21.5c-3.7,1.6-6.3,5.4-6.3,9.4c0,5.6,4.6,10.2,10.2,10.2
				s10.2-4.6,10.2-10.2C46.5,31,44,27.3,40.2,25.7z M36.3,41.5c-3.5,0-6.5-2.9-6.5-6.5c0-3.3,2.5-6.1,5.8-6.4V10.2
				c0-0.4,0.3-0.7,0.7-0.7s0.7,0.3,0.7,0.7v18.5c3.2,0.3,5.8,3.1,5.8,6.4C42.7,38.6,39.8,41.5,36.3,41.5z"/>
		</g>
	</g>
</g>
</svg>
