<?xml version="1.0" encoding="utf-8"?>
<!-- Generator: Adobe Illustrator 24.0.3, SVG Export Plug-In . SVG Version: 6.00 Build 0)  -->
<svg version="1.1" id="Layer_1" xmlns="http://www.w3.org/2000/svg" xmlns:xlink="http://www.w3.org/1999/xlink" x="0px" y="0px"
	 viewBox="0 0 33.3 45.4" style="enable-background:new 0 0 33.3 45.4;" xml:space="preserve">
<g>
	<rect fill="#fff" x="0.3" y="16.5" width="1.5" height="1.5"/>
	<rect fill="#fff" x="7.7" y="16.5" width="1.5" height="1.5"/>
	<rect fill="#fff" x="7.7" y="40" width="1.5" height="1.5"/>
	<path fill="#fff" d="M12.1,45.3c1.2,0,2.2-1.2,2.2-2.7V15.7c0-1.5-1-2.7-2.2-2.7s-2.2,1.2-2.2,2.7v26.9C9.9,44.1,10.9,45.3,12.1,45.3z"/>
	<path fill="#fff" d="M32.8,42.2c0.2,0,0.3-0.2,0.3-0.3v-2c0-0.2-0.2-0.3-0.3-0.3c-0.2,0-0.3,0.2-0.3,0.3v1.9C32.4,41.9,32.5,42.2,32.8,42.2z"/>
	<rect fill="#fff" x="0.3" y="40" width="1.5" height="1.5"/>
	<rect fill="#fff" x="15" y="40" width="1.5" height="1.5"/>
	<path fill="#fff" d="M4.7,45.3c1.2,0,2.2-1.2,2.2-2.7V15.7c0-1.5-1-2.7-2.2-2.7s-2.2,1.2-2.2,2.7v26.9C2.6,44.1,3.6,45.3,4.7,45.3z"/>
	<path fill="#fff" d="M26.7,45.3c1.2,0,2.2-1.2,2.2-2.7V15.7c0-1.5-1-2.7-2.2-2.7s-2.2,1.2-2.2,2.7v26.9C24.6,44.1,25.5,45.3,26.7,45.3z"/>
	<rect fill="#fff" x="29.6" y="40" width="1.9" height="1.5"/>
	<path fill="#fff" d="M32.8,18.7c0.2,0,0.3-0.2,0.3-0.3v-1.9c0-0.2-0.2-0.3-0.3-0.3c-0.2,0-0.3,0.2-0.3,0.3v1.9C32.4,18.6,32.5,18.7,32.8,18.7z"
		/>
	<rect fill="#fff" x="29.6" y="16.5" width="1.9" height="1.5"/>
	<path fill="#fff" d="M19.4,45.3c1.2,0,2.2-1.2,2.2-2.7V15.7c0-1.5-1-2.7-2.2-2.7c-1.2,0-2.2,1.2-2.2,2.7v26.9C17.2,44.1,18.2,45.3,19.4,45.3z"
		/>
	<rect fill="#fff" x="22.3" y="16.5" width="1.5" height="1.5"/>
	<rect fill="#fff" x="15" y="16.5" width="1.5" height="1.5"/>
	<rect fill="#fff" x="22.3" y="40" width="1.5" height="1.5"/>
	<path fill="#fff" d="M9.5,11.5c0.1,0.1,0.2,0.1,0.2,0.1c0.1,0,0.2,0,0.2-0.1c0.6-0.6,1.3-1.8,1-3.6c0-0.2-0.1-0.5-0.2-0.8c0-0.5-0.3-1-0.5-1.4
		C9.9,5.4,9.7,5.2,9.5,5C9.2,4.7,8.8,4.1,8.7,3.4c0-0.8,0.3-1.6,1.2-2.6c0.1-0.1,0.1-0.4,0-0.5s-0.4-0.1-0.5,0
		C8.4,1.3,8,2.4,8.1,3.4c0.1,0.9,0.5,1.6,0.9,2c0.2,0.2,0.3,0.4,0.5,0.6c0.3,0.4,0.4,0.8,0.6,1.2c0,0.2,0.1,0.4,0.1,0.6
		c0.2,1.2,0,2.2-0.8,2.9C9.3,11,9.3,11.2,9.5,11.5z"/>
	<path fill="#fff" d="M14.7,11.5c0.1,0.1,0.2,0.1,0.2,0.1c0.1,0,0.2,0,0.2-0.1c0.6-0.6,1.3-1.8,1-3.6c0-0.2-0.1-0.5-0.2-0.8
		c-0.1-0.4-0.3-0.9-0.6-1.3c-0.2-0.2-0.3-0.5-0.5-0.8c-0.3-0.3-0.6-0.9-0.8-1.6c-0.1-0.9,0.3-1.7,1.1-2.6c0.1-0.1,0.1-0.4,0-0.5
		s-0.4-0.1-0.5,0c-1,1.1-1.4,2.2-1.3,3.1c0.1,0.9,0.5,1.6,0.9,2c0.2,0.2,0.3,0.4,0.5,0.6c0.3,0.4,0.4,0.8,0.6,1.2
		c0.1,0.2,0.1,0.4,0.2,0.6c0.2,1.2,0,2.2-0.8,2.9C14.5,11,14.5,11.2,14.7,11.5z"/>
	<path fill="#fff" d="M19.9,11.3c0.1,0.1,0.2,0.1,0.2,0.1c0.1,0,0.2,0,0.2-0.1c0.6-0.6,1.3-1.8,1-3.6c0-0.2-0.1-0.5-0.2-0.8
		c-0.1-0.4-0.3-0.9-0.6-1.3c-0.2-0.2-0.3-0.5-0.5-0.8c-0.3-0.3-0.6-0.9-0.8-1.6c-0.1-0.9,0.3-1.7,1.1-2.6c0.1-0.1,0.1-0.4,0-0.5
		s-0.4-0.1-0.5,0c-1,1.1-1.4,2.2-1.3,3.1c0.1,0.9,0.5,1.6,0.9,2c0.2,0.2,0.3,0.4,0.5,0.6c0.3,0.4,0.4,0.8,0.6,1.2
		c0.1,0.2,0.2,0.4,0.2,0.6c0.2,1.2,0,2.2-0.8,2.9C19.8,11,19.8,11.2,19.9,11.3z"/>
</g>
</svg>
