<?xml version="1.0" encoding="utf-8"?>
<!-- Generator: Adobe Illustrator 24.0.3, SVG Export Plug-In . SVG Version: 6.00 Build 0)  -->
<svg version="1.1" id="Layer_1" xmlns="http://www.w3.org/2000/svg" xmlns:xlink="http://www.w3.org/1999/xlink" x="0px" y="0px"
	 viewBox="0 0 44.5 45.4" style="enable-background:new 0 0 44.5 45.4;" xml:space="preserve">
<g>
	<path fill="#fff" d="M5.4,43.4c-0.6,0-1,0.4-1,1c0,0.4,0.4,0.8,1,0.8s1-0.4,1-0.8v-0.2C6.5,43.6,6.1,43.4,5.4,43.4z"/>
	<path fill="#fff" d="M39.1,43.4c-0.4,0-0.8,0.4-0.8,1c0,0.4,0.4,0.8,0.8,0.8c0.6,0,1-0.4,1-0.8v-0.2C40.1,43.6,39.7,43.4,39.1,43.4z"/>
	<g>
		<path fill="#fff" d="M40.7,12.9H4c-2,0-3.8,1.6-3.8,3.8V39c0.1,1.9,1.7,3.6,3.8,3.6h36.5c2,0,3.8-1.6,3.8-3.8V16.4
			C44.4,14.5,42.7,12.9,40.7,12.9z M9.5,37.6H7.1v-1.8h2.4V37.6z M9.5,34.5H7.1v-1.8h2.4V34.5z M8.3,29.7c-1.4,0-2.6-1.2-2.6-2.6
			c0-1.6,1.2-2.8,2.6-2.8c1.6,0,2.8,1.2,2.8,2.8C11.2,28.5,9.9,29.7,8.3,29.7z M8.3,22.7c-1.4,0-2.6-1.2-2.6-2.8
			c0-1.4,1.2-2.6,2.6-2.6c1.6,0,2.8,1.2,2.8,2.6C11.2,21.5,9.9,22.7,8.3,22.7z M38.9,35.5c0,1.4-1.2,2.8-2.8,2.8
			c-1.4,0-2.4-1-2.6-2.2l0,0v-0.6v-1V19.9c0-0.6-0.4-1-1-1c-0.6,0-1,0.4-1,1v1v14.6c0,1.4-1.2,2.8-2.6,2.8c-1.4,0-2.4-1-2.6-2.2l0,0
			v-0.6v-1V19.9c0-0.6-0.4-1-0.8-1s-0.8,0.4-0.8,1v1v14.6c0,1.4-1.2,2.8-2.8,2.8c-1.2,0-2.4-1-2.6-2.2l0,0v-0.6v-1V19.9
			c0-0.6-0.4-1-1-1s-1.2,0.6-1.2,1v1v15.4h-1.8V20.9v-1v-0.4l0,0c0.2-1.2,1.4-2.2,2.6-2.2c1.6,0,2.8,1.2,2.8,2.8v14.4v0.8
			c0,0.4,0.4,0.8,0.8,0.8c0.6,0,1-0.4,1-0.8V20.7v-0.8v-0.4l0,0c0.2-1.2,1.4-2.2,2.6-2.2c1.6,0,2.8,1.2,2.8,2.8v14.4v0.8
			c0,0.4,0.4,0.8,1,0.8c0.4,0,0.8-0.4,0.8-0.8V20.7v-0.8v-0.4l0,0c0.2-1.2,1.4-2.2,2.6-2.2c1.4,0,2.8,1.2,2.8,2.8v14.4v0.8
			c0,0.4,0.4,0.8,1,0.8c0.6,0,1-0.4,1-0.8V19.5h1.8V35.5z"/>
	</g>
	<path fill="#fff" d="M13.9,6.9L13.9,6.9c1,1,1,2.6,0,3.8c-0.4,0.4-0.4,1,0,1.2c0.2,0.2,0.4,0.4,0.6,0.4c0.2,0,0.4,0,0.6-0.2
		c1.8-1.8,1.8-4.6,0-6.4l0,0c-1-1-1-2.6,0-3.8c0.4-0.4,0.4-0.8,0-1.2c-0.4-0.6-0.8-0.6-1.2-0.2C12.1,2.1,12.1,5,13.9,6.9L13.9,6.9z"
		/>
	<path fill="#fff" d="M21.7,6.9L21.7,6.9c1,1,1,2.6,0,3.8c-0.4,0.4-0.4,1,0,1.2c0.2,0.2,0.4,0.2,0.6,0.2s0.4,0,0.6-0.2c1.8-1.8,1.8-4.6,0-6.4
		l0,0c-1-1-1-2.6,0-3.8c0.4-0.4,0.4-0.8,0-1.2s-1-0.4-1.2,0C19.9,2.1,19.9,5,21.7,6.9L21.7,6.9z"/>
	<path fill="#fff" d="M29.5,6.9L29.5,6.9c1,1,1,2.6,0,3.8c-0.4,0.4-0.4,1,0,1.2c0.2,0.2,0.4,0.2,0.6,0.2s0.4,0,0.6-0.2c1.8-1.8,1.8-4.6,0-6.4
		l0,0c-1-1-1-2.6,0-3.8c0.4-0.4,0.4-0.8,0-1.2s-1-0.4-1.2,0C27.7,2.1,27.7,5,29.5,6.9L29.5,6.9z"/>
</g>
</svg>
