<svg height="457pt" viewBox="0 0 457 457.03571" width="457pt" xmlns="http://www.w3.org/2000/svg"><path fill="#777" d="m443.339844 377.011719-100.179688-100.179688c41.078125-70.519531 31.644532-162.59375-28.71875-222.953125-71.828125-71.84375-188.71875-71.835937-260.546875 0-71.835937 71.835938-71.835937 188.714844 0 260.550782 35.914063 35.917968 83.09375 53.875 130.277344 53.875 32.105469 0 64.121094-8.523438 92.675781-25.15625l100.179688 100.175781c9.144531 9.140625 21.148437 13.710937 33.15625 13.710937 12.007812 0 24.019531-4.570312 33.15625-13.710937 18.277344-18.28125 18.277344-48.03125 0-66.3125zm-376.515625-75.511719c-64.707031-64.707031-64.707031-169.988281 0-234.691406 32.351562-32.351563 74.847656-48.527344 117.34375-48.527344 42.5 0 84.992187 16.175781 117.347656 48.527344 64.703125 64.703125 64.703125 169.984375 0 234.691406-64.710937 64.695312-169.992187 64.707031-234.691406 0zm363.585937 128.898438c-11.148437 11.152343-29.300781 11.140624-40.453125 0l-97.476562-97.476563c7.648437-5.570313 15.066406-11.597656 21.960937-18.492187 6.898438-6.898438 12.921875-14.316407 18.496094-21.960938l97.472656 97.472656c11.148438 11.152344 11.148438 29.304688 0 40.457032zm0 0"/><path fill="#777" d="m110.648438 97.707031c-3.570313-3.574219-9.355469-3.574219-12.929688 0-47.667969 47.667969-47.667969 125.226563 0 172.894531 1.785156 1.785157 4.125 2.679688 6.464844 2.679688s4.679687-.894531 6.464844-2.679688c3.570312-3.570312 3.570312-9.355468 0-12.925781-40.539063-40.542969-40.539063-106.5 0-147.042969 3.570312-3.570312 3.570312-9.355468 0-12.925781zm0 0"/></svg>